<svg data-name="Layer 1" xmlns="http://www.w3.org/2000/svg" viewBox="0 0 72.25 34.23">
  <path d="M3.11 26.41 1 31.87h.82l.42-1.16h2.32l.43 1.16h.87l-2.09-5.46h-.65Zm-.62 3.63.91-2.49.91 2.49H2.48ZM7.34 28.62v-.65h-.71v3.9h.71v-2.61c.24-.42.53-.65.93-.65.15 0 .25.02.37.08l.13-.76c-.15-.03-.26-.05-.42-.05-.42 0-.77.32-1.01.74ZM10.87 27.88c-.54 0-1.13.17-1.54.37l.21.59c.31-.17.79-.34 1.24-.34.64 0 .92.34.92.94v.14c-.33-.07-.58-.09-.78-.09-.86 0-1.74.3-1.74 1.29 0 .83.66 1.19 1.38 1.19.5 0 .85-.15 1.17-.51v.41h.68V29.5c0-1.01-.41-1.62-1.54-1.62Zm.83 3.03c-.31.26-.65.47-1.05.47s-.77-.17-.77-.65c0-.58.64-.7 1.12-.7.19 0 .41.02.7.08v.8ZM15.62 27.88c-.47 0-.96.21-1.24.62v-2.47h-.71v5.85h.71v-.42c.31.32.76.51 1.22.51 1.19 0 1.96-1.01 1.96-2.04 0-1.15-.83-2.05-1.95-2.05Zm-.11 3.43c-.41 0-.87-.21-1.13-.59v-1.44c.19-.48.73-.74 1.15-.74.81 0 1.32.65 1.32 1.38 0 .67-.43 1.4-1.33 1.4ZM23.35 29.52h1.39v1.21c-.38.37-.91.57-1.49.57-1.25 0-2.14-.83-2.14-2.15 0-1.25.9-2.15 2.14-2.15.62 0 1.2.3 1.58.73l.53-.44a2.81 2.81 0 0 0-2.11-.97c-1.61 0-2.93 1.21-2.93 2.82 0 1.69 1.26 2.82 2.93 2.82.9 0 1.72-.38 2.24-1.04v-2.07h-2.14v.67ZM27.48 28.62v-.65h-.71v3.9h.71v-2.61c.24-.42.53-.65.93-.65.15 0 .25.02.37.08l.13-.76c-.15-.03-.26-.05-.42-.05-.42 0-.77.32-1.01.74ZM31.22 27.88c-1.14 0-1.99.9-1.99 2.04s.85 2.04 1.99 2.04 1.99-.9 1.99-2.04-.85-2.04-1.99-2.04Zm0 3.43c-.73 0-1.26-.63-1.26-1.39s.53-1.39 1.26-1.39 1.26.63 1.26 1.39-.53 1.39-1.26 1.39ZM36.89 30.56c-.28.44-.71.75-1.16.75-.34 0-.55-.12-.68-.31-.19-.28-.2-.69-.2-1.08v-1.95h-.71V30c0 .59.09 1.12.35 1.47.23.3.58.49 1.13.49s.98-.27 1.27-.73v.64h.71v-3.9h-.71v2.59ZM40.89 27.88c-.52 0-.98.27-1.27.73v-.64h-.71v3.9h.71v-2.59c.28-.44.71-.75 1.16-.75.34 0 .55.12.68.31.19.28.2.69.2 1.08v1.95h.71v-2.03c0-.59-.09-1.12-.35-1.47-.23-.3-.58-.49-1.13-.49ZM46.5 28.4c-.31-.32-.77-.52-1.22-.52-1.19 0-1.96 1.01-1.96 2.04 0 1.14.83 2.04 1.95 2.04.47 0 .96-.2 1.24-.62v.52h.71v-5.85h-.71v2.38Zm0 2.18c-.2.48-.73.73-1.15.73-.81 0-1.32-.66-1.32-1.37 0-.68.43-1.4 1.33-1.4.4 0 .86.21 1.13.59v1.45ZM54.75 30.53h-.02l-1.09-4.12h-.7l-1.15 4.12h-.01l-1.09-4.12h-.83l1.5 5.46h.73l1.18-4.16h.02l1.09 4.16h.75l1.56-5.46h-.8l-1.14 4.12zM58.64 27.88c-.54 0-1.13.17-1.54.37l.21.59c.31-.17.79-.34 1.24-.34.64 0 .92.34.92.94v.14c-.33-.07-.58-.09-.78-.09-.86 0-1.74.3-1.74 1.29 0 .83.66 1.19 1.38 1.19.5 0 .85-.15 1.17-.51v.41h.68V29.5c0-1.01-.41-1.62-1.54-1.62Zm.83 3.03c-.31.26-.65.47-1.05.47s-.77-.17-.77-.65c0-.58.64-.7 1.12-.7.19 0 .41.02.7.08v.8ZM62.75 31.32c-.39 0-.52-.24-.55-.66V28.6h1.09v-.62H62.2v-.94h-.71v.94h-.52v.62h.52v1.93c0 .3.03.59.12.81.16.37.5.61 1.04.61.26 0 .53-.07.72-.17l-.2-.57c-.12.06-.28.11-.44.11ZM65.75 27.88c-1.08 0-1.93.88-1.93 2.04s.69 2.04 1.93 2.04c.79 0 1.32-.29 1.71-.91l-.51-.33c-.23.44-.65.63-1.16.63-.75 0-1.21-.58-1.26-1.25h2.97c.02-.1.03-.27.03-.41 0-1.04-.75-1.82-1.78-1.82Zm-1.17 1.65c.14-.58.55-1.04 1.18-1.04.58 0 1.01.49 1.04 1.04h-2.21ZM70.23 27.88c-.42 0-.77.32-1.01.74v-.65h-.71v3.9h.71v-2.61c.24-.42.53-.65.93-.65.15 0 .25.02.37.08l.13-.76c-.15-.03-.26-.05-.42-.05ZM6.79 17.49h1.86l-.92-2.6-.94 2.6z" fill="#31335d"/>
  <path d="M35.33 9.51H1v13.75h34.33V9.51ZM9.73 20.5l-.56-1.58H6.26l-.57 1.58H3.87l3.28-8.24H8.5l.03.08 3.09 8.16H9.73Zm10.67-1.53-.03.03c-.81 1.05-2.05 1.64-3.5 1.64-2.55 0-4.39-1.79-4.39-4.26s1.93-4.26 4.39-4.26c1.31 0 2.47.54 3.35 1.55l.08.1-1.18 1.01-.08-.09c-.6-.69-1.37-1.06-2.17-1.06-1.51 0-2.65 1.19-2.65 2.76 0 1.65 1.06 2.76 2.65 2.76.69 0 1.36-.26 1.86-.71v-1.25h-1.97v-1.46h3.64v3.24Zm11.88-6.55-2.31 8.08h-1.59l-.03-.09-1.4-5.2-1.51 5.29h-1.55l-2.28-8.24h1.83l1.34 5.17 1.44-5.17h1.51l.03.09 1.35 5.08 1.41-5.17h1.8l-.05.16h.01Z" fill="#31335d"/>
</svg>
