<?xml version="1.0" encoding="utf-8"?>
<svg version="1.1" id="Layer_1" xmlns="http://www.w3.org/2000/svg" xmlns:xlink="http://www.w3.org/1999/xlink" x="0px" y="0px"
	 viewBox="0 0 90 150" style="enable-background:new 0 0 90 150;" xml:space="preserve">
<style type="text/css">
	.st0{fill:#FFFFFF;}
</style>
<g>
	<path class="st0" d="M56.73,72.59c-0.5,0.57-1.14,1.1-1.75,1.59c-3.93-4.06-8.54-8.56-12.92-8.56c-2.72,0-4.68,2.07-6.96,3.53
		c-3.17,2.02-7.51,3.17-11.24,1.68c-2-0.76-3.94-1.88-5.39-3.7c2.93,2.02,7.32,2.29,10.63,0.92c3.66-1.52,7.38-3.53,11.55-3.53
		C46.79,64.52,52.63,68.67,56.73,72.59z M11.31,59.82c4.07,4.63,10.7,3.14,16.14,4.3c0.76,0.16,1.47,0.41,2.28,0.29
		c-0.65-0.41-1.5-0.46-2.25-0.74c-4.21-1.59-4.87-6.1-7.18-9.2c2.94,1.96,5.39,4.64,8.14,7.16c1.92,1.76,4.3,2.5,6.78,3.01
		c-0.6,0.22-1.37,0.17-2.01,0.33c-4.45,1.11-9.38,2.85-14.12,1.28C16.04,65.24,12.86,62.85,11.31,59.82z M4.79,49.1
		c2.54,5.75,8.92,6.2,13.15,9.72c0.81,0.67,1.61,1.29,2.49,1.7l0.05-0.05c-0.98-0.89-2.04-1.94-2.8-3.04
		c-2.42-3.52-1.62-8.33-3.49-12.07c1.7,2.03,3.29,4.12,4.27,6.45c1.57,3.75,2.11,8.02,5.64,10.86c-3.82-1.26-8.22-1.01-11.66-3.26
		C8.83,57.06,5.48,53.32,4.79,49.1z M2.07,37.48c0.37,5.06,5.75,7.77,8.33,11.93c0.55,0.89,1.11,1.81,1.91,2.52
		c-0.12-0.54-0.57-1.02-0.81-1.55c-0.82-1.79-1.2-3.85-0.99-5.98c0.25-2.58,1.33-4.99,0.92-7.71c2.21,4.78,1.5,10.76,2.78,15.93
		c0.28,1.15,0.98,2.15,1.41,3.23c-2.18-1.66-5.03-3.13-7.42-5.01c-2.31-1.82-4.31-3.96-5.36-6.73C2.08,42.12,1.89,39.73,2.07,37.48z
		 M2.22,28.15c0.26-1.13,0.46-2.3,0.95-3.34c-0.93,4.77,2.25,8.22,3.33,12.36c0.41,1.56,0.55,3.21,1.18,4.66l0.15-0.08
		c-1.57-4.4,0.73-8.46,2.97-11.93c0.59-0.91,0.87-1.97,1.15-3.05c0.24,1.99-0.18,4.3-0.55,6.35c-0.47,2.64-1.38,5.12-2.1,7.67
		c-0.47,1.59-0.35,3.39-0.11,5.06l-0.23-0.18c-1.67-3.08-4.95-5.48-5.95-8.84C2.22,34.17,1.67,31.07,2.22,28.15z M3.98,23.01
		c0-3.61,1.41-6.56,3.52-9.25l0.18-0.08c-2.32,3.54-0.21,8-0.51,12.01L6.87,29.8c0.05,0.03,0.05,0.15,0.15,0.11
		c0.14-0.46,0.18-0.95,0.26-1.42c0.56-3.32,3.47-5.63,5.94-7.97c0.58-0.56,1.01-1.21,1.29-1.91c-0.21,1.65-0.67,3.35-1.41,4.85
		c-1.9,3.85-5.57,6.96-6.23,11.33C6.55,30.59,3.98,27.48,3.98,23.01z M10.1,10.82c1.17-1.3,2.48-2.31,4.04-2.7
		c-3.03,2.08-2.86,5.8-3.79,8.91c-0.34,1.14-0.84,2.2-1.1,3.38l0.08,0.06c0.5-1.33,1.37-2.61,2.49-3.67
		c2.13-2.01,5.33-3.22,6.38-6.16c-0.05,4.08-3.53,7.19-6.71,9.59c-1.43,1.08-2.64,2.52-3.38,4.04C8.24,23.14,8.3,22.2,8.2,21.1
		C7.87,17.53,7.66,13.53,10.1,10.82z M22.39,3.96c-2.25,1.97-3.75,4.51-5.47,6.79c-1.44,1.9-3.4,3.07-5.1,4.67
		c0.91-1.9,1.08-4.07,2.24-5.91C16.05,6.37,19.33,5.15,22.39,3.96z"/>
	<path class="st0" d="M33.52,72.59c0.5,0.57,1.14,1.1,1.75,1.59c3.93-4.06,8.54-8.56,12.92-8.56c2.72,0,4.67,2.07,6.96,3.53
		c3.17,2.02,7.52,3.17,11.24,1.68c2-0.76,3.94-1.88,5.4-3.7c-2.93,2.02-7.32,2.29-10.63,0.92c-3.66-1.52-7.38-3.53-11.55-3.53
		C43.45,64.52,37.61,68.67,33.52,72.59z M78.93,59.82c-4.07,4.63-10.7,3.14-16.13,4.3c-0.76,0.16-1.47,0.41-2.28,0.29
		c0.65-0.41,1.5-0.46,2.25-0.74c4.21-1.59,4.87-6.1,7.18-9.2c-2.95,1.96-5.39,4.64-8.14,7.16c-1.92,1.76-4.31,2.5-6.78,3.01
		c0.59,0.22,1.37,0.17,2.02,0.33c4.45,1.11,9.38,2.85,14.12,1.28C74.21,65.24,77.39,62.85,78.93,59.82z M85.46,49.1
		c-2.54,5.75-8.91,6.2-13.15,9.72c-0.81,0.67-1.61,1.29-2.49,1.7l-0.05-0.05c0.98-0.89,2.04-1.94,2.8-3.04
		c2.42-3.52,1.62-8.33,3.49-12.07c-1.7,2.03-3.29,4.12-4.27,6.45c-1.57,3.75-2.11,8.02-5.63,10.86c3.82-1.26,8.22-1.01,11.66-3.26
		C81.42,57.06,84.77,53.32,85.46,49.1z M88.18,37.48c-0.37,5.06-5.76,7.77-8.33,11.93c-0.55,0.89-1.11,1.81-1.91,2.52
		c0.12-0.54,0.57-1.02,0.81-1.55c0.82-1.79,1.2-3.85,0.99-5.98c-0.25-2.58-1.33-4.99-0.91-7.71c-2.21,4.78-1.5,10.76-2.78,15.93
		c-0.29,1.15-0.98,2.15-1.41,3.23c2.18-1.66,5.03-3.13,7.42-5.01c2.31-1.82,4.32-3.96,5.36-6.73
		C88.16,42.12,88.36,39.73,88.18,37.48z M88.02,28.15c-0.26-1.13-0.46-2.3-0.95-3.34c0.93,4.77-2.25,8.22-3.33,12.36
		c-0.41,1.56-0.55,3.21-1.18,4.66l-0.15-0.08c1.57-4.4-0.73-8.46-2.97-11.93c-0.59-0.91-0.87-1.97-1.15-3.05
		c-0.24,1.99,0.18,4.3,0.55,6.35c0.47,2.64,1.38,5.12,2.1,7.67c0.47,1.59,0.35,3.39,0.11,5.06l0.23-0.18
		c1.67-3.08,4.96-5.48,5.95-8.84C88.02,34.17,88.57,31.07,88.02,28.15z M86.27,23.01c0-3.61-1.41-6.56-3.52-9.25l-0.18-0.08
		c2.32,3.54,0.21,8,0.51,12.01l0.3,4.11c-0.04,0.03-0.04,0.15-0.15,0.11c-0.14-0.46-0.18-0.95-0.26-1.42
		c-0.56-3.32-3.47-5.63-5.94-7.97c-0.58-0.56-1.01-1.21-1.29-1.91c0.21,1.65,0.67,3.35,1.41,4.85c1.9,3.85,5.57,6.96,6.23,11.33
		C83.7,30.59,86.27,27.48,86.27,23.01z M80.14,10.82c-1.17-1.3-2.48-2.31-4.04-2.7c3.03,2.08,2.86,5.8,3.79,8.91
		c0.34,1.14,0.84,2.2,1.1,3.38l-0.08,0.06c-0.5-1.33-1.37-2.61-2.49-3.67c-2.13-2.01-5.33-3.22-6.38-6.16
		c0.05,4.08,3.53,7.19,6.71,9.59c1.43,1.08,2.64,2.52,3.38,4.04c-0.12-1.13-0.18-2.07-0.08-3.17
		C82.38,17.53,82.59,13.53,80.14,10.82z M67.85,3.96c2.25,1.97,3.75,4.51,5.47,6.79c1.44,1.9,3.41,3.07,5.1,4.67
		c-0.91-1.9-1.08-4.07-2.25-5.91C74.2,6.37,70.91,5.15,67.85,3.96z"/>
	<path class="st0" d="M72.56,44.78l-0.66-0.36c-1.41,2.9-3.27,5.54-5.5,7.82l-3.88-3.88c1.9-1.96,3.43-4.18,4.56-6.58l-0.66-0.36
		c-1.12,2.38-2.61,4.55-4.43,6.41l-3.51-3.51c1.51-1.57,2.7-3.36,3.57-5.29l-0.66-0.36c-0.85,1.9-2.01,3.64-3.44,5.12l-3.88-3.88
		c1.08-1.14,1.91-2.46,2.48-3.88l-0.66-0.36c-0.54,1.39-1.34,2.65-2.35,3.72l-3.52-3.52c1-1.12,1.59-2.52,1.67-4.03h4.99
		c-0.04,1.35-0.32,2.63-0.79,3.83l0.66,0.36c0.52-1.32,0.82-2.73,0.86-4.19h5.5c-0.05,2.43-0.59,4.73-1.52,6.83l0.66,0.36
		c1-2.24,1.55-4.67,1.6-7.19h4.98c-0.05,3.42-0.84,6.66-2.21,9.57l0.66,0.36c1.45-3.07,2.23-6.44,2.28-9.94h5.5
		c-0.06,4.5-1.11,8.76-2.96,12.57L72.56,44.78c1.99-4.09,3.04-8.61,3.04-13.3c0-3.98-0.76-7.85-2.21-11.43l-0.68,0.29
		c1.37,3.38,2.11,7.02,2.15,10.77h-5.5c-0.04-2.99-0.63-5.9-1.71-8.6l-0.68,0.29c1.04,2.62,1.61,5.42,1.65,8.31h-4.98
		c-0.04-2.2-0.47-4.34-1.25-6.34l-0.67,0.29c0.74,1.91,1.15,3.95,1.19,6.05h-5.5c-0.04-1.34-0.29-2.65-0.75-3.88L56,27.52
		c0.41,1.14,0.65,2.35,0.69,3.59H51.7c-0.08-1.5-0.67-2.91-1.67-4.03l3.53-3.52c1.09,1.16,1.91,2.5,2.44,3.96l0.67-0.29
		c-0.56-1.54-1.44-2.96-2.6-4.19l3.89-3.89c1.66,1.73,2.93,3.73,3.77,5.9l0.67-0.29c-0.88-2.26-2.19-4.34-3.92-6.14L62,15.12
		c2.18,2.25,3.85,4.86,4.98,7.69l0.68-0.29c-1.16-2.91-2.89-5.6-5.13-7.92l3.88-3.89c2.75,2.82,4.87,6.08,6.3,9.63l0.68-0.29
		c-1.51-3.74-3.77-7.18-6.72-10.12c-2.95-2.95-6.41-5.22-10.17-6.73l-0.27,0.69c3.56,1.43,6.83,3.55,9.65,6.31L62,14.08
		c-2.28-2.21-4.91-3.91-7.77-5.07l-0.27,0.68c2.77,1.12,5.32,2.78,7.52,4.91l-3.52,3.52c-1.71-1.64-3.68-2.92-5.82-3.8l-0.27,0.68
		c2.05,0.84,3.93,2.06,5.57,3.64l-3.89,3.89c-1.09-1.03-2.34-1.84-3.69-2.4l-0.27,0.68c1.26,0.53,2.42,1.28,3.44,2.24l-3.53,3.53
		c-1.12-1-2.52-1.59-4.03-1.67v-4.99c1.43,0.04,2.82,0.35,4.11,0.89l0.27-0.69c-1.37-0.57-2.85-0.9-4.38-0.94v-5.5
		c2.23,0.05,4.38,0.5,6.39,1.32l0.27-0.68c-2.09-0.85-4.34-1.32-6.66-1.37V7.98c2.95,0.05,5.81,0.63,8.48,1.71l0.27-0.68
		c-2.75-1.11-5.7-1.72-8.74-1.76v-5.5c3.74,0.04,7.38,0.78,10.75,2.14l0.27-0.69C52.94,1.76,49.09,1,45.12,1
		c-4.9,0-9.53,1.17-13.64,3.23l0.34,0.64c3.97-1.99,8.37-3.08,12.94-3.13v5.5C41.03,7.3,37.51,8.2,34.37,9.76l0.33,0.64
		c3.09-1.53,6.5-2.37,10.05-2.42v4.98c-2.77,0.05-5.39,0.72-7.73,1.87l0.34,0.64c2.28-1.11,4.79-1.72,7.4-1.77v5.5
		c-1.73,0.05-3.37,0.46-4.85,1.16l0.34,0.64c1.4-0.65,2.93-1.02,4.51-1.06v4.99c-0.77,0.04-1.51,0.22-2.19,0.51l0.34,0.64
		c0.7-0.28,1.45-0.43,2.22-0.43c1.57,0,3.04,0.61,4.15,1.72c1.11,1.11,1.72,2.58,1.72,4.15c0,3.23-2.63,5.87-5.86,5.87
		c-1.57,0-3.04-0.61-4.15-1.72c-1.11-1.11-1.72-2.58-1.72-4.15s0.61-3.04,1.72-4.15c0.56-0.56,1.21-0.99,1.92-1.28l-0.34-0.64
		c-0.67,0.29-1.29,0.68-1.83,1.16l-3.53-3.53c0.91-0.86,1.94-1.55,3.04-2.06l-0.34-0.64c-1.19,0.56-2.28,1.3-3.22,2.19l-3.89-3.89
		c1.36-1.31,2.9-2.38,4.56-3.18l-0.34-0.64c-1.75,0.85-3.35,1.97-4.74,3.31l-3.52-3.52c1.78-1.73,3.79-3.13,5.95-4.2l-0.33-0.64
		c-2.26,1.13-4.33,2.59-6.13,4.33l-3.89-3.9c2.23-2.18,4.75-3.96,7.47-5.32l-0.34-0.64c-5.93,2.98-10.77,7.84-13.71,13.8l0.64,0.35
		c1.37-2.79,3.19-5.38,5.42-7.67l3.9,3.89c-1.81,1.87-3.33,4.02-4.47,6.39l0.64,0.34c1.08-2.27,2.54-4.37,4.34-6.22l3.53,3.52
		c-1.42,1.48-2.6,3.19-3.47,5.07l0.64,0.34c0.82-1.79,1.94-3.45,3.34-4.91l3.89,3.89c-0.99,1.06-1.81,2.29-2.38,3.64l0.64,0.35
		c0.53-1.27,1.28-2.44,2.25-3.47l3.53,3.53c-0.97,1.08-1.58,2.48-1.67,4.03h-4.99c0.04-1.42,0.34-2.8,0.88-4.08l-0.64-0.35
		c-0.58,1.37-0.92,2.86-0.97,4.43h-5.5c0.05-2.47,0.61-4.86,1.61-7.05l-0.64-0.35c-1.05,2.26-1.65,4.76-1.7,7.4h-4.98
		c0.05-3.44,0.84-6.75,2.29-9.77L23.26,21c-1.48,3.07-2.33,6.5-2.38,10.12h-5.5c0.05-4.49,1.1-8.82,3.03-12.74l-0.64-0.34
		c-2,4.06-3.14,8.62-3.14,13.45c0,2.95,0.42,5.84,1.23,8.59l0.72-0.18c-0.76-2.58-1.17-5.28-1.2-8.04h5.5
		c0.03,2.3,0.39,4.55,1.04,6.7l0.71-0.18c-0.64-2.09-0.98-4.28-1.02-6.52h4.98c0.04,1.83,0.34,3.61,0.88,5.3l0.71-0.18
		c-0.53-1.63-0.82-3.36-0.86-5.12h5.5c0.04,1.31,0.28,2.58,0.71,3.78l0.71-0.18c-0.41-1.14-0.65-2.35-0.69-3.6h4.99
		c0.08,1.5,0.66,2.91,1.67,4.03l-3.53,3.52c-1.09-1.16-1.91-2.5-2.44-3.96l-0.72,0.18c0.56,1.58,1.45,3.04,2.64,4.29l-3.89,3.89
		c-1.89-1.97-3.27-4.3-4.09-6.83l-0.71,0.18c0.85,2.66,2.3,5.11,4.29,7.17l-3.52,3.52c-2.63-2.71-4.53-5.95-5.61-9.48l-0.71,0.18
		c1.11,3.65,3.07,7,5.8,9.82l-3.89,3.89c-3.44-3.52-5.9-7.76-7.25-12.36l-0.72,0.18c1.42,4.85,4.03,9.29,7.7,12.96
		c2.49,2.49,5.33,4.49,8.41,5.96l0.36-0.65c-2.91-1.39-5.61-3.26-7.99-5.58l3.89-3.89c2.02,1.96,4.32,3.52,6.81,4.66l0.36-0.64
		c-2.43-1.11-4.68-2.63-6.66-4.54l3.52-3.52c1.65,1.59,3.54,2.83,5.59,3.7l0.36-0.64c-1.99-0.84-3.83-2.04-5.44-3.58l3.89-3.89
		c1.25,1.18,2.7,2.07,4.28,2.63l0.37-0.65c-1.52-0.53-2.92-1.37-4.13-2.5l3.53-3.53c1.12,1,2.52,1.59,4.03,1.67v4.99
		c-1.18-0.04-2.33-0.25-3.42-0.63l-0.37,0.65c1.21,0.43,2.48,0.68,3.79,0.71v5.5c-2.27-0.04-4.48-0.52-6.52-1.37l-0.36,0.64
		c2.15,0.92,4.48,1.42,6.88,1.47V55c-3.28-0.05-6.44-0.77-9.34-2.09l-0.36,0.64c3.01,1.38,6.3,2.13,9.7,2.18v5.5
		c-4.37-0.05-8.58-1.04-12.41-2.87l-0.36,0.65c4.05,1.94,8.52,2.97,13.14,2.97c4.85,0,9.53-1.13,13.74-3.26l-0.35-0.68
		c-3.92,1.99-8.34,3.14-13.02,3.19v-5.5c3.71-0.05,7.28-0.94,10.51-2.57l-0.34-0.67c-3.07,1.54-6.52,2.44-10.17,2.5v-4.98
		c2.78-0.05,5.46-0.72,7.89-1.93l-0.34-0.66c-2.28,1.14-4.84,1.8-7.55,1.86v-5.5c1.77-0.05,3.48-0.48,5.03-1.24l-0.34-0.66
		c-1.43,0.7-3.01,1.11-4.69,1.16v-4.99c1.5-0.08,2.91-0.66,4.03-1.67l3.52,3.52c-0.85,0.79-1.81,1.46-2.86,1.97l0.34,0.66
		c1.1-0.54,2.13-1.24,3.04-2.11l3.88,3.88c-1.3,1.24-2.78,2.29-4.4,3.1l0.34,0.66c1.66-0.83,3.21-1.91,4.59-3.24l3.51,3.51
		c-1.71,1.66-3.67,3.05-5.82,4.14L56,53.17c2.18-1.1,4.21-2.53,6.01-4.27l3.88,3.87c-2.16,2.11-4.65,3.89-7.37,5.27l0.35,0.68
		c2.85-1.44,5.49-3.34,7.82-5.67C69.12,50.6,71.1,47.81,72.56,44.78L72.56,44.78z"/>
	
		<rect x="46.69" y="24.43" transform="matrix(0.9993 -0.0377 0.0377 0.9993 -0.8911 1.7794)" class="st0" width="0.18" height="0.22"/>
	<rect x="46.41" y="24.13" class="st0" width="0.25" height="0.19"/>
	<polygon class="st0" points="46.18,24.1 46.21,23.91 45.99,23.88 45.97,24.07 	"/>
	<polygon class="st0" points="45.79,24 45.57,23.97 45.6,23.79 45.81,23.82 	"/>
	<rect x="44.01" y="23.76" class="st0" width="0.24" height="0.19"/>
	<polygon class="st0" points="43.69,24.16 43.72,23.98 43.5,23.94 43.48,24.13 	"/>
	<polygon class="st0" points="43.5,24.41 43.25,24.35 43.3,24.17 43.54,24.23 	"/>
	
		<rect x="43.04" y="24.44" transform="matrix(0.9864 -0.1644 0.1644 0.9864 -3.4465 7.4253)" class="st0" width="0.19" height="0.19"/>
	<polygon class="st0" points="18.83,43.48 18.68,43.48 18.68,43.79 18.92,43.79 18.92,44.2 19.11,44.2 19.08,43.73 18.83,43.64 	"/>
	<polygon class="st0" points="20.55,45.76 20.43,45.48 20.21,44.91 20.67,45.13 20.83,45.57 21.04,45.73 21.26,46.19 21.14,46.41 
		20.8,46.1 	"/>
	<polygon class="st0" points="27.47,54.5 27.22,54.12 27.59,54.18 27.99,54.53 28.15,54.93 27.93,55.06 27.81,54.87 27.5,54.78 	"/>
	<path class="st0" d="M44.17,26.44h-0.34l-0.06-0.69l0.18-0.13v-0.34h-1.08l-0.03-0.34L43,24.85l-0.25-0.09L42.57,25l-0.06,0.28
		l-0.31,0.06v0.16h-0.21v0.41l-0.86,0.72l-1.72-0.06c-0.12,0.28-0.43-0.03-0.43-0.03c-0.06-0.19-0.49,0-0.49,0
		c0,0.34-0.58-0.16-0.58-0.16l-1.08-0.78c-0.62-0.56-1.54,0.16-1.57,0.31c0.03,0.44-0.71,0.09-0.71,0.09s-0.61-0.19-0.71,0.06
		c-0.09,0.25-0.49,0.19-0.49,0.19l-0.06,0.13l-0.31,0.06l-0.06,0.19l-0.37,0.06l0.92-0.03c0.25-0.03-0.09,0.53-0.25,0.5l-0.43,0.03
		l-0.15,0.16h-0.4l-0.18,0.25l-0.58-0.03c0,0-0.34,0.28-0.31,0.38c0.03,0.09-0.06,0.37-0.16,0.37c-0.09,0-0.28,0.28-0.21,0.38
		c0.06,0.09-0.18,0.41-0.18,0.41l-0.06,0.31l-0.18,0.06v0.84l-0.37,0.25v0.38l-0.55,0.59l0.06,0.5l-0.46,0.5l0.06,0.5l-0.28,0.09
		l-0.06,0.22l-0.12,0.66l0.31,0.03c0.15-0.06,0.12,0.4,0,0.47c-0.12,0.06-0.46,0.19-0.28,0.31s-0.49,0.09-0.49-0.09
		c0-0.19-0.37-0.34-0.46-0.28c-0.09,0.06-0.25-0.28-0.25-0.28c-0.34-0.34-1.38,0.03-1.38,0.03l-0.15,0.5
		c-0.34,0.06-0.55,0.63-0.55,0.63c-0.28,0.09-0.49,0.43-0.4,0.53c0.09,0.09-0.15,0.12-0.15,0.12v0.69l-0.15,0.22l0.03,0.75
		c0.19,0,0.15,0.34,0.15,0.34c-0.31,0.03-0.25,0.44-0.25,0.44l-0.64,0.22l-0.12,0.19l-0.8-0.03l-0.21,0.22l-0.22-0.22h-1.54
		l-0.06-0.16l-0.31-0.06l-0.03-0.34l-0.46,0.03l-0.09,0.19l-0.49,0.03c0.03,0.31-0.49,0.78-0.55,0.65c-0.06-0.13-0.4-0.47-0.25-0.53
		c0.15-0.06,0.55-0.12,0.55-0.12v-0.22l-1.14-0.03l-0.12,0.19l-0.46,0.03v0.5l-0.21,0.06c-0.15,0.09,0.03,0.44,0.03,0.44
		c0.22,0.22-0.03,0.56-0.03,0.56c-0.18,0.19,0.15,0.53,0.15,0.53c0.25,0.06-0.15,0.25-0.15,0.25c0.06,0.31,0.25,0.41,0.25,0.41
		c-0.19,0.31,0.12,0.47,0.12,0.47l0.03,0.53l0.22,0.13v0.34l0.12,0.22h0.49l-0.03-0.78c-0.43-0.5,0.37-0.62,0.4-0.44
		c0.03,0.19,0.37,0.28,0.37,0.28c0.06,0.47,0.58,0.75,0.74,0.28c0.16-0.47,0.28-0.19,0.37,0.03c0.09,0.22,0.68,0.75,0.68,0.75h0.46
		l0.06,0.44c0.52-0.03,0.68,0.03,0.89,0.75c0.22,0.72,0.8,0.9,0.8,0.9l0.43-0.03c0-0.37,0.43,0.06,0.43,0.25
		c0,0.19,0.83,0.9,0.83,0.9l0.83,0.19l0.77,0.62l0.58-0.06h0.25c0.15-0.53,0.89,0.03,0.95,0.22c0.06,0.19,0.55,0.5,0.61,0.34
		c0.06-0.16,0.4-0.06,0.46,0.4c0.06,0.47,0.28,0.38,0.28,0.38l1.75-0.03l0.62-0.53l1.57-0.03c0.8-0.03,0.31-1.12,0.15-1.12
		c-0.28-0.22,0.09-1.12,0.09-1.12l-2.24-2.09c-0.52,0-0.06-0.75-0.06-0.75c0.4-0.25-0.09-0.65-0.09-0.65
		c0.06-0.38-0.22-0.81-0.22-0.81c-0.55-0.38-0.4-1.09-0.4-1.09v-0.5c-0.46-0.44,0.18-0.5,0.18-0.5c0.22-0.37-0.15-0.65-0.15-0.65
		l-0.03-0.41l-0.49-0.06l-0.06-1.47l-1.11-1.59c-0.22-0.06-0.06-0.44-0.06-0.44c0.28-0.15-0.06-0.53-0.06-0.53l-0.03-0.69l0.65-0.06
		l0.15-0.25h0.31l-0.03-0.81c0.15-0.41,0.52-0.19,0.52-0.19l0.43,0.03l0.25-0.47l0.06-0.37l-0.34-0.03
		c-0.37-0.22-0.18-1.03-0.18-1.03c0.58-0.88,1.26-0.38,1.26-0.38l0.43-0.03c0.65,0.44,0.06,1.25,0.06,1.25
		c-0.12,0.19-0.06,0.78-0.06,0.78l0.15,1l-0.4,0.34c-0.34,0.19-0.34,0.62,0.03,0.72c0.25,0.03,0.15,0.62-0.21,0.22
		c-0.55,0,0.31,0.5,0.06,0.37c0.55,0.28,0.43-0.25,0.43-0.25l0.74-0.59c0.28-0.22,0.77,0.47,0.77,0.56c0,0.09,1.23,0.03,1.23,0.03
		c0.34,0.22,0.46,0.78,0.46,0.78c0.34-0.44,1.05-0.03,0.52,0.22c0.49,0.31,0.49,0.59,0.49,0.59c0.4-0.12,0.4,0.19,0.4,0.28
		c0,0.09,0.12-0.47,0.12-0.47c-0.46-0.34,0.61-0.47,0.31,0.16l-0.18,0.28l0.31,0.25l0.03,0.72c0.68-0.06,0.49-0.9,0.49-0.9
		l0.31-0.06c0-0.28,0.22-0.13,0.22-0.13c-0.22-1.06,0.49-1.25,0.49-1.25c0.4-0.09,0.43-0.94,0.43-0.94
		c-0.28-0.12-0.12-0.56,0.18-0.19c0.31,0.38-0.18-0.75-0.18-0.75l-0.25-0.22l-0.34-0.03l-0.03-0.34h-0.55l-0.09,0.44l-0.21,0.06
		l-0.06-0.12l-0.09,0.34h-0.55l-0.03-0.38l0.34-0.09l0.12-0.19l0.09-0.5h0.4l0.52-0.16c0.03-0.53,0.31-0.4,0.31-0.4l0.18,0.16
		l0.28,0.22l0.03,0.19l-0.19,0.09l-0.03,0.25l0.09,0.34h0.25c0.09-0.5,0.74-0.5,0.92-0.19l0.18-0.44c-0.43-0.22-0.01-0.56,0.12-0.4
		s0.41-0.4,0.41-0.4s0.21,0.28,0-0.09c-0.22-0.37,0.15-0.56,0.15-0.56c-0.06-0.37,0.4-0.31,0.4-0.31l0.03-0.5l-0.43-0.03
		c-0.09,0.44-0.46,0.06-0.28-0.03c0.19-0.09,0.37-0.28,0.37-0.28v-0.31l0.19-0.06l0.03-0.31h0.46l0.4-0.19l0.09-0.16L43.55,28
		l0.62-0.56l-0.06-0.25c-0.37,0,0-0.28,0-0.28L44.17,26.44z"/>
	<path class="st0" d="M31.78,32.62l-0.55-0.06l0.03,0.22h0.15c0.24,0.44,0.03,1.5,0.03,1.5s-0.37,0.03-0.43-0.16
		c-0.06-0.19-0.22,0.4-0.09,0.5c0.12,0.09,0.55,0,0.58,0.34c0.03,0.34,0.28-0.22,0.28-0.22V32.62z"/>
	<polygon class="st0" points="31.53,35.33 31.22,35.15 31.22,35.9 31.71,36.55 31.9,36.12 31.96,35.83 31.74,35.74 31.77,35.27 
		31.96,35.24 31.99,35.02 	"/>
	<polygon class="st0" points="32.02,36.92 31.81,36.96 31.77,37.21 32.02,37.24 	"/>
	<polygon class="st0" points="31.74,38.52 31.48,38.55 31.48,38.77 31.74,38.74 	"/>
	<polygon class="st0" points="32.11,37.78 32.24,37.64 32.11,37.51 31.98,37.64 	"/>
	<polygon class="st0" points="32.32,38.17 32.45,38.3 32.32,38.43 32.19,38.3 	"/>
	<polygon class="st0" points="32.33,34.6 32.46,34.73 32.33,34.87 32.2,34.73 	"/>
	<polygon class="st0" points="42.42,31.93 42.48,31.56 42.5,31.28 42.63,31.09 43,30.93 43,30.34 42.81,30.34 42.78,30.12 
		42.44,30.09 42.38,30.25 42.23,30.25 42.2,30.5 42.38,30.5 42.42,30.68 42.29,30.81 42.23,30.96 41.98,31.03 41.43,31.56 
		41.4,31.81 41.25,32.03 41.06,32.49 40.42,32.52 40.29,33.09 40.38,33.56 40.94,33.77 41,33.46 41.18,33.37 41.22,33.06 
		41.34,32.84 41.52,32.62 41.58,32.37 41.89,32.18 42.26,32.12 	"/>
	<path class="st0" d="M43.64,32.25v-0.44l-0.06-0.41l-0.46-0.22l-0.34,0.31l-0.06,0.44v0.28l-0.31,0.06l-0.06,0.84l-0.25,0.09
		l0.03,0.31l-0.34,0.09l-0.34,0.09l-0.06,0.4l-0.24,0.16l-0.13,0.38l-0.15,0.9c0,0,0.28,0.53,0.43,0.28c0.15-0.25,0.4-0.28,0.4-0.28
		l0.09-0.22l0.83,0.03c0.06-0.34,0.46-0.22,0.46-0.06c0,0.16,0.31,0.03,0.31,0.03l0.22-0.34h0.34l0.03-0.38l0.15-0.09v-0.56
		c0.49-0.16,0.43-0.62,0.43-0.62l0.12-0.15l-0.06-0.22c-0.25-0.09-0.12-0.31,0.03-0.25c0.15,0.06-0.22-0.28-0.22-0.28
		c-0.18,0.16-0.34-0.19-0.34-0.19H43.64z"/>
	<path class="st0" d="M44.14,36.02c-0.03,0.38-0.49,0.5-0.49,0.5l-0.34-0.09l-0.18-0.16l-0.03-0.44l0.28-0.03l0.06,0.19L44.14,36.02
		z"/>
	<path class="st0" d="M45.8,34.03c0.07,0.27,0.06-0.44,0.18-0.41c0.12,0.03,0.03-0.44,0.03-0.44l-0.55,0.4
		C45.73,33.62,45.77,33.9,45.8,34.03z"/>
	<path class="st0" d="M47.43,32.4c0.12,0.28,0.09,0.69,0.55,1c0.16,0.11-0.09,0.31-0.25,0.22c-0.15-0.09-0.58-0.78-0.58-0.78v-0.4
		C47.24,32.18,47.37,32.28,47.43,32.4z"/>
	<polygon class="st0" points="47.64,41.73 47.43,41.89 47.52,41.98 47.61,42.14 47.83,41.79 	"/>
	<line class="st0" x1="46.66" y1="41.39" x2="46.66" y2="41.76"/>
	<polygon class="st0" points="51.35,40.78 51.25,40.62 51.01,40.78 51.1,40.94 	"/>
	<path class="st0" d="M60,47.44l0.28,0.12l0.03,0.53c0.37,0.38,1.57,0.06,1.57-0.03c0-0.09-0.06-1.16-0.06-1.16l-0.15-0.16
		l-0.03-0.78c0.12-0.4-0.59-1-0.65-0.87c-0.06,0.12-0.46,0.03-0.46,0.15c0,0.13-0.25,0.75-0.12,0.97c0.12,0.22-0.09,0.22-0.12,0.44
		C60.25,46.88,59.94,47.25,60,47.44z"/>
	<path class="st0" d="M59.33,46.19c-0.06,0.24-0.27,0.38-0.4,0.28c-0.12-0.09,0.15,0.16,0.21,0.28c0.06,0.12,0.25,0.12,0.31,0
		c0.06-0.13,0.03-0.41,0.09-0.53C59.6,46.1,59.36,46.07,59.33,46.19z"/>
	<rect x="57.9" y="40.47" class="st0" width="0.22" height="0.59"/>
	<path class="st0" d="M61.08,34.46c-0.13-0.18,0.61-0.5,0.74-0.12c0.12,0.37,0,0.31-0.12,0.28C61.57,34.59,61.26,34.71,61.08,34.46z
		"/>
	<polygon class="st0" points="61.71,30.46 62.05,30.53 62.08,30.34 61.74,30.28 	"/>
	<polygon class="st0" points="60.9,30.88 61.07,30.81 61.01,30.65 60.97,30.55 60.88,30.6 60.65,30.73 60.45,30.61 60.35,30.76 
		60.6,30.92 60.65,30.95 60.69,30.92 60.88,30.82 	"/>
	<path class="st0" d="M62.03,23.23h-0.46c0,0,0.15,0.06-0.28-0.34c-0.43-0.4-0.71,0.09-0.71,0.09l-0.49,0.06v0.5l-0.25,0.09
		l0.03,0.31l0.34-0.03c0,0,0,0.37,0.09,0.22c0.09-0.16,0.86,0.03,0.8,0.41c-0.02,0.15,0.77,0.56,0.68,1.06
		c0.4,0.06,0.31,0.47,0.31,0.47l0.52,0.06l0.15-0.31l0.16,0.03v-0.19l-0.34-0.09l-0.06-1l-0.22-0.16l0.06-0.25l-0.25-0.09l0.12-0.41
		L62.03,23.23z"/>
	<path class="st0" d="M63.38,26.41l-0.25-0.03l-0.55,0.09l-0.31,0.59c0,0,0.15,0.09,0.27,0.31c0.12,0.22,0.19,1.5-0.18,1.72
		c-0.37,0.22,0.03,0.09,0.03,0.09l-0.06,0.69c0.09,0.31,0.25,0.16,0.34,0c0.09-0.16,0.19-0.19,0.31-0.34
		c0.12-0.16,0.31-0.44,0.34-0.66c0.03-0.22,0.19-0.56,0.09-0.65c-0.09-0.09,0.09-0.53,0.09-0.53s0.12-0.25,0-0.5
		c-0.12-0.25,0.03-0.53,0.12-0.65L63.38,26.41z"/>
	
		<rect x="63.74" y="27.48" transform="matrix(0.1278 -0.9918 0.9918 0.1278 28.3549 87.3851)" class="st0" width="0.25" height="0.18"/>
	<polygon class="st0" points="63.74,28.55 63.58,28.46 63.67,28.27 63.84,28.36 	"/>
	<path class="st0" d="M63.48,26.07l-0.12-0.28c0,0,0-0.25,0.06-0.37c0.06-0.13-0.12-0.25-0.21-0.28c-0.09-0.03-0.06-0.28-0.09-0.41
		c-0.03-0.13-0.24-0.22-0.24-0.22s-0.06-0.47-0.06-0.56c0-0.09-0.27-0.22-0.18-0.31c0.09-0.09,0.15-0.22,0.25-0.28
		c0.09-0.06-0.09-0.5,0.06-0.41c0.16,0.09,0.16,0.25,0.22,0.38c0.06,0.12-0.03,0.56,0.12,0.66c0.15,0.09-0.03,0.4,0.21,0.4
		c0.25,0,0.09,0.59,0.09,0.59s-0.06,0.44,0.09,0.47c0.15,0.03,0.06,0.78,0.06,0.78L63.48,26.07z"/>
	<path class="st0" d="M61.48,21.01c0.09,0.13,0.28,0.22,0.28,0.34s-0.06,0.22,0.12,0.25c0.18,0.03,0.31-0.03,0.37,0.12
		c0.06,0.16,0.06,0.41,0.03,0.53c-0.03,0.13,0.03,0.31,0.18,0.31c0.15,0,0.19,0.03,0.19,0.12c0,0.09,0.18-0.34,0.18-0.34
		c-0.15-0.13-0.28-0.41-0.28-0.41l-0.15-0.5c0-0.06-0.21-0.12-0.31-0.16c-0.09-0.03-0.25-0.31-0.25-0.31L61.48,21.01z"/>
	<path class="st0" d="M61.79,20.73c-0.09-0.13-0.19-0.22-0.31-0.28c-0.12-0.06-0.21-0.13-0.34-0.13s-0.25-0.13-0.19-0.28
		c0.06-0.16-0.09-0.22-0.09-0.34c0-0.12,0.09-0.12,0.25-0.03c0.16,0.09,0.12,0.12,0.25,0.28c0.12,0.16,0.18,0.31,0.31,0.28
		c0.12-0.03,0.22,0.28,0.34,0.19c0.12-0.09,0.09,0.22,0.09,0.22L61.79,20.73z"/>
	<path class="st0" d="M58.19,24.26c0.17,0.17-0.92,0.12-0.92,0c0-0.13,0.09-0.56,0.37-0.47c0.28,0.09,0.31-0.56,0.31-0.56
		s-0.25,0.03-0.03-0.09c0.21-0.12,0-0.31-0.09-0.4c-0.09-0.09-0.18-0.25-0.18-0.25h0.43c0.18-0.13,0.25-0.72,0.25-0.72
		c0.37,0.12,0.55-0.12,0.55-0.12s0.06,0.19,0.19,0.34c0.12,0.16-0.31,0.22-0.15,0.31c0.15,0.09,0.21,0.37,0.15,0.47
		c-0.06,0.09-0.4,0.03-0.4-0.09c0-0.12-0.12,0.16,0,0.31c0.12,0.15-0.15,0.37-0.22,0.37c-0.06,0-0.46,0.06-0.12,0.25
		c0.34,0.19,0.71,0.09,0.71,0.09s0.28-0.03,0.37,0.12c0.09,0.16-0.03,0.19-0.18,0.19c-0.15,0-0.89-0.06-0.89-0.06
		S58.1,24.16,58.19,24.26z"/>
	<path class="st0" d="M56.22,24.54c0.15-0.03,0.52-0.06,0.58,0.03c0.06,0.09-0.22,0.22-0.22,0.22l-0.37,0.06
		C56.1,24.69,56.07,24.57,56.22,24.54z"/>
	<path class="st0" d="M60.19,21.92c0.25-0.12,0.77-0.12,0.74-0.31c-0.03-0.19,0.31-0.25,0.31-0.25l0.09,0.38l0.28,0.19l0.03,0.34
		c0,0,0.09-0.06-0.25,0.03c-0.34,0.09-0.12,0.25-0.12,0.25l-0.74,0.03l-0.09-0.31L60.19,21.92z"/>
	<path class="st0" d="M58.99,20.23c0.19,0-0.06,0.72,0.43,0.65c0.49-0.06,0.03,0.22,0.4,0.25c0.37,0.03,0.28-0.28,0.4-0.5
		c0.12-0.22,0.06-0.34-0.15-0.4c-0.21-0.06-0.21-0.06-0.28-0.31c-0.06-0.25-0.31-0.31-0.31-0.31l-0.09-0.38l-0.4,0.25l-0.4,0.53
		C58.59,20.42,58.8,20.23,58.99,20.23z"/>
	<polygon class="st0" points="59.8,22.87 59.89,22.68 60.06,22.76 59.97,22.95 	"/>
	<rect x="59.48" y="22.57" class="st0" width="0.18" height="0.22"/>
	<polygon class="st0" points="59.63,18.41 59.67,18.69 59.48,18.71 59.45,18.44 	"/>
	<rect x="59.11" y="21.32" class="st0" width="0.19" height="0.16"/>
	<rect x="58.62" y="21.12" transform="matrix(0.9953 -0.0967 0.0967 0.9953 -1.775 5.78)" class="st0" width="0.31" height="0.19"/>
	
		<rect x="55.93" y="24.08" transform="matrix(0.3942 -0.919 0.919 0.3942 11.7382 66.1558)" class="st0" width="0.24" height="0.18"/>
	
		<rect x="55.12" y="23.55" transform="matrix(0.9956 -0.0941 0.0941 0.9956 -1.9791 5.3041)" class="st0" width="0.31" height="0.19"/>
	
		<rect x="49.12" y="23.71" transform="matrix(0.9989 -0.0468 0.0468 0.9989 -1.0603 2.3418)" class="st0" width="0.67" height="0.19"/>
	<polygon class="st0" points="48.66,23.97 48.6,23.69 48.78,23.65 48.84,23.93 	"/>
	<polygon class="st0" points="48.53,24.16 48.47,23.98 48.57,23.95 48.62,24.13 	"/>
	<path class="st0" d="M50.07,23.63l-0.03,0.22l0.34,0.03c0,0,0.15,0.13,0.15,0.22c0,0.09,0.22,0.19,0.34,0.19
		c0.12,0,0.46-0.25,0.46-0.25s0.15-0.44,0.03-0.41c-0.12,0.03-0.37,0.22-0.4,0.03c-0.03-0.19-0.4-0.09-0.4-0.09L50.07,23.63z"/>
	<path class="st0" d="M51.61,23.29c0,0.09-0.06,0.22,0.12,0.25c0.18,0.03,0.52-0.13,0.55,0.06c0.03,0.19,0.03,0.31,0.28,0.41
		c0.25,0.09,0.4,0.12,0.59,0.12c0.18,0,0.58-0.06,0.58-0.06l0.52,0.16c0.34,0.34,0.55,0.44,0.65,0.28c0.09-0.16-0.03-0.5-0.06-0.62
		c-0.03-0.12-0.46-0.72-0.62-0.59c-0.15,0.13-0.18,0-0.46,0.09c-0.28,0.09-0.86,0.03-0.89-0.09c-0.03-0.12-0.46-0.19-0.46-0.31
		c0-0.13-0.31-0.28-0.28-0.09c0.03,0.19-0.21,0.28-0.28,0.22L51.61,23.29z"/>
	<path class="st0" d="M58.68,19.29l0.21-0.69c-0.31-0.06-0.25-0.41-0.25-0.41c-0.03-0.28-0.46-0.59-0.61-0.5
		c-0.15,0.09-0.09-0.65-0.09-0.65s0.28-0.19,0.4-0.09c0.12,0.09-1.04-1.56-1.29-1.41c-0.25,0.16-0.8-0.16-0.77-0.44
		c0.03-0.28-1.11-1.22-1.11-1.22s-0.37-0.25-0.43-0.06s-0.18,0.31,0,0.4c0.19,0.09,0.15-0.15,0.37,0.06
		c0.21,0.22,0.61,0.5,0.46,0.69c-0.15,0.19-0.34,0.25-0.34,0.25l0.21,0.25h0.34l0.06,0.53c0,0,0.37,0.19,0.46,0.41
		c0.09,0.22,0.09,0.34,0,0.47c-0.09,0.12-0.28,0.34-0.25,0.56c0.03,0.22,0.28,0.31,0.28,0.31l0.25,0.03l0.19,0.09v0.41
		c0.25-0.06,0.64,0.28,0.61,0.5c-0.03,0.22,0.06,0.09,0.37,0.31c0.31,0.22,0.21,0.25,0.43,0.41C58.4,19.67,58.59,19.57,58.68,19.29z
		"/>
	<path class="st0" d="M53.61,15.05c-0.03-0.13-0.09-0.56,0.09-0.53c0.18,0.03,0.06,0,0.28,0.09c0.21,0.09,0.25-0.16,0.25-0.16h0.34
		l0.43,0.34l-0.06,0.28l-0.31,0.03c-0.15-0.25-0.46-0.16-0.4,0.06s-0.15,0.62-0.28,0.65s-0.52,0.03-0.49-0.16
		C53.48,15.49,53.61,15.05,53.61,15.05z"/>
	<path class="st0" d="M53.36,14.21v-0.25c0,0-0.03-0.25-0.18-0.25c-0.15,0-0.43-0.19-0.37-0.31c0.06-0.12-0.52-0.25-0.52-0.25
		s-0.52-0.5-0.34-0.44s0.09-0.22,0.09-0.22s-0.37,0.06-0.46,0.03c-0.09-0.03-0.06-0.31-0.06-0.31s-0.37-0.09-0.37,0
		s0.12,0.09,0.18,0.28s0.03,0.5,0.31,0.56c0.28,0.06,0.34,0.12,0.37,0.25c0.03,0.13,0.37,0.16,0.37,0.16l0.25,0.12L53.36,14.21z"/>
	<polygon class="st0" points="49.95,10.77 49.7,10.71 49.7,10.99 50.04,11.03 	"/>
	<path class="st0" d="M49.95,9.71c-0.32-0.24,0.43,0.19,0.43,0.19c0.25,0,0.4,0.19,0.4,0.28c0,0.09,0.34,0.06,0.34,0.06l0.03-0.22
		L50.9,9.71l-0.21-0.15c0,0-0.34-0.03-0.34-0.13C50.35,9.34,50.07,9.81,49.95,9.71z"/>
	<path class="st0" d="M55.6,9.9c-0.09,0.27-0.12,0.65-0.28,0.65c-0.15,0-0.09,0.41-0.09,0.41s0.4,0,0.52,0.03
		c0.12,0.03,0.12,0.34,0.12,0.34c0.46-0.03,0.65,0.59,0.58,0.75c-0.06,0.16,0.18,0.16,0.18,0.16s0,0.5-0.06,0.62
		c-0.06,0.12,0.4,0.22,0.52,0.41c0.12,0.19-0.06,0.81-0.16,0.84c-0.09,0.03,0.25,0.12,0.21,0.28c-0.03,0.16,0.09,0,0.12,0.25
		c0.03,0.25,0.09,0.78,0.09,0.78l0.43,0.03c0.06-0.4,0.85-0.42,0.98-0.38c0.52,0.19,0.92,1,0.92,1.19c0,0.19-0.34,0.22-0.34,0.22
		l0.06,0.9c0.52,0.16,0.95,0.91,0.89,1.03c-0.06,0.12,0.37,0.09,0.37,0.09c0.06-0.56,0.59-0.38,0.61-0.19
		c0.03,0.19,0.12,0.59,0.12,0.59l0.16,0.28l0.21,0.22l0.34-0.03l0.09,0.19l0.4,0.06c0,0,0.34,0.37,0.37,0.47
		c0.03,0.09,0.49,0.06,0.61,0.09c0.12,0.03,0.31,0.12,0.34,0.28c0.03,0.16,0.22,0.41,0.22,0.41s0.37,0.09,0.4,0.22
		c0.03,0.13,0.18,0.41,0.18,0.41l0.31,0.25l0.03,0.28l0.34,0.03l0.09,0.37l0.55-0.03l0.31-0.22c0.4-0.22,0.68-0.5,0.71-0.62
		c0.03-0.13,0.09-0.59,0.4-0.5c0.31,0.09,0.09-0.69,0.09-0.69s-0.43-0.31-0.4-0.47c0.03-0.16-0.43-0.47-0.4-0.59
		c0.03-0.12-0.4-0.37-0.37-0.5c0.03-0.12-0.22-0.47-0.22-0.47l-0.46-0.44l-0.06-0.28l-0.37-0.03l-0.74-0.91l0.03-0.25l-0.22-0.03
		v-0.34l-0.21-0.12l-0.34-0.03l-0.68-0.75l-0.06-0.34h-0.34l0.06-0.66c0.22-0.28,0.09-0.81,0.09-0.81s-0.43,0.22-0.64,0.12
		c-0.22-0.09,0.09-0.31,0.09-0.31v-0.25l-0.18-0.19c0,0-0.52,0.06-0.55-0.03c-0.03-0.09-0.12-0.5-0.12-0.5l-0.03-0.53l-0.22-0.09
		l-0.03-0.19l-0.34,0.03v-0.38l-0.18-0.06l-0.19-0.09l-0.03-0.38l-0.68-0.03l-0.22-0.31l-0.25-0.37l-0.77-0.06L58.4,9.56L58.1,9.5
		L57.88,9.4l-0.09,0.16L57.2,9.59l-0.03,0.19C56.86,9.93,55.63,9.81,55.6,9.9z"/>
	<path class="st0" d="M58.83,9.09c-0.05-0.25,0.62-0.47,0.77-0.28c0.16,0.19,0.59,0.22,0.65,1.16c0.02,0.34-0.55-0.34-0.55-0.34
		l-0.46-0.16C58.99,9.4,58.86,9.25,58.83,9.09z"/>
	<polygon class="st0" points="49.81,9.47 49.65,9.4 49.77,9.12 49.94,9.19 	"/>
	<path class="st0" d="M48.22,6.41L47.83,6V5.66L47.7,5.53L47.58,5.1l-0.4-0.13l-0.4,0.16l-0.43,0.28l-0.46,0.06l-0.25,0.28
		l0.98,0.09l0.18,0.31l0.71,0.06l0.46,0.47C48.38,6.81,48.47,6.62,48.22,6.41z"/>
	<path class="st0" d="M48.16,4.88C48.1,4.6,47.7,5.22,48.1,5.34c0.4,0.12,0.8,0,0.8,0l0.09-0.19l1.54,0.03
		c0.13-0.12,0.19-0.31,0.19-0.31s0.37-0.13,0.52-0.06c0.15,0.06,0.03-0.44-0.12-0.37c-0.15,0.06-0.46,0.03-0.46,0.03H50.1
		c-0.03-0.22-0.52-0.13-0.55,0c-0.03,0.12-0.22,0.16-0.22,0.16l-0.71,0.06C48.56,4.88,48.2,5,48.16,4.88z"/>
	<path class="st0" d="M45.12,10.14c0.47,0.15,0.65,0.04,0.68-0.09c0.03-0.12,0.06-0.15,0.25-0.19c0.19-0.03-0.03-0.4-0.21-0.37
		c-0.19,0.03-0.37-0.06-0.4-0.22c-0.03-0.15-0.34-0.56-0.37-0.25c-0.03,0.31-0.22,0.31-0.18,0.53C44.9,9.77,45,10.1,45.12,10.14z"/>
	<path class="st0" d="M41.58,10.49c-0.02-0.11,0.61-0.12,0.71-0.03c0.09,0.09,0.03,0.25,0.31,0.25c0.28,0,0.15,0.19,0.12,0.28
		c-0.03,0.09-0.34,0.06-0.37-0.03c-0.03-0.09-0.49-0.13-0.49-0.13S41.62,10.65,41.58,10.49z"/>
	<polygon class="st0" points="51.8,4 51.64,3.84 51.51,3.98 51.73,4.19 51.79,4.25 51.85,4.2 52.16,3.95 52.04,3.8 	"/>
	<polygon class="st0" points="50.15,3.11 50.05,3.27 50.3,3.43 50.35,3.46 50.4,3.43 50.74,3.21 50.64,3.05 50.35,3.24 	"/>
	<polygon class="st0" points="49.31,9.65 49,9.62 48.98,9.81 49.25,9.83 49.44,10.14 49.59,10.04 49.38,9.7 49.36,9.66 	"/>
	<path class="st0" d="M39.19,18.36l0.03,0.34h0.46c0.19,0-0.15-0.22-0.15-0.22S39.15,18.51,39.19,18.36z"/>
	<polygon class="st0" points="39.77,18.37 39.89,18.23 40.07,18.38 39.96,18.52 	"/>
	<polygon class="st0" points="34.17,12.53 34.3,12.4 34.48,12.58 34.35,12.72 	"/>
	<polygon class="st0" points="42.79,52.54 42.71,52.71 42.9,52.8 42.84,52.87 42.97,53 43.13,52.84 43.22,52.75 43.1,52.7 	"/>
	<polygon class="st0" points="40.6,50.3 40.42,50.46 40.33,50.54 40.42,50.61 40.64,50.76 40.75,50.61 40.63,50.53 40.72,50.45 	"/>
	<path class="st0" d="M63.58,44.53c-0.04-0.16-0.22-0.22-0.24-0.23l-0.06,0.18l0.06,0.03l0.04,0.16l-0.04,0.06l0.13,0.13
		C63.57,44.74,63.61,44.63,63.58,44.53L63.58,44.53z"/>
	<polygon class="st0" points="63.57,43.92 63.59,43.64 63.89,43.68 63.87,43.94 	"/>
	<path class="st0" d="M70.99,41.51c0.13-0.08,0.3-0.24,0.28,0.12c-0.02,0.35-0.16,0.24-0.28,0.35
		C70.88,42.09,70.81,41.62,70.99,41.51z"/>
	<polygon class="st0" points="72.56,40.18 72.56,40.14 72.51,39.94 72.34,40.03 72.37,40.15 72.43,40.31 72.56,40.33 72.52,40.15 	
		"/>
	<path class="st0" d="M72.15,40.33c0.05,0.19,0.12,0.38,0.12,0.38l0.17-0.07c0,0-0.07-0.18-0.11-0.36L72.15,40.33z"/>
	<path class="st0" d="M71.48,41.07l-0.18-0.02c-0.01,0.15,0.02,0.33,0.17,0.36l0.04-0.18h0L71.48,41.07z"/>
	<path class="st0" d="M70.67,37.35l-0.1-0.13c-0.14-0.06-0.37,0.04-0.48,0.12l0.1,0.15c0.12-0.08,0.27-0.12,0.3-0.1l-0.01-0.01
		L70.67,37.35z"/>
	<path class="st0" d="M62.15,27.38c-0.12,0.12-0.4,0.19-0.4,0.19l-0.09,0.34l-0.15,0.12c0,0,0.03,0.09,0,0.31
		c-0.03,0.22-0.31,0.34-0.31,0.34l-0.12,0.16h-0.83c-0.28-0.13-0.09-0.5,0.09-0.47c0.18,0.03-0.03-0.53-0.03-0.53l0.25-0.03
		c0,0,0.03-0.56,0.12-0.56c0.09,0-0.03-0.19-0.15-0.28c-0.12-0.09-0.28-0.41-0.4-0.38c-0.12,0.03-0.61,0-0.61,0l-0.09,0.19
		l-0.34,0.06l-0.03,0.31c-0.18,0.22-0.89,0.69-0.58-0.09l0.09-0.19V26.6L58,26.57c0,0-0.28-0.09-0.28-0.22
		c0-0.12-0.03-0.28-0.03-0.28l-0.64-0.72l-0.77-0.09l-0.06-0.16l-0.46-0.06c-0.55-0.28-1.05-0.03-0.95,0.43
		c0.09,0.47,0.25,0.66-0.06,0.66c-0.31,0-0.37-0.25-0.37-0.25s-0.25-0.09-0.25,0.03c0,0.13-0.09,0.38,0,0.5
		c0.09,0.13-0.12,0.31-0.22,0.22c-0.09-0.09-0.34-0.37-0.28-0.47c0.06-0.09-0.43-0.69,0.06-0.78c0.49-0.09-0.03-0.38,0.15-0.44
		l0.25-0.12h0.25l0.16-0.13l-0.4-0.06l-0.25-0.03l-0.46-0.03c-0.46,0.31-0.55,0.69-0.55,0.69c-0.25,0.47-0.83-0.19-0.61-0.44
		c0.21-0.25-0.68-0.03-0.83,0.09c-0.15,0.12-0.61,0.06-0.61,0.06c-0.09,0.28-0.52-0.03-0.4-0.22c0.12-0.19,0.12-0.31,0.12-0.31
		l-0.15-0.03l-0.18,0.34c-0.43,0-0.55,0.25-0.46,0.4c0.09,0.16-0.12-0.03-0.19,0.19c-0.06,0.22,0.03,0.22,0.22,0.31
		c0.19,0.09-0.09,0.09,0.03,0.25c0.12,0.16,0.49,0,0.28,0.22c-0.21,0.22-0.65,0.13-0.65,0.13c-0.03,0.28-0.62,0.22-0.68,0.12
		c-0.06-0.09-0.52-0.66-0.52-0.66l-0.59-0.03c-0.06-0.44,0.28-0.22,0.4-0.56c0.12-0.34,0.19-0.91,0.19-0.91s-0.49-0.03-0.52,0.13
		c-0.03,0.16-0.34,0.25-0.34,0.25s-0.25,0.09-0.15,0.22c0.09,0.12-0.19,0.19-0.19,0.19l-0.03,0.28c-0.25,0.25-0.86,0.03-0.95-0.06
		l-0.37-0.16l-0.37-0.25L44.84,25l-0.12,0.13h-0.46l-0.03,0.37l0.83,0.09l0.06,0.77l-0.34-0.12h-0.22l-0.09-0.19l-0.18-0.03v0.69
		l0.18,0.16l0.15,0.16l0.31,0.03L45,27.44l0.77,0.03l0.09,0.15l0.46,0.03l0.89,0.91l-0.06,0.28L47,28.94
		c0.06,0.22-0.4,0.09-0.4,0.09v0.19l0.21,0.03l0.22,0.12l0.31-0.53c0.34-0.22,0.49,0.09,0.52,0.28c0.03,0.19-0.16,0.16-0.16,0.16
		v0.44l0.19,0.06c0.31,0.38-0.12,0.59-0.12,0.59l-0.09,0.31c-0.09,0.28-0.43,0.22-0.43,0.22l-0.12,0.19l-0.37,0.09l0.73,0.09
		c0.07-0.25,0.25-0.31,0.35-0.19c0.09,0.12,0.09,0.34,0.09,0.34l0.19,0.03l-0.03,0.34l0.19,0.06v1l0.21,0.25
		c0.37-0.15,0.37,0.09,0.18,0.22c-0.18,0.12-0.06,0.69-0.06,0.69l-0.15,0.16v0.25l-0.18,0.13v0.34c-0.31-0.16-0.68-0.09-0.77,0
		c-0.27-0.19-0.86-0.12-0.86,0.03c0.18,0.25-0.21,0.31-0.21,0.31l-0.22,0.25c0.15,0.31-0.15,0.34-0.15,0.34v0.59l-0.37,0.34
		l0.03,0.81c0,0.22,0.46,0.25,0.55,0.12c0.09-0.12,0.46,0.25,0.46,0.25h0.28l0.06-0.56l-0.18-0.09v-0.9l0.31-0.34
		c0.37-0.12,0.25,0.81,0.25,0.91c0.03,0.34,0.18,0.31,0.34,0.25c0.31-0.13,0.06,0.34-0.18,0.31c-0.25-0.03-0.09,0.31-0.09,0.31
		l0.15,0.06l-0.28,0.22l-0.25,0.28l-0.31-0.09l-0.37-0.03l-0.12-0.22l-0.21-0.03l-0.03,0.44l-0.15,0.19l-0.37,0.38
		c0.49,0-0.06,0.34-0.18,0.34c0.28,0.09-0.03,0.37-0.74,0.16v0.22l-0.25,0.03l0.22,0.25l0.25,0.03l-0.09,0.53
		c0,0.41-1.01,0.13-1.11,0.03l-0.03,0.56l-0.19,0.03l0.03,0.37l-0.03,0.53l0.34-0.06v0.22l0.83,0.03l1.2-1.28l0.71-0.15
		c0.06-0.31,0.37,0.06,0.37,0.06c0.31-0.03,0.37,0.19,0.37,0.19l0.4,0.06c0.34,0.09,0.13,0.13,0.15,0.25
		c0.03,0.19,0.19,0.12,0.19,0.12l0.06-0.4l0.18,0.03l-0.18-0.22L47.7,40.8l-0.37-0.16c-0.25-0.34,0.06-0.28,0.31-0.25h0.4
		c0,0,0.46,0.62,0.46,0.78s0.21,0.19,0.21,0.19l0.28-0.03l0.09,0.22h0.28l0.09,0.19h0.55l0.03-0.28l-0.52-0.09l-0.03-0.31
		l-0.37-0.09c-0.12-0.53,0.09-0.69,0.25-0.44l0.18,0.03l-0.06-0.47l0.21-0.06l-0.06-0.65l-0.19-0.06v-0.22l0.77,0.03
		c-0.06-0.41,0.03-0.59,0.03-0.59h0.21l0.03,0.16l0.94,0.09L52.11,38l-0.01-0.17c-0.09-0.09-0.22,0-0.37-0.09
		c-0.15-0.09,0-0.62-0.03-0.75c-0.03-0.12,0.52-0.31,0.43-0.03c-0.09,0.28,0,0.41,0,0.41c0.4-0.38,0.74,0.03,0.71,0.12
		c-0.03,0.09,0.21,0.19,0.37,0.09c0.15-0.09,0.34,0.28,0.28,0.47c-0.06,0.19-0.61,0.16-0.64-0.03c-0.03-0.19-0.12-0.13-0.18-0.03
		c-0.06,0.09-0.34,0.16-0.49,0.06L52.11,38l-0.67,0.77l0.04,0c0.37,0.22,0.18,0.5,0.06,0.56c-0.12,0.06-0.34,0.06-0.34,0.06
		l-0.06,0.13l-0.8,0.06l-0.06,0.31c-0.4-0.06-0.55,0.38-0.46,0.59c0.09,0.22,0,0.4,0,0.4l0.34,0.16l0.43-0.12
		c0.06-0.31,0.34-0.38,0.58-0.56c0.25-0.19,0.64,0.34,0.52,0.59c-0.12,0.25-0.12,0.34-0.12,0.34l0.03,0.28L51.3,41.7l-0.25,0.12
		l-0.03,0.16h-0.83l-0.15,0.16l-0.4,0.03l-0.12,0.19l-0.28,0.03c0,0-0.46,0.22-0.28,0.47c0.18,0.25-0.77,0.22-0.98-0.12
		c-0.06,0.31-0.4,0.03-0.4,0.03l-0.34-0.09l-0.03-0.47c-0.06-0.31-0.65-0.31-0.61-0.09c0.03,0.22-1.11,0.09-1.11,0.09l-0.37,0.18
		l-0.34,0.19l-0.03,0.16l-0.55,0.06l-0.25,0.13l-0.09-0.19h-0.25l-0.24,0.34c-0.65,0.03-1.26,0.41-1.2,0.56
		c0.06,0.16-0.24,0.31-0.24,0.31l-0.28,0.09l-0.18,0.28l-0.37,0.12l-0.06,0.66l-0.18,0.12v0.28l-0.22,0.06v0.16l-0.31,0.03
		l0.18,0.47l0.25,0.12c0.43,0.06,0.25,0.59,0.25,0.59l0.25,0.03l0.12,0.34l0.25,0.5c0.09,0.37,0.37,0.28,0.49,0.25
		c0.12-0.03,0.25,0.37,0.25,0.37l1.23,0.03c0,0-0.06,0.13,0.15,0.19c0.21,0.06,1.63,0.13,1.69,0.03c-0.06-0.28,0.77-0.34,1.11-0.09
		c0.34,0.25,0.8,0.09,0.8,0.09l0.46,0.56l0.31,0.69l0.52,0.15l0.37,0.09l0.12,0.53l0.27,0.03l0.09,0.34
		c0.34,0.25-0.09,0.78-0.09,0.78v0.69l0.25,0.13l-0.03,0.25l0.4,0.41l0.46,0.03l1.17,1.25l0.92,0.28l0.15,0.5l0.25-0.03l0.19-0.16
		l0.74-0.03l0.37-0.34l0.4-0.06l3.41-2.9l-0.31-0.19V51c0.55-0.41,0.59-1.12,0.06-1.19c-0.4-0.05-0.22-0.47,0.15-0.53l0.21-0.09
		v-0.28l0.71-0.65v-0.5l-1.54-1.28c-0.68-0.25,0-1.75,0.46-1.72c0.46,0.03-0.03-2.31-0.03-2.31l-0.25-0.12l0.06-0.75h-0.34
		l-0.56,0.72l-0.15,0.5c-0.06,0.65-1.97,0.53-2.06,0.44c-0.09-0.09-0.74-0.37-0.74-0.37s-0.49-0.41-0.58-0.28
		c-0.09,0.12-0.52-0.16-0.52-0.06c0,0.09-0.4-0.22-0.4-0.22l-0.61-0.22l0.46-0.09l-0.09-0.38l0.8,0.41
		c0.09,0.12,0.49,0.09,0.49,0.09l0.12,0.16c0,0,0.25-0.03,0.4,0.16c0.15,0.19,0.95,0.03,0.95,0.03l0.21,0.19l0.34,0.12l0.95,0.03
		l0.03-0.59l0.19-0.19l-0.03-0.38l0.22-0.19v-0.31l0.18-0.06l0.03-0.69l0.15-0.03v-1.5l-0.46-0.44c-0.03,0.16-0.52,0.16-0.52,0.16
		s-0.12,0.22-0.22,0.22s0.12,0.28,0.06,0.47c-0.06,0.19-0.31,0.19-0.31,0.19l-0.46,0.12l-0.12,0.16h-0.49l-0.06-0.41l0.55-0.16
		l0.31-0.16l0.15-0.31c0.03-0.31,0.4-0.28,0.4-0.28s0.71-0.59,0.74-0.87c0.03-0.28,0.28-1.06,0.71-1.06h0.8
		c0.31-0.12,0.22-0.53,0.22-0.53l0.4-0.06l0.06,0.22c0,0,0.55,0.06,0.61-0.03c0.06-0.09,0.18-0.31,0.34-0.22
		c0.15,0.09,0.65-0.22,0.65-0.22c0.03-0.22,0.8-0.12,0.8-0.12l0.09-0.28c0,0-0.52-0.72-0.62-0.72c-0.09,0-0.58-0.44-0.64-0.28
		c-0.49-0.12-0.46-0.81-0.46-0.81L59.39,33c0-0.25-0.46-0.78-0.55-0.72c-0.46-0.34-0.12-0.75,0-0.78c0.12-0.03,0.43-0.47,0.43-0.47
		l0.15-0.44l0.52-0.15L60,30.03L59.73,30c0,0,0.31-0.56,0.46-0.56c0.16,0,1.17,0,1.26-0.06c0.09-0.06,0.28-0.56,0.28-0.65
		s0.25-0.13,0.34-0.16c0.09-0.03,0.31-0.28,0.37-0.4C62.49,28.03,62.28,27.25,62.15,27.38z"/>
	<path class="st0" d="M45.12,38.63c0.05-0.05,0.09,0.14,0.18,0.12c0.09-0.02,0.14,0.16,0.05,0.16c-0.09,0-0.09,0.12-0.09,0.16
		l-0.07,0.23c-0.07,0.07-0.14,0.02-0.23-0.02c-0.09-0.05-0.14-0.05-0.25-0.05s-0.02,0.19-0.02,0.19s-0.48-0.02-0.39-0.09
		c0.09-0.07,0.19-0.09,0.12-0.14c-0.07-0.05,0-0.09,0-0.19c0-0.09,0.23-0.05,0.16-0.12c-0.07-0.07,0-0.34,0.12-0.19l0.07-0.17
		c-0.07-0.07-0.02-0.09-0.16-0.14c-0.14-0.05-0.02-0.33-0.02-0.33l0.02-0.19c0.05-0.23,0.51-0.26,0.53-0.05c0.02,0.21,0,0.35,0,0.35
		l0.14,0.05c0,0-0.02,0.14-0.14,0.14s0,0.07-0.07,0.14L45.12,38.63z"/>
	<path class="st0" d="M43.6,38.86c0.07-0.14,0.23-0.75,0.42-0.56c0.18,0.19,0.3,0,0.3,0s0.09,0.09,0.05,0.28
		c-0.05,0.19-0.09,0.38-0.21,0.4c-0.11,0.02-0.21,0.09-0.34,0.12C43.67,39.12,43.6,38.86,43.6,38.86z"/>
	<rect x="68.11" y="102.52" class="st0" width="3.19" height="15.96"/>
	<rect x="15.96" y="102.52" class="st0" width="3.19" height="15.96"/>
	<polygon class="st0" points="62.96,115.29 60.66,115.29 60.66,105.71 57.47,105.71 57.47,115.29 55.17,115.29 55.17,118.48 
		57.47,118.48 60.66,118.48 62.96,118.48 66.15,118.48 66.15,115.29 66.15,102.52 62.96,102.52 	"/>
	<path class="st0" d="M33.17,102.52v3.19v9.58h-3.9v-6.38v-3.19h-3.19h-1.6h-3.19v3.19v6.38v3.19h3.19h1.6v4.98h3.19v-4.98h3.9h3.19
		h3.9h3.19h1.6h3.19h1.6h3.19v-3.19v-6.38h-3.19v6.38h-1.6v-6.38h-3.19v6.38h-1.6v-6.38h-3.19v6.38h-3.9v-9.58h16.67v-3.19H36.36
		H33.17z M26.08,115.29h-1.6v-6.38h1.6V115.29z"/>
	<polygon class="st0" points="15.96,128.81 23.93,128.81 23.93,131.86 19.29,131.86 19.29,136.98 23.26,136.98 23.26,140.01 
		19.29,140.01 19.29,145.6 24.13,145.6 24.13,148.65 15.96,148.65 	"/>
	<path class="st0" d="M30.74,136.01l2.06,2.43c1.79,1.62,2.51,3.58,2.51,5.84c0,2.24-1.19,4.72-4.79,4.72
		c-2.43,0-4.74-1.47-4.74-4.35v-2.48h3.28v2.04c0,0.72,0.15,1.94,1.47,1.94c0.94,0,1.47-0.75,1.47-1.86c0-1.37-0.55-2.43-1.59-3.5
		l-2.33-2.66c-1.12-1.09-2.11-2.48-2.11-5.09c0-2.98,1.74-4.57,4.57-4.57c2.24,0,4.65,0.85,4.65,4.42v2.31h-3.15v-1.79
		c0-1.32-0.42-2.09-1.44-2.09c-0.97,0-1.47,0.55-1.47,1.59C29.1,133.6,29.25,134.67,30.74,136.01z"/>
	<path class="st0" d="M46.4,144.23c0,2.98-1.74,4.77-4.62,4.77c-2.86,0-4.62-1.79-4.62-4.74v-11.03c0-2.98,1.76-4.77,4.59-4.77
		c2.91,0,4.65,1.79,4.65,4.74v2.83h-3.33v-3.25c0-0.92-0.42-1.47-1.29-1.47c-0.89,0-1.29,0.55-1.29,1.47v11.9
		c0,0.92,0.4,1.46,1.29,1.46c0.87,0,1.29-0.55,1.29-1.46v-3.92h3.33V144.23z"/>
	<polygon class="st0" points="47.84,128.81 51.22,128.81 52.86,143.51 52.91,143.51 54.42,128.81 57.6,128.81 59.07,143.51 
		59.12,143.51 60.76,128.81 64.08,128.81 61,148.65 57.43,148.65 55.96,135.22 55.94,135.22 54.4,148.65 50.8,148.65 	"/>
	<path class="st0" d="M66.93,148.65h-3.38l3.1-19.84h4.52l3.1,19.84h-3.48l-0.42-3.88h-3.03L66.93,148.65z M70.04,141.94
		l-1.04-10.53h-0.1l-1.17,10.53H70.04z"/>
	<path class="st0" d="M8.92,84.93v4.31c0,1.62,0.72,2.31,1.69,2.31c1.07,0,1.77-0.71,1.77-2.31v-4.31h0.95v4.25
		c0,2.23-1.18,3.14-2.75,3.14c-1.49,0-2.61-0.84-2.61-3.11v-4.28H8.92z"/>
	<path class="st0" d="M14.85,92.2v-7.27h1.04l2.32,3.68c0.53,0.85,0.96,1.62,1.29,2.36l0.03-0.01c-0.09-0.97-0.11-1.85-0.11-2.99
		v-3.04h0.88v7.27h-0.95l-2.31-3.69c-0.51-0.81-0.99-1.64-1.35-2.43l-0.03,0.01c0.05,0.92,0.06,1.79,0.06,3v3.11H14.85z"/>
	<rect x="21.83" y="84.93" class="st0" width="0.95" height="7.27"/>
	<polygon class="st0" points="25.69,85.73 23.48,85.73 23.48,84.93 28.86,84.93 28.86,85.73 26.64,85.73 26.64,92.2 25.69,92.2 	"/>
	<polygon class="st0" points="33.31,88.79 30.5,88.79 30.5,91.41 33.65,91.41 33.65,92.2 29.55,92.2 29.55,84.93 33.49,84.93 
		33.49,85.72 30.5,85.72 30.5,88.01 33.31,88.01 	"/>
	<path class="st0" d="M34.76,85.04c0.57-0.1,1.25-0.16,1.99-0.16c1.35,0,2.31,0.32,2.94,0.91c0.66,0.59,1.04,1.43,1.04,2.61
		c0,1.19-0.38,2.16-1.05,2.83c-0.69,0.68-1.81,1.05-3.22,1.05c-0.68,0-1.23-0.03-1.7-0.09V85.04z M35.7,91.46
		c0.24,0.03,0.58,0.04,0.95,0.04c2.02,0,3.1-1.12,3.1-3.08c0.01-1.71-0.96-2.8-2.94-2.8c-0.48,0-0.85,0.04-1.1,0.1V91.46z"/>
	<path class="st0" d="M44.01,92.2v-7.27h1.04l2.32,3.68c0.53,0.85,0.96,1.62,1.29,2.36l0.03-0.01c-0.09-0.97-0.11-1.85-0.11-2.99
		v-3.04h0.88v7.27h-0.95l-2.31-3.69c-0.51-0.81-0.99-1.64-1.35-2.43l-0.03,0.01c0.05,0.92,0.06,1.79,0.06,3v3.11H44.01z"/>
	<path class="st0" d="M52.17,89.91l-0.75,2.29h-0.97l2.48-7.27h1.12l2.48,7.27h-1l-0.78-2.29H52.17z M54.57,89.18l-0.72-2.09
		c-0.16-0.47-0.27-0.91-0.38-1.33h-0.02c-0.11,0.42-0.22,0.87-0.37,1.32l-0.71,2.1H54.57z"/>
	<polygon class="st0" points="58.04,85.73 55.83,85.73 55.83,84.93 61.21,84.93 61.21,85.73 58.99,85.73 58.99,92.2 58.04,92.2 	"/>
	<rect x="61.9" y="84.93" class="st0" width="0.95" height="7.27"/>
	<path class="st0" d="M70.59,88.49c0,2.49-1.52,3.83-3.37,3.83c-1.93,0-3.27-1.5-3.27-3.7c0-2.31,1.42-3.82,3.36-3.82
		C69.31,84.8,70.59,86.32,70.59,88.49z M64.94,88.6c0,1.56,0.84,2.96,2.33,2.96c1.49,0,2.33-1.37,2.33-3.02
		c0-1.46-0.75-2.97-2.32-2.97C65.72,85.57,64.94,87.01,64.94,88.6z"/>
	<path class="st0" d="M71.71,92.2v-7.27h1.04l2.32,3.68c0.53,0.85,0.96,1.62,1.29,2.36l0.03-0.01c-0.09-0.97-0.11-1.85-0.11-2.99
		v-3.04h0.88v7.27h-0.95l-2.31-3.69c-0.51-0.81-0.99-1.64-1.35-2.43l-0.03,0.01c0.05,0.92,0.07,1.79,0.07,3v3.11H71.71z"/>
	<path class="st0" d="M78.58,91.05c0.42,0.27,1.02,0.47,1.67,0.47c0.96,0,1.52-0.51,1.52-1.24c0-0.67-0.39-1.07-1.37-1.43
		c-1.19-0.43-1.92-1.06-1.92-2.07c0-1.13,0.94-1.97,2.35-1.97c0.73,0,1.28,0.17,1.6,0.36l-0.26,0.77c-0.23-0.14-0.71-0.35-1.37-0.35
		c-0.99,0-1.37,0.59-1.37,1.09c0,0.68,0.44,1.01,1.44,1.4c1.23,0.47,1.84,1.07,1.84,2.14c0,1.12-0.82,2.1-2.53,2.1
		c-0.7,0-1.47-0.22-1.85-0.47L78.58,91.05z"/>
</g>
</svg>
