<svg version="1.1" id="Layer_2" xmlns="http://www.w3.org/2000/svg" xmlns:xlink="http://www.w3.org/1999/xlink" x="0px" y="0px" viewBox="0 0 90 150" style="enable-background:new 0 0 90 150;" xml:space="preserve" title="شعار الإسكوا'|t}}" class="injected-svg bg-unescwa unescwa" data-src="/themes/custom/escwa/assets/img/unescwa-white_ar.svg">
<style type="text/css">
	.st0{fill:#3a8dde;}
</style>
<path class="st0" d="M4.54,84.45c0-0.19,0.07-0.36,0.21-0.5c0.14-0.14,0.3-0.21,0.5-0.21c0.19,0,0.36,0.07,0.5,0.21  c0.14,0.14,0.21,0.3,0.21,0.5c0,0.19-0.07,0.36-0.21,0.5c-0.14,0.14-0.3,0.2-0.5,0.2c-0.19,0-0.36-0.07-0.5-0.2  C4.61,84.81,4.54,84.65,4.54,84.45 M4.48,87.58c-0.22,0-0.43,0.05-0.61,0.15c-0.19,0.1-0.35,0.24-0.48,0.4  c-0.13,0.17-0.24,0.36-0.31,0.58c-0.08,0.22-0.11,0.45-0.11,0.7c0,0.24,0.04,0.45,0.12,0.61c0.08,0.17,0.19,0.31,0.32,0.43  c0.14,0.11,0.3,0.19,0.48,0.24c0.18,0.05,0.38,0.07,0.58,0.07c0.19,0,0.37-0.02,0.55-0.06c0.18-0.04,0.34-0.11,0.49-0.21  c0.14-0.1,0.26-0.23,0.35-0.4c0.09-0.16,0.13-0.37,0.13-0.63c0-0.29-0.05-0.55-0.13-0.78c-0.09-0.23-0.2-0.43-0.33-0.59  c-0.14-0.17-0.3-0.3-0.48-0.38C4.86,87.62,4.67,87.58,4.48,87.58 M2.81,84.45c0-0.19,0.07-0.36,0.21-0.5  c0.14-0.14,0.3-0.21,0.5-0.21s0.36,0.07,0.5,0.21c0.14,0.14,0.21,0.3,0.21,0.5c0,0.19-0.07,0.36-0.21,0.5  c-0.14,0.14-0.3,0.2-0.5,0.2s-0.36-0.07-0.5-0.2C2.88,84.81,2.81,84.65,2.81,84.45 M1.96,89.53c0-0.35,0.06-0.71,0.17-1.07  c0.11-0.36,0.28-0.69,0.5-0.98c0.22-0.29,0.49-0.53,0.81-0.71c0.32-0.18,0.67-0.27,1.07-0.27c0.34,0,0.66,0.07,0.96,0.21  c0.3,0.14,0.56,0.34,0.79,0.6c0.22,0.26,0.4,0.57,0.53,0.95c0.13,0.37,0.19,0.8,0.19,1.28c0,0.29-0.05,0.58-0.14,0.86  c-0.09,0.28-0.24,0.53-0.45,0.74c-0.21,0.22-0.47,0.39-0.8,0.53c-0.33,0.14-0.71,0.21-1.17,0.21c-0.37,0-0.71-0.05-1.01-0.14  c-0.3-0.09-0.56-0.24-0.78-0.43c-0.22-0.2-0.38-0.44-0.5-0.73C2.02,90.28,1.96,89.93,1.96,89.53"></path>
<path class="st0" d="M13.74,91.8c-0.36,0-0.67-0.08-0.92-0.23c-0.25-0.15-0.49-0.42-0.74-0.81c-0.1,0.24-0.22,0.43-0.38,0.57  c-0.15,0.14-0.33,0.25-0.52,0.31c-0.19,0.07-0.39,0.11-0.6,0.13c-0.21,0.02-0.43,0.03-0.64,0.03H7.92v-1.1h2.38  c0.37,0,0.66-0.05,0.86-0.14c0.2-0.09,0.3-0.23,0.3-0.41c0-0.17-0.05-0.33-0.13-0.5c-0.09-0.17-0.2-0.35-0.33-0.55l-1.41-2.09  l1.02-0.64l1.6,2.64c0.18,0.29,0.33,0.55,0.46,0.76c0.13,0.21,0.26,0.39,0.38,0.52c0.12,0.13,0.23,0.23,0.34,0.3  c0.11,0.07,0.23,0.1,0.35,0.1c0.35,0,0.53,0.18,0.53,0.53c0,0.22-0.04,0.37-0.13,0.45C14.06,91.76,13.93,91.8,13.74,91.8"></path>
<path class="st0" d="M13.74,91.8c-0.35,0-0.53-0.18-0.53-0.53c0-0.22,0.04-0.37,0.13-0.45c0.08-0.08,0.22-0.12,0.4-0.12h1.97  c0.35,0,0.53,0.18,0.53,0.53c0,0.22-0.04,0.37-0.13,0.45c-0.08,0.08-0.22,0.12-0.41,0.12H13.74z"></path>
<path class="st0" d="M15.71,91.8c-0.35,0-0.53-0.18-0.53-0.53c0-0.22,0.05-0.37,0.13-0.45c0.08-0.08,0.22-0.12,0.41-0.12h1.97  c0.35,0,0.53,0.18,0.53,0.53c0,0.22-0.04,0.37-0.13,0.45c-0.08,0.08-0.22,0.12-0.4,0.12H15.71z"></path>
<path class="st0" d="M17.68,91.8c-0.35,0-0.53-0.18-0.53-0.53c0-0.22,0.04-0.37,0.13-0.45c0.08-0.08,0.22-0.12,0.41-0.12h1.97  c0.35,0,0.53,0.18,0.53,0.53c0,0.22-0.04,0.37-0.13,0.45c-0.08,0.08-0.22,0.12-0.41,0.12H17.68z"></path>
<path class="st0" d="M19.65,91.8c-0.35,0-0.53-0.18-0.53-0.53c0-0.22,0.04-0.37,0.13-0.45c0.09-0.08,0.22-0.12,0.41-0.12h1.97  c0.35,0,0.53,0.18,0.53,0.53c0,0.22-0.04,0.37-0.13,0.45c-0.09,0.08-0.22,0.12-0.41,0.12H19.65z"></path>
<path class="st0" d="M21.61,91.8c-0.35,0-0.53-0.18-0.53-0.53c0-0.22,0.04-0.37,0.13-0.45c0.08-0.08,0.22-0.12,0.41-0.12h1.97  c0.35,0,0.53,0.18,0.53,0.53c0,0.22-0.04,0.37-0.13,0.45c-0.08,0.08-0.22,0.12-0.41,0.12H21.61z"></path>
<path class="st0" d="M23.58,91.8c-0.35,0-0.53-0.18-0.53-0.53c0-0.22,0.04-0.37,0.13-0.45c0.09-0.08,0.22-0.12,0.41-0.12h5.33  c0-0.57-0.07-1.05-0.23-1.44c-0.15-0.39-0.35-0.71-0.61-0.95c-0.26-0.24-0.55-0.42-0.9-0.53c-0.34-0.11-0.71-0.17-1.1-0.17  c-0.26,0-0.53,0.02-0.82,0.07c-0.29,0.05-0.53,0.1-0.71,0.15v-1.05c0.18-0.05,0.41-0.11,0.7-0.18c0.29-0.06,0.61-0.1,0.96-0.1  c0.67,0,1.24,0.11,1.72,0.33c0.48,0.22,0.87,0.52,1.19,0.91c0.32,0.39,0.55,0.83,0.7,1.34c0.15,0.51,0.23,1.04,0.24,1.61h0.82  c0.35,0,0.53,0.18,0.53,0.53c0,0.22-0.04,0.37-0.13,0.45c-0.09,0.08-0.22,0.12-0.41,0.12H23.58z"></path>
<path class="st0" d="M33.67,84.45c0-0.19,0.07-0.36,0.21-0.5c0.14-0.14,0.3-0.21,0.5-0.21c0.19,0,0.36,0.07,0.5,0.21  c0.14,0.14,0.21,0.3,0.21,0.5c0,0.19-0.07,0.36-0.21,0.5c-0.14,0.14-0.3,0.2-0.5,0.2c-0.19,0-0.36-0.07-0.5-0.2  C33.74,84.81,33.67,84.65,33.67,84.45 M31.94,84.45c0-0.19,0.07-0.36,0.21-0.5c0.14-0.14,0.3-0.21,0.5-0.21  c0.2,0,0.36,0.07,0.5,0.21c0.14,0.14,0.21,0.3,0.21,0.5c0,0.19-0.07,0.36-0.21,0.5c-0.14,0.14-0.3,0.2-0.5,0.2  c-0.19,0-0.36-0.07-0.5-0.2C32.01,84.81,31.94,84.65,31.94,84.45 M30.89,91.8c-0.35,0-0.53-0.18-0.53-0.53  c0-0.22,0.05-0.37,0.13-0.45c0.08-0.08,0.22-0.12,0.41-0.12h0.89c0.21,0,0.39-0.01,0.54-0.03c0.15-0.02,0.28-0.06,0.38-0.13  c0.1-0.06,0.18-0.16,0.23-0.29c0.05-0.13,0.07-0.3,0.07-0.53v-3.04h1.09v2.55c0,0.22,0.01,0.42,0.05,0.61  c0.03,0.18,0.09,0.34,0.18,0.46c0.09,0.12,0.21,0.22,0.36,0.29c0.15,0.07,0.34,0.11,0.57,0.11c0.36,0,0.53,0.18,0.53,0.53  c0,0.22-0.04,0.37-0.13,0.45c-0.08,0.08-0.22,0.12-0.41,0.12c-0.35,0-0.62-0.08-0.84-0.25c-0.21-0.17-0.35-0.37-0.42-0.62  c-0.16,0.36-0.41,0.6-0.75,0.7c-0.34,0.11-0.76,0.16-1.26,0.16H30.89z"></path>
<path class="st0" d="M41.14,89.45c0-0.19-0.03-0.39-0.09-0.57c-0.06-0.19-0.14-0.35-0.25-0.49c-0.11-0.14-0.25-0.25-0.41-0.34  c-0.16-0.09-0.34-0.13-0.56-0.13c-0.37,0-0.71,0.16-1.02,0.49c-0.31,0.33-0.6,0.9-0.88,1.73c0.33,0.21,0.65,0.38,0.98,0.51  c0.32,0.13,0.65,0.19,0.99,0.19c0.37,0,0.67-0.1,0.9-0.32C41.03,90.31,41.14,89.96,41.14,89.45 M43.41,91.8  c-0.34,0-0.63-0.07-0.87-0.2c-0.25-0.13-0.45-0.36-0.6-0.67V90.9c-0.17,0.34-0.41,0.6-0.74,0.79c-0.33,0.19-0.73,0.29-1.22,0.29  c-0.42,0-0.84-0.07-1.26-0.21c-0.43-0.14-0.86-0.38-1.32-0.72c-0.11,0.18-0.23,0.32-0.35,0.42c-0.12,0.1-0.25,0.18-0.38,0.23  c-0.13,0.05-0.27,0.08-0.41,0.09c-0.14,0.01-0.29,0.02-0.45,0.02h-0.57c-0.35,0-0.53-0.18-0.53-0.53c0-0.22,0.04-0.37,0.13-0.45  c0.09-0.08,0.22-0.12,0.41-0.12h0.54c0.11,0,0.22-0.01,0.33-0.04c0.12-0.03,0.23-0.09,0.35-0.18c0.12-0.09,0.23-0.21,0.34-0.37  c0.11-0.15,0.21-0.36,0.31-0.63c0.21-0.57,0.42-1.03,0.65-1.38c0.23-0.35,0.46-0.62,0.69-0.82c0.24-0.19,0.47-0.32,0.72-0.38  c0.24-0.06,0.49-0.09,0.73-0.09c0.34,0,0.65,0.07,0.93,0.19c0.28,0.13,0.53,0.31,0.74,0.54c0.21,0.24,0.37,0.52,0.49,0.84  c0.12,0.32,0.18,0.69,0.18,1.09c0,0.06,0,0.12-0.01,0.18c0,0.06-0.01,0.11-0.01,0.17c0.09,0.28,0.22,0.5,0.39,0.65  c0.17,0.15,0.44,0.22,0.8,0.22c0.35,0,0.53,0.18,0.53,0.53c0,0.22-0.04,0.37-0.13,0.45C43.74,91.76,43.6,91.8,43.41,91.8"></path>
<path class="st0" d="M43.43,91.8c-0.35,0-0.53-0.18-0.53-0.53c0-0.22,0.05-0.37,0.13-0.45c0.09-0.08,0.22-0.12,0.41-0.12h2.07v-8.39  h1.09v9.49H43.43z"></path>
<rect x="48.32" y="82.31" class="st0" width="1.09" height="9.49"></rect>
<path class="st0" d="M57.67,89.45c0-0.19-0.03-0.39-0.09-0.57c-0.06-0.19-0.14-0.35-0.25-0.49c-0.11-0.14-0.25-0.25-0.41-0.34  c-0.16-0.09-0.35-0.13-0.56-0.13c-0.37,0-0.73,0.17-1.08,0.52c-0.35,0.35-0.62,0.91-0.82,1.7c0.33,0.21,0.65,0.38,0.98,0.51  c0.32,0.13,0.65,0.19,0.99,0.19c0.37,0,0.67-0.1,0.9-0.32C57.56,90.31,57.67,89.96,57.67,89.45 M59.94,91.8  c-0.33,0-0.63-0.07-0.87-0.2c-0.25-0.13-0.45-0.36-0.6-0.67V90.9c-0.17,0.34-0.41,0.6-0.74,0.79c-0.32,0.19-0.73,0.29-1.21,0.29  c-0.42,0-0.85-0.08-1.28-0.24c-0.43-0.16-0.87-0.41-1.32-0.74c-0.24,0.07-0.43,0.15-0.56,0.25c-0.14,0.1-0.24,0.22-0.31,0.39  c-0.06,0.16-0.11,0.36-0.13,0.59c-0.02,0.24-0.02,0.52-0.02,0.86v4.04h-1.12v-4.07c0-0.44,0.02-0.84,0.06-1.18  c0.04-0.34,0.12-0.64,0.25-0.91c0.13-0.26,0.3-0.48,0.53-0.67c0.23-0.19,0.54-0.35,0.93-0.48c0.11-0.59,0.27-1.07,0.5-1.45  c0.23-0.38,0.47-0.69,0.75-0.92c0.27-0.23,0.55-0.39,0.84-0.49c0.29-0.09,0.55-0.14,0.79-0.14c0.33,0,0.63,0.07,0.92,0.19  c0.29,0.13,0.53,0.31,0.74,0.54c0.21,0.24,0.37,0.52,0.49,0.84c0.12,0.32,0.18,0.69,0.18,1.09c0,0.06,0,0.12-0.01,0.18  c-0.01,0.06-0.01,0.11-0.01,0.17c0.09,0.28,0.22,0.5,0.38,0.65c0.17,0.15,0.44,0.22,0.81,0.22c0.35,0,0.53,0.18,0.53,0.53  c0,0.22-0.04,0.37-0.13,0.45C60.26,91.76,60.13,91.8,59.94,91.8"></path>
<path class="st0" d="M59.95,91.8c-0.35,0-0.53-0.18-0.53-0.53c0-0.22,0.04-0.37,0.13-0.45c0.09-0.08,0.22-0.12,0.41-0.12h1.97  c0.35,0,0.53,0.18,0.53,0.53c0,0.22-0.04,0.37-0.13,0.45c-0.08,0.08-0.22,0.12-0.41,0.12H59.95z"></path>
<path class="st0" d="M61.92,91.8c-0.35,0-0.53-0.18-0.53-0.53c0-0.22,0.04-0.37,0.13-0.45c0.08-0.08,0.22-0.12,0.41-0.12h1.97  c0.35,0,0.53,0.18,0.53,0.53c0,0.22-0.04,0.37-0.13,0.45c-0.09,0.08-0.22,0.12-0.41,0.12H61.92z"></path>
<path class="st0" d="M63.89,91.8c-0.35,0-0.53-0.18-0.53-0.53c0-0.22,0.04-0.37,0.13-0.45c0.08-0.08,0.22-0.12,0.4-0.12h1.97  c0.35,0,0.53,0.18,0.53,0.53c0,0.22-0.04,0.37-0.13,0.45c-0.08,0.08-0.22,0.12-0.41,0.12H63.89z"></path>
<path class="st0" d="M65.86,91.8c-0.35,0-0.53-0.18-0.53-0.53c0-0.22,0.04-0.37,0.13-0.45c0.09-0.08,0.22-0.12,0.41-0.12h1.97  c0.35,0,0.53,0.18,0.53,0.53c0,0.22-0.04,0.37-0.13,0.45c-0.09,0.08-0.22,0.12-0.41,0.12H65.86z"></path>
<path class="st0" d="M67.83,91.8c-0.35,0-0.53-0.18-0.53-0.53c0-0.22,0.04-0.37,0.13-0.45c0.08-0.08,0.22-0.12,0.41-0.12h1.96  c0.36,0,0.53,0.18,0.53,0.53c0,0.22-0.04,0.37-0.13,0.45c-0.09,0.08-0.22,0.12-0.41,0.12H67.83z"></path>
<path class="st0" d="M75.68,89.45c0-0.19-0.03-0.39-0.09-0.57c-0.06-0.19-0.14-0.35-0.25-0.49c-0.11-0.14-0.25-0.25-0.41-0.34  c-0.16-0.09-0.34-0.13-0.56-0.13c-0.37,0-0.71,0.16-1.02,0.49c-0.31,0.33-0.6,0.9-0.88,1.73c0.33,0.21,0.65,0.38,0.98,0.51  c0.32,0.13,0.65,0.19,0.99,0.19c0.37,0,0.67-0.1,0.9-0.32C75.57,90.31,75.68,89.96,75.68,89.45 M69.78,91.8  c-0.35,0-0.53-0.18-0.53-0.53c0-0.22,0.04-0.37,0.13-0.45c0.09-0.08,0.22-0.12,0.41-0.12h0.54c0.11,0,0.22-0.01,0.33-0.04  c0.11-0.03,0.23-0.09,0.34-0.18c0.11-0.09,0.23-0.21,0.34-0.37c0.11-0.15,0.22-0.36,0.31-0.63c0.21-0.57,0.42-1.03,0.65-1.38  c0.23-0.35,0.46-0.62,0.69-0.82c0.24-0.19,0.47-0.32,0.72-0.38c0.25-0.06,0.49-0.09,0.73-0.09c0.34,0,0.65,0.07,0.93,0.19  c0.29,0.13,0.53,0.31,0.74,0.54c0.21,0.24,0.37,0.52,0.49,0.84c0.12,0.32,0.18,0.69,0.18,1.09c0,0.76-0.18,1.37-0.55,1.82  c-0.37,0.45-0.94,0.67-1.7,0.67c-0.42,0-0.84-0.07-1.26-0.21c-0.42-0.14-0.86-0.38-1.32-0.72c-0.11,0.18-0.23,0.32-0.35,0.42  c-0.12,0.1-0.25,0.18-0.38,0.23c-0.13,0.05-0.27,0.08-0.41,0.09c-0.14,0.01-0.29,0.02-0.45,0.02H69.78z"></path>
<path class="st0" d="M82.38,83.72h-2.43v-0.6h0.6c-0.13-0.2-0.19-0.43-0.19-0.68c0-0.19,0.03-0.37,0.09-0.51  c0.06-0.15,0.15-0.27,0.25-0.37c0.11-0.1,0.23-0.17,0.37-0.23c0.14-0.05,0.28-0.08,0.42-0.08c0.15,0,0.28,0.01,0.39,0.03  c0.11,0.02,0.19,0.05,0.25,0.09v0.61c-0.18-0.08-0.37-0.12-0.57-0.12c-0.21,0-0.37,0.06-0.46,0.19c-0.1,0.13-0.15,0.26-0.15,0.41  c0,0.17,0.06,0.33,0.17,0.46c0.11,0.13,0.29,0.19,0.52,0.19h0.75V83.72z M85.39,82.31v9.49h-7.55v-1.1h2.99v-6.45h1.09v6.45h2.38  v-8.39H85.39z"></path>
<rect x="87.12" y="82.31" class="st0" width="1.09" height="9.49"></rect>
<path class="st0" d="M22.37,4.04c-2.24,1.97-3.74,4.5-5.47,6.78c-1.43,1.9-3.4,3.07-5.1,4.66c0.91-1.9,1.08-4.07,2.24-5.9  C16.04,6.45,19.32,5.23,22.37,4.04 M10.1,10.9c1.17-1.3,2.48-2.31,4.03-2.71c-3.02,2.08-2.86,5.8-3.79,8.91  c-0.34,1.14-0.84,2.2-1.1,3.38l0.08,0.06c0.5-1.33,1.37-2.6,2.49-3.66c2.13-2.01,5.33-3.22,6.38-6.16c-0.05,4.08-3.52,7.18-6.7,9.58  c-1.42,1.07-2.63,2.52-3.37,4.03c0.12-1.13,0.18-2.06,0.08-3.17C7.86,17.6,7.65,13.61,10.1,10.9 M3.98,23.08  c0-3.61,1.41-6.56,3.51-9.25c0.06-0.03,0.11-0.09,0.19-0.08c-2.32,3.53-0.21,7.99-0.51,12l-0.31,4.11c0.05,0.03,0.05,0.15,0.15,0.11  c0.14-0.46,0.18-0.94,0.26-1.42c0.56-3.31,3.47-5.62,5.94-7.96c0.59-0.55,1.01-1.21,1.29-1.91c-0.21,1.65-0.66,3.34-1.41,4.84  c-1.9,3.84-5.57,6.95-6.23,11.32C6.54,30.65,3.98,27.54,3.98,23.08 M2.22,28.21c0.26-1.13,0.46-2.3,0.95-3.33  C2.24,29.65,5.41,33.1,6.5,37.22c0.41,1.56,0.55,3.21,1.18,4.66c0.06,0.03,0.11-0.03,0.14-0.07c-1.56-4.4,0.73-8.46,2.97-11.92  c0.59-0.91,0.87-1.97,1.15-3.04c0.24,1.99-0.18,4.29-0.55,6.34c-0.47,2.64-1.38,5.12-2.1,7.67c-0.47,1.59-0.35,3.39-0.1,5.06  l-0.23-0.18C7.29,42.66,4,40.26,3.01,36.91C2.22,34.23,1.67,31.13,2.22,28.21 M2.07,37.53c0.37,5.06,5.75,7.76,8.32,11.92  c0.55,0.89,1.11,1.81,1.91,2.52c-0.12-0.54-0.57-1.02-0.81-1.55c-0.82-1.78-1.19-3.85-0.99-5.97c0.25-2.58,1.33-4.98,0.91-7.7  c2.21,4.78,1.5,10.75,2.78,15.91c0.28,1.14,0.98,2.14,1.41,3.23c-2.17-1.65-5.02-3.12-7.41-5c-2.31-1.82-4.31-3.95-5.35-6.73  C2.08,42.16,1.89,39.78,2.07,37.53 M4.79,49.15c2.54,5.74,8.91,6.19,13.14,9.71c0.81,0.67,1.6,1.29,2.49,1.7l0.05-0.05  c-0.98-0.88-2.04-1.94-2.79-3.04c-2.42-3.52-1.62-8.33-3.48-12.05c1.7,2.03,3.29,4.12,4.26,6.44c1.57,3.74,2.11,8.01,5.63,10.85  c-3.82-1.26-8.21-1.01-11.65-3.26C8.82,57.09,5.47,53.36,4.79,49.15 M11.3,59.86c4.07,4.63,10.7,3.14,16.12,4.3  c0.76,0.16,1.46,0.41,2.28,0.29c-0.65-0.41-1.5-0.45-2.24-0.73c-4.21-1.59-4.87-6.1-7.17-9.2c2.95,1.96,5.38,4.64,8.13,7.15  c1.92,1.75,4.3,2.5,6.78,3.01c-0.6,0.22-1.38,0.17-2.02,0.33c-4.44,1.1-9.37,2.84-14.11,1.28C16.02,65.27,12.85,62.88,11.3,59.86   M56.68,72.61c-0.5,0.57-1.14,1.1-1.75,1.59c-3.92-4.06-8.53-8.55-12.91-8.55c-2.72,0-4.67,2.07-6.95,3.52  c-3.16,2.02-7.51,3.16-11.23,1.68c-2-0.76-3.94-1.88-5.39-3.7c2.93,2.02,7.32,2.29,10.62,0.92c3.65-1.52,7.37-3.53,11.54-3.53  C46.75,64.55,52.59,68.7,56.68,72.61"></path>
<path class="st0" d="M67.8,4.04c2.24,1.97,3.74,4.5,5.47,6.78c1.43,1.9,3.4,3.07,5.1,4.66c-0.91-1.9-1.08-4.07-2.24-5.9  C74.13,6.45,70.85,5.23,67.8,4.04 M80.07,10.9c-1.17-1.3-2.48-2.31-4.03-2.71c3.02,2.08,2.86,5.8,3.79,8.91  c0.34,1.14,0.84,2.2,1.1,3.38l-0.08,0.06c-0.5-1.33-1.36-2.6-2.49-3.66c-2.13-2.01-5.33-3.22-6.38-6.16  c0.05,4.08,3.52,7.18,6.7,9.58c1.43,1.07,2.63,2.52,3.38,4.03c-0.13-1.13-0.18-2.06-0.08-3.17C82.3,17.6,82.52,13.61,80.07,10.9   M86.19,23.08c0-3.61-1.41-6.56-3.52-9.25c-0.06-0.03-0.11-0.09-0.18-0.08c2.32,3.53,0.21,7.99,0.51,12l0.31,4.11  c-0.05,0.03-0.05,0.15-0.15,0.11c-0.14-0.46-0.18-0.94-0.26-1.42c-0.56-3.31-3.47-5.62-5.94-7.96c-0.58-0.55-1.01-1.21-1.29-1.91  c0.2,1.65,0.66,3.34,1.41,4.84c1.9,3.84,5.57,6.95,6.23,11.32C83.63,30.65,86.19,27.54,86.19,23.08 M87.95,28.21  c-0.26-1.13-0.46-2.3-0.95-3.33c0.93,4.77-2.24,8.22-3.33,12.34c-0.41,1.56-0.55,3.21-1.18,4.66c-0.06,0.03-0.11-0.03-0.15-0.07  c1.57-4.4-0.73-8.46-2.96-11.92c-0.59-0.91-0.87-1.97-1.15-3.04c-0.24,1.99,0.18,4.29,0.55,6.34c0.47,2.64,1.38,5.12,2.09,7.67  c0.47,1.59,0.35,3.39,0.11,5.06l0.23-0.18c1.66-3.08,4.95-5.47,5.94-8.83C87.95,34.23,88.5,31.13,87.95,28.21 M88.1,37.53  c-0.37,5.06-5.75,7.76-8.32,11.92c-0.55,0.89-1.11,1.81-1.91,2.52c0.12-0.54,0.57-1.02,0.81-1.55c0.82-1.78,1.19-3.85,0.99-5.97  c-0.25-2.58-1.33-4.98-0.91-7.7c-2.22,4.78-1.5,10.75-2.78,15.91c-0.28,1.14-0.98,2.14-1.41,3.23c2.17-1.65,5.03-3.12,7.41-5  c2.31-1.82,4.31-3.95,5.35-6.73C88.09,42.16,88.28,39.78,88.1,37.53 M85.38,49.15c-2.54,5.74-8.91,6.19-13.14,9.71  c-0.81,0.67-1.61,1.29-2.49,1.7l-0.04-0.05c0.98-0.88,2.03-1.94,2.79-3.04c2.42-3.52,1.61-8.33,3.48-12.05  c-1.7,2.03-3.29,4.12-4.26,6.44c-1.57,3.74-2.11,8.01-5.63,10.85c3.82-1.26,8.21-1.01,11.65-3.26  C81.35,57.09,84.7,53.36,85.38,49.15 M78.87,59.86c-4.06,4.63-10.7,3.14-16.12,4.3c-0.76,0.16-1.47,0.41-2.28,0.29  c0.65-0.41,1.5-0.45,2.24-0.73c4.21-1.59,4.87-6.1,7.17-9.2c-2.95,1.96-5.38,4.64-8.14,7.15c-1.91,1.75-4.3,2.5-6.78,3.01  c0.59,0.22,1.37,0.17,2.01,0.33c4.44,1.1,9.38,2.84,14.11,1.28C74.15,65.27,77.32,62.88,78.87,59.86 M33.49,72.61  c0.5,0.57,1.14,1.1,1.75,1.59c3.92-4.06,8.53-8.55,12.91-8.55c2.71,0,4.67,2.07,6.95,3.52c3.16,2.02,7.51,3.16,11.23,1.68  c2-0.76,3.94-1.88,5.39-3.7c-2.93,2.02-7.32,2.29-10.62,0.92c-3.66-1.52-7.37-3.53-11.54-3.53C43.41,64.55,37.58,68.7,33.49,72.61"></path>
<path class="st0" d="M72.5,44.82l-0.66-0.36c-1.41,2.9-3.27,5.54-5.49,7.82l-3.87-3.87c1.9-1.95,3.43-4.18,4.56-6.57l-0.66-0.36  c-1.12,2.38-2.62,4.54-4.42,6.41l-3.51-3.51c1.51-1.57,2.7-3.35,3.56-5.28l-0.65-0.36c-0.85,1.9-2.01,3.63-3.44,5.12l-3.88-3.88  c1.08-1.14,1.91-2.46,2.48-3.88l-0.66-0.36c-0.54,1.39-1.34,2.65-2.34,3.72l-3.52-3.52c1.01-1.12,1.59-2.52,1.67-4.02h4.98  c-0.04,1.35-0.32,2.64-0.78,3.83l0.66,0.36c0.52-1.32,0.82-2.73,0.86-4.19h5.49c-0.05,2.43-0.59,4.73-1.52,6.83L62,39.09  c1-2.24,1.55-4.67,1.6-7.18h4.97c-0.05,3.42-0.84,6.65-2.2,9.57l0.66,0.36c1.44-3.07,2.23-6.44,2.28-9.93h5.49  c-0.05,4.5-1.11,8.75-2.96,12.56L72.5,44.82c1.98-4.09,3.04-8.61,3.04-13.29c0-3.98-0.76-7.84-2.21-11.42l-0.68,0.29  c1.37,3.38,2.1,7.02,2.15,10.76H69.3c-0.04-2.99-0.63-5.89-1.71-8.59l-0.68,0.29c1.04,2.61,1.6,5.41,1.65,8.3H63.6  c-0.04-2.2-0.47-4.34-1.25-6.33l-0.67,0.29c0.74,1.91,1.14,3.95,1.19,6.05h-5.49c-0.04-1.34-0.29-2.65-0.75-3.88l-0.67,0.29  c0.42,1.14,0.65,2.35,0.69,3.59h-4.98c-0.08-1.5-0.66-2.9-1.67-4.02l3.52-3.52c1.09,1.15,1.91,2.5,2.44,3.96l0.67-0.29  c-0.57-1.54-1.44-2.96-2.59-4.19l3.88-3.88c1.66,1.72,2.92,3.72,3.76,5.9l0.67-0.29c-0.87-2.26-2.19-4.34-3.92-6.13l3.52-3.52  c2.18,2.24,3.85,4.85,4.97,7.68l0.68-0.29c-1.16-2.91-2.88-5.6-5.13-7.91l3.88-3.89c2.75,2.81,4.87,6.08,6.29,9.62l0.68-0.29  c-1.51-3.74-3.77-7.18-6.71-10.12c-2.95-2.95-6.4-5.21-10.16-6.73l-0.27,0.69c3.55,1.43,6.82,3.55,9.64,6.3l-3.88,3.88  c-2.27-2.2-4.91-3.91-7.77-5.06l-0.27,0.68c2.76,1.12,5.31,2.78,7.52,4.91l-3.52,3.52c-1.71-1.64-3.68-2.92-5.82-3.79l-0.27,0.68  c2.04,0.84,3.93,2.06,5.57,3.63l-3.88,3.88c-1.09-1.03-2.34-1.84-3.69-2.4l-0.27,0.68c1.26,0.53,2.42,1.28,3.44,2.24l-3.52,3.52  c-1.12-1-2.52-1.58-4.02-1.66v-4.98c1.43,0.04,2.82,0.35,4.11,0.89l0.27-0.68c-1.37-0.58-2.85-0.9-4.37-0.94v-5.49  c2.22,0.05,4.38,0.5,6.38,1.32l0.27-0.68c-2.09-0.86-4.33-1.32-6.65-1.37V8.05c2.95,0.04,5.81,0.63,8.47,1.71l0.27-0.68  c-2.74-1.11-5.69-1.72-8.73-1.76V1.83c3.74,0.04,7.37,0.78,10.74,2.14l0.27-0.69c-3.57-1.44-7.42-2.19-11.38-2.19  c-4.9,0-9.52,1.17-13.63,3.23l0.33,0.64c3.97-1.99,8.36-3.07,12.93-3.13v5.49c-3.72,0.06-7.24,0.96-10.37,2.51l0.33,0.64  c3.09-1.53,6.5-2.36,10.04-2.42v4.97c-2.77,0.05-5.39,0.72-7.73,1.86l0.33,0.64c2.28-1.1,4.79-1.72,7.39-1.77v5.49  c-1.72,0.05-3.36,0.46-4.84,1.15l0.34,0.65c1.4-0.65,2.93-1.02,4.51-1.06v4.98c-0.77,0.04-1.51,0.22-2.19,0.51l0.33,0.64  c0.7-0.28,1.45-0.43,2.22-0.43c1.56,0,3.04,0.61,4.14,1.71c1.11,1.11,1.72,2.58,1.72,4.14c0,3.23-2.63,5.86-5.86,5.86  c-1.57,0-3.04-0.61-4.14-1.72c-1.11-1.11-1.71-2.58-1.71-4.14c0-1.56,0.61-3.04,1.71-4.14c0.56-0.56,1.21-0.99,1.92-1.28l-0.33-0.64  c-0.68,0.28-1.3,0.68-1.83,1.16l-3.52-3.52c0.91-0.86,1.94-1.55,3.04-2.06l-0.34-0.65c-1.19,0.56-2.27,1.3-3.22,2.19l-3.88-3.89  c1.36-1.31,2.9-2.37,4.55-3.18l-0.33-0.64c-1.75,0.85-3.35,1.97-4.73,3.31l-3.52-3.52c1.78-1.72,3.79-3.13,5.94-4.2l-0.33-0.64  c-2.26,1.12-4.33,2.59-6.12,4.33l-3.89-3.89c2.23-2.18,4.75-3.96,7.46-5.32l-0.33-0.64c-5.93,2.98-10.76,7.84-13.7,13.79l0.64,0.34  c1.37-2.79,3.18-5.37,5.41-7.66l3.89,3.89c-1.81,1.87-3.32,4.02-4.46,6.39l0.64,0.34c1.08-2.27,2.54-4.37,4.34-6.22l3.52,3.52  c-1.42,1.47-2.59,3.19-3.47,5.07l0.64,0.34c0.82-1.79,1.94-3.44,3.34-4.9l3.88,3.89c-0.99,1.05-1.8,2.28-2.38,3.64l0.64,0.35  c0.53-1.27,1.28-2.44,2.25-3.47l3.52,3.52c-0.97,1.08-1.58,2.48-1.67,4.02h-4.98c0.04-1.42,0.34-2.8,0.87-4.08l-0.64-0.35  c-0.58,1.37-0.92,2.86-0.97,4.42H27.3c0.05-2.47,0.6-4.86,1.61-7.05l-0.64-0.34c-1.05,2.26-1.65,4.76-1.7,7.39h-4.97  c0.05-3.43,0.84-6.75,2.28-9.76l-0.64-0.34c-1.48,3.07-2.33,6.49-2.38,10.11h-5.49c0.06-4.48,1.1-8.81,3.03-12.73l-0.64-0.34  c-2,4.05-3.13,8.62-3.13,13.43c0,2.95,0.42,5.83,1.23,8.59l0.72-0.18c-0.75-2.58-1.17-5.28-1.2-8.04h5.49  c0.03,2.3,0.39,4.55,1.04,6.69l0.71-0.18c-0.64-2.09-0.98-4.28-1.02-6.52h4.97c0.03,1.82,0.34,3.6,0.88,5.3l0.71-0.18  c-0.53-1.63-0.82-3.36-0.86-5.12h5.49c0.04,1.31,0.28,2.57,0.71,3.77l0.71-0.18c-0.42-1.14-0.65-2.35-0.69-3.59h4.98  c0.08,1.5,0.66,2.91,1.67,4.02l-3.52,3.52c-1.09-1.16-1.91-2.5-2.44-3.95l-0.71,0.18c0.56,1.58,1.45,3.04,2.63,4.29l-3.88,3.88  c-1.89-1.97-3.27-4.3-4.09-6.83l-0.71,0.18c0.85,2.66,2.3,5.11,4.29,7.17l-3.52,3.52c-2.63-2.71-4.53-5.95-5.6-9.47L21.9,38.6  c1.11,3.65,3.07,7,5.8,9.81l-3.88,3.88c-3.44-3.52-5.89-7.75-7.24-12.35l-0.72,0.18c1.42,4.84,4.03,9.28,7.69,12.95  c2.48,2.48,5.32,4.48,8.4,5.96l0.36-0.65c-2.91-1.39-5.61-3.26-7.98-5.58l3.88-3.88c2.02,1.96,4.32,3.52,6.81,4.66l0.36-0.64  c-2.43-1.1-4.68-2.63-6.65-4.54l3.52-3.52c1.65,1.58,3.54,2.83,5.59,3.7l0.36-0.64c-1.99-0.84-3.83-2.03-5.43-3.57l3.88-3.88  c1.25,1.18,2.7,2.06,4.28,2.63l0.37-0.65c-1.52-0.53-2.92-1.37-4.12-2.5l3.52-3.52c1.12,1,2.52,1.58,4.02,1.67v4.98  c-1.18-0.03-2.33-0.25-3.42-0.63l-0.37,0.65c1.2,0.43,2.48,0.67,3.79,0.71v5.49c-2.27-0.05-4.47-0.52-6.51-1.38l-0.36,0.64  c2.15,0.91,4.48,1.42,6.88,1.46v4.97c-3.27-0.05-6.43-0.77-9.33-2.08l-0.36,0.64c3.01,1.38,6.29,2.13,9.69,2.18v5.49  c-4.36-0.05-8.57-1.04-12.4-2.87l-0.37,0.65C36,60.98,40.46,62,45.08,62c4.85,0,9.52-1.13,13.73-3.26l-0.35-0.67  c-3.92,1.98-8.33,3.13-13.01,3.19v-5.49c3.71-0.05,7.28-0.94,10.5-2.57l-0.34-0.66c-3.07,1.54-6.51,2.44-10.16,2.49v-4.97  c2.78-0.05,5.46-0.72,7.88-1.93l-0.34-0.66c-2.28,1.14-4.84,1.8-7.54,1.86v-5.49c1.77-0.05,3.48-0.48,5.03-1.24l-0.34-0.66  c-1.43,0.7-3.01,1.11-4.69,1.16v-4.98c1.5-0.08,2.9-0.66,4.02-1.67l3.52,3.52c-0.84,0.79-1.8,1.46-2.85,1.97l0.34,0.66  c1.1-0.54,2.12-1.24,3.04-2.1l3.88,3.88c-1.29,1.24-2.78,2.29-4.4,3.1l0.34,0.66c1.66-0.83,3.21-1.91,4.58-3.23l3.51,3.51  c-1.71,1.66-3.67,3.05-5.82,4.13l0.34,0.66c2.18-1.1,4.2-2.52,6-4.27l3.87,3.87c-2.16,2.11-4.65,3.89-7.37,5.26l0.35,0.67  c2.85-1.44,5.49-3.34,7.81-5.66C69.06,50.64,71.04,47.85,72.5,44.82L72.5,44.82z"></path>
<polygon class="st0" points="46.64,24.5 46.65,24.72 46.83,24.71 46.83,24.49 "></polygon>
<rect x="46.37" y="24.2" class="st0" width="0.25" height="0.19"></rect>
<polygon class="st0" points="45.93,24.13 46.14,24.16 46.17,23.98 45.95,23.95 "></polygon>
<polygon class="st0" points="45.53,24.04 45.75,24.07 45.77,23.88 45.56,23.85 "></polygon>
<rect x="43.98" y="23.82" class="st0" width="0.24" height="0.19"></rect>
<polygon class="st0" points="43.44,24.19 43.65,24.22 43.68,24.04 43.47,24.01 "></polygon>
<polygon class="st0" points="43.22,24.41 43.46,24.48 43.51,24.3 43.26,24.23 "></polygon>
<polygon class="st0" points="42.99,24.52 43.02,24.71 43.21,24.68 43.17,24.49 "></polygon>
<polygon class="st0" points="18.66,43.53 18.66,43.84 18.9,43.84 18.9,44.24 19.09,44.24 19.06,43.78 18.81,43.68 18.81,43.53 "></polygon>
<polygon class="st0" points="20.41,45.52 20.53,45.8 20.78,46.14 21.12,46.46 21.24,46.24 21.03,45.77 20.81,45.61 20.65,45.18   20.2,44.96 "></polygon>
<polygon class="st0" points="27.45,54.53 27.48,54.81 27.79,54.91 27.91,55.1 28.12,54.97 27.97,54.57 27.57,54.22 27.2,54.16 "></polygon>
<path class="st0" d="M44.13,26.5h-0.34l-0.06-0.68l0.19-0.13v-0.34h-1.07l-0.03-0.34l0.15-0.1l-0.25-0.09l-0.18,0.25l-0.06,0.28  l-0.31,0.06v0.15h-0.21v0.41l-0.86,0.72l-1.72-0.06c-0.12,0.28-0.43-0.03-0.43-0.03c-0.06-0.19-0.49,0-0.49,0  c0,0.35-0.58-0.15-0.58-0.15l-1.07-0.78c-0.62-0.56-1.54,0.16-1.57,0.31c0.03,0.43-0.71,0.09-0.71,0.09s-0.61-0.19-0.71,0.06  c-0.09,0.25-0.49,0.19-0.49,0.19l-0.06,0.12l-0.31,0.06l-0.06,0.19l-0.37,0.06l0.92-0.03c0.25-0.03-0.09,0.53-0.25,0.5l-0.43,0.03  l-0.15,0.15h-0.4l-0.18,0.25l-0.58-0.03c0,0-0.34,0.28-0.31,0.37c0.03,0.1-0.06,0.38-0.15,0.38c-0.09,0-0.28,0.28-0.22,0.37  c0.06,0.09-0.18,0.41-0.18,0.41l-0.06,0.31l-0.18,0.06v0.84l-0.37,0.25v0.37l-0.55,0.59l0.06,0.5l-0.46,0.5l0.06,0.5l-0.28,0.1  l-0.06,0.22l-0.12,0.65l0.31,0.03c0.15-0.06,0.13,0.41,0,0.47c-0.12,0.06-0.46,0.19-0.28,0.31c0.19,0.13-0.49,0.09-0.49-0.09  c0-0.19-0.37-0.34-0.46-0.28c-0.09,0.06-0.25-0.28-0.25-0.28c-0.34-0.34-1.38,0.03-1.38,0.03l-0.15,0.5  c-0.34,0.06-0.55,0.63-0.55,0.63c-0.28,0.09-0.49,0.43-0.4,0.53c0.09,0.09-0.15,0.12-0.15,0.12v0.69l-0.15,0.22l0.03,0.75  c0.19,0,0.15,0.34,0.15,0.34c-0.31,0.03-0.25,0.44-0.25,0.44l-0.64,0.22l-0.12,0.19l-0.8-0.03l-0.21,0.22l-0.22-0.22h-1.54  l-0.06-0.15l-0.31-0.07l-0.03-0.34l-0.46,0.03l-0.09,0.19l-0.49,0.03c0.03,0.31-0.49,0.78-0.55,0.66c-0.06-0.13-0.4-0.47-0.24-0.53  c0.15-0.06,0.55-0.13,0.55-0.13v-0.22l-1.14-0.03l-0.12,0.19l-0.46,0.03v0.5l-0.22,0.06c-0.15,0.09,0.03,0.44,0.03,0.44  c0.22,0.22-0.03,0.56-0.03,0.56c-0.18,0.19,0.15,0.53,0.15,0.53c0.25,0.06-0.15,0.25-0.15,0.25c0.06,0.31,0.25,0.41,0.25,0.41  c-0.19,0.31,0.12,0.47,0.12,0.47l0.03,0.53l0.21,0.12v0.34l0.13,0.22h0.49l-0.03-0.78c-0.43-0.5,0.37-0.62,0.4-0.43  c0.03,0.19,0.37,0.28,0.37,0.28c0.06,0.47,0.58,0.75,0.74,0.28c0.15-0.47,0.28-0.19,0.37,0.03c0.09,0.22,0.67,0.75,0.67,0.75h0.46  l0.06,0.44c0.52-0.03,0.67,0.03,0.89,0.75c0.22,0.72,0.8,0.91,0.8,0.91l0.43-0.03c0-0.37,0.43,0.06,0.43,0.25  c0,0.19,0.83,0.9,0.83,0.9l0.83,0.19l0.77,0.62l0.58-0.06h0.25c0.15-0.53,0.89,0.03,0.95,0.22c0.06,0.19,0.55,0.5,0.62,0.34  c0.06-0.16,0.4-0.06,0.46,0.41c0.06,0.47,0.28,0.37,0.28,0.37l1.75-0.03l0.61-0.53l1.57-0.03c0.8-0.03,0.31-1.12,0.15-1.12  c-0.28-0.22,0.09-1.12,0.09-1.12l-2.24-2.09c-0.52,0-0.06-0.75-0.06-0.75C32.09,42.4,31.6,42,31.6,42c0.06-0.37-0.22-0.81-0.22-0.81  c-0.55-0.37-0.4-1.09-0.4-1.09v-0.5c-0.46-0.43,0.18-0.5,0.18-0.5c0.21-0.37-0.15-0.65-0.15-0.65l-0.03-0.41l-0.49-0.06l-0.06-1.47  l-1.11-1.59c-0.21-0.06-0.06-0.44-0.06-0.44c0.28-0.16-0.06-0.53-0.06-0.53l-0.03-0.69l0.65-0.06l0.15-0.25h0.31l-0.03-0.81  c0.15-0.4,0.52-0.19,0.52-0.19l0.43,0.03l0.25-0.47l0.06-0.38l-0.34-0.03c-0.37-0.22-0.18-1.03-0.18-1.03  c0.58-0.87,1.26-0.37,1.26-0.37l0.43-0.03c0.65,0.44,0.06,1.25,0.06,1.25c-0.13,0.19-0.06,0.78-0.06,0.78l0.15,1l-0.4,0.34  c-0.34,0.19-0.34,0.63,0.03,0.72c0.25,0.03,0.15,0.62-0.22,0.22c-0.55,0,0.31,0.5,0.06,0.37c0.55,0.28,0.43-0.25,0.43-0.25  l0.74-0.59c0.28-0.22,0.77,0.47,0.77,0.56c0,0.09,1.23,0.03,1.23,0.03c0.34,0.22,0.46,0.78,0.46,0.78c0.34-0.44,1.04-0.03,0.52,0.22  c0.49,0.31,0.49,0.59,0.49,0.59c0.4-0.13,0.4,0.19,0.4,0.28c0,0.1,0.13-0.47,0.13-0.47c-0.46-0.34,0.61-0.47,0.3,0.16l-0.18,0.28  l0.31,0.25l0.03,0.72c0.67-0.06,0.49-0.9,0.49-0.9l0.31-0.06c0-0.28,0.22-0.13,0.22-0.13c-0.22-1.06,0.49-1.25,0.49-1.25  c0.4-0.09,0.43-0.94,0.43-0.94c-0.28-0.13-0.12-0.56,0.18-0.19c0.31,0.38-0.18-0.75-0.18-0.75l-0.25-0.22l-0.34-0.03l-0.03-0.35  h-0.55l-0.09,0.44l-0.22,0.06l-0.06-0.13l-0.09,0.34h-0.55l-0.03-0.37l0.34-0.09l0.13-0.19l0.09-0.5h0.4l0.52-0.15  c0.03-0.53,0.31-0.41,0.31-0.41l0.18,0.15l0.28,0.22l0.03,0.19l-0.19,0.09l-0.03,0.25l0.09,0.34h0.25c0.09-0.5,0.74-0.5,0.92-0.19  l0.18-0.44c-0.43-0.22-0.01-0.56,0.11-0.4c0.12,0.15,0.41-0.41,0.41-0.41s0.22,0.28,0-0.09c-0.21-0.37,0.15-0.56,0.15-0.56  c-0.06-0.37,0.4-0.31,0.4-0.31l0.03-0.5l-0.43-0.03c-0.09,0.44-0.46,0.06-0.27-0.03c0.19-0.09,0.37-0.28,0.37-0.28v-0.31l0.19-0.06  l0.03-0.31h0.46l0.4-0.19l0.09-0.15l0.43-0.03l0.62-0.56l-0.06-0.25c-0.37,0,0-0.28,0-0.28L44.13,26.5z"></path>
<path class="st0" d="M31.75,32.68l-0.55-0.06l0.03,0.22h0.15c0.25,0.44,0.03,1.5,0.03,1.5s-0.37,0.03-0.43-0.16  c-0.06-0.19-0.22,0.41-0.09,0.5c0.13,0.1,0.55,0,0.58,0.34c0.03,0.34,0.28-0.22,0.28-0.22V32.68z"></path>
<polygon class="st0" points="31.5,35.39 31.19,35.2 31.19,35.95 31.69,36.6 31.87,36.17 31.93,35.88 31.72,35.79 31.75,35.33   31.93,35.29 31.96,35.08 "></polygon>
<polygon class="st0" points="31.78,37.01 31.75,37.26 31.99,37.29 31.99,36.98 "></polygon>
<polygon class="st0" points="31.46,38.6 31.46,38.82 31.72,38.79 31.72,38.57 "></polygon>
<path class="st0" d="M32.08,37.83c0.07,0,0.13-0.06,0.13-0.13c0-0.07-0.06-0.13-0.13-0.13c-0.07,0-0.13,0.06-0.13,0.13  C31.95,37.77,32.01,37.83,32.08,37.83"></path>
<path class="st0" d="M32.29,38.22c0.07,0,0.13,0.06,0.13,0.13c0,0.07-0.06,0.13-0.13,0.13c-0.07,0-0.13-0.06-0.13-0.13  C32.16,38.28,32.22,38.22,32.29,38.22"></path>
<path class="st0" d="M32.3,34.66c0.07,0,0.13,0.06,0.13,0.13c0,0.07-0.06,0.13-0.13,0.13c-0.07,0-0.13-0.06-0.13-0.13  C32.17,34.72,32.23,34.66,32.3,34.66"></path>
<polygon class="st0" points="42.38,31.99 42.44,31.62 42.46,31.34 42.59,31.15 42.96,30.99 42.96,30.4 42.78,30.4 42.75,30.18   42.41,30.15 42.35,30.31 42.19,30.31 42.16,30.55 42.35,30.55 42.38,30.74 42.25,30.87 42.19,31.02 41.95,31.08 41.39,31.62   41.36,31.87 41.21,32.08 41.03,32.55 40.38,32.58 40.26,33.14 40.35,33.61 40.9,33.83 40.97,33.52 41.15,33.42 41.18,33.11   41.3,32.89 41.49,32.68 41.55,32.43 41.85,32.24 42.22,32.18 "></polygon>
<path class="st0" d="M43.61,32.3v-0.43l-0.06-0.41l-0.46-0.22l-0.34,0.31l-0.06,0.43v0.28l-0.31,0.06l-0.06,0.84l-0.25,0.09  l0.03,0.31l-0.34,0.09l-0.34,0.09l-0.06,0.41l-0.25,0.15l-0.13,0.38l-0.15,0.9c0,0,0.28,0.53,0.43,0.28c0.15-0.25,0.4-0.28,0.4-0.28  l0.09-0.22l0.83,0.03c0.06-0.34,0.46-0.22,0.46-0.06c0,0.16,0.31,0.03,0.31,0.03l0.21-0.34h0.34l0.03-0.38l0.15-0.09v-0.56  c0.49-0.16,0.43-0.62,0.43-0.62l0.12-0.16l-0.06-0.22c-0.25-0.1-0.13-0.31,0.03-0.25c0.15,0.06-0.21-0.28-0.21-0.28  c-0.18,0.16-0.34-0.19-0.34-0.19H43.61z"></path>
<path class="st0" d="M44.1,36.08c-0.03,0.37-0.49,0.5-0.49,0.5l-0.34-0.09l-0.19-0.16l-0.03-0.43l0.27-0.03l0.06,0.19L44.1,36.08z"></path>
<path class="st0" d="M45.76,34.08c0.07,0.27,0.06-0.43,0.18-0.41c0.12,0.03,0.03-0.44,0.03-0.44l-0.55,0.41  C45.69,33.67,45.73,33.95,45.76,34.08"></path>
<path class="st0" d="M47.38,32.46c0.13,0.28,0.1,0.69,0.55,0.99c0.16,0.11-0.09,0.31-0.25,0.22c-0.15-0.09-0.58-0.78-0.58-0.78  v-0.41C47.2,32.24,47.33,32.34,47.38,32.46"></path>
<polygon class="st0" points="47.39,41.94 47.48,42.03 47.57,42.19 47.78,41.84 47.6,41.78 "></polygon>
<polygon class="st0" points="50.96,40.83 51.06,40.99 51.31,40.83 51.21,40.67 "></polygon>
<path class="st0" d="M59.95,47.49l0.28,0.13l0.03,0.53c0.37,0.37,1.57,0.06,1.57-0.03c0-0.09-0.06-1.15-0.06-1.15l-0.15-0.16  l-0.03-0.78c0.12-0.41-0.59-1-0.65-0.87c-0.06,0.13-0.46,0.03-0.46,0.16c0,0.12-0.25,0.75-0.13,0.97c0.13,0.22-0.09,0.22-0.12,0.43  C60.2,46.92,59.89,47.3,59.95,47.49"></path>
<path class="st0" d="M59.28,46.24c-0.06,0.24-0.27,0.37-0.4,0.28c-0.12-0.09,0.15,0.16,0.22,0.28c0.06,0.12,0.24,0.12,0.31,0  c0.06-0.13,0.03-0.41,0.09-0.53C59.55,46.14,59.31,46.11,59.28,46.24"></path>
<rect x="57.85" y="40.52" class="st0" width="0.21" height="0.59"></rect>
<path class="st0" d="M61.03,34.52c-0.14-0.18,0.61-0.5,0.74-0.13c0.12,0.38,0,0.31-0.12,0.28C61.52,34.64,61.21,34.77,61.03,34.52"></path>
<polygon class="st0" points="61.66,30.53 61.99,30.58 62.03,30.4 61.69,30.34 "></polygon>
<polygon class="st0" points="60.83,30.66 60.6,30.79 60.4,30.66 60.3,30.82 60.55,30.98 60.59,31.01 60.64,30.98 60.83,30.87   60.85,30.93 61.02,30.86 60.96,30.71 60.92,30.61 "></polygon>
<path class="st0" d="M61.98,23.29h-0.46c0,0,0.15,0.06-0.27-0.34c-0.43-0.41-0.71,0.09-0.71,0.09l-0.49,0.06v0.5l-0.25,0.09  l0.03,0.31l0.34-0.03c0,0,0,0.37,0.09,0.22c0.09-0.16,0.86,0.03,0.8,0.41c-0.02,0.15,0.77,0.56,0.68,1.06  c0.4,0.06,0.31,0.47,0.31,0.47l0.52,0.06l0.15-0.31l0.16,0.03v-0.19l-0.34-0.09l-0.06-1l-0.22-0.15l0.06-0.25l-0.24-0.09l0.12-0.41  L61.98,23.29z"></path>
<path class="st0" d="M63.33,26.47l-0.25-0.03l-0.55,0.1l-0.31,0.59c0,0,0.15,0.09,0.28,0.31c0.12,0.22,0.19,1.5-0.18,1.71  c-0.37,0.22,0.03,0.09,0.03,0.09l-0.06,0.69c0.09,0.31,0.25,0.16,0.34,0c0.09-0.16,0.18-0.19,0.31-0.34  c0.12-0.15,0.31-0.44,0.34-0.66c0.03-0.22,0.18-0.56,0.09-0.65c-0.09-0.09,0.09-0.53,0.09-0.53s0.12-0.25,0-0.5  c-0.12-0.25,0.03-0.53,0.12-0.66L63.33,26.47z"></path>
<polygon class="st0" points="63.7,27.74 63.89,27.77 63.92,27.52 63.73,27.5 "></polygon>
<polygon class="st0" points="63.53,28.52 63.69,28.61 63.78,28.42 63.62,28.33 "></polygon>
<path class="st0" d="M63.42,26.13l-0.12-0.28c0,0,0-0.25,0.06-0.37c0.06-0.13-0.12-0.25-0.21-0.28c-0.09-0.03-0.06-0.28-0.09-0.41  c-0.03-0.12-0.25-0.22-0.25-0.22s-0.06-0.47-0.06-0.56c0-0.09-0.28-0.22-0.18-0.31c0.09-0.1,0.15-0.22,0.25-0.28  c0.09-0.06-0.09-0.5,0.06-0.41c0.15,0.1,0.15,0.25,0.22,0.37c0.06,0.13-0.03,0.56,0.12,0.66c0.15,0.09-0.03,0.4,0.22,0.4  c0.25,0,0.09,0.59,0.09,0.59s-0.06,0.44,0.09,0.47c0.15,0.03,0.06,0.78,0.06,0.78L63.42,26.13z"></path>
<path class="st0" d="M61.43,21.08c0.09,0.13,0.27,0.22,0.27,0.34c0,0.12-0.06,0.22,0.12,0.25c0.18,0.03,0.31-0.03,0.37,0.12  c0.06,0.16,0.06,0.41,0.03,0.53c-0.03,0.13,0.03,0.31,0.18,0.31c0.15,0,0.19,0.03,0.19,0.13c0,0.09,0.18-0.34,0.18-0.34  c-0.16-0.12-0.28-0.41-0.28-0.41s-0.15-0.44-0.15-0.5c0-0.06-0.22-0.12-0.31-0.15c-0.09-0.03-0.25-0.31-0.25-0.31L61.43,21.08z"></path>
<path class="st0" d="M61.73,20.8c-0.09-0.13-0.18-0.22-0.31-0.28c-0.12-0.06-0.21-0.12-0.34-0.12c-0.12,0-0.25-0.13-0.18-0.28  c0.06-0.16-0.09-0.22-0.09-0.34c0-0.12,0.09-0.12,0.25-0.03c0.15,0.09,0.12,0.13,0.25,0.28c0.12,0.16,0.18,0.31,0.3,0.28  c0.13-0.03,0.22,0.28,0.34,0.19c0.12-0.09,0.09,0.22,0.09,0.22L61.73,20.8z"></path>
<path class="st0" d="M58.14,24.32c0.17,0.17-0.92,0.13-0.92,0c0-0.12,0.09-0.56,0.37-0.47c0.27,0.09,0.31-0.56,0.31-0.56  s-0.25,0.03-0.03-0.09c0.21-0.12,0-0.31-0.09-0.41c-0.09-0.09-0.18-0.25-0.18-0.25h0.43c0.19-0.13,0.25-0.72,0.25-0.72  c0.37,0.12,0.55-0.13,0.55-0.13s0.06,0.19,0.19,0.34c0.12,0.16-0.31,0.22-0.16,0.31c0.16,0.09,0.22,0.37,0.16,0.47  c-0.06,0.09-0.4,0.03-0.4-0.1c0-0.12-0.12,0.16,0,0.31c0.12,0.15-0.15,0.37-0.21,0.37c-0.06,0-0.46,0.06-0.12,0.25  c0.34,0.19,0.71,0.09,0.71,0.09s0.27-0.03,0.37,0.13c0.1,0.15-0.03,0.19-0.18,0.19c-0.15,0-0.89-0.06-0.89-0.06  S58.05,24.23,58.14,24.32"></path>
<path class="st0" d="M56.17,24.6c0.15-0.03,0.52-0.06,0.58,0.03c0.06,0.1-0.22,0.22-0.22,0.22l-0.37,0.06  C56.05,24.76,56.02,24.63,56.17,24.6"></path>
<path class="st0" d="M60.13,21.98c0.25-0.13,0.77-0.13,0.74-0.31c-0.03-0.19,0.31-0.25,0.31-0.25l0.09,0.38l0.27,0.19l0.03,0.34  c0,0,0.09-0.06-0.25,0.03c-0.34,0.1-0.12,0.25-0.12,0.25l-0.74,0.03l-0.09-0.31L60.13,21.98z"></path>
<path class="st0" d="M58.94,20.3c0.19,0-0.06,0.72,0.43,0.65c0.49-0.06,0.03,0.22,0.4,0.25c0.37,0.03,0.27-0.28,0.4-0.5  s0.06-0.34-0.15-0.41c-0.22-0.06-0.22-0.06-0.28-0.31c-0.06-0.25-0.31-0.31-0.31-0.31l-0.09-0.38l-0.4,0.25l-0.4,0.53  C58.54,20.48,58.75,20.3,58.94,20.3"></path>
<rect x="59.77" y="22.79" transform="matrix(0.4548 -0.8906 0.8906 0.4548 12.2654 65.8006)" class="st0" width="0.21" height="0.18"></rect>
<rect x="59.43" y="22.64" class="st0" width="0.19" height="0.22"></rect>
<polygon class="st0" points="59.4,18.5 59.43,18.78 59.61,18.76 59.58,18.48 "></polygon>
<rect x="59.06" y="21.39" class="st0" width="0.19" height="0.15"></rect>
<polygon class="st0" points="58.56,21.2 58.58,21.38 58.88,21.35 58.86,21.17 "></polygon>
<polygon class="st0" points="55.87,24.31 56.04,24.38 56.13,24.16 55.97,24.09 "></polygon>
<polygon class="st0" points="55.06,23.63 55.08,23.82 55.38,23.79 55.37,23.6 "></polygon>
<polygon class="st0" points="49.07,23.79 49.08,23.98 49.75,23.95 49.75,23.76 "></polygon>
<polygon class="st0" points="48.56,23.75 48.62,24.03 48.8,23.99 48.74,23.71 "></polygon>
<polygon class="st0" points="48.43,24.04 48.49,24.22 48.58,24.19 48.52,24.01 "></polygon>
<path class="st0" d="M50.03,23.7L50,23.91l0.34,0.03c0,0,0.15,0.13,0.15,0.22c0,0.09,0.22,0.19,0.34,0.19  c0.12,0,0.46-0.25,0.46-0.25s0.15-0.44,0.03-0.41c-0.12,0.03-0.37,0.22-0.4,0.03c-0.03-0.19-0.4-0.09-0.4-0.09L50.03,23.7z"></path>
<path class="st0" d="M51.56,23.35c0,0.09-0.06,0.22,0.12,0.25c0.18,0.03,0.52-0.12,0.55,0.06c0.03,0.19,0.03,0.31,0.28,0.41  c0.25,0.1,0.4,0.13,0.58,0.13c0.18,0,0.58-0.06,0.58-0.06s0.43,0.07,0.52,0.16c0.34,0.34,0.55,0.44,0.65,0.28  c0.09-0.16-0.03-0.5-0.06-0.62c-0.03-0.13-0.46-0.72-0.62-0.59c-0.15,0.13-0.18,0-0.46,0.09c-0.28,0.09-0.86,0.03-0.89-0.09  c-0.03-0.13-0.46-0.19-0.46-0.31c0-0.13-0.31-0.28-0.27-0.09c0.03,0.19-0.22,0.28-0.28,0.22C51.75,23.1,51.56,23.35,51.56,23.35"></path>
<path class="st0" d="M58.63,19.36l0.22-0.69c-0.31-0.06-0.25-0.41-0.25-0.41c-0.03-0.28-0.46-0.59-0.61-0.5  c-0.15,0.09-0.09-0.65-0.09-0.65s0.28-0.19,0.4-0.1c0.12,0.1-1.04-1.56-1.29-1.4c-0.25,0.15-0.8-0.16-0.77-0.44  c0.03-0.28-1.1-1.22-1.1-1.22s-0.37-0.25-0.43-0.06c-0.06,0.19-0.19,0.31,0,0.41c0.18,0.09,0.15-0.16,0.37,0.06  c0.22,0.22,0.61,0.5,0.46,0.68c-0.15,0.19-0.34,0.25-0.34,0.25l0.22,0.25h0.34l0.06,0.53c0,0,0.37,0.19,0.46,0.4  c0.09,0.22,0.09,0.34,0,0.47c-0.09,0.13-0.27,0.34-0.24,0.56c0.03,0.22,0.28,0.31,0.28,0.31l0.24,0.03l0.19,0.09v0.41  c0.24-0.06,0.64,0.28,0.61,0.5c-0.03,0.22,0.06,0.09,0.37,0.31c0.31,0.22,0.22,0.25,0.43,0.41C58.36,19.74,58.54,19.64,58.63,19.36"></path>
<path class="st0" d="M53.56,15.12c-0.03-0.13-0.09-0.56,0.09-0.53c0.18,0.03,0.06,0,0.28,0.1c0.21,0.09,0.25-0.16,0.25-0.16h0.34  l0.43,0.34l-0.06,0.28l-0.31,0.03c-0.15-0.25-0.46-0.15-0.4,0.06c0.06,0.22-0.15,0.62-0.28,0.65c-0.12,0.03-0.52,0.03-0.49-0.15  C53.44,15.56,53.56,15.12,53.56,15.12"></path>
<path class="st0" d="M53.31,14.28v-0.25c0,0-0.03-0.25-0.18-0.25c-0.15,0-0.43-0.19-0.37-0.31c0.06-0.12-0.52-0.25-0.52-0.25  s-0.52-0.5-0.34-0.43c0.18,0.06,0.09-0.22,0.09-0.22s-0.37,0.06-0.46,0.03c-0.09-0.03-0.06-0.31-0.06-0.31s-0.37-0.09-0.37,0  c0,0.09,0.12,0.09,0.18,0.28c0.06,0.19,0.03,0.5,0.31,0.56c0.28,0.06,0.34,0.12,0.37,0.25c0.03,0.13,0.37,0.15,0.37,0.15l0.25,0.13  L53.31,14.28z"></path>
<polygon class="st0" points="49.66,11.07 50,11.1 49.91,10.85 49.66,10.79 "></polygon>
<path class="st0" d="M49.9,9.79c-0.32-0.24,0.43,0.19,0.43,0.19c0.24,0,0.4,0.19,0.4,0.28c0,0.1,0.34,0.06,0.34,0.06l0.03-0.22  l-0.25-0.31l-0.21-0.15c0,0-0.34-0.03-0.34-0.12C50.3,9.42,50.03,9.88,49.9,9.79"></path>
<path class="st0" d="M55.56,9.98c-0.09,0.27-0.12,0.65-0.27,0.65c-0.15,0-0.09,0.41-0.09,0.41s0.4,0,0.52,0.03  c0.12,0.03,0.12,0.34,0.12,0.34c0.46-0.03,0.65,0.59,0.58,0.75c-0.06,0.16,0.18,0.16,0.18,0.16s0,0.5-0.06,0.62  c-0.06,0.13,0.4,0.22,0.52,0.41c0.12,0.19-0.06,0.81-0.15,0.84c-0.09,0.03,0.25,0.13,0.22,0.28c-0.03,0.16,0.09,0,0.12,0.25  c0.03,0.25,0.09,0.78,0.09,0.78l0.43,0.03c0.06-0.41,0.86-0.42,0.99-0.37c0.52,0.19,0.92,1,0.92,1.19c0,0.19-0.34,0.22-0.34,0.22  l0.06,0.9c0.52,0.15,0.95,0.9,0.89,1.03c-0.06,0.13,0.37,0.1,0.37,0.1c0.06-0.56,0.58-0.37,0.61-0.19c0.03,0.19,0.12,0.59,0.12,0.59  l0.16,0.28l0.21,0.22l0.34-0.03l0.09,0.19l0.4,0.06c0,0,0.34,0.37,0.37,0.47c0.03,0.09,0.49,0.06,0.62,0.09  c0.12,0.03,0.31,0.13,0.34,0.28c0.03,0.16,0.22,0.41,0.22,0.41s0.37,0.09,0.4,0.22c0.03,0.13,0.19,0.41,0.19,0.41l0.31,0.25  l0.03,0.28l0.34,0.03l0.09,0.37l0.55-0.03l0.31-0.22c0.4-0.22,0.67-0.5,0.71-0.62c0.03-0.12,0.09-0.59,0.4-0.5  c0.31,0.09,0.09-0.69,0.09-0.69s-0.43-0.31-0.4-0.47c0.03-0.15-0.43-0.46-0.4-0.59c0.03-0.13-0.4-0.37-0.37-0.5  c0.03-0.13-0.22-0.47-0.22-0.47l-0.46-0.43l-0.06-0.28l-0.37-0.03l-0.74-0.91l0.03-0.25l-0.21-0.03v-0.34l-0.22-0.13l-0.34-0.03  l-0.68-0.75l-0.06-0.34h-0.34l0.06-0.66c0.22-0.28,0.09-0.81,0.09-0.81s-0.43,0.22-0.65,0.13c-0.21-0.1,0.09-0.31,0.09-0.31V13  l-0.18-0.19c0,0-0.53,0.06-0.55-0.03c-0.03-0.1-0.12-0.5-0.12-0.5l-0.03-0.53l-0.21-0.09l-0.03-0.19l-0.34,0.03v-0.37l-0.18-0.06  l-0.18-0.1l-0.03-0.37l-0.68-0.03l-0.22-0.31L59.3,9.88l-0.77-0.06l-0.18-0.19l-0.31-0.06l-0.22-0.09l-0.09,0.16l-0.58,0.03  l-0.03,0.19C56.82,10.01,55.59,9.88,55.56,9.98"></path>
<path class="st0" d="M58.78,9.17c-0.05-0.25,0.62-0.47,0.77-0.28c0.15,0.19,0.58,0.22,0.65,1.15c0.02,0.34-0.55-0.34-0.55-0.34  l-0.46-0.16C58.94,9.48,58.81,9.32,58.78,9.17"></path>
<polygon class="st0" points="49.6,9.47 49.77,9.55 49.89,9.27 49.73,9.19 "></polygon>
<path class="st0" d="M48.18,6.49l-0.4-0.41V5.74l-0.12-0.13l-0.12-0.44l-0.4-0.12l-0.4,0.16l-0.43,0.28l-0.46,0.06L45.6,5.83  l0.98,0.09l0.18,0.31l0.71,0.06l0.46,0.47C48.34,6.89,48.43,6.7,48.18,6.49"></path>
<path class="st0" d="M48.12,4.96c-0.07-0.27-0.46,0.34-0.06,0.46c0.4,0.13,0.8,0,0.8,0l0.09-0.19l1.54,0.03  c0.13-0.13,0.18-0.31,0.18-0.31s0.37-0.13,0.52-0.06c0.15,0.06,0.03-0.44-0.12-0.37c-0.15,0.06-0.46,0.03-0.46,0.03h-0.55  c-0.03-0.22-0.52-0.13-0.55,0c-0.03,0.13-0.21,0.16-0.21,0.16l-0.71,0.06C48.52,4.96,48.15,5.08,48.12,4.96"></path>
<path class="st0" d="M45.08,10.22c0.47,0.15,0.65,0.04,0.68-0.09c0.03-0.13,0.06-0.16,0.25-0.19c0.18-0.03-0.03-0.41-0.22-0.37  c-0.18,0.03-0.37-0.07-0.4-0.22c-0.03-0.16-0.34-0.56-0.37-0.25c-0.03,0.31-0.22,0.31-0.18,0.53C44.87,9.85,44.96,10.18,45.08,10.22  "></path>
<path class="st0" d="M41.55,10.57c-0.02-0.11,0.61-0.13,0.7-0.03c0.09,0.09,0.03,0.25,0.31,0.25c0.27,0,0.15,0.19,0.12,0.28  c-0.03,0.09-0.34,0.06-0.37-0.03c-0.03-0.1-0.49-0.13-0.49-0.13S41.58,10.72,41.55,10.57"></path>
<polygon class="st0" points="51.76,4.08 51.6,3.92 51.47,4.06 51.68,4.27 51.74,4.33 51.81,4.28 52.11,4.03 52,3.88 "></polygon>
<polygon class="st0" points="50.3,3.32 50.11,3.19 50.01,3.35 50.25,3.51 50.3,3.54 50.35,3.51 50.69,3.29 50.59,3.13 "></polygon>
<polygon class="st0" points="48.94,9.88 49.21,9.91 49.4,10.21 49.55,10.11 49.34,9.77 49.31,9.73 49.27,9.73 48.96,9.69 "></polygon>
<path class="st0" d="M39.15,18.43l0.03,0.34h0.46c0.18,0-0.15-0.22-0.15-0.22S39.12,18.58,39.15,18.43"></path>
<polygon class="st0" points="39.74,18.44 39.92,18.59 40.04,18.45 39.86,18.29 "></polygon>
<polygon class="st0" points="34.14,12.6 34.32,12.79 34.45,12.66 34.27,12.47 "></polygon>
<polygon class="st0" points="42.67,52.75 42.87,52.85 42.8,52.91 42.94,53.04 43.09,52.88 43.18,52.8 43.06,52.74 42.76,52.58 "></polygon>
<polygon class="st0" points="40.38,50.5 40.29,50.58 40.39,50.65 40.61,50.8 40.71,50.65 40.59,50.57 40.69,50.49 40.57,50.35 "></polygon>
<path class="st0" d="M63.53,44.58c-0.04-0.16-0.22-0.22-0.24-0.23l-0.06,0.18v0c0.02,0.01,0.04,0.02,0.06,0.03l0.04,0.16  c-0.01,0.02-0.03,0.04-0.04,0.06l0.14,0.12C63.52,44.78,63.56,44.68,63.53,44.58"></path>
<polygon class="st0" points="63.52,43.96 63.81,43.99 63.84,43.73 63.54,43.68 "></polygon>
<path class="st0" d="M70.93,41.55c0.13-0.08,0.3-0.23,0.28,0.11c-0.02,0.35-0.16,0.24-0.28,0.35  C70.82,42.14,70.75,41.67,70.93,41.55"></path>
<path class="st0" d="M72.5,40.23c-0.01-0.01-0.01-0.03-0.01-0.04c0-0.05-0.01-0.12-0.05-0.19l-0.16,0.08  c0.02,0.04,0.02,0.09,0.03,0.13c0,0.05,0.01,0.11,0.06,0.16c0.03,0.02,0.07,0.03,0.12,0.02l-0.03-0.18  C72.48,40.2,72.49,40.22,72.5,40.23"></path>
<path class="st0" d="M72.09,40.38c0.05,0.19,0.11,0.38,0.12,0.38l0.17-0.07c0,0-0.07-0.18-0.11-0.36L72.09,40.38z"></path>
<path class="st0" d="M71.42,41.12l-0.18-0.02c-0.01,0.15,0.02,0.33,0.17,0.36l0.03-0.18c0,0,0,0,0,0  C71.42,41.26,71.41,41.19,71.42,41.12"></path>
<path class="st0" d="M70.61,37.4c-0.01-0.06-0.05-0.11-0.1-0.13c-0.14-0.06-0.37,0.04-0.48,0.11l0.1,0.16  c0.12-0.08,0.27-0.12,0.3-0.1c0,0-0.01-0.01-0.01-0.01L70.61,37.4z"></path>
<path class="st0" d="M62.1,27.44c-0.13,0.13-0.4,0.19-0.4,0.19l-0.09,0.34l-0.15,0.12c0,0,0.03,0.1,0,0.31  c-0.03,0.22-0.31,0.34-0.31,0.34l-0.12,0.16c0,0-0.74,0.04-0.83,0c-0.28-0.12-0.09-0.5,0.09-0.47c0.18,0.03-0.03-0.53-0.03-0.53  l0.25-0.03c0,0,0.03-0.56,0.12-0.56c0.09,0-0.03-0.18-0.15-0.28c-0.12-0.09-0.27-0.41-0.4-0.37c-0.12,0.03-0.61,0-0.61,0l-0.09,0.19  l-0.34,0.06c0,0,0.03,0.24-0.03,0.31c-0.18,0.22-0.89,0.69-0.58-0.09l0.09-0.19v-0.28l-0.55-0.03c0,0-0.28-0.09-0.28-0.22  c0-0.13-0.03-0.28-0.03-0.28L57,25.41l-0.77-0.09l-0.06-0.16l-0.46-0.06c-0.55-0.28-1.04-0.03-0.95,0.44  c0.09,0.47,0.25,0.65-0.06,0.65c-0.31,0-0.37-0.25-0.37-0.25s-0.25-0.1-0.25,0.03c0,0.13-0.09,0.37,0,0.5  c0.09,0.13-0.12,0.31-0.22,0.22c-0.09-0.09-0.34-0.37-0.28-0.47c0.06-0.09-0.43-0.68,0.06-0.78c0.49-0.1-0.03-0.37,0.15-0.43  l0.25-0.13h0.25l0.15-0.12l-0.4-0.07l-0.25-0.03l-0.46-0.03c-0.46,0.31-0.55,0.69-0.55,0.69c-0.25,0.47-0.83-0.19-0.62-0.44  c0.22-0.25-0.67-0.03-0.83,0.09c-0.15,0.12-0.61,0.06-0.61,0.06c-0.09,0.28-0.52-0.03-0.4-0.22c0.12-0.19,0.12-0.31,0.12-0.31  l-0.15-0.03l-0.18,0.34c-0.43,0-0.55,0.25-0.46,0.41c0.09,0.15-0.12-0.03-0.18,0.19c-0.06,0.22,0.03,0.22,0.21,0.31  c0.19,0.09-0.09,0.09,0.03,0.25c0.12,0.16,0.49,0,0.28,0.22c-0.22,0.22-0.65,0.12-0.65,0.12c-0.03,0.28-0.61,0.22-0.67,0.13  c-0.06-0.1-0.52-0.65-0.52-0.65l-0.58-0.03c-0.06-0.43,0.27-0.22,0.4-0.56c0.12-0.34,0.19-0.9,0.19-0.9s-0.49-0.03-0.52,0.13  c-0.03,0.16-0.34,0.25-0.34,0.25s-0.25,0.1-0.15,0.22c0.09,0.13-0.19,0.19-0.19,0.19s0.05,0.2-0.03,0.28  c-0.24,0.25-0.86,0.03-0.95-0.06l-0.37-0.16l-0.37-0.25l-0.43,0.19l-0.12,0.13h-0.46l-0.03,0.37l0.83,0.1l0.06,0.77l-0.34-0.12  h-0.22l-0.09-0.19l-0.18-0.03v0.69l0.18,0.16l0.15,0.15l0.31,0.03l0.06,0.37l0.77,0.03l0.09,0.15l0.46,0.03l0.89,0.91l-0.06,0.28  L46.95,29c0.06,0.22-0.4,0.09-0.4,0.09v0.19l0.21,0.03l0.22,0.12l0.31-0.53c0.34-0.22,0.49,0.09,0.52,0.28  c0.03,0.19-0.15,0.16-0.15,0.16v0.43l0.18,0.06c0.31,0.38-0.12,0.59-0.12,0.59l-0.09,0.31c-0.09,0.28-0.43,0.22-0.43,0.22  l-0.12,0.19l-0.37,0.09l0.73,0.1c0.07-0.25,0.25-0.31,0.34-0.19c0.09,0.13,0.09,0.34,0.09,0.34l0.18,0.03l-0.03,0.34l0.19,0.06v1  l0.22,0.25c0.37-0.16,0.37,0.09,0.18,0.22c-0.18,0.13-0.06,0.69-0.06,0.69l-0.15,0.16v0.25l-0.18,0.13v0.34  c-0.31-0.16-0.68-0.09-0.77,0c-0.28-0.19-0.86-0.12-0.86,0.03c0.18,0.25-0.21,0.31-0.21,0.31l-0.22,0.25  c0.16,0.31-0.15,0.34-0.15,0.34v0.59l-0.37,0.34l0.03,0.81c0,0.22,0.46,0.25,0.55,0.12c0.09-0.12,0.46,0.25,0.46,0.25h0.28  l0.06-0.56l-0.18-0.09v-0.9l0.31-0.34c0.37-0.13,0.24,0.81,0.24,0.91c0.03,0.34,0.18,0.31,0.34,0.25c0.31-0.12,0.06,0.34-0.18,0.31  c-0.25-0.03-0.09,0.31-0.09,0.31l0.15,0.06l-0.28,0.22l-0.24,0.28l-0.31-0.09l-0.37-0.03l-0.12-0.22l-0.22-0.03l-0.03,0.43  l-0.15,0.19l-0.37,0.38c0.49,0-0.06,0.34-0.18,0.34c0.28,0.09-0.03,0.38-0.74,0.16v0.22l-0.25,0.03l0.22,0.25l0.25,0.03l-0.09,0.53  c0,0.41-1.01,0.12-1.11,0.03l-0.03,0.56l-0.18,0.03l0.03,0.38l-0.03,0.53l0.34-0.07v0.22l0.83,0.03l1.2-1.28l0.71-0.15  c0.06-0.31,0.37,0.06,0.37,0.06c0.31-0.03,0.37,0.19,0.37,0.19l0.4,0.06c0.34,0.1,0.13,0.13,0.15,0.25  c0.03,0.19,0.18,0.13,0.18,0.13L48,41.19l0.18,0.03L48,41l-0.34-0.16l-0.37-0.15c-0.25-0.34,0.06-0.28,0.31-0.25H48  c0,0,0.46,0.62,0.46,0.78c0,0.15,0.22,0.19,0.22,0.19l0.27-0.03l0.09,0.22h0.28l0.09,0.19h0.55L50,41.5l-0.52-0.09l-0.03-0.31  L49.07,41c-0.12-0.53,0.09-0.68,0.25-0.43l0.18,0.03l-0.06-0.47l0.22-0.06l-0.06-0.65l-0.18-0.06v-0.22l0.77,0.03  c-0.06-0.41,0.03-0.59,0.03-0.59h0.22l0.03,0.16l0.94,0.09l0.67-0.76c-0.03-0.06,0.06-0.1-0.01-0.17c-0.09-0.09-0.22,0-0.37-0.09  c-0.15-0.09,0-0.62-0.03-0.75c-0.03-0.12,0.52-0.31,0.43-0.03c-0.09,0.28,0,0.41,0,0.41c0.4-0.38,0.74,0.03,0.71,0.13  c-0.03,0.09,0.21,0.19,0.37,0.09c0.15-0.09,0.34,0.28,0.28,0.47c-0.06,0.19-0.62,0.16-0.65-0.03c-0.03-0.19-0.12-0.12-0.18-0.03  c-0.06,0.1-0.34,0.15-0.49,0.06c-0.03-0.02-0.05-0.04-0.05-0.05l-0.67,0.76l0.05,0c0.37,0.22,0.18,0.5,0.06,0.56  c-0.12,0.06-0.34,0.06-0.34,0.06l-0.06,0.13l-0.8,0.06l-0.06,0.31c-0.4-0.06-0.55,0.38-0.46,0.59c0.09,0.22,0,0.41,0,0.41l0.34,0.16  l0.43-0.13c0.06-0.31,0.34-0.37,0.58-0.56c0.25-0.19,0.65,0.34,0.52,0.59c-0.12,0.25-0.12,0.34-0.12,0.34l0.03,0.28l-0.31,0.12  l-0.25,0.13l-0.03,0.15h-0.83L50,42.19l-0.4,0.03l-0.12,0.19l-0.27,0.03c0,0-0.46,0.22-0.28,0.47c0.19,0.25-0.77,0.22-0.98-0.13  c-0.06,0.31-0.4,0.03-0.4,0.03l-0.34-0.09l-0.03-0.47c-0.06-0.31-0.65-0.31-0.62-0.09c0.03,0.22-1.11,0.09-1.11,0.09l-0.37,0.18  l-0.34,0.19l-0.03,0.16l-0.55,0.06l-0.25,0.13l-0.09-0.19h-0.25l-0.25,0.34c-0.65,0.03-1.26,0.41-1.2,0.56  c0.06,0.15-0.25,0.31-0.25,0.31l-0.28,0.09l-0.18,0.28l-0.37,0.12l-0.06,0.66l-0.18,0.12v0.28l-0.21,0.06v0.16l-0.31,0.03l0.19,0.47  l0.25,0.12c0.43,0.06,0.25,0.59,0.25,0.59l0.25,0.03l0.13,0.34l0.24,0.5c0.09,0.38,0.37,0.28,0.49,0.25  c0.12-0.03,0.25,0.37,0.25,0.37l1.23,0.03c0,0-0.06,0.13,0.15,0.19c0.21,0.06,1.63,0.12,1.69,0.03c-0.06-0.28,0.77-0.34,1.11-0.09  c0.34,0.25,0.8,0.09,0.8,0.09l0.46,0.56l0.31,0.69l0.52,0.16l0.37,0.09l0.12,0.53l0.28,0.03l0.09,0.34  c0.34,0.25-0.09,0.78-0.09,0.78v0.69l0.25,0.13l-0.03,0.25l0.4,0.41l0.46,0.03l1.17,1.25l0.92,0.28l0.15,0.5l0.25-0.03l0.19-0.16  l0.74-0.03l0.37-0.34l0.4-0.06l3.41-2.9l-0.31-0.19v-0.69c0.56-0.4,0.59-1.12,0.06-1.18c-0.39-0.05-0.21-0.47,0.16-0.53l0.21-0.09  v-0.28l0.71-0.66v-0.5l-1.53-1.28c-0.68-0.25,0-1.75,0.46-1.71c0.46,0.03-0.03-2.31-0.03-2.31l-0.25-0.12l0.06-0.75h-0.34  l-0.55,0.72l-0.15,0.5c-0.06,0.65-1.97,0.53-2.06,0.43c-0.09-0.09-0.74-0.38-0.74-0.38s-0.49-0.4-0.58-0.28  c-0.09,0.12-0.52-0.16-0.52-0.06c0,0.09-0.4-0.22-0.4-0.22l-0.61-0.22l0.46-0.1l-0.09-0.38l0.8,0.41c0.09,0.13,0.49,0.1,0.49,0.1  l0.12,0.16c0,0,0.25-0.03,0.4,0.15c0.15,0.19,0.95,0.03,0.95,0.03l0.22,0.19l0.34,0.12l0.95,0.03l0.03-0.59l0.18-0.19l-0.03-0.37  l0.22-0.19v-0.31l0.18-0.06l0.03-0.69L57,40.41v-1.5l-0.46-0.44c-0.03,0.16-0.52,0.16-0.52,0.16s-0.12,0.22-0.22,0.22  c-0.09,0,0.13,0.28,0.06,0.47c-0.06,0.19-0.31,0.19-0.31,0.19l-0.46,0.13l-0.12,0.16h-0.49l-0.06-0.41l0.55-0.16l0.31-0.15  l0.15-0.31c0.03-0.31,0.4-0.28,0.4-0.28s0.71-0.59,0.74-0.87c0.03-0.28,0.28-1.06,0.71-1.06h0.8c0.31-0.13,0.22-0.53,0.22-0.53  l0.4-0.06l0.06,0.22c0,0,0.55,0.06,0.61-0.03c0.06-0.09,0.18-0.31,0.34-0.22c0.15,0.09,0.65-0.22,0.65-0.22  c0.03-0.22,0.8-0.12,0.8-0.12l0.09-0.28c0,0-0.52-0.72-0.61-0.72c-0.09,0-0.58-0.44-0.65-0.28c-0.49-0.13-0.46-0.81-0.46-0.81  l-0.19-0.43c0-0.25-0.46-0.78-0.55-0.72c-0.46-0.34-0.12-0.75,0-0.78c0.12-0.03,0.43-0.47,0.43-0.47l0.15-0.44l0.52-0.15l0.06-0.41  l-0.28-0.03c0,0,0.31-0.56,0.46-0.56c0.15,0,1.17,0,1.26-0.06c0.09-0.06,0.28-0.56,0.28-0.65c0-0.1,0.25-0.13,0.34-0.16  c0.09-0.03,0.31-0.28,0.37-0.41C62.44,28.09,62.22,27.31,62.1,27.44"></path>
<path class="st0" d="M45.08,38.68c0.05-0.05,0.09,0.14,0.18,0.12c0.09-0.02,0.14,0.17,0.05,0.17c-0.09,0-0.09,0.11-0.09,0.16  c0,0.05,0,0.16-0.07,0.23c-0.07,0.07-0.14,0.02-0.23-0.02c-0.09-0.05-0.13-0.05-0.25-0.05c-0.12,0-0.02,0.19-0.02,0.19  s-0.49-0.02-0.39-0.09c0.09-0.07,0.19-0.1,0.12-0.14c-0.07-0.05,0-0.1,0-0.19c0-0.09,0.23-0.05,0.16-0.12  c-0.07-0.07,0-0.34,0.12-0.19l0.07-0.17c-0.07-0.07-0.02-0.09-0.16-0.14c-0.14-0.05-0.02-0.33-0.02-0.33l0.02-0.19  c0.05-0.23,0.51-0.26,0.53-0.04c0.02,0.21,0,0.35,0,0.35l0.14,0.05c0,0-0.02,0.14-0.14,0.14c-0.12,0,0,0.07-0.07,0.14L45.08,38.68z"></path>
<path class="st0" d="M43.56,38.91c0.07-0.14,0.23-0.75,0.42-0.56c0.18,0.19,0.3,0,0.3,0s0.09,0.09,0.05,0.28  c-0.05,0.18-0.09,0.37-0.21,0.4c-0.11,0.02-0.21,0.09-0.34,0.12C43.63,39.17,43.56,38.91,43.56,38.91"></path>
<rect x="68.06" y="102.52" class="st0" width="3.19" height="15.95"></rect>
<rect x="15.95" y="102.52" class="st0" width="3.19" height="15.95"></rect>
<polygon class="st0" points="62.91,115.28 60.61,115.28 60.61,105.71 57.42,105.71 57.42,115.28 55.12,115.28 55.12,118.47   57.42,118.47 60.61,118.47 62.91,118.47 66.1,118.47 66.1,115.28 66.1,102.52 62.91,102.52 "></polygon>
<path class="st0" d="M26.06,115.28h-1.59v-6.38h1.59V115.28z M33.14,102.52v3.19v9.57h-3.89v-6.38v-3.19h-3.19h-1.59h-3.19v3.19  v6.38v3.19h3.19h1.59v4.98h3.19v-4.98h3.89h3.19h3.89h3.19h1.59h3.19h1.6h3.19v-3.19v-6.38h-3.19v6.38h-1.6v-6.38h-3.19v6.38h-1.59  v-6.38h-3.19v6.38h-3.89v-9.57h16.65v-3.19H36.33H33.14z"></path>
<polygon class="st0" points="15.95,128.78 23.91,128.78 23.91,131.83 19.27,131.83 19.27,136.94 23.24,136.94 23.24,139.98   19.27,139.98 19.27,145.56 24.11,145.56 24.11,148.61 15.95,148.61 "></polygon>
<path class="st0" d="M30.71,135.98l2.06,2.43c1.79,1.61,2.51,3.57,2.51,5.83c0,2.23-1.19,4.72-4.79,4.72  c-2.43,0-4.74-1.47-4.74-4.34v-2.48h3.28v2.03c0,0.72,0.15,1.94,1.46,1.94c0.94,0,1.46-0.74,1.46-1.86c0-1.37-0.55-2.43-1.59-3.5  l-2.33-2.65c-1.12-1.09-2.11-2.48-2.11-5.09c0-2.98,1.74-4.57,4.56-4.57c2.23,0,4.64,0.85,4.64,4.42v2.31h-3.15v-1.79  c0-1.31-0.42-2.08-1.44-2.08c-0.97,0-1.47,0.54-1.47,1.59C29.07,133.57,29.22,134.64,30.71,135.98"></path>
<path class="st0" d="M46.36,144.19c0,2.98-1.74,4.77-4.62,4.77c-2.85,0-4.61-1.79-4.61-4.74V133.2c0-2.98,1.76-4.76,4.59-4.76  c2.9,0,4.64,1.79,4.64,4.74V136h-3.33v-3.25c0-0.92-0.42-1.46-1.29-1.46c-0.89,0-1.29,0.54-1.29,1.46v11.89  c0,0.92,0.39,1.46,1.29,1.46c0.87,0,1.29-0.55,1.29-1.46v-3.92h3.33V144.19z"></path>
<polygon class="st0" points="47.8,128.78 51.18,128.78 52.81,143.47 52.86,143.47 54.38,128.78 57.55,128.78 59.02,143.47   59.07,143.47 60.7,128.78 64.03,128.78 60.95,148.61 57.38,148.61 55.92,135.18 55.89,135.18 54.35,148.61 50.75,148.61 "></polygon>
<path class="st0" d="M69.98,141.91l-1.04-10.52h-0.1l-1.17,10.52H69.98z M66.87,148.61H63.5l3.1-19.83h4.52l3.1,19.83h-3.48  l-0.42-3.87H67.3L66.87,148.61z"></path>
</svg>