<?xml version="1.0" encoding="utf-8"?>
<!-- Generator: Adobe Illustrator 21.0.0, SVG Export Plug-In . SVG Version: 6.00 Build 0)  -->
<svg version="1.1" id="Layer_1" xmlns="http://www.w3.org/2000/svg" xmlns:xlink="http://www.w3.org/1999/xlink" x="0px" y="0px"
	 viewBox="0 0 429 150" style="enable-background:new 0 0 429 150;" xml:space="preserve">
<style type="text/css">
	.st0{fill:#009EDB;}
	.st1{fill:#E5243B;}
	.st2{fill:#4C9F38;}
	.st3{fill:#FF3A21;}
	.st4{fill:#FCC30B;}
	.st5{fill:#FD6925;}
	.st6{fill:#FD9D24;}
	.st7{fill:#3F7E44;}
	.st8{fill:#DDA63A;}
	.st9{fill:#C5192D;}
	.st10{fill:#26BDE2;}
	.st11{fill:#A21942;}
	.st12{fill:#DD1367;}
	.st13{fill:#BF8B2E;}
	.st14{fill:#0A97D9;}
	.st15{fill:#00689D;}
	.st16{fill:#56C02B;}
	.st17{fill:#19486A;}
</style>
<path class="st0" d="M183.9,118.4h-4.5l-1,2.8h-1.4l4.1-10.7h1.2l4.1,10.7h-1.4L183.9,118.4z M179.8,117.3h3.6l-1.8-5L179.8,117.3z"
	/>
<path class="st0" d="M192.4,116.9h-2.5v4.3h-1.4v-10.7h3.5c1.2,0,2.1,0.3,2.8,0.8c0.6,0.5,1,1.3,1,2.4c0,0.7-0.2,1.2-0.5,1.7
	c-0.4,0.5-0.9,0.9-1.5,1.1l2.5,4.5v0.1h-1.5L192.4,116.9z M189.9,115.7h2.2c0.7,0,1.3-0.2,1.7-0.5c0.4-0.4,0.6-0.8,0.6-1.5
	c0-0.7-0.2-1.2-0.6-1.5c-0.4-0.4-1-0.5-1.7-0.5h-2.2V115.7z"/>
<path class="st0" d="M204.8,118.4h-4.5l-1,2.8h-1.5l4.1-10.7h1.2l4.1,10.7h-1.4L204.8,118.4z M200.8,117.3h3.6l-1.8-5L200.8,117.3z"
	/>
<path class="st0" d="M209.5,121.2v-10.7h3.5c1.2,0,2,0.2,2.6,0.7c0.6,0.5,0.9,1.2,0.9,2.1c0,0.5-0.1,0.9-0.4,1.3
	c-0.3,0.4-0.7,0.7-1.2,0.9c0.6,0.2,1,0.5,1.4,0.9c0.3,0.5,0.5,1,0.5,1.6c0,1-0.3,1.7-0.9,2.3c-0.6,0.5-1.5,0.8-2.6,0.8H209.5z
	 M210.9,115.1h2.1c0.6,0,1.1-0.2,1.5-0.5c0.4-0.3,0.6-0.7,0.6-1.3c0-0.6-0.2-1-0.5-1.3c-0.3-0.3-0.9-0.4-1.6-0.4h-2.1V115.1z
	 M210.9,116.2v3.8h2.3c0.7,0,1.2-0.2,1.5-0.5c0.4-0.3,0.6-0.8,0.6-1.4c0-1.3-0.7-1.9-2.1-1.9H210.9z"/>
<path class="st0" d="M226.9,116.4c-1.2-0.3-2.1-0.8-2.6-1.3c-0.5-0.5-0.8-1.1-0.8-1.9c0-0.8,0.3-1.5,1-2.1c0.7-0.6,1.5-0.8,2.6-0.8
	c0.7,0,1.4,0.1,2,0.4c0.6,0.3,1,0.7,1.3,1.2c0.3,0.5,0.5,1,0.5,1.6h-1.4c0-0.6-0.2-1.2-0.6-1.5c-0.4-0.4-1-0.6-1.7-0.6
	c-0.7,0-1.2,0.2-1.6,0.5c-0.4,0.3-0.6,0.7-0.6,1.3c0,0.4,0.2,0.8,0.6,1.1c0.4,0.3,1,0.6,1.9,0.8c0.9,0.2,1.6,0.5,2.1,0.8
	c0.5,0.3,0.9,0.7,1.1,1.1c0.2,0.4,0.4,0.9,0.4,1.4c0,0.9-0.3,1.6-1,2.1c-0.7,0.5-1.6,0.8-2.7,0.8c-0.7,0-1.4-0.1-2.1-0.4
	c-0.6-0.3-1.1-0.7-1.5-1.2c-0.3-0.5-0.5-1-0.5-1.7h1.4c0,0.6,0.2,1.2,0.7,1.5c0.5,0.4,1.1,0.6,1.9,0.6c0.7,0,1.3-0.2,1.7-0.5
	c0.4-0.3,0.6-0.7,0.6-1.2c0-0.5-0.2-0.9-0.6-1.2C228.5,117,227.8,116.7,226.9,116.4"/>
<polygon class="st0" points="240.7,111.7 237.3,111.7 237.3,121.2 235.9,121.2 235.9,111.7 232.4,111.7 232.4,110.5 240.7,110.5 "/>
<path class="st0" d="M247.6,118.4h-4.5l-1,2.8h-1.5l4.1-10.7h1.2l4.1,10.7h-1.4L247.6,118.4z M243.6,117.3h3.6l-1.8-5L243.6,117.3z"
	/>
<polygon class="st0" points="258.3,111.7 254.9,111.7 254.9,121.2 253.5,121.2 253.5,111.7 250.1,111.7 250.1,110.5 258.3,110.5 "/>
<polygon class="st0" points="266.6,116.3 262,116.3 262,120 267.4,120 267.4,121.2 260.6,121.2 260.6,110.5 267.3,110.5 
	267.3,111.7 262,111.7 262,115.1 266.6,115.1 "/>
<path class="st0" d="M272.9,116.4c-1.2-0.3-2.1-0.8-2.6-1.3c-0.5-0.5-0.8-1.1-0.8-1.9c0-0.8,0.3-1.5,1-2.1c0.7-0.6,1.5-0.8,2.6-0.8
	c0.7,0,1.4,0.1,2,0.4c0.6,0.3,1,0.7,1.3,1.2c0.3,0.5,0.5,1,0.5,1.6h-1.4c0-0.6-0.2-1.2-0.6-1.5c-0.4-0.4-1-0.6-1.7-0.6
	c-0.7,0-1.2,0.2-1.6,0.5c-0.4,0.3-0.6,0.7-0.6,1.3c0,0.4,0.2,0.8,0.6,1.1c0.4,0.3,1,0.6,1.9,0.8c0.9,0.2,1.6,0.5,2.1,0.8
	c0.5,0.3,0.9,0.7,1.1,1.1c0.2,0.4,0.4,0.9,0.4,1.4c0,0.9-0.3,1.6-1,2.1c-0.7,0.5-1.6,0.8-2.7,0.8c-0.7,0-1.4-0.1-2.1-0.4
	c-0.6-0.3-1.1-0.7-1.5-1.2c-0.3-0.5-0.5-1-0.5-1.7h1.4c0,0.6,0.2,1.2,0.7,1.5c0.5,0.4,1.1,0.6,1.9,0.6c0.7,0,1.3-0.2,1.7-0.5
	c0.4-0.3,0.6-0.7,0.6-1.2c0-0.5-0.2-0.9-0.6-1.2C274.5,117,273.8,116.7,272.9,116.4"/>
<path class="st1" d="M181.4,97.7c-2.1,0-3.7-1.7-3.7-3.7c0-2.1,1.7-3.7,3.7-3.7c2.1,0,3.7,1.7,3.7,3.7
	C185.2,96,183.5,97.7,181.4,97.7"/>
<path class="st2" d="M205.3,97.7c-2.1,0-3.7-1.7-3.7-3.7c0-2.1,1.7-3.7,3.7-3.7c2.1,0,3.7,1.7,3.7,3.7C209,96,207.3,97.7,205.3,97.7
	"/>
<path class="st3" d="M229.1,97.7c-2.1,0-3.7-1.7-3.7-3.7c0-2.1,1.7-3.7,3.7-3.7c2.1,0,3.7,1.7,3.7,3.7
	C232.9,96,231.2,97.7,229.1,97.7"/>
<path class="st4" d="M253,97.7c-2.1,0-3.7-1.7-3.7-3.7c0-2.1,1.7-3.7,3.7-3.7c2.1,0,3.7,1.7,3.7,3.7C256.7,96,255,97.7,253,97.7"/>
<path class="st5" d="M276.8,97.7c-2.1,0-3.7-1.7-3.7-3.7c0-2.1,1.7-3.7,3.7-3.7c2.1,0,3.7,1.7,3.7,3.7
	C280.5,96,278.9,97.7,276.8,97.7"/>
<path class="st6" d="M300.7,97.7c-2.1,0-3.7-1.7-3.7-3.7c0-2.1,1.7-3.7,3.7-3.7c2.1,0,3.7,1.7,3.7,3.7
	C304.4,96,302.7,97.7,300.7,97.7"/>
<path class="st7" d="M324.5,97.7c-2.1,0-3.7-1.7-3.7-3.7c0-2.1,1.7-3.7,3.7-3.7c2.1,0,3.7,1.7,3.7,3.7
	C328.2,96,326.6,97.7,324.5,97.7"/>
<path class="st8" d="M193.4,97.7c-2.1,0-3.7-1.7-3.7-3.7c0-2.1,1.7-3.7,3.7-3.7c2.1,0,3.7,1.7,3.7,3.7
	C197.1,96,195.4,97.7,193.4,97.7"/>
<path class="st9" d="M217.2,97.7c-2.1,0-3.7-1.7-3.7-3.7c0-2.1,1.7-3.7,3.7-3.7c2.1,0,3.7,1.7,3.7,3.7
	C220.9,96,219.3,97.7,217.2,97.7"/>
<path class="st10" d="M241.1,97.7c-2.1,0-3.7-1.7-3.7-3.7c0-2.1,1.7-3.7,3.7-3.7c2.1,0,3.7,1.7,3.7,3.7
	C244.8,96,243.1,97.7,241.1,97.7"/>
<path class="st11" d="M264.9,97.7c-2.1,0-3.7-1.7-3.7-3.7c0-2.1,1.7-3.7,3.7-3.7c2.1,0,3.7,1.7,3.7,3.7
	C268.6,96,267,97.7,264.9,97.7"/>
<path class="st12" d="M288.7,97.7c-2.1,0-3.7-1.7-3.7-3.7c0-2.1,1.7-3.7,3.7-3.7c2.1,0,3.7,1.7,3.7,3.7
	C292.5,96,290.8,97.7,288.7,97.7"/>
<path class="st13" d="M312.6,97.7c-2.1,0-3.7-1.7-3.7-3.7c0-2.1,1.7-3.7,3.7-3.7c2.1,0,3.7,1.7,3.7,3.7
	C316.3,96,314.6,97.7,312.6,97.7"/>
<path class="st14" d="M336.4,97.7c-2.1,0-3.7-1.7-3.7-3.7c0-2.1,1.7-3.7,3.7-3.7c2.1,0,3.7,1.7,3.7,3.7
	C340.2,96,338.5,97.7,336.4,97.7"/>
<path class="st15" d="M360.3,97.7c-2.1,0-3.7-1.7-3.7-3.7c0-2.1,1.7-3.7,3.7-3.7c2.1,0,3.7,1.7,3.7,3.7
	C364,96,362.3,97.7,360.3,97.7"/>
<path class="st16" d="M348.4,97.7c-2.1,0-3.7-1.7-3.7-3.7c0-2.1,1.7-3.7,3.7-3.7c2.1,0,3.7,1.7,3.7,3.7
	C352.1,96,350.4,97.7,348.4,97.7"/>
<path class="st17" d="M372.2,97.7c-2.1,0-3.7-1.7-3.7-3.7c0-2.1,1.7-3.7,3.7-3.7c2.1,0,3.7,1.7,3.7,3.7
	C375.9,96,374.3,97.7,372.2,97.7"/>
<path class="st0" d="M187.4,26.2v8.3c0,1.4-0.4,2.5-1.3,3.3c-0.9,0.8-2,1.2-3.5,1.2c-1.5,0-2.6-0.4-3.5-1.2
	c-0.9-0.8-1.3-1.8-1.3-3.2v-8.4h2.6v8.3c0,0.8,0.2,1.4,0.6,1.8c0.4,0.4,0.9,0.6,1.6,0.6c1.5,0,2.2-0.8,2.2-2.3v-8.4H187.4z"/>
<polygon class="st0" points="200.6,38.8 198,38.8 193,30.5 193,38.8 190.4,38.8 190.4,26.2 193,26.2 198,34.5 198,26.2 200.6,26.2 
	"/>
<rect x="203.8" y="26.2" class="st0" width="2.6" height="12.6"/>
<polygon class="st0" points="218.9,28.3 215,28.3 215,38.8 212.4,38.8 212.4,28.3 208.6,28.3 208.6,26.2 218.9,26.2 "/>
<polygon class="st0" points="228.6,33.4 223.6,33.4 223.6,36.7 229.5,36.7 229.5,38.8 221,38.8 221,26.2 229.4,26.2 229.4,28.3 
	223.6,28.3 223.6,31.3 228.6,31.3 "/>
<path class="st0" d="M232,38.8V26.2h3.9c1.1,0,2.1,0.2,3,0.7c0.9,0.5,1.6,1.2,2,2.1c0.5,0.9,0.7,2,0.7,3.1v0.6
	c0,1.2-0.2,2.2-0.7,3.1c-0.5,0.9-1.2,1.6-2,2.1c-0.9,0.5-1.9,0.8-3,0.8H232z M234.5,28.3v8.4h1.3c1,0,1.8-0.3,2.3-1
	c0.5-0.7,0.8-1.6,0.8-2.8v-0.7c0-1.3-0.3-2.2-0.8-2.9c-0.5-0.7-1.3-1-2.3-1H234.5z"/>
<polygon class="st0" points="260.2,38.8 257.6,38.8 252.6,30.5 252.6,38.8 250,38.8 250,26.2 252.6,26.2 257.6,34.5 257.6,26.2 
	260.2,26.2 "/>
<path class="st0" d="M270.4,36.2h-4.5l-0.9,2.6h-2.8l4.7-12.6h2.4l4.7,12.6h-2.8L270.4,36.2z M266.5,34.1h3.1l-1.6-4.7L266.5,34.1z"
	/>
<polygon class="st0" points="284,28.3 280.1,28.3 280.1,38.8 277.5,38.8 277.5,28.3 273.7,28.3 273.7,26.2 284,26.2 "/>
<rect x="286.2" y="26.2" class="st0" width="2.6" height="12.6"/>
<path class="st0" d="M302.2,32.8c0,1.2-0.2,2.3-0.7,3.3c-0.4,0.9-1.1,1.7-1.9,2.2c-0.8,0.5-1.8,0.8-2.8,0.8c-1,0-2-0.2-2.8-0.8
	c-0.8-0.5-1.5-1.2-1.9-2.1c-0.4-0.9-0.7-2-0.7-3.2v-0.6c0-1.2,0.2-2.3,0.7-3.3c0.4-0.9,1.1-1.7,1.9-2.2c0.8-0.5,1.7-0.8,2.8-0.8
	c1,0,2,0.3,2.8,0.8c0.8,0.5,1.4,1.2,1.9,2.2c0.4,0.9,0.7,2,0.7,3.3V32.8z M299.6,32.2c0-1.3-0.2-2.3-0.7-3c-0.5-0.7-1.1-1-2-1
	c-0.9,0-1.5,0.3-2,1c-0.5,0.7-0.7,1.7-0.7,3v0.6c0,1.3,0.2,2.3,0.7,3c0.5,0.7,1.2,1.1,2,1.1c0.9,0,1.5-0.3,2-1
	c0.5-0.7,0.7-1.7,0.7-3V32.2z"/>
<polygon class="st0" points="315.1,38.8 312.5,38.8 307.5,30.5 307.5,38.8 304.9,38.8 304.9,26.2 307.5,26.2 312.6,34.5 312.6,26.2 
	315.1,26.2 "/>
<path class="st0" d="M324.7,35.5c0-0.5-0.2-0.9-0.5-1.1c-0.3-0.3-1-0.5-1.9-0.8c-0.9-0.3-1.6-0.6-2.1-0.9c-1.4-0.8-2.1-1.8-2.1-3.1
	c0-0.7,0.2-1.3,0.6-1.8c0.4-0.5,0.9-0.9,1.6-1.2c0.7-0.3,1.5-0.4,2.4-0.4c0.9,0,1.7,0.2,2.4,0.5c0.7,0.3,1.2,0.8,1.6,1.4
	c0.4,0.6,0.6,1.3,0.6,2h-2.6c0-0.6-0.2-1-0.5-1.3c-0.4-0.3-0.9-0.5-1.5-0.5c-0.6,0-1.1,0.1-1.5,0.4c-0.4,0.3-0.5,0.6-0.5,1.1
	c0,0.4,0.2,0.8,0.6,1c0.4,0.3,1,0.5,1.8,0.8c1.5,0.4,2.5,1,3.2,1.7c0.7,0.7,1,1.5,1,2.5c0,1.1-0.4,1.9-1.2,2.6
	c-0.8,0.6-1.9,0.9-3.3,0.9c-1,0-1.8-0.2-2.6-0.5c-0.8-0.4-1.4-0.8-1.8-1.5c-0.4-0.6-0.6-1.3-0.6-2.1h2.6c0,1.4,0.8,2.1,2.5,2.1
	c0.6,0,1.1-0.1,1.4-0.4C324.5,36.3,324.7,36,324.7,35.5"/>
<path class="st0" d="M182.5,54h-2.1v4.6h-2.6V46.1h4.7c1.5,0,2.6,0.3,3.4,1c0.8,0.7,1.2,1.6,1.2,2.8c0,0.9-0.2,1.6-0.6,2.1
	c-0.4,0.6-0.9,1-1.7,1.4l2.7,5.1v0.1h-2.8L182.5,54z M180.4,51.9h2.1c0.7,0,1.2-0.2,1.5-0.5c0.4-0.3,0.5-0.8,0.5-1.4
	c0-0.6-0.2-1.1-0.5-1.4c-0.3-0.3-0.9-0.5-1.6-0.5h-2.1V51.9z"/>
<polygon class="st0" points="197.5,53.2 192.5,53.2 192.5,56.6 198.3,56.6 198.3,58.6 189.9,58.6 189.9,46.1 198.3,46.1 198.3,48.2 
	192.5,48.2 192.5,51.2 197.5,51.2 "/>
<path class="st0" d="M210.4,57.1c-0.5,0.6-1.1,1-2,1.3c-0.9,0.3-1.8,0.5-2.8,0.5c-1.1,0-2-0.2-2.9-0.7c-0.8-0.5-1.5-1.2-1.9-2.1
	c-0.4-0.9-0.7-2-0.7-3.2V52c0-1.3,0.2-2.3,0.6-3.3c0.4-0.9,1-1.6,1.8-2.1c0.8-0.5,1.7-0.7,2.8-0.7c1.5,0,2.7,0.4,3.5,1.1
	c0.8,0.7,1.3,1.7,1.5,3.1h-2.5c-0.1-0.7-0.4-1.2-0.8-1.6c-0.4-0.3-0.9-0.5-1.6-0.5c-0.9,0-1.6,0.3-2,1c-0.5,0.7-0.7,1.6-0.7,3v0.8
	c0,1.3,0.3,2.3,0.8,3c0.5,0.7,1.2,1,2.2,1c1,0,1.7-0.2,2.1-0.6v-2.2h-2.4V52h5V57.1z"/>
<rect x="213.5" y="46.1" class="st0" width="2.6" height="12.6"/>
<path class="st0" d="M229.5,52.6c0,1.2-0.2,2.3-0.7,3.3c-0.4,0.9-1.1,1.7-1.9,2.2c-0.8,0.5-1.8,0.8-2.8,0.8c-1,0-2-0.2-2.8-0.8
	c-0.8-0.5-1.5-1.2-1.9-2.1c-0.4-0.9-0.7-2-0.7-3.2v-0.6c0-1.2,0.2-2.3,0.7-3.3c0.4-0.9,1.1-1.7,1.9-2.2c0.8-0.5,1.7-0.8,2.8-0.8
	c1,0,2,0.3,2.8,0.8c0.8,0.5,1.4,1.2,1.9,2.2c0.4,0.9,0.7,2,0.7,3.3V52.6z M226.9,52.1c0-1.3-0.2-2.3-0.7-3c-0.5-0.7-1.1-1-2-1
	c-0.9,0-1.5,0.3-2,1c-0.5,0.7-0.7,1.7-0.7,3v0.6c0,1.3,0.2,2.3,0.7,3c0.5,0.7,1.2,1.1,2,1.1c0.9,0,1.5-0.3,2-1
	c0.5-0.7,0.7-1.7,0.7-3V52.1z"/>
<polygon class="st0" points="242.4,58.6 239.8,58.6 234.8,50.4 234.8,58.6 232.2,58.6 232.2,46.1 234.8,46.1 239.8,54.4 239.8,46.1 
	242.4,46.1 "/>
<path class="st0" d="M252.6,56H248l-0.9,2.6h-2.8l4.7-12.6h2.4l4.7,12.6h-2.8L252.6,56z M248.7,53.9h3.1l-1.6-4.7L248.7,53.9z"/>
<polygon class="st0" points="260.8,56.6 266.3,56.6 266.3,58.6 258.2,58.6 258.2,46.1 260.8,46.1 "/>
<path class="st0" d="M283.5,54.5c-0.1,1.4-0.6,2.4-1.5,3.2c-0.9,0.8-2.1,1.2-3.6,1.2c-1.6,0-2.9-0.5-3.8-1.6
	c-0.9-1.1-1.4-2.6-1.4-4.5v-0.8c0-1.2,0.2-2.3,0.6-3.2c0.4-0.9,1-1.6,1.8-2.1c0.8-0.5,1.7-0.7,2.8-0.7c1.5,0,2.6,0.4,3.5,1.2
	c0.9,0.8,1.4,1.9,1.5,3.3h-2.6c-0.1-0.8-0.3-1.4-0.7-1.8c-0.4-0.4-1-0.5-1.8-0.5c-0.9,0-1.5,0.3-1.9,0.9c-0.4,0.6-0.6,1.6-0.7,2.9
	v0.9c0,1.4,0.2,2.4,0.6,3s1.1,0.9,1.9,0.9c0.8,0,1.4-0.2,1.8-0.5c0.4-0.4,0.6-0.9,0.7-1.7H283.5z"/>
<path class="st0" d="M296.3,52.6c0,1.2-0.2,2.3-0.7,3.3c-0.4,0.9-1.1,1.7-1.9,2.2c-0.8,0.5-1.8,0.8-2.8,0.8c-1,0-2-0.2-2.8-0.8
	c-0.8-0.5-1.5-1.2-1.9-2.1c-0.4-0.9-0.7-2-0.7-3.2v-0.6c0-1.2,0.2-2.3,0.7-3.3c0.4-0.9,1.1-1.7,1.9-2.2c0.8-0.5,1.7-0.8,2.8-0.8
	c1,0,2,0.3,2.8,0.8c0.8,0.5,1.4,1.2,1.9,2.2c0.4,0.9,0.7,2,0.7,3.3V52.6z M293.6,52.1c0-1.3-0.2-2.3-0.7-3c-0.5-0.7-1.1-1-2-1
	c-0.9,0-1.5,0.3-2,1c-0.5,0.7-0.7,1.7-0.7,3v0.6c0,1.3,0.2,2.3,0.7,3c0.5,0.7,1.2,1.1,2,1.1c0.9,0,1.5-0.3,2-1
	c0.5-0.7,0.7-1.7,0.7-3V52.1z"/>
<polygon class="st0" points="301.5,56.6 307,56.6 307,58.6 298.9,58.6 298.9,46.1 301.5,46.1 "/>
<polygon class="st0" points="311.8,56.6 317.3,56.6 317.3,58.6 309.2,58.6 309.2,46.1 311.8,46.1 "/>
<path class="st0" d="M327.1,56h-4.5l-0.9,2.6h-2.8l4.7-12.6h2.4l4.7,12.6h-2.8L327.1,56z M323.2,53.9h3.1l-1.6-4.7L323.2,53.9z"/>
<path class="st0" d="M332.7,58.6V46.1h4.4c1.5,0,2.7,0.3,3.5,0.9c0.8,0.6,1.2,1.4,1.2,2.6c0,0.6-0.2,1.2-0.5,1.6
	c-0.3,0.5-0.8,0.8-1.3,1c0.6,0.2,1.2,0.5,1.5,1c0.4,0.5,0.6,1.1,0.6,1.8c0,1.2-0.4,2.1-1.2,2.7c-0.8,0.6-1.9,0.9-3.3,1H332.7z
	 M335.3,51.3h1.9c1.3,0,2-0.5,2-1.6c0-0.6-0.2-1-0.5-1.2c-0.3-0.2-0.9-0.4-1.6-0.4h-1.8V51.3z M335.3,53.2v3.4h2.2
	c0.6,0,1.1-0.1,1.4-0.4c0.3-0.3,0.5-0.7,0.5-1.2c0-1.2-0.6-1.7-1.8-1.8H335.3z"/>
<path class="st0" d="M354.9,52.6c0,1.2-0.2,2.3-0.7,3.3c-0.4,0.9-1.1,1.7-1.9,2.2c-0.8,0.5-1.8,0.8-2.8,0.8c-1,0-2-0.2-2.8-0.8
	c-0.8-0.5-1.5-1.2-1.9-2.1c-0.4-0.9-0.7-2-0.7-3.2v-0.6c0-1.2,0.2-2.3,0.7-3.3c0.4-0.9,1.1-1.7,1.9-2.2c0.8-0.5,1.7-0.8,2.8-0.8
	c1,0,2,0.3,2.8,0.8c0.8,0.5,1.4,1.2,1.9,2.2c0.4,0.9,0.7,2,0.7,3.3V52.6z M352.3,52.1c0-1.3-0.2-2.3-0.7-3c-0.5-0.7-1.1-1-2-1
	c-0.9,0-1.5,0.3-2,1c-0.5,0.7-0.7,1.7-0.7,3v0.6c0,1.3,0.2,2.3,0.7,3c0.5,0.7,1.2,1.1,2,1.1c0.9,0,1.5-0.3,2-1
	c0.5-0.7,0.7-1.7,0.7-3V52.1z"/>
<path class="st0" d="M362.2,54h-2.1v4.6h-2.6V46.1h4.7c1.5,0,2.6,0.3,3.4,1c0.8,0.7,1.2,1.6,1.2,2.8c0,0.9-0.2,1.6-0.6,2.1
	c-0.4,0.6-0.9,1-1.7,1.4l2.7,5.1v0.1h-2.8L362.2,54z M360.2,51.9h2.1c0.7,0,1.2-0.2,1.5-0.5c0.4-0.3,0.5-0.8,0.5-1.4
	c0-0.6-0.2-1.1-0.5-1.4c-0.3-0.3-0.9-0.5-1.6-0.5h-2.1V51.9z"/>
<path class="st0" d="M377.2,56h-4.5l-0.9,2.6H369l4.7-12.6h2.4l4.7,12.6H378L377.2,56z M373.3,53.9h3.1l-1.6-4.7L373.3,53.9z"/>
<polygon class="st0" points="390.7,48.2 386.9,48.2 386.9,58.6 384.3,58.6 384.3,48.2 380.5,48.2 380.5,46.1 390.7,46.1 "/>
<rect x="393" y="46.1" class="st0" width="2.6" height="12.6"/>
<polygon class="st0" points="403.4,55.5 406.2,46.1 409.1,46.1 404.7,58.6 402,58.6 397.7,46.1 400.6,46.1 "/>
<polygon class="st0" points="418.7,53.2 413.7,53.2 413.7,56.6 419.6,56.6 419.6,58.6 411.1,58.6 411.1,46.1 419.5,46.1 419.5,48.2 
	413.7,48.2 413.7,51.2 418.7,51.2 "/>
<path class="st0" d="M180.4,74v4.4h-2.6V65.9h4.9c0.9,0,1.8,0.2,2.5,0.5c0.7,0.3,1.3,0.8,1.7,1.5c0.4,0.6,0.6,1.4,0.6,2.2
	c0,1.2-0.4,2.2-1.3,2.9c-0.8,0.7-2,1.1-3.5,1.1H180.4z M180.4,71.9h2.3c0.7,0,1.2-0.2,1.6-0.5c0.4-0.3,0.5-0.8,0.5-1.4
	c0-0.6-0.2-1.1-0.5-1.5c-0.4-0.4-0.9-0.6-1.5-0.6h-2.4V71.9z"/>
<polygon class="st0" points="192.4,76.4 197.9,76.4 197.9,78.5 189.8,78.5 189.8,65.9 192.4,65.9 "/>
<path class="st0" d="M207.7,75.9h-4.5l-0.9,2.6h-2.8l4.7-12.6h2.4l4.7,12.6h-2.8L207.7,75.9z M203.8,73.8h3.1l-1.6-4.7L203.8,73.8z"
	/>
<polygon class="st0" points="221.3,68 217.4,68 217.4,78.5 214.8,78.5 214.8,68 211,68 211,65.9 221.3,65.9 "/>
<polygon class="st0" points="231,73.3 226,73.3 226,78.5 223.4,78.5 223.4,65.9 231.6,65.9 231.6,68 226,68 226,71.2 231,71.2 "/>
<path class="st0" d="M244,72.5c0,1.2-0.2,2.3-0.7,3.3c-0.4,0.9-1.1,1.7-1.9,2.2c-0.8,0.5-1.8,0.8-2.8,0.8c-1,0-2-0.3-2.8-0.8
	c-0.8-0.5-1.5-1.2-1.9-2.1c-0.4-0.9-0.7-2-0.7-3.2v-0.6c0-1.2,0.2-2.3,0.7-3.3c0.4-0.9,1.1-1.7,1.9-2.2c0.8-0.5,1.7-0.8,2.8-0.8
	c1,0,2,0.3,2.8,0.8c0.8,0.5,1.4,1.2,1.9,2.2c0.4,0.9,0.7,2,0.7,3.3V72.5z M241.4,71.9c0-1.3-0.2-2.3-0.7-3c-0.5-0.7-1.1-1-2-1
	c-0.9,0-1.5,0.3-2,1c-0.5,0.7-0.7,1.7-0.7,3v0.6c0,1.3,0.2,2.3,0.7,3c0.5,0.7,1.2,1.1,2,1.1c0.9,0,1.5-0.3,2-1
	c0.5-0.7,0.7-1.7,0.7-3V71.9z"/>
<path class="st0" d="M251.3,73.9h-2.1v4.6h-2.6V65.9h4.7c1.5,0,2.6,0.3,3.4,1c0.8,0.7,1.2,1.6,1.2,2.8c0,0.9-0.2,1.6-0.6,2.1
	c-0.4,0.6-0.9,1-1.7,1.4l2.7,5.1v0.1h-2.8L251.3,73.9z M249.2,71.8h2.1c0.7,0,1.2-0.2,1.5-0.5c0.4-0.3,0.5-0.8,0.5-1.4
	c0-0.6-0.2-1.1-0.5-1.4c-0.3-0.3-0.9-0.5-1.6-0.5h-2.1V71.8z"/>
<polygon class="st0" points="262.1,65.9 265.3,75 268.5,65.9 271.9,65.9 271.9,78.5 269.3,78.5 269.3,75 269.6,69.1 266.2,78.5 
	264.4,78.5 261,69.1 261.3,75 261.3,78.5 258.7,78.5 258.7,65.9 "/>
<path class="st0" d="M127.2,130.2c0.2-0.1,0.4-0.2,0.6-0.3c0.1,0,0.2,0.1,0.2,0.1c-2.7,2.8-6.2,4.7-9.5,5.6
	c-2.5,0.7-4.9,0.8-7.5,0.5c-3.9-0.4-7.4-2-10.6-4.1c-1.9-1.3-3.9-2.6-5.8-3.9c-2.2-1.5-4.6-1.8-7.2-1.4c-1.4,0.1-0.3,0.8-0.1,0.9
	c3.4,1.7,6.7,3.7,9.7,6c2.1,1.5,5.7,5,5.7,5l-2.7,2.3c0,0-2.1-2.3-3-3.3c-6-6.3-11.3-9-12.5-9.7c-0.2-0.1-0.4-0.2-0.6-0.2
	c-0.2,0-0.4,0.1-0.6,0.2c-1.2,0.7-6.5,3.4-12.5,9.7c-0.9,0.9-3,3.3-3,3.3l-2.7-2.3c0,0,3.7-3.5,5.7-5c3-2.3,6.2-4.3,9.7-6
	c0.2-0.1,1.3-0.8-0.1-0.9c-2.6-0.4-5-0.1-7.2,1.4c-1.9,1.3-3.8,2.6-5.8,3.9c-3.2,2.1-6.7,3.7-10.6,4.1c-2.5,0.3-5,0.2-7.5-0.5
	c-3.3-0.9-6.8-2.9-9.5-5.6c0,0,0.1-0.1,0.2-0.1c0.2,0.1,0.4,0.2,0.6,0.3c4,2.1,8.2,2.3,12.6,1.5c3-0.6,5.7-1.8,8.5-2.9
	c2-0.8,3.9-1.8,6-2.4c5.3-1.7,10.6-1.7,16-0.4c0.1,0,0.2,0,0.3,0c0.1,0,0.2,0,0.3,0c5.4-1.4,10.7-1.4,16,0.4c2,0.7,4,1.6,6,2.4
	c2.8,1.2,5.5,2.4,8.5,2.9C119,132.6,123.2,132.3,127.2,130.2 M140.5,118.5c-2.3,1.8-3.8,2.3-5.7,3c-2.9,1-5.9,1.2-8.9,1.3
	c-4,0.2-7.8,0.4-11.7,1c0,0,0,0-0.1,0c-0.2,0-0.4-0.1-0.3-0.1c0,0,0,0,0.1,0c3.5-1.3,5.8-4,7.6-7.3c1.2-2.3,3.2-6.9,3.8-7.7
	c0,0,0-0.2,0-0.2c-0.3,0.1-4.1,3.3-5.8,5c-2.2,2-4.2,4.1-6.3,6.1c-3.4,3.2-8.2,4.6-10,5.1c0,0-0.1,0-0.1,0.1
	c-0.1,0.1-0.1,0.1-0.1,0.2c0,0,0,0,0,0c0,0,0.1,0,0.1,0c1.4,0.3,5.3,1.2,7.3,1.7c3.1,0.8,6.2,1.5,9.4,1.8c3.5,0.2,6.9-0.1,10.2-1.3
	c3.7-1.4,8.2-4.6,10.8-8.5c0,0,0,0,0,0C140.6,118.4,140.5,118.4,140.5,118.5 M152.3,100.3c-0.1,0.1-2,2.7-6.8,5.9
	c-2.3,1.6-4.4,2.6-7,3.8c-3.2,1.5-5.9,2.8-8.6,5c-0.2,0.1-0.3,0.3-0.5,0.4c-0.1,0.1-0.2,0-0.1-0.2c0.1-0.2,4.1-4.2,5.3-12.8
	c0.4-3,0.5-6.2,1.4-9.1c0-0.1,0-0.2-0.1-0.2c0,0,0,0,0,0c-2.9,3.3-5.3,8.5-6.4,11.7c-0.8,2.3-1.6,4.6-2.4,6.9c-1.1,3.1-2.6,6-5,8.3
	c0,0-0.2,0.2-0.2,0.2s0,0.1,0,0.1c0,0,0,0,0,0c0.3-0.1,0.6-0.1,0.8-0.1c2.6-0.5,5.3-1.2,7.9-1.6c4.4-0.7,8.3-2.3,11.9-5.1
	c3.6-2.8,6.6-6,8.6-10.1c0.5-1.1,1-2.1,1.3-3.3C152.5,100.2,152.4,100.2,152.3,100.3 M157.5,79.9c-1.1,3.6-3.2,6.6-6.2,9.8
	c-2.4,2.4-6.9,7-9,10.2c-0.1,0.1-0.2,0-0.2-0.1c1-2.8,1.4-7.7,0.8-11.5c-0.5-3.3-1.9-6.8-2.3-10.8c0,0,0,0,0,0
	c0-0.1-0.1-0.2-0.2-0.2c0,0,0,0.1-0.1,0.4c-0.7,2.3-1.5,5.2-1.7,7.9c-0.2,3.2,0.4,7.4,0.2,10.8c-0.3,3.9-0.6,7.7-2.3,11.2
	c0,0,0,0,0,0.1c0,0.1,0.1,0.3,0.1,0.3s0,0,0,0c1.4-0.9,5.5-3.3,8.1-5.1c3.3-2.2,6.3-4.9,8.6-8.2c2.9-4.2,4.5-9.2,4.5-14.2
	c0-0.2,0-0.5,0-0.5C157.7,79.8,157.5,79.9,157.5,79.9 M148.9,82.1C148.9,82.1,148.9,82.2,148.9,82.1c-0.2,0.1-0.2,0-0.2,0
	c0.1-1,0.1-2.3,0.1-3.3c-0.3-3.8-2.6-7-4.6-10.1c-1.1-1.7-2.9-4.5-3.6-6.5c0,0-0.2-0.1-0.2-0.1c0,0.3,0.1,1.5,0.1,2.2
	c0.6,5.5,2.3,10.8,4.1,16c1.2,3.5,1.8,6.4,1.4,10.1c0,0.3,0,0.3,0.1,0.4c0,0,0,0,0,0c1.2-1.8,3.6-4.3,5.1-6.1
	c1.6-1.9,9.6-11.1,5.7-23.9c-0.2-0.8-0.5-1.4-0.6-1.6c-0.1,0-0.2,0.2-0.2,0.2c0,9.2-4.4,13.1-6.3,19.4
	C149.5,80.1,149.2,81.2,148.9,82.1 M149,63.1c0,0-0.4-1.2-0.9-2.2c-0.2-0.4-0.4-0.9-0.5-1.2c-1.4-2.8-3.2-4.3-5.6-6.2
	c-1.5-1.3-3.6-3.5-4.9-5.5c0,0,0,0,0,0c0,0,0,0-0.1,0c-0.1-0.1-0.2-0.1-0.2,0c-0.1,0-0.1,0-0.1,0c0.1,0.4,1.3,4.4,2.2,6.3
	c1.2,2.7,3.1,5,4.9,7.4c0.1,0.2,0.3,0.3,0.4,0.5c1.8,2.4,4.6,7.5,5.3,10.1c0,0.1,0.2,0.1,0.2,0.1c0.2-0.9,1.4-4.6,2.3-7
	c0.2-0.5,1.7-5.4,2-7.6c0.9-6.1-1.1-13.9-4.7-18.2c-0.1,0-0.1,0.2-0.1,0.2c0.1,0.2,0.1,0.4,0.2,0.6c0.1,0.3,0.2,0.5,0.2,0.8
	c0.9,3.9,0.6,6.7,0.2,10.1c-0.4,2.7-0.9,5.3-0.7,8c0,0.4,0.3,3.8,0.3,3.9C149.1,63.3,149,63.2,149,63.1 M138.1,29
	c1.1,1.1,2,2.3,2.6,3.8c1,2.3,1.3,5.7,1.9,8.3c0.4,1.6,0.6,2.7,1.2,4.5c0,0.2-0.1,0.2-0.2,0.1c0,0,0,0,0-0.1c-1.8-2.5-4.1-4-7.3-6
	c-1.9-1.3-3.4-2.4-4.8-4.3c-0.2-0.3-0.5-0.6-0.7-1c0,0-0.2-0.1-0.2-0.1c0,0.1,0,0.2,0.1,0.4c0.4,2.1,1.8,5.9,4.2,8.2
	c1.7,1.6,3.6,3.1,5.5,4.6c3.3,2.7,5.6,5.7,6.4,6.6c0,0,0,0,0,0s0.1,0.1,0.1,0c0,0,0,0,0,0c0,0,0,0,0,0c0-0.5-0.1-1.2-0.1-2.1
	c0-2,0.1-4.7,0.2-6.5c0-0.7,0.1-1.5,0.1-2.2c0-2.2-0.3-4.4-1.2-6.5c-1.5-3.4-3.8-6.1-7.1-7.8c-0.2-0.1-0.5-0.2-0.6-0.2
	C138.1,28.7,138,28.8,138.1,29C138.1,29,138.1,29,138.1,29 M124.1,22.6c1.9,1.7,3.5,3.8,5,5.9c1.4,2.1,2.8,4.2,4.7,5.8
	c1.3,1.3,4.9,4.1,5.9,4.8c0,0,0,0,0,0c0,0,0.1,0,0.1,0s0,0,0,0c-0.2-1.1-1.9-8.8-6.7-12.6c-2.6-2.3-6.1-3.6-9.4-4.6
	c0,0.1,0,0.2,0,0.2C123.9,22.3,124,22.4,124.1,22.6 M48.1,128.3c3.2-0.2,6.3-0.9,9.4-1.8c2-0.5,5.9-1.4,7.3-1.7c0,0,0.1,0,0.1,0
	c0,0,0,0,0,0c0,0,0-0.1-0.1-0.2c0,0-0.1-0.1-0.1-0.1c-1.8-0.5-6.6-1.9-10-5.1c-2.2-2-4.2-4.1-6.3-6.1c-1.7-1.6-5.6-4.9-5.8-5
	c0,0,0,0.2,0,0.2c0.6,0.7,2.6,5.3,3.8,7.7c1.8,3.4,4.1,6.1,7.6,7.3c0,0,0,0,0.1,0c0.1,0.1,0,0.2-0.3,0.1c0,0,0,0-0.1,0
	c-3.9-0.6-7.7-0.8-11.7-1c-3-0.2-6.1-0.4-8.9-1.3c-1.9-0.7-3.4-1.2-5.7-3c0,0-0.2-0.1-0.3,0c0,0,0,0,0,0c2.6,3.9,7.1,7.1,10.8,8.5
	C41.1,128.2,44.6,128.6,48.1,128.3 M45,120.3c0.2,0,0.4,0.1,0.8,0.1c0,0,0,0,0,0c0-0.1,0-0.1,0-0.1s-0.2-0.2-0.2-0.2
	c-2.4-2.4-3.8-5.2-5-8.3c-0.8-2.3-1.6-4.6-2.4-6.9c-1.1-3.2-3.5-8.4-6.4-11.7c0,0,0,0,0,0c0,0-0.1,0.1-0.1,0.2c1,2.9,1,6.1,1.4,9.1
	c1.2,8.6,5.1,12.6,5.3,12.8c0.1,0.1,0,0.2-0.1,0.2c-0.2-0.1-0.3-0.2-0.5-0.4c-2.7-2.2-5.4-3.6-8.6-5c-2.5-1.2-4.7-2.2-7-3.8
	c-4.7-3.2-6.7-5.8-6.8-5.9c-0.1-0.1-0.2-0.1-0.2,0c0.3,1.2,0.8,2.2,1.3,3.3c2,4.1,5,7.3,8.6,10.1c3.6,2.7,7.5,4.3,11.9,5.1
	C39.8,119.2,42.4,119.8,45,120.3 M23.1,102.7c2.7,1.8,6.7,4.2,8.1,5.1c0,0,0,0,0,0s0.1-0.2,0.1-0.3c0,0,0,0,0-0.1
	c-1.8-3.5-2-7.3-2.3-11.2c-0.3-3.3,0.3-7.5,0.2-10.8c-0.1-2.7-1-5.6-1.7-7.9c-0.1-0.3-0.1-0.4-0.1-0.4c-0.1,0-0.1,0.1-0.2,0.2
	c0,0,0,0,0,0c-0.4,4-1.8,7.5-2.3,10.8c-0.6,3.8-0.2,8.7,0.8,11.5c0.1,0.2-0.1,0.2-0.2,0.1c-2.1-3.2-6.6-7.8-9-10.2
	c-3-3.2-5.1-6.1-6.2-9.8c0,0-0.2-0.1-0.2-0.1c0,0,0,0.3,0,0.5c-0.1,5.1,1.6,10.1,4.5,14.2C16.8,97.9,19.8,100.5,23.1,102.7
	 M21.7,90.8C21.7,90.8,21.7,90.8,21.7,90.8c0.1-0.1,0.1-0.1,0.1-0.4c-0.4-3.7,0.2-6.6,1.4-10.1c1.8-5.2,3.5-10.5,4.1-16
	c0.1-0.7,0.1-1.9,0.1-2.2c0,0-0.2,0.1-0.2,0.1c-0.8,1.9-2.6,4.8-3.7,6.5c-2,3.2-4.3,6.3-4.6,10.1c-0.1,1-0.1,2.2,0.1,3.3
	c0,0,0,0.1-0.1,0.1c0,0-0.1,0-0.1-0.1c-0.2-0.9-0.5-2-0.9-3.2c-1.9-6.3-6.3-10.2-6.3-19.4c0,0-0.1-0.2-0.2-0.2
	c-0.1,0.1-0.4,0.8-0.6,1.6c-4,12.8,4.1,22,5.7,23.9C18.1,86.5,20.5,89,21.7,90.8 M15.9,65.4c0.9,2.5,2,6.1,2.3,7c0,0,0.2,0,0.2-0.1
	c0.7-2.6,3.5-7.7,5.3-10.1c0.1-0.2,0.3-0.3,0.4-0.5c1.8-2.3,3.7-4.6,4.9-7.4c0.8-1.9,2.1-5.9,2.2-6.3c0,0,0,0-0.1,0c0,0-0.1,0-0.2,0
	c0,0,0,0-0.1,0c0,0,0,0,0,0c-1.3,2-3.4,4.2-4.9,5.5c-2.4,1.9-4.2,3.4-5.6,6.2c-0.2,0.3-0.3,0.7-0.5,1.2c-0.4,1-0.9,2.2-0.9,2.2
	c0,0.1-0.2,0.2-0.2,0c0-0.1,0.2-3.4,0.3-3.9c0.1-2.7-0.4-5.3-0.7-8c-0.5-3.4-0.8-6.1,0.2-10.1c0.1-0.3,0.1-0.5,0.2-0.8
	c0.1-0.2,0.1-0.4,0.2-0.6c0,0,0-0.2-0.1-0.2c-3.5,4.3-5.5,12.1-4.7,18.2C14.3,59.9,15.8,64.8,15.9,65.4 M20.9,45.5
	C21,47.4,21,50,21,52c0,0.9,0,1.7-0.1,2.1c0,0,0,0,0,0c0,0,0,0,0,0c0,0.1,0.1,0,0.1,0s0,0,0,0c0.8-1,3.1-3.9,6.4-6.6
	c1.8-1.5,3.8-3,5.5-4.6c2.4-2.3,3.8-6.1,4.2-8.2c0-0.2,0.1-0.3,0.1-0.4c0,0-0.2,0-0.2,0.1c-0.2,0.3-0.5,0.6-0.7,1
	c-1.4,1.9-2.8,3-4.8,4.3c-3.2,2-5.5,3.6-7.3,6c0,0,0,0,0,0.1c-0.1,0.2-0.2,0.1-0.2-0.1c0.6-1.8,0.8-2.9,1.2-4.5
	c0.6-2.6,0.9-6,1.9-8.3c0.6-1.4,1.5-2.7,2.6-3.8c0,0,0,0,0,0c0-0.1,0-0.2,0-0.2c-0.2,0-0.4,0.1-0.6,0.2c-3.4,1.7-5.6,4.4-7.1,7.8
	c-0.9,2.1-1.2,4.3-1.2,6.5C20.8,44,20.8,44.8,20.9,45.5 M28,39.2C28,39.2,28.1,39.2,28,39.2c0.1,0,0.1,0,0.1,0
	c0.9-0.7,4.6-3.6,5.9-4.8c1.9-1.7,3.3-3.7,4.7-5.8c1.5-2.2,3-4.2,5-5.9c0.2-0.1,0.3-0.2,0.4-0.4c0,0,0.1-0.2,0-0.2
	c-3.4,0.9-6.8,2.3-9.4,4.6C29.9,30.3,28.2,38.1,28,39.2C28,39.2,28,39.2,28,39.2 M82.6,81.4c0.4-0.6-0.6-0.9-0.8,0.1
	C81.6,82.3,82.2,81.9,82.6,81.4 M92.9,57.5c-0.4-0.2-1.9,1.6-1.6,1.9C91.4,59.5,93.1,57.6,92.9,57.5 M93.3,57.1
	c0.2,0.1,1.2-0.4,1-0.6c-0.2-0.1-1.4-0.7-1.4-0.4C92.9,56.8,93,57,93.3,57.1 M111.5,74c0.5-0.1,0.4-0.9,0-0.9c-0.5,0-1,0.7-0.8,0.7
	C110.9,73.8,111.2,74.1,111.5,74 M104.9,55.9c-0.4,0-0.5,0.5-0.1,0.7c0.2,0.1,0.7,0,1-0.2c0.3-0.2,0.6-0.4,0.5-0.8
	c0-0.3-0.6-1-0.3-1.2c0.3-0.3,0.7,0.2,1,0c0.4-0.2,0.4-0.4,0.4-0.7c0-0.5-0.2-1.1-0.7-1.1c-0.4,0-1.1,1.1-1.1,1.1
	c-0.1,0.1-0.2,0.5,0,0.9C105.7,55.2,105.6,55.9,104.9,55.9 M113.8,56c0,0.2,0.7,2,0.8,2.4c0.1,0.5,0.2,1.9,0.6,1.7
	c0.2-0.1,0.2-1,0.2-1.3c-0.2-1-0.4-1.8-0.7-2.9c-0.2-0.6-1-2.5-1.3-2.4c-0.2,0.1,0.4,1.4,0.5,1.8C113.9,55.6,113.8,55.7,113.8,56
	 M109.1,33c0.4,0.2,0.4-0.7-0.3-1.3c-0.7-0.6-1.7-0.3-1.5,0C107.5,31.9,108.7,32.8,109.1,33 M88.7,27.1c-0.9-0.6-0.1-1.4-0.9-1.9
	c-0.5-0.4-1.9,0-2.2,0.4c-0.6,0.8,0.8,0.5,1.3,0.7c0.6,0.2,1.7,1.3,2,1.1C89.1,27.3,88.8,27.2,88.7,27.1 M94.1,24.4
	c-1.2-0.5-5.7-0.5-5.6,0.6c0.1,1,2.6,0.1,3.2,0C92.4,25,95.2,24.9,94.1,24.4 M81.8,76.8c-0.2-0.1-0.7,0.1-0.8-0.1
	c-0.1-0.2-0.4-0.2-0.4,0c0.1,0.2-0.1,0.4,0.1,0.7c0.3,0.3,0.8,0.2,1.1,0C82,77.2,81.9,76.9,81.8,76.8 M79.2,67.7
	c0.4,0,0.4-0.3,0.6-0.3c0.2,0,0,0.3,0.4,0.3c0.4,0,0.8-1-0.4-1C78.8,66.8,79,67.7,79.2,67.7 M80.8,68.7c-0.7-0.2-0.6,0.2-1.1,0.3
	c-0.8,0.1-0.1-0.6-0.5-0.9c-0.2-0.1-0.6,0.5-0.6,0.9c0,0.2,0,0.9,0.3,0.9c0.3,0,2,0.2,2.6,0.3C82.2,70.5,81.5,68.9,80.8,68.7
	 M72.5,77.7c0.2,0,0.4-0.8,0.3-1.2c-0.1-0.4-0.9-0.1-0.9,0.1C71.7,76.8,72.3,77.7,72.5,77.7 M61.6,77.6c0-0.4,0-1.4-0.2-1.6
	c-0.2-0.2-0.2,0.2-0.4,0.2c-0.1,0-0.1-0.5-0.3-0.5c-0.2,0,0.1,0.8,0.2,1.3C61.1,77.5,61.6,78.2,61.6,77.6 M61.4,75.1
	c0.1-0.1,0.4-1.8,0.4-2.5c-0.1-0.6-0.4-1.3-0.5-1.2c-0.1,0.1,0.1,0.4,0.1,1.1c0,0.9-0.4,1.7-0.4,2C60.9,74.8,61.2,75.5,61.4,75.1
	 M47.4,105.6c-9.7-9.7-15.1-22.7-15.1-36.5s5.4-26.8,15.1-36.5s22.7-15.1,36.5-15.1c13.8,0,26.8,5.4,36.5,15.1
	c9.7,9.7,15.1,22.7,15.1,36.5s-5.4,26.8-15.1,36.5c-9.7,9.7-22.7,15.1-36.5,15.1C70.1,120.7,57.2,115.4,47.4,105.6 M34.5,70.2
	c0.3,12.4,5.1,24.1,13.7,33.1l5.6-5.6c-1.1-1.2-2.1-2.4-3.1-3.7c-0.4-0.2-0.9-0.4-1.2-0.8c-0.5-0.6-0.7-1.5-1-1.5
	c-0.2,0,0,0.6-0.5,0.6c-0.7,0.1-1.7-1.6-2.1-2.3c-0.5-0.7-1.2-0.7-1.6-1.4c-0.1-0.2-0.4-0.8-0.6-0.4c-0.4,0.6-1.7-1.3-2-1.2
	c-0.3,0.1,0,0.5-0.2,0.7c-0.4,0.3-1.5-1.5-1.9-1.3c-0.4,0.2-0.5,0.4-0.5,0.9c0,0.5,0.6,1.8,0.4,1.9c-0.3,0.1-1.9-3.9-1.6-4.1
	c0.2-0.1,0.2,0.2,0.4,0.1c0.2-0.1-0.2-0.4-0.3-0.9c-0.1-0.5-0.5-0.5-0.5-1c0-0.5,0.7-0.3,0.7-0.6c0-0.2,0.1-0.5,0.3-0.7
	c0.2-0.2,0.8,0,0.9-0.7c0.1-0.6,0.4,0,0.5,0.4c0.1,0.5,1.4,0.7,1.5,0.3c0-0.2-0.5-0.2-0.5-0.4c0-0.4,0.7,0,1.2,0
	c0.2,0,0.6-0.3,1.1-0.1c0.5,0.3,0.9,0.4,1.2,0.5c-1.2-3.7-1.9-7.7-2-11.8H34.5 M79.5,58.8c0.4-0.7,1.2-1.4,1.3-1.3
	c0.1,0.1-0.5,0.6-0.8,1.1c0.9-0.3,1.9-0.6,2.8-0.7V50c-4.4,0.3-8.5,2-11.6,4.8l5.6,5.6c0.6-0.5,1.3-1,2.1-1.4
	C79.1,59,79.3,58.9,79.5,58.8 M75.3,71.7L75.3,71.7C75.3,71.7,75.3,71.7,75.3,71.7C75.3,71.7,75.3,71.6,75.3,71.7c0-0.1,0-0.2,0-0.2
	c0,0,0,0,0,0c0,0,0-0.1,0-0.1c0,0,0,0,0,0c0,0,0-0.1,0-0.1c0,0,0,0,0,0c0,0,0-0.1,0-0.1c0,0,0,0,0,0c0,0,0-0.1,0.1-0.1
	c0.1-0.1,0.2-0.1,0.3-0.1c0.2,0,0.4,0.2,0.7,0.2c0.2,0,0.3,0,0.5-0.2c0.1-0.1,0.1-0.2,0.2-0.3c0-0.1,0.1-0.2,0.1-0.3
	c0,0,0-0.1,0-0.1c0-0.1-0.2-0.1-0.4,0c0,0-0.1,0-0.1,0c-0.1,0-0.2,0-0.3,0c0,0-0.1,0-0.1,0c-0.1,0-0.2-0.1-0.3-0.2
	c0,0-0.1-0.1-0.1-0.1c0-0.1-0.1-0.1-0.1-0.2c-0.1-0.2-0.3-0.3-0.6-0.4c-0.1-0.1-0.2-0.1-0.3-0.2c-0.1,0-0.1-0.1-0.2-0.2
	c0,0-0.1-0.1-0.1-0.1c0,0,0,0,0,0c0,0-0.1-0.1-0.1-0.1c0,0,0,0-0.1,0c0,0,0,0-0.1-0.1c0,0,0,0-0.1-0.1c0,0,0,0-0.1,0
	c0,0-0.1,0-0.1,0c0,0,0,0-0.1,0c0,0-0.1,0-0.1,0c0,0,0,0,0,0c0,0-0.1,0-0.1,0c0,0,0,0,0,0c-0.3-0.1-0.5,0-0.8,0.3c0,0,0,0,0,0
	c0,0-0.1,0.1-0.1,0.1c0,0,0,0,0,0c0,0.1-0.1,0.1-0.1,0.2c0,0,0,0,0,0c0,0.1-0.1,0.1-0.1,0.2c-0.1,0.2-0.2,0.3-0.2,0.5
	c-0.6,1.7-1.4,1.2-1.3,1.8c0,0.1,0.2,0.1,0.5,0.1c0.1,0,0.2,0,0.3,0c0.1,0,0.3,0,0.4,0c0.1,0,0.3,0,0.4,0c0.1,0,0.1,0,0.2,0
	c0,0,0.1,0,0.1,0c0,0,0.1,0,0.1,0c0,0,0.1,0,0.1,0c0,0,0.1,0,0.1,0c0,0,0,0,0.1,0c0.1,0,0.1,0,0.2-0.1c0.1,0,0.2-0.1,0.3-0.1
	c0,0,0,0,0,0c0.1,0,0.2,0,0.2-0.1c0.2,0,0.3,0,0.4,0c0.1,0,0.3,0.1,0.4,0.3c0.1,0.2,0.2,0.4,0.2,0.6c0,0,0-0.1,0-0.1c0,0,0,0,0,0
	c0,0,0-0.1,0-0.1C75.3,71.8,75.3,71.8,75.3,71.7C75.3,71.8,75.3,71.7,75.3,71.7 M60.3,84.8c0.3,0.7,1,1.4,1,2.2c0,0.2,0,0.3,0,0.5
	c0.4,0.5,0.8,1,1.3,1.5l5.6-5.6c-2.6-2.9-4.5-6.6-5.2-10.6c-0.2,0-0.3,0-0.4-0.1c-0.1-0.2,0.1-0.4,0.3-0.6c-0.1-0.6-0.1-1.2-0.2-1.8
	h-3.7c0,0.6,0.3,1.4-0.1,1.7c-0.3,0.2-0.8,0-1.1,0c-0.7,0.1-0.9,1-0.7,1.5c0.1,0.4,0.3,0.7,0.2,1.1c-0.1,0.4-0.3,0.7,0.4,1
	c0.6,0.3,1.5,1.5,1.4,1.7c-0.1,0.3-0.7-0.2-0.7,0.2c0,0.3,0.8-0.1,0.8,0.9c0,0.6,0.1,1.2,0.3,1.6c0.3,0.8,0.7,1.4,0.7,2.3
	C60.1,83.2,60,84.1,60.3,84.8 M55.4,75.3c0.8,0.3,2.3-0.4,1.2-1.6c-0.5-0.5,0.3-2,0.4-2.3c0.1-0.3,0.8-0.7,1-1.2h-3.3
	C54.8,71.9,55,73.6,55.4,75.3 M56,95.5c-0.6-0.4-1.1-0.6-1.5-0.4c0,0-0.1,0-0.1,0c0.3,0.3,0.6,0.7,0.9,1L56,95.5 M64.4,60.5
	c0.9-2.1,2.2-4,3.7-5.7l-5.6-5.6c-4.6,5-7.5,11.5-7.8,18.7h3.9c0.7-1.1,0.4-1.9,0.7-2.5c0.2-0.6,0.6-1.1,0.9-1.6
	c0.3-0.5,0.6-1,1.2-1c1.3,0,1.6-0.7,2.4-1c0.8-0.4,2.2-0.6,2.1-1c-0.1-0.3-3,0.8-3,0.6c-0.1-0.4,0.9-0.3,1.3-0.7
	C64.3,60.6,64.3,60.6,64.4,60.5 M69.7,56.4c-1,1.1-1.9,2.3-2.6,3.7c0.1,0,0.2-0.1,0.2-0.1c1-0.5,2.2-0.4,2.8-0.2
	c0.7,0.3,1.6,1.1,2,1.4c0.2,0.1,0.3-0.1,1.1-0.2c0.3,0,0.4,0.3,0.9,0.4c0.2,0,0.4,0,0.5,0L69.7,56.4 M62.8,66.4
	c-0.4-0.2-0.8-0.3-1.2-0.3C61,66,60.4,66.3,60,66.8c-0.2,0.4-0.3,0.8-0.2,1.2h2.8C62.7,67.5,62.7,66.9,62.8,66.4 M65.2,72.7
	c0.7,3.4,2.3,6.5,4.5,9l5.6-5.6c-0.5-0.6-0.9-1.2-1.2-1.8c0,0,0,0,0,0c-0.1,0.1-0.2,0.2-0.2,0.3c-0.1,0.2,0,1.1-0.3,1.4
	c-0.4,0.5-1.6-1-2-1.1c-0.5-0.2-0.8,0.4-0.7,0.6c0.1,0.4,0,0.6-0.2,0.6c-0.2,0-1.1-0.6-0.7-0.8c0.5-0.2-0.1-0.6-0.3-0.8
	c-0.4-0.3-0.9,0-1.2-0.4c-0.3-0.4-0.8-0.7-1-0.7c-0.1,0-0.7-0.3-1-0.1c-0.3,0.2-0.6-0.2-0.8-0.4C65.4,73,65.3,72.9,65.2,72.7
	 M69.7,53.3c3.5-3.2,8.1-5.2,13.2-5.5v-7.9c-7.2,0.3-13.8,3.2-18.7,7.8L69.7,53.3 M62.5,46.1c5.4-5,12.5-8.2,20.3-8.4v-7.9
	c-10,0.3-19.1,4.3-25.9,10.7L62.5,46.1 M55.4,42.1C48.9,48.9,44.9,58,44.6,68h7.9c0.3-7.8,3.4-14.9,8.4-20.3L55.4,42.1z M44.6,70.2
	c0.1,4.1,0.9,8,2.1,11.7c0,0,0.1,0,0.1,0c0.8,0,1.9,0,2.4-0.4c0.8-0.6,0.1-2.7,0.5-3.6c0.6-1.1,2.1-3.7,2.6-3.8
	c0.4,0,0.4,0.3,0.6,0.3c-0.2-1.4-0.4-2.8-0.4-4.3H44.6z M82.8,110.6c-10.6-0.3-20.3-4.6-27.4-11.4l-5.6,5.6
	c9,8.6,20.6,13.4,33.1,13.7V110.6z M82.8,100.5c-7-0.2-13.6-2.8-19-7.2c0.1,0.1,0.2,0.3,0.3,0.4c0.4,0.6,1.6,1.9,0.8,2.4
	c-0.7,0.4-1.8,0.1-2.4,0.1c-0.7,0-1.7,1-2.3,1.1c-0.7,0.1-1.2,0.1-1.9-0.2c-0.2-0.1-0.4-0.2-0.6-0.4l-0.9,0.9
	c6.8,6.4,15.9,10.5,25.9,10.7V100.5z M82.8,97.7c-1.1,0.1-2.8,0.1-3.2-0.2c-0.8-0.6-1.8-1.1-1.9-1.6c-0.2-0.8-1.3-1.4-1.3-2.1
	c0-0.8,1.1-1.1,0.8-1.9c-0.2-0.7,0.4-1.5,1.6-2.1c-3.5-0.9-6.6-2.6-9.2-4.9l-5.6,5.6c5.1,4.8,11.7,7.5,18.8,7.8V97.7z M82.5,87.4
	c0.7,0.5,1.5-0.2,2-0.3c0.8-0.1,1.7-0.4,2.5-0.5c0.8-0.1,0,1.1,0.5,1.1c0.6,0.1,3,0.5,3.2-0.1c0.1-0.5,0.2-0.7,0.7-0.8
	c1-0.2,1.8-0.2,2.6-0.8c0.3-0.2,0.9-0.3,1.1-0.7c0.2-0.3-0.1-1.9-0.7-1.7c-0.3,0.1-0.6,0.5-1.3,0.9c-0.6,0.3-1,0.4-1.4-0.1
	c-0.4-0.5,0.2-0.9,0.5-1.2c0.5-0.5,0.9-1,1.4-1c0.2,0,1.3-0.5,1.2-1c-0.1-0.6-1.4,0.1-1.6-0.2c-0.2-0.2,0-0.6-0.2-0.7
	c-0.1-0.1-0.6,0.6-0.2,0.9c0.2,0.2-0.3,0.7-0.8,0.3c-0.4-0.3-0.5,1.2-0.5,1.5c0,0.3,0.6,0.2,0.2,0.7c-0.4,0.5-0.5,0.1-0.8,0.4
	c-0.3,0.3-0.4,0.4,0,0.8c0.3,0.3-0.2,1-0.3,0.4c-0.1-0.4-0.9-0.3-1.1-0.7c-0.2-0.5-0.9-0.4-1.7-0.9c-0.6-0.3-0.6,0.6,0.5,0.9
	c0.9,0.2,0.9,0.3,0.6,0.9c-0.2,0.5-0.2-0.4-1.3-0.6c-0.7-0.2-0.7-0.6-1.3-0.6c-0.6,0-0.4,0.5-1,0.4c-0.4-0.1-0.5,0.5-0.9,0.7
	c-0.5,0.2-0.5,1.1-1,1.4c-0.8,0.4-2.3,0.1-2.2-0.7c0.1-0.8,0.1-1.3,0.5-1.6c0.4-0.2,1,0.4,1.5,0.2c0.6-0.2,0.4-0.8,0.1-1.2
	c-0.1-0.1-0.5-0.3-0.5-0.5c0-0.2,0.8-0.2,1.2-0.5c0.4-0.3,0.8-1,1-1.1c0.2-0.2,0.6-0.2,0.7-0.4c0.1-0.2-0.3-0.6-0.3-0.8
	c0-0.2,0.1-0.4,0.3-0.4c0.2,0,0.4,0.6,0.3,0.7c-0.1,0.2,0.1,0.4,0.4,0.3c0.3-0.1,1.2-0.5,1.5-0.5c0.4-0.1-0.1-0.9,0-1.1
	c0.1-0.1,0.2,0,0.4-0.1c0.1-0.1-0.3-0.3-0.2-0.6c0.1-0.2,1-0.5,0.8-0.7c-0.3-0.2-0.6,0.3-0.8,0.4c-0.5,0.2-0.7-0.3-0.7-0.7
	c0-0.2,0.3-0.9,0-1c-0.3-0.2-0.4,0.6-0.4,0.8c-0.1,0.2-0.3,0.6,0.1,1.2c0.2,0.4,0.1,1.6-0.3,1.7c-0.4,0.1-0.6-0.6-0.8-0.9
	c0-0.1-0.1-0.1-0.1-0.1c0,0,0,0,0,0c0,0,0,0,0,0h0c0,0,0,0-0.1,0c0,0,0,0,0,0c0,0,0,0-0.1,0.1c0,0-0.1,0.1-0.1,0.2
	c0,0.1-0.1,0.2-0.2,0.4c0,0.1-0.1,0.2-0.3,0.2c-0.4,0-0.8,0.1-1.2,0.1c-0.2,0-0.3,0-0.5,0c0.1,0.2,0.1,0.5,0.2,0.7
	c0.2,0.4,0.6,0.7,0.6,1.1c-0.1,0.3-1.3,0.6-1.5,0.4c-0.1-0.3,0.3-0.8,0.3-1.1c-0.1-0.5-0.3-0.7-0.3-1.1c-2.3-0.2-4.3-1.1-6-2.5
	l-5.6,5.6c2.8,2.5,6.2,4.1,10.1,4.7C81.8,87.7,82.1,87.1,82.5,87.4 M89.7,100c-1.5,0.3-3.1,0.5-4.7,0.5v7.9c3.2-0.1,6.3-0.6,9.3-1.4
	c-0.6-0.5-0.9-1.4-1.7-1.6c-1.3-0.5-1.7-1.3-1-2.4c0.4-0.6,0.2-0.9-0.2-1.6C90.9,100.6,90.2,100.2,89.7,100 M85,98.3
	c1.3,0,2.6-0.2,3.8-0.4c-0.3-0.3-0.8-0.3-1.2-0.2C86.4,98,86.8,97,85,97.3V98.3 M85,118.5c12.4-0.3,24.1-5.1,33.1-13.7l-5.6-5.6
	c-2.9,2.7-6.2,5.1-9.8,6.9c-1.2,0.9-2.6,1.5-3.7,2c-0.5,0.2-1,0.5-1.5,0.5c-0.2,0-0.3-0.1-0.5-0.1c-3.8,1.3-7.8,2-12,2.1V118.5
	 M107,47.6c0,0,0,0.1,0,0.1c0,0,0,0.1-0.1,0.1c1.3,1.4,2.5,2.9,3.5,4.6c0.1-0.2,0.2-0.3,0.4-0.1c0.3,0.3-0.3,0.9,0.5,0.7
	c0.5-0.1,0.4,0.5,0,0.9c0.3,0.5,0.5,0.9,0.7,1.4c0.3,0.1,0.5,0.3,0.6,0.5c0.1,0.6,0.4,1.2,0.4,1.8c0.4,1,0.7,2,1,3.1
	c0.4-0.3,0.9-0.2,0.9,0.4c0.1,0.6-0.1,1.2-0.4,1.7c0.4,1.7,0.6,3.5,0.6,5.3h7.9c-0.1-5.1-1.3-10.2-3.3-14.8
	c-0.2,0.1-0.4,0.1-0.6,0.5c-0.4,0.5-1-0.1-1.4-0.6c-0.7-0.8-2.2-3.1-2.9-3.2c-0.6-0.1-1-0.9-1.6-1c-0.6-0.1-1.4-0.5-1.5-1.1
	c-0.1-0.7-0.3-0.9-1-1c-0.8-0.1-1.3-0.4-1.9-1L107,47.6 M111.8,93.7c0.3,0.7,0.4,1.4,0.2,2l0.4,0.4c6.4-6.8,10.5-15.9,10.7-25.9
	h-7.9c-0.3,7.8-3.4,14.9-8.4,20.3l2.9,2.9c0,0,0-0.1,0.1-0.1c0.2-0.5,0.1-1.2,0.2-1.6c0-0.3,1.1-0.2,1.2,0.3
	C111.2,92.3,111.4,92.6,111.8,93.7 M105.3,99.1c-0.3,0.6,1,0.9,0.7,1.5c-0.2,0.5-1.3,1.4-1.1,1.7c2.1-1.4,4.1-2.9,6-4.6l-5.6-5.6
	c-0.4,0.4-0.8,0.7-1.2,1.1c-0.1,0.6,0,1.1,0.8,1.4c0.8,0.3,2.3,1.1,2,2C106.5,97.2,105.7,98.3,105.3,99.1 M108.7,66.7
	c0.4,0.6-1,0.4-1.3,1.2c0,0,0,0.1-0.1,0.1h5.8c0-0.8-0.1-1.7-0.2-2.5c0,0.1-0.1,0.2-0.1,0.3c-0.4,0.9-0.5,0.4-0.5,0
	c0-0.5,0.2-1,0.4-1.5c0-0.3-0.1-0.5-0.1-0.8c-0.2,0.2-0.4,0.4-0.8,0.6c-0.3,0.1-0.5,0.7-0.6,1c-0.1,0.3-0.8-0.1-1.3,0.2
	C109,65.7,108,65.7,108.7,66.7 M109.8,55.5c-1.2-2.3-2.7-4.4-4.4-6.3l-5.6,5.6c1,1.1,1.8,2.2,2.5,3.5c0.7,0.1,1.6,0.4,2.1,1.1
	c0.4,0.5,1.6,1.6,1.4,2.1c-0.1,0.3,0.1,0.6,0.4,0.8c0.4,0.3,0.7,0.3,0.9,0c0.4-0.5,0.5-1.2,1-1.7c0.7-0.6,2,1,2,1.3
	c0,0.3-0.4,0.4-0.5,0.9c-0.1,0.7-0.7,1.5-0.1,1.8c1,0.3,1.1-0.1,1.6-0.8c0.2-0.3,0.2-0.9,0.4-1.2c0.2-0.2,0.4-0.3,0.6-0.4
	c-0.4-1.6-0.9-3.1-1.5-4.5c-0.1-0.1-0.3-0.3-0.5-0.3c-0.4-0.1-0.2-0.4-0.6-0.6c-0.5-0.2-0.8-0.3-0.8-1.3c0-0.8,0.6,0.3,0.8,0.1
	C109.7,55.6,109.7,55.6,109.8,55.5 M100.3,59.4c-0.5-0.9-1.1-1.7-1.8-2.5c-0.3,0-0.5-0.1-0.7-0.1L96,58.5c0.4,0.1,0.7,0,1.2,0.2
	c0.5,0.2,0.2-1.4,1-1.2c0.8,0.1,1,0.6,0.3,0.9c-0.5,0.2,0.1,0.6-0.5,0.8c-0.6,0.2,0.5,0.7,0.4,0.9c0,0.3-0.8,0.4,0.4,0.8
	c1.1,0.4,0-1,0.2-1.1c0.2-0.2,0.8,0.4,1,0.1C100.1,59.7,100.2,59.5,100.3,59.4 M98.2,86.8c-0.4-0.1-2.6-1-2.6-0.7
	c0,0.4-0.4,0.1-0.5,0.2c-0.1,0.1,3.1,1.6,3.6,1.7c0.3,0.1,1,0.3,2.2,0.1c0.8-0.2,1,0.2,1.4,0.2c0.5,0,0.9-0.7,1.2-1.2
	c0.8-1.1,0.6-1.3,0.9-1.5c0.3-0.2,1.1,1.5,1,2.6c0,0.2,0,0.3-0.1,0.5l0.1,0.1c4.6-5,7.5-11.5,7.8-18.7h-6c0.2,0.3,0.6,0.8,0.9,1.6
	c0.3,0.6,0.5,1.6,1,1.7c0.8,0.1,1.7,0.8,1.7,1.3c0,1.2-3.7,1.5-4.2,1.3c-0.4-0.1-0.7-0.2-0.7,0.5c0,0.7-1.3,0.7-1.9,1.2
	c-0.6,0.5-0.6,1.4-1,2c-0.2,0.4-1.6,1.7-2,1.9c-0.9,0.6-2.6,0.7-1.8,1.1c0.5,0.3,1.8,0.4,1.6,0.1c-0.2-0.3,0.1-0.4,0.3-0.1
	c0.2,0.2,0.7-0.2,0.7-0.6c0-0.4-0.1-0.9,0.2-1c0.5,0,1.1-0.6,1.4-0.6c0.3,0.1,0.7,0.7,0.4,2.8c-0.3,2-1.3,3.5-1.7,4.1
	c-0.4,0.7-0.8,0.2-1.4-0.1C100.1,87.1,99,87.1,98.2,86.8 M119.6,103.3c8.6-9,13.4-20.6,13.7-33.1h-7.9c-0.3,10.6-4.6,20.3-11.4,27.4
	L119.6,103.3 M133.3,68c-0.3-12.4-5.1-24.1-13.7-33.1l-5.9,5.9c0.5,0.9,1.5,2.1,3,3.6c0.6,0.6,1.2,1.2,1.7,1.7
	c0.5,0.5,3.7,4.5,3.1,5c0,0-0.1,0.1-0.1,0.1c2.5,5.2,3.9,11,4,16.8H133.3 M85,27.6c6.6,0.2,12.9,1.9,18.6,4.9
	c0.5-0.1,1.1-0.1,1.4-0.3c0.7-0.3,2.1,0.4,2.8,0.8c0.6,0.4,1.1,0.9,1.8,1.2c0.7,0.4,1.8,1.5,2,2.6c0.2,1.1,0.9,1,0.6,1.5
	c-0.2,0.2,0.1,0.3,0.4,0.5l5.5-5.5c-9-8.6-20.6-13.4-33.1-13.7V27.6z M85,37.7c6.7,0.2,12.9,2.6,17.9,6.4c-0.6-0.7-1.1-1.5-1.4-1.8
	c-0.5-0.5-2.3-1.1-2.1-1.4c0.2-0.3,1.8,1,2.1,0.8c0.3-0.3-0.8-1.8-0.7-1.8c0.1-0.1,1.5,1.2,2.1,2.4c0.3,0.4,1,0.2,1.6,0.6
	c0.5,0.4,0.5,0.9,1,1.3c0.1,0.1,1,0.6,0.4,0.5c-0.2,0-0.4-0.3-0.6-0.2c-0.1,0.1,0.1,0.7,0.4,1.3l2.6-2.6c-0.4-0.8-1.1-1.8-1.7-1.9
	c-0.5-0.1-0.9,0.3-1.2,0.6c-0.4,0.3-0.8,0.4-0.9,0.2c-0.1-0.2,0.1-0.8,0-1.1c0-0.3-0.3-0.5-0.4-0.8c-0.2-0.7,0.1-1.5-0.3-1.9
	c-0.5-0.5-0.8-1.3-1.1-1.8c-0.4-0.6-1.1-1.6-1.1-2.4c-5.1-2.6-10.8-4-16.6-4.2V37.7z M85,47.8c5,0.3,9.6,2.3,13.2,5.5l5.6-5.6
	c-5-4.6-11.5-7.5-18.7-7.8V47.8z M85,57.9c0.8,0.1,1.5,0.2,2.2,0.4c0.2-0.5,0.7-0.7,1-1c0.5-0.3,0.8-0.7,0.7,0.2
	c-0.1,0.6-0.3,1-0.6,1.2c0.8,0.3,1.5,0.8,2.2,1.3c0.2,0.1,0.3,0.2,0.4,0.3l0.8-0.8c0,0,0-0.1,0-0.1c0-0.4,0.6-0.9,1.4-1.3l2.5-2.5
	c-0.1,0-0.1,0-0.2,0c-0.3,0-0.8,0.6-1.1,0.5c-0.4-0.2,1.1-1.5,1.7-1.2c0.1,0,0.2,0.1,0.3,0.1l0.3-0.3c-3.1-2.8-7.2-4.6-11.6-4.8
	V57.9z M84.1,60.1c-0.1,0-0.1,0-0.2,0c-0.9,0-1.8,0.1-2.7,0.4c-0.1,0.1-0.2,0.2-0.1,0.3c0.2,0.3,0.9-0.3,1,0.3
	c0.1,0.4-0.7,0.1-0.7,0.4c0.1,0.3,0.6,0.2,0.6,0.5c0,0.3-0.3,1-0.6,1.2c-0.4,0.2-2.2,0.5-2.4,0.9c-0.2,0.4-0.3,0.7-0.6,1
	c-0.3,0.3-1.8,1.2-1.8,1.5c0,0.6,0.7-0.2,0.9-0.4c0.3-0.3,0.8-0.3,1.3-0.6c0.7-0.4,0.9,1,0.2,1c-0.4,0-0.8,1.3-1.5,1.1
	c-0.2-0.1-0.7-0.4-0.8-0.1c-0.1,0.3,1,0.4,1.4,0.6c0.9,0.6-0.7,0.6-1,0.7c-0.3,0.2-0.1,0.5,0.2,0.4c0.3-0.1,0.8-0.5,1,0.1
	c0.3,0.8-1.3,3.6-1.8,3.3c-0.3-0.2-0.5,0.1-0.7,0.2c0.3,0.6,0.7,1.3,1.2,1.8c0.3-0.5,0.8-1.2,1-1.2c0.3,0,0.2-0.2,0.3-0.4
	c0.1-0.2,0.5,0,0.5-0.3c0-0.3,0.9-0.8,1-1.3c0.1-0.3-0.3-0.5-0.1-0.8c0.2-0.3,0.3-0.3,0.5-0.4c0.2-0.1,0.6,0.4,0.7,0.2
	c0.1-0.2,0.7,0,1.2,0.3c0.2,0.1,0.6,0,0.9,0.3c0.4,0.5,0,0.5,0,0.7c0.1,0.1,0.2-0.1,0.3,0c0.2,0.2-0.9,0.8-0.8,1.2
	c0.1,0.4-0.9,2.1-1.2,2.4c-0.4,0.4-1.1,0-1.3,0c-0.3,0.1-0.3,0.3-0.8,0.2c-0.3-0.1-0.7,0.1-1.1,0.2c1.6,1.4,3.7,2.2,5.9,2.2
	c0.5,0,1,0,1.4-0.1c0.3-0.4,0.4-0.8,0.5-1.3c0-0.3,0-0.6,0.1-0.8c0.1-0.2,0.9-1.1,1.1-1.1c0.3,0,0.4,0.2,0.8,0.1
	c0.7-0.2,1.2,0,1.2,0.3c0,0.4-0.9,0.3-0.9,0.6c0,0.2,0.7,0.4,0.9,0.2c0.4-0.5,0.3-1.1,0.2-1.2c-0.3-0.4-0.3-0.5,0.1-0.4
	c0.3,0.1,0.3-0.9,0.5-1.3c0.3-0.5-0.6-0.2-1-0.1c-0.4,0.1-0.7-0.7-0.7-1c0-0.2,0.7,0.7,1.1,0.7c0.4,0,0.9-0.4,0.9-0.8
	c0-0.3-0.8-0.4-0.9-0.8c-0.1-0.2,0.6,0,0.6-0.2c0-0.2,0.1-0.7-0.4-0.9c-0.4-0.2-0.8-1.6-1.2-1.7c-0.3-0.1-0.6,0.3-0.8,0.5
	c-0.2,0.2-0.5-0.1-0.3-0.3c0.2-0.2,0.8-0.7,0.9-1c0.2-0.6,1,0,0.8-0.8c-0.1-0.9-0.9-0.7-0.6-1.2c0.4-0.4,0.1-1.2-0.7-1
	c-0.3,0.1-0.7-0.5-0.7-1c0-0.3-0.8-0.2-0.8-0.5c0.1-0.6-0.8-0.6-1.3-0.6c-0.5,0-1.5-0.8-1.7-1c-0.1-0.2-0.8,0.2-0.6-0.6
	c0.2-0.8,1,0.1,1.3-0.1C84.2,60.5,84.2,60.3,84.1,60.1 M82.8,19.7C70.4,20,58.7,24.8,49.8,33.4l5.6,5.6c7.2-6.8,16.8-11.1,27.4-11.4
	V19.7 M48.2,34.9c-8.6,9-13.4,20.6-13.7,33.1h7.9c0.3-10.6,4.6-20.3,11.4-27.4L48.2,34.9"/>
</svg>
