<svg xmlns="http://www.w3.org/2000/svg" viewBox="0 0 24 24">
  <path d="M8.2 3H5.8C4.3 3 3 4.3 3 5.8v2.3C3 9.7 4.3 11 5.8 11h2.3C9.7 11 11 9.7 11 8.2V5.8C11 4.3 9.7 3 8.2 3zM9 8.2c0 .4-.4.8-.8.8H5.8c-.4 0-.8-.4-.8-.8V5.8c0-.4.4-.8.8-.8h2.3c.5 0 .9.4.9.8v2.4zM18.2 3h-2.3C14.3 3 13 4.3 13 5.8v2.3c0 1.6 1.3 2.8 2.8 2.8h2.3c1.6 0 2.8-1.3 2.8-2.8V5.8C21 4.3 19.7 3 18.2 3zm.8 5.2c0 .4-.4.8-.8.8h-2.3c-.5 0-.9-.4-.9-.8V5.8c0-.4.4-.8.8-.8h2.3c.5 0 .9.4.9.8v2.4zm-.8 4.8h-2.3c-1.6 0-2.8 1.3-2.8 2.8v2.3c0 1.6 1.3 2.8 2.8 2.8h2.3c1.6 0 2.8-1.3 2.8-2.8v-2.3c0-1.5-1.3-2.8-2.8-2.8zm.8 5.2c0 .5-.4.8-.8.8h-2.3c-.5 0-.8-.4-.8-.8v-2.3c0-.5.4-.8.8-.8h2.3c.5 0 .8.4.8.8v2.3zM8.2 13H5.8C4.3 13 3 14.3 3 15.8v2.3C3 19.7 4.3 21 5.8 21h2.3c1.6 0 2.8-1.3 2.8-2.8v-2.3C11 14.3 9.7 13 8.2 13zm.8 5.2c0 .4-.4.8-.8.8H5.8c-.4 0-.8-.4-.8-.8v-2.3c0-.5.4-.9.8-.9h2.3c.5 0 .9.4.9.8v2.4z"/>
</svg>
