<svg xmlns="http://www.w3.org/2000/svg" viewBox="0 0 128 128">
  <path d="M25.4 37.4c6.7 0 12.1-5.4 12.1-12.1s-5.5-12-12.1-12-12.1 5.4-12.1 12.1 5.4 12 12.1 12zm0-19.3c4 0 7.2 3.2 7.2 7.2s-3.2 7.2-7.2 7.2-7.2-3.2-7.2-7.2 3.2-7.2 7.2-7.2zm0 58c6.7 0 12.1-5.4 12.1-12.1S32 51.9 25.4 51.9 13.3 57.3 13.3 64s5.4 12.1 12.1 12.1zm0-19.3c4 0 7.2 3.2 7.2 7.2s-3.2 7.2-7.2 7.2-7.3-3.2-7.3-7.2 3.3-7.2 7.3-7.2zm0 57.9c6.7 0 12.1-5.4 12.1-12.1 0-6.7-5.4-12.1-12.1-12.1S13.3 96 13.3 102.6c0 6.7 5.4 12.1 12.1 12.1zm0-19.3c4 0 7.2 3.2 7.2 7.2s-3.2 7.2-7.2 7.2-7.2-3.2-7.2-7.2 3.2-7.2 7.2-7.2zM112.3 23H49.5c-1.3 0-2.4 1.1-2.4 2.4s1.1 2.4 2.4 2.4h62.8c1.3 0 2.4-1.1 2.4-2.4s-1.1-2.4-2.4-2.4zm0 38.6H49.5c-1.3 0-2.4 1.1-2.4 2.4s1.1 2.4 2.4 2.4h62.8c1.3 0 2.4-1.1 2.4-2.4s-1.1-2.4-2.4-2.4zm0 38.6H49.5c-1.3 0-2.4 1.1-2.4 2.4 0 1.3 1.1 2.4 2.4 2.4h62.8c1.3 0 2.4-1.1 2.4-2.4 0-1.3-1.1-2.4-2.4-2.4z"/>
</svg>
