<?xml version="1.0" encoding="utf-8"?>
<!-- Generator: Adobe Illustrator 22.1.0, SVG Export Plug-In . SVG Version: 6.00 Build 0)  -->
<svg version="1.1"
	 id="svg1589" inkscape:version="0.47 r22583" sodipodi:docname="ZZ.svg" xmlns:cc="http://creativecommons.org/ns#" xmlns:dc="http://purl.org/dc/elements/1.1/" xmlns:inkscape="http://www.inkscape.org/namespaces/inkscape" xmlns:rdf="http://www.w3.org/1999/02/22-rdf-syntax-ns#" xmlns:sodipodi="http://sodipodi.sourceforge.net/DTD/sodipodi-0.dtd" xmlns:svg="http://www.w3.org/2000/svg"
	 xmlns="http://www.w3.org/2000/svg" xmlns:xlink="http://www.w3.org/1999/xlink" x="0px" y="0px" width="750px" height="500px"
	 viewBox="0 0 750 500" style="enable-background:new 0 0 750 500;" xml:space="preserve">
<style type="text/css">
	.st0{fill:#006C35;}
	.st1{fill:#FFFFFF;}
</style>
<g>
	
		<sodipodi:namedview  bordercolor="#666666" borderopacity="1" gridtolerance="10" guidetolerance="10" id="namedview45" inkscape:current-layer="svg1589" inkscape:cx="477.37767" inkscape:cy="-33.947946" inkscape:pageopacity="0" inkscape:pageshadow="2" inkscape:window-height="1004" inkscape:window-maximized="1" inkscape:window-width="1280" inkscape:window-x="-8" inkscape:window-y="-8" inkscape:zoom="0.282909" objecttolerance="10" pagecolor="#ffffff" showgrid="false">
		</sodipodi:namedview>
	<defs>
		
		
			<inkscape:perspective  id="perspective49" inkscape:persp3d-origin="375 : 166.66667 : 1" inkscape:vp_x="0 : 250 : 1" inkscape:vp_y="0 : 1000 : 0" inkscape:vp_z="750 : 250 : 1" sodipodi:type="inkscape:persp3d">
			</inkscape:perspective>
	</defs>
	<path id="_x32_1461584" class="st0" d="M750,500V0H0v500H750z"/>
	<g>
		<g>
			<g>
				<path class="st1" d="M536.3,143.5c4.4-3.3,8.5-7,13.4-9.6c-1.4,5.9-5.6,10.4-9.9,14.2c-2.2,1.8-1.2,5.1-1.5,7.6
					c-1.2-0.3-2.3-0.6-3.5-1c1.1,15,2.7,29.9,3.4,44.9c0.1,1.7,0.2,3.5,1.6,4.6c6.6,6.2,13.4,12.3,18.2,20.2
					c1.9,3.1,2.9,6.6,3.9,10.1c1.2-5.8,1.1-11.8,0.5-17.7c-2.4-22.8-4.6-45.7-6.5-68.6c-0.2-2.8-0.6-5.7-0.3-8.5
					c0.2-2.6,2.7-4.8,5.2-4.6c1.5,1.3,2.3,3.1,3.1,4.9c2,4.7,3.8,9.8,3.3,15.1c-1.2-0.4-2.4-0.9-3.7-1.4c1.8,15.5,3.6,31,4.7,46.6
					c0.5,10.5,2,21.1-0.1,31.5c-1.8,9.6-6.3,19.3-14.3,24.8c-6.7,4.6-14.5,7.2-22.3,8.9c-3.2,0.7-6.5,1-9.6,0.1
					c3.3-1.9,7-3.3,10.5-4.9c5.1-2.3,10-4.8,14.6-8c4.3-3,8.8-6,12-10.4c-4-11.2-10.6-21.7-20-28.6c0.3,11,0.8,22.2-0.8,33.1
					c-0.3,2.6-1.4,4.9-3.1,6.7c-1.1-4.6-1.2-9.4-1.7-14.1c-0.9-10.2-1.7-20.5-2.4-30.7c0-2.1-1.3-3.7-2.8-4.9
					c-5.9-5.2-11.4-11-17.1-16.4c0.2,6.3,1.1,12.5,1.5,18.7c0.7,8.4,0.8,16.8,1.6,25.2c0.5,5.9,0.6,12.1-1.5,17.7
					c-2.1,5.3-6.8,9.8-12.4,10.2c-3,0.3-6,0-8.9-0.5c-3.1-0.5-5.5-3-6.9-5.8c-1.7-3.4-2.6-7.2-4-10.7c-2.6,0.6-5.3,1.2-7.2,3.3
					c-4,4-5.2,10.1-7.1,15.3c-1.1,3.1-2.4,6.5-5.3,8.2c-3,1.8-6.7,1.1-9.6-0.6c-4.4-2.5-7.1-7.3-8.4-12.2c-1.3-3.8,0.5-8.2-1.7-11.8
					c-1.6-3.3-0.7-7.2,0.1-10.6c1.7-6.1,5.3-11.3,9.6-15.7c-5.7-5.2-11.4-10.4-17.1-15.6c0.5,14.4,1.6,28.8-0.2,43.1
					c-0.3,2.9-1.3,5.6-3.3,7.7c-0.6-2.7-1-5.5-1.2-8.3c-1.4-15.8-2.6-31.6-3.6-47.4c-0.1-1.8-0.4-3.8-1.8-5
					c-5.8-5.8-11.4-12-16.6-18.5c-3-4-6.1-8.1-7.7-12.9c-0.6-2-1.1-4.8,0.7-6.3c2.1,0.2,4,1.2,5.8,2.2c3.3,2,6.4,4.6,9.1,7.6
					c1.2,1.3,1.8,3,2.3,4.7c-1.7,0-3.3-0.1-5-0.1c3.4,5.1,7.4,9.8,12,13.8c-0.4-13.4-1.8-26.9-2.4-40.3c0-1.8,0-3.8,1.2-5.3
					c1.1-1.3,2.8-1.8,4.3-2.4c2.8,4.3,4.8,9.1,6,14.2c0.5,2,0.4,4.1,0.3,6.2c-1.2-0.3-2.4-0.7-3.5-1.1c0.8,10.9,1.9,21.7,2.6,32.6
					c0.1,1.5,0.2,3.1,0.6,4.6c0.6,1.1,1.5,1.8,2.3,2.6c7.1,6.3,14.2,12.6,21.4,18.7c4.3-3.9,8.5-7.9,12.8-11.7c1-0.9,2-1.7,2.8-2.7
					c0.8-0.9,0.5-2.2,0.5-3.3c-1.4-13.1-2.4-26.2-3.5-39.3c-0.3-4.8-1-9.5-1-14.2c-0.1-2.8,2-5.6,4.7-5.7c1.2-0.1,1.7,1.3,2.3,2.1
					c2,3.7,3.5,7.7,4.4,11.9c0.5,2,0.3,4.1-0.1,6.2c-1.1-0.5-2.3-1.1-3.4-1.6c1.5,12.3,2.7,24.6,3.8,36.9c3.1-2.4,5.9-5.2,8.8-7.8
					c3.2-2.9,6.6-5.7,9.7-8.8c-3.7-4.2-7.6-8.1-11.4-12.2c-2.4-2.6-5.3-5.1-6.3-8.8c-0.8-2.6-0.3-5.4,0.2-7.9
					c4.5,0.8,8.4,3.6,12,6.4c2.5,2,4.7,4.3,6.9,6.6c-0.2-5.2-0.8-10.4-1.2-15.6c0-2-0.2-4.2,1.1-5.8c1.1-1.3,2.8-1.8,4.2-2.5
					c2.9,4,4.7,8.8,5.9,13.6c0.6,2.2,0.6,4.4,0.5,6.6c-1.2-0.3-2.5-0.6-3.7-0.9c0.4,4,0.8,7.9,1.3,11.9c4.7-3.7,9-7.9,13.7-11.6
					c1.6-1.6,4.5-2.8,4.5-5.6c0.1-3-0.5-6.1-0.1-9.1c0.3-2.6,2.7-4.7,5.2-4.5C534.1,137.9,535,140.9,536.3,143.5z M511.9,172.4
					c-0.8,0.9-2.3,1.7-2.2,3.2c0.6,1.3,1.8,2.3,2.8,3.4c5.8,5.5,11.3,11.3,17.4,16.3c-0.2-5.9-0.8-11.7-1.1-17.6
					c-0.5-6.2-0.7-12.4-1.3-18.6C522.1,163.2,517.2,168,511.9,172.4z M497.2,161.5c1.3,1.5,2.5,3,3.8,4.5c0-1.5-0.1-3-0.1-4.5
					C499.7,161.5,498.4,161.5,497.2,161.5z M483.2,198c-1,0.9-2.2,1.9-2.1,3.4c-0.1,7.6,0.7,15.4-1.1,22.8c-0.4,1.9-1.7,3.2-3,4.4
					c-1.6-7.3-1.7-14.8-2.9-22.2c-4.3,3.6-8.4,7.5-12.4,11.4c2.3,2.7,4.6,5.6,5.4,9.3c1.3,5.1-0.2,11-4.2,14.4
					c-4.9,4.3-11.5,5-17.6,5.8c0.9,4.2,1.7,8.6,4.1,12.2c1.5,2.1,3.9,4.1,6.5,3.3c2.8-0.8,4.5-3.6,5.5-6.2c2-5.3,4.2-10.5,7.2-15.3
					c2.4-4,6.3-7.3,10.9-7.4c1.5,0.1,3.5-0.4,4.4,1.3c2,3.5,2.7,7.7,5.2,11c4.2,5.8,13.1,5.9,18.1,1.1c1.7-1.6,1.7-4.2,1.5-6.4
					c-2.3-19.9-4-40-6-59.9C496,186.5,489.7,192.3,483.2,198z M447.9,232c-1.1,1.5-1.7,3.4-2.2,5.3c4.5,0.5,9.1-0.5,13-2.9
					c1.2-0.8,2.6-2.1,2.3-3.8c-0.3-3.4-3-5.8-5.4-7.8C452.9,225.6,450.2,228.7,447.9,232z"/>
			</g>
			<path class="st1" d="M260.1,135c1.2-0.8,2.3,0.6,3.1,1.5c2.4,3.1,5,6.2,6.4,10c-1.2,0.2-2.5,0.4-3.7,0.6c0.3,6,5.1,10.1,6.5,15.8
				c1,3.5,1.1,7.3,0.4,10.8c-1,4.8-4.8,9-9.5,9.8c-5.5,1-11.7-0.4-15.8-4.7c-2.7-2.8-3.7-6.8-4.9-10.4c-1.3,4.9-3.2,9.6-6.5,13.4
				c-1.9,2.3-4.4,3.9-6.9,5.3c0.7,13.4,2,26.8,0.9,40.1c-0.4,3.8-0.6,8.3-3.9,10.8c-1.2-5.3-1.4-10.8-2-16.3
				c-1.1-11.1-1.9-22.2-3-33.3c-3.1-0.8-6.5-1.5-8.9-3.9c-4-3.8-5.3-9.7-5-15.1c0.1-4.2,1.4-8.3,2.3-12.4c-1.5,1.6-2.7,3.5-3.4,5.6
				c-2.1,6.7-3.5,13.7-6.4,20.1c-1.1,2.5-3.2,4.6-5.8,5.2c-3.2,0.7-7,0.5-9.5-2.1c-2.7-2.8-3.3-7-3.7-10.8
				c-0.2-3.9-0.5-8.1,1.2-11.7c1-2.2,3.1-3.4,4.9-4.5c-1.2,2.1-2.6,4.2-2.9,6.6c-0.4,3.4,0.2,6.9,0.8,10.2c0.4,2,0.8,4.2,2.3,5.6
				c2.3,2.2,6.2,2,8.4-0.2c1.2-1.4,1.8-3.2,2.4-4.9c2-6.4,3.6-13,6.1-19.2c2.2-5.2,6.1-10.3,11.7-11.4c-0.6,7.1-3.7,13.7-3.9,20.9
				c-0.1,3.2,0.2,6.7,2.2,9.2c1.5,2.1,4,2.8,6.3,3.5c-0.6-9.7-1.5-19.4-2.1-29.2c-0.2-3.6-0.8-7.3-0.2-10.9c0.5-2.5,3.1-3.4,5.1-4.2
				c3.8,5.9,6.6,12.9,6.5,20.1c-1.3-0.3-2.5-0.6-3.8-0.9c0.8,8.3,1.6,16.7,2.5,25c3.3-1.1,6.3-3.2,8.2-6.3
				c3.9-5.9,4.5-13.6,2.6-20.4c-0.8-2.9-2.1-5.6-2.7-8.6c-0.6-2.8,1.3-5.7,3.7-6.6c1.1-0.5,1.6,0.9,2.1,1.7c1.5,3.4,2,7.2,2.7,10.9
				c0.9,4.9,0,10,1.7,14.7c1.4,4,3.9,7.7,7.5,9.8c2.9,1.7,6.3,2.1,9.6,1.5c1.6-0.3,2.9-1.7,3.3-3.4c0.8-3.2-0.3-6.5-1.6-9.4
				c-3-6.6-6.7-12.9-8.1-20.1C256.8,140.2,257.5,136.6,260.1,135z"/>
			<path class="st1" d="M397.4,142.7c1.9-3.4,4.9-6,8.3-7.7c-0.9,2.5-2.3,4.6-3.6,6.8c-1,1.6-1,3.6-1.1,5.4c2.3-0.1,4.6-0.5,6.8-1.1
				c-0.6,1.9-1.2,3.9-2.9,5.1c-1.9,1.4-4.7,2.3-6.7,0.6C396.1,149.5,395.8,145.5,397.4,142.7z"/>
			<g>
				<path class="st1" d="M273.4,138.3c1-1.6,2.9-2.2,4.4-2.9c3.1,4.2,5,9.3,6.2,14.4c0.5,2,0.3,4,0.1,6c-1.1-0.4-2.3-0.8-3.4-1.2
					c1.3,9.7,2.9,19.3,4,29c5.3-2.7,10.2-6,15.7-8.4c1.7-0.8,3.5-1.2,5.4-1.4c-0.7,1.6-1.5,3.2-3.1,3.9c-5.8,3.1-11.7,5.8-17.4,9.2
					c0.5,4.8,1,9.7,1.6,14.5c2.6-3.5,4.9-7.9,9.4-9c0.2,2.6-0.6,5.7,1.2,7.8c2.8,2.3,6.6,0.9,9.2-1.2c-0.2-3.8,0.8-7.5,1.5-11.2
					c1.1,0.5,2.5,0.7,2.9,2.1c1.2,3.5,0.9,7.4,0,10.9c-0.9,4-4,7-7.4,8.8c-2.1,1.1-4.7,1.7-7,0.7c-2.4-1-3.9-3.4-5.5-5.5
					c-1.4,3.6-3.7,6.9-3.8,11c-0.4,8.6-3.6,16.8-8.5,23.6c-8.5,11.7-21.5,18.7-34.7,22.8c-7.6,2.2-15.5,4.2-23.5,3.8
					c-4.3-0.1-8.7-1.1-12.4-3.5c-1.6-1.1-3-2.6-4.6-3.6c-2-0.4-4.1,0.2-6.2,0.2c-5,0.2-10,0.4-14.9-0.5c6-2.1,12.1-3.7,18-6
					c-1.6-11.3,0.5-23,6-32.8c1.5-2.6,3.4-4.9,5.4-6.9c-1.7,3.6-3.8,7.1-4.7,11.1c-2.1,8.4-2,17.4,0.4,25.6c4.1-1.4,8.1-3.3,12-5.1
					c9.1-4.2,18-8.7,26.3-14.5c3.1-2.3,6.3-4.7,8.4-8.2c1-1.7,0.8-3.7,0.8-5.6c-4.3,0.9-8.5,3-13,2.9c-2.8-0.2-5.8-0.8-7.8-3.1
					c-2-2.3-2.1-5.6-1.7-8.5c0.6-3.8,2.2-7.6,5.1-10.1c3.3-2.9,8.2-2.8,12-1c3.7,1.8,5.8,5.6,7.6,9.2c5.6-2.2,9.4-7.4,14.9-9.9
					c0.2,3-0.1,6.5,2.1,8.9c1.3,1.7,3.5,1.6,5.3,1.8c-0.3-4.8-1-9.5-1.6-14.2c-1.9-15.7-3.8-31.5-5.4-47.3
					C272.6,142.6,272.3,140.2,273.4,138.3z M239.2,206.6c-0.5,1.1,0.7,1.8,1.5,2.2c3,1.1,6.3,0.4,9.4-0.2c-1.6-1.8-3.5-3.8-6.1-3.9
					C242.3,204.6,239.9,204.7,239.2,206.6z M261,213.1c0.2,3.2,0.3,6.4-0.7,9.4c-1.6,5.1-5.3,9.2-9.1,12.6
					c-7.3,6.3-15.9,10.4-24.2,15c-3.7,2.3-7.7,4.1-11.7,5.9c5.1,0.4,10.2-0.5,15.2-0.9c7.7-0.5,15.1-2.8,22.2-5.8
					c7.4-3.2,14.6-7.3,20.4-13.3c3.5-3.6,6.3-8.1,7.5-13.2c0.6-2.5,0.6-5.1,0.7-7.7c-3-0.1-6.2,0-8.9-1.6c-2.2-1.3-3.4-3.8-4.7-6
					C265.6,209.6,263.3,211.5,261,213.1z"/>
			</g>
			<path class="st1" d="M342.3,138c1.1-1.3,3.1-1.1,4.4-0.2c2.9,2,4.6,5.7,4.4,9.3c-0.1,1.7-0.8,3.2-1.3,4.7
				c-0.4-2.3-0.3-4.7-1.3-6.8c-1.5-2.2-4.3-2.6-6.1-4.4C341.7,140,341.4,138.6,342.3,138z"/>
			<path class="st1" d="M383.3,139.2c0.2-1.4,1.5-2.9,2.9-2.1c3.9,2,6.7,5.8,8.5,9.9c-1.4,0-2.8-0.1-4.1-0.2
				c0.7,2.8,1.4,5.5,2.5,8.2c1.5,3.8,3.6,7.4,4.2,11.6c0.7,4.6-0.1,9.8-3.2,13.3c-5.8,6.8-17.4,5.6-22.4-1.7
				c-1.9-2.6-2.9-5.6-3.9-8.7c-1.6,6.6-5,13-10.7,16.4c-5.8,3.7-13.5,3.2-19-0.7c-3.4-2.3-5.7-6.3-5.7-10.5c-0.4-6.2,1.9-12,2.7-18
				c-1.4,1.5-2.7,3.2-3.3,5.3c-2.4,6.7-3.4,13.9-6.8,20.2c-1.6,3-4.3,5.7-7.7,6c-3.3,0.2-6.9-1.1-8.8-4.1c-1.7-2.8-2.1-6.2-2.1-9.5
				c0.1-5,1.2-10.1,3.4-14.5c0,6.3-1.8,13.2,1.2,19.1c1.5,3.3,5.5,5.2,8.6,3.4c2.8-1.8,4.1-5.2,5.1-8.3c2.1-6.6,4.3-13.3,7.4-19.5
				c1.3-2.5,2.7-5.1,4.9-6.9c1.1-1,2.7-1,4.1-1.3c0.3,5.6-2.7,10.5-3.7,15.9c-1,4.7-1.3,10.3,1.9,14.2c3.6,4.1,9.6,5.1,14.6,3.7
				c6.9-2.3,11.9-9.6,12.2-17.2c0.2-4.5,0.4-9.4-1.9-13.4c-1-2.1-2.9-4.3-2.1-6.9c0.5-2.6,2.3-4.6,4.4-5.8c1.5,2.5,2.8,5.2,3.1,8.2
				c0.8,6.9,0.9,14,3.2,20.6c1.4,3.8,3.5,7.7,7.2,9.5c3.4,1.7,7.6,2.1,10.9,0.3c2.1-1.1,2.6-3.8,2.1-6c-1.4-7.2-6.1-12.9-8.3-19.8
				C383.5,146.4,382.6,142.8,383.3,139.2z"/>
			<path class="st1" d="M450.5,137.7c2.1-1,5.1-0.2,6.1,2.1c0.4,1.1-0.3,2.1-1.1,2.7c-1.5-0.3-2.8-1.1-4.1-1.7
				c-1.7,3.4-2.6,7.2-3.6,11c-0.7-1.8-1.3-3.7-2.4-5.3c-1.4-2-3.6-3-5.2-4.8c-0.5-1.6,1.3-3.4,2.8-2.9c2.2,0.7,3.5,2.8,4.8,4.7
				C448.4,141.4,448.7,138.9,450.5,137.7z"/>
			<path class="st1" d="M181.5,146.1c1.7-3.8,5-6.6,8.6-8.4c-0.9,2.5-2.4,4.6-3.6,6.9c-1,1.6-0.9,3.6-1,5.4c2.3-0.2,4.6-0.7,6.9-1.5
				c-0.7,1.9-1.4,4-3.1,5.3c-1.8,1.4-4.5,2.2-6.4,0.8C180.7,152.6,180.3,148.9,181.5,146.1z"/>
			<g>
				<path class="st1" d="M309.4,141c0.6-3.3,5.3-3.2,6.8-0.7c1,1.8,1.5,3.7,2.5,5.5c0.9,1.8,2,3.7,1.4,5.8c-0.9,3.3-3.2,5.9-3.5,9.4
					c1.1-0.5,2.2-1.1,3.3-1.7c-0.3,1.8,0,4.2-1.8,5.2c-2.2,1.1-4.9-1.1-4.7-3.6c0.3-4.5,4.5-8,3.2-12.8c-4.2,5.9-10,11.2-17.1,12.3
					c3.1-2.6,6.6-4.4,9.4-7.4c1.8-1.8,3-4.1,4.2-6.3C311.6,145.1,309,143.6,309.4,141z M312.3,140.7c0.7,1.1,1.6,2,2.6,2.6
					C314.5,142,313.5,141.1,312.3,140.7z"/>
			</g>
			<path class="st1" d="M287.2,143.1c1.5-0.4,3.3-1,4.5,0.4c3.6,3.5,5.3,9.1,4.1,14.1c-0.8-1.9-1.4-3.9-2.3-5.7
				C292,148.5,288.7,146.5,287.2,143.1z"/>
			<path class="st1" d="M255,145.2c1.5,1.7,2.2,3.8,1.9,6.1c-2.4,0.4-4.8,1.1-7.2,1.7c-1.3,0.4-2.7-0.6-3-2
				c-0.1-1.5,0.4-2.9,0.7-4.4c0.5,1.5,1,3,1.5,4.6c0.6-0.3,1.3-0.5,1.9-0.8c0-1.4,0-2.8,0-4.1c0.5,0,1,0,1.4,0
				c0.2,1.2,0.4,2.5,0.6,3.7c0.8-0.1,1.5-0.2,2.3-0.3C255,148.2,255,146.7,255,145.2z"/>
			<path class="st1" d="M458.1,148.5c1.9-0.6,4-0.8,6-0.8c-1,1.2-2.1,2.3-3.5,2.9c-6.9,2.9-14,5-20.6,8.7c0.6,1.3,1.2,2.5,1.8,3.8
				c-1.6-0.3-3.5-0.3-4.7-1.7c-1.1-1.1-1.2-3.2,0.1-4.2c1.1-0.9,2.3-1.4,3.6-2C446.5,153,452.2,150.5,458.1,148.5z"/>
			<path class="st1" d="M353.6,153.7c0.8-0.7,1.7-1.2,2.5-1.7c-0.1,2.7,0.8,5.1,1.9,7.5c1.1,2.4,0.2,5.8-2.5,6.4
				c-2.3,0.8-4.4-0.7-6-2.1c-1.3,1.2-2.7,2.8-4.6,2.5c-3.5-0.2-5.2-4.5-4.5-7.7c0.3-2.1,1.9-3.4,3.3-4.7c-0.2,2.2-1,4.4-0.5,6.6
				c0.4,1.5,2.1,1.5,3.3,2c0.4-2.4,0.5-4.9,1.1-7.4c0.2-1.3,1.7-1.4,2.5-2c0.2,2.1,0.1,4.2,0.7,6.2c0.5,1.5,2.2,2,3.4,2.7
				C354.8,159.1,353.6,156.4,353.6,153.7z"/>
			<path class="st1" d="M249.8,157.5c1.5,0,3.3-0.3,4.5,1c3.4,3.5,5.1,9,3.8,13.9c-1.2-3.3-2.2-6.9-4.8-9.4
				C251.7,161.5,250.1,159.8,249.8,157.5z"/>
			<path class="st1" d="M456.8,170.1c0.7-0.9,1.6-1.5,2.5-2.2c0,2.5,0.8,4.8,1.8,7c1,2.2,1,5.7-1.5,6.7c-2.3,1.1-4.7-0.2-6.6-1.6
				c-1.5,1.2-3.3,2.7-5.4,2.1c-3.1-0.7-4.4-4.5-3.9-7.5c0.2-2.2,2-3.6,3.4-5c-0.3,2.3-1.2,4.6-0.6,6.9c0.5,1.5,2.2,1.2,3.4,1.5
				c0.4-2.6,0.2-5.3,1.2-7.7c0.7-0.6,1.6-1,2.5-1.4c0.1,2.3-0.3,4.8,0.8,6.9c0.7,1.3,2.2,1.4,3.4,1.8
				C457.7,175.1,457,172.6,456.8,170.1z"/>
			<path class="st1" d="M539.9,173.7c-0.6-1.6,0.6-3.2,2.2-3.2c2.5,0,4.4,2.2,5.6,4.3c2.1,4.3,3.1,9.5,1.4,14.1
				c-0.9-4.1-0.8-9.3-4.4-12C543.1,175.9,541.2,175.3,539.9,173.7z"/>
			<path class="st1" d="M401.8,182.7c1.1-1.3,2.9-1.7,4.5-1.3c2,2,1.6,5.6,0,7.7c-2.9,4-7.7,5.9-12.4,5.9c2.9-1.8,6.2-2.8,8.8-5.1
				c1.2-0.9,1-2.6,1.2-4c-1.4,0.2-2.8,0.5-4.1,0.7C400.4,185.3,400.9,183.9,401.8,182.7z"/>
			<path class="st1" d="M469,185.8c0.9-0.2,2.1-0.8,2.7,0.2c-0.7,2.4-3.1,3.4-5,4.4c-7.2,3.5-14.2,7.4-21.3,11.2
				c-0.3-0.7-0.7-1.3-1-2c4-3.1,8.4-5.4,12.7-7.9C461.1,189.6,464.9,187.3,469,185.8z"/>
			<g>
				<path class="st1" d="M333.5,191.7c0.2-1.5,1.2-2.6,2-3.7c5.5,6.3,10.2,13.6,12.7,21.9c2.4,7.9,3,16.2,4.5,24.3
					c0.8,4.1,1.5,8.4,4.1,11.7c1.7,2.3,4.2,3.7,6.6,5.1c0.5-2.6,1.1-5.4,3.4-6.9c7-4.9,15.1-7.9,23.1-10.6c-6.5-0.2-13.1,0-19.6-0.1
					c-5.3-0.1-10.6,0.4-15.8-0.6c0.2-2.1,0.2-4.3,1.4-6.2c2.4-4.2,6.6-6.6,10.6-8.8c6.1-3.3,12.3-6.2,18.9-8.1
					c-1.7-1.9-4.3-4-3.6-7.1c1.2-3.6,4.2-7.2,8-7.1c4.2,0,8.3,1.8,11.9,4c2.2,1.5,4.9,3.1,5.7,5.9c-0.1,2-1.1,3.8-2.2,5.4
					c-2.3,3-6.4,2.8-9.8,3.2c-0.2,2.4-0.5,5.3-2.8,6.4c-0.7-1.9-1.4-3.7-2.2-5.6c-8.3,1.6-15.7,6.1-22.2,11.5
					c18.4,0.1,36.7-0.4,55.1-0.3c1.2,0.1,2.4,0.2,3.6,0.4c-0.8,5.1-5.7,7.6-10,8.7c-8.7,2-17.4,3.8-26.1,5.6c-6.5,1.4-13.1,3-19,6.1
					c-2.2,1.1-4,3-5.5,5.1c4.3,1.7,8.8,2.7,13.3,3.6c1.5,0.4,3.6,0.7,4,2.6c0.6,2.5,0.7,6-1.6,7.6c-2.9,0.7-5.9,0-8.8-0.5
					c-8-1.3-15.7-5.7-20.3-12.9c-3.5-5.2-4.5-11.7-5.4-17.9c-2.3,3.4-4.7,6.8-7.6,9.6c-7.8,7.7-17.2,13.3-27,17.8
					c-3.4,1.6-7.7,2.1-11.1-0.1c-2.4-1.5-3.3-4.6-4.3-7.2c-9.1,4.9-18.4,9.6-28.5,11.6c-6.2,1.2-12.5,2.1-18.8,2
					c3.3-1.7,6.7-3,10-4.4c11-4.8,21.8-10.2,32.4-16c1.3-0.8,2.9-1.5,3.8-2.8c1-2.9,1.1-6,2.6-8.8c1.5-3.4,4.2-6,7.1-8
					c-1.9,4.4-3.9,8.9-4.5,13.7c6.4-4.1,12.5-8.7,17.9-14.3c1.4-1.6,3.4-3.6,2.6-6c-1-3.4-2.7-6.4-3.9-9.7c-1.8-4.8-4-9.8-3.5-15.1
					c0.1-1.7,1.3-3,2.1-4.3c4.4,3,7.2,7.9,9.7,12.6c-0.9,0.2-1.9,0.4-2.8,0.6c1.7,4.9,4.5,9.3,5.3,14.5c0.6,4-0.3,8.4-3,11.4
					c-6.8,7.7-15.2,13.5-23.1,19.8c1.4,0.8,2.9,1.9,4.6,1.8c3.3-0.1,6.5-1.3,9.5-2.6c11-5.1,20-13.6,29.3-21.5
					c-2.3-9.4-6.4-18.2-10.7-26.8C334.1,199.2,333,195.4,333.5,191.7z M386.6,204.1c1.1,1.6,2.6,2.9,4.4,3.6
					c2.7,0.6,5.3-1.1,7.3-2.9c-2.5-2-5.4-3.6-8.6-3.6C388.2,201.2,386.6,202.5,386.6,204.1z"/>
			</g>
			<g>
				<path class="st1" d="M195.9,191.7c0.1-1.2,1-2.5,2.3-2.4c3.4-0.4,5.8,2.5,7.9,4.8c1.1,1.2,2,2.8,1.3,4.5
					c-0.4,1.9-2.5,1.8-3.9,2.2c-3,0.2-4.2,3.6-6.5,5.1c-4.6,3.3-10.3,5.9-16,5.1c1.4-2.1,3.7-3,5.9-3.7c4.1-1.4,7.4-4.5,10.4-7.7
					C196.5,197,195.5,194.4,195.9,191.7z M197.8,192.1c0.2,1.7,0.6,3.5,1.5,5c0.6-1.4,1.2-2.9,1.7-4.3
					C200,192.5,198.9,192.3,197.8,192.1z M202.3,198.6c1.1-0.1,2.2-0.3,3.3-0.4c-0.2-1.5-0.5-3-1.1-4.4
					C203.1,194.9,202.9,196.9,202.3,198.6z"/>
			</g>
			<path class="st1" d="M365.7,192.5c0.6-0.8,1.6-1.3,2.4-1.8c0,3.5,2.4,6.2,2.7,9.6c0.3,3.5-4,5.3-6.6,3.7
				c-0.8-0.6-1.5-1.3-2.2-1.9c-1.4,1.3-2.9,3.2-5,2.7c-3.2-0.6-4.9-4.5-4.3-7.7c0.3-2.2,2-3.6,3.5-4.9c-0.3,2.1-1,4.1-0.8,6.3
				c0.2,1.6,1.9,2.1,3.1,2.8c0.8-2.4,1-5,1.4-7.6c0.2-1.4,1.8-1.6,2.7-2.3c0.1,2.1,0,4.3,0.6,6.3c0.6,1.4,2,2.1,3.1,2.9
				C367.5,197.9,365.8,195.2,365.7,192.5z"/>
			<path class="st1" d="M206.1,205.3c1.7-0.8,3.5-1.8,5.4-2c1.8-0.1,2.7,2.8,1.3,4c-2.1,1.7-4.6,2.4-7,3.5
				c-5.6,2.8-11.2,5.5-16.7,8.6c-1.2,0.8-2.7,0.6-4,0.4c0.8-1.7,1.9-3.3,3.5-4.3C194.4,211.8,200.2,208.4,206.1,205.3z"/>
			<path class="st1" d="M416.4,208.4c0.4-2,2.6-2.3,4.2-2.9c0.4,2.9,0.7,5.9,2.4,8.3c-0.9,0.1-1.8,0.2-2.6,0.3c-1.2,1.9-2.5,4-4.5,5
				c-3.3,1.7-7,1.7-10.6,1.5c3.8-1.1,8.5-1.4,11-5C418,213.5,416.2,210.8,416.4,208.4z"/>
			<g>
				<path class="st1" d="M491.9,211.3c0.5-1.6,2.3-1.6,3.6-1.4c2.8,0.5,4.8,3,6.6,5.1c1.3,1.3,1.7,3.6,0.5,5.2
					c-1.8,1.5-4.7,0.6-6.3,2.6c-4.8,5.8-12.2,9.5-19.6,8.7c1.4-2.1,3.7-3,6-3.7c4.1-1.4,7.3-4.6,10.3-7.7
					C492.2,217.3,491,214.3,491.9,211.3z M493.8,212.5c0.2,1.8,0.6,3.6,1.2,5.3c0.7-1.4,1.4-2.8,1.8-4.3
					C495.8,213.1,494.7,212.8,493.8,212.5z M499.6,214.7c-0.6,1.4-1,2.9-1.4,4.4c1.1-0.1,2.2-0.3,3.3-0.4c-0.3-1.4-0.5-2.8-1.1-4.1
					C500.2,214.6,499.8,214.7,499.6,214.7z"/>
			</g>
			<path class="st1" d="M302.7,214.4c1.9-1.9,5.3-0.9,6.5,1.4c0.6,1.3-0.7,2.3-1.2,3.3c-1-0.6-2-1.4-3.1-1.7c-1-0.3-1.3,0.9-1.6,1.6
				c-1.2,3-1.8,6.2-2.7,9.3c-0.7-1.9-1.2-3.8-2.3-5.5c-1.2-1.8-3.2-2.8-4.7-4.3c-1.4-1.2,0.1-3.8,1.7-3.5c2.3,0.3,3.7,2.5,5.3,4.1
				C301.2,217.5,301.6,215.7,302.7,214.4z"/>
			<path class="st1" d="M182.5,231.8c1.9-3.4,4.9-6,8.3-7.7c-0.9,2.5-2.3,4.7-3.6,6.9c-1,1.6-1,3.5-1.1,5.3c2.3-0.1,4.6-0.5,6.9-1
				c-0.6,1.9-1.3,4-3,5.1c-1.9,1.3-4.6,2.3-6.6,0.6C181.2,238.5,181,234.6,182.5,231.8z"/>
			<path class="st1" d="M342.1,247.2c1.7-0.3,3.7-1.1,5.2,0.2c1.5,1,2,3.6,0.6,5c-2.1,1.2-4.8,0.5-6.6,2.2c0.3,2.6,2.2,4.7,2.6,7.2
				c0.1,1.6-1.1,2.9-1.8,4.2c-0.5-2.5-0.9-5.2-2.2-7.4c-0.8-1.6-2-3.2-1.6-5.1c0.4-2.1,2.5-3.1,4-4.1
				C342.2,248.8,342.1,248,342.1,247.2z"/>
			<path class="st1" d="M418.8,250.3c0.8-2.1,2.7-3.1,4.4-4.2c-0.7,1.7-1.9,3.4-2.1,5.3c0.8,1.5,2.1,2.6,2.8,4.2
				c0.2,2.6-3.4,3-4.7,1.4C417.7,255.2,417.9,252.4,418.8,250.3z"/>
			<path class="st1" d="M400.3,247.4c2.8-1,5.8,0,8.3,1.5c-1.8,3.9-6,4.9-9.1,7.3c0.1,0.4,0.2,1.2,0.2,1.6c2.2,0.1,4.5,0.4,6.4-0.8
				c2.5-1.4,5.1-2.7,7.9-3.3c-2.2,2-4.3,4-6.5,5.9c-2.6,2.2-6.2,2.2-9.3,1.3c-1.5-0.5-3.4-1.9-2.9-3.9c0.8-2.5,3.2-3.8,5.1-5.3
				c-1.4-0.1-2.7-0.2-4.1-0.3C397.4,249.8,398.4,247.8,400.3,247.4z"/>
			<path class="st1" d="M472.8,254.5c-1-1.2-0.1-3.2,1.3-3.4c2.7-0.5,5,1.8,6.2,4.1c1.8,3.2,1.7,7.2,0.2,10.5
				c-0.5-2.3-0.5-4.7-1.6-6.8C477.4,256.8,474.6,256.4,472.8,254.5z"/>
			<path class="st1" d="M518.1,256c3.7-1.4,7.4-3.2,11.4-2.8c-0.9,1.5-2,2.9-3.7,3.5c-6.2,2.4-12.5,4.6-18.6,7.3
				c-1.9,0.9-3.9,1.6-6,2.1c-0.2-0.6-0.5-1.2-0.7-1.8C506.1,260.9,512.1,258.5,518.1,256z"/>
		</g>
		<path class="st1" d="M507.5,342h-31v-3.4c1.4-1.4,3.3-3.3,3.3-4.4c0-1.9-3.9-5.8-4.8-5.8c-1,0-4.8,4-4.8,5.8
			c0,1.2,1.7,2.9,3.1,4.3l0.1,0.1v3.5H228.9c8.7,10,21.6,9.9,47.5,10.2c23.1,0.4,23,0.4,196.9,0v3.6c-1.4,1.4-3.1,3.3-3.1,4.4
			c0,1.9,3.7,5.8,4.8,5.8c0.7,0,3-2.2,4.2-4.1h10.7c0.7,1.4,2.3,2.2,4.2,2.2c1.9,0,3.5-0.9,4.2-2.2h12.8c1.6,2.1,3.8,2.2,5.1,2.2
			c4.9-0.2,6-3.1,6-13.1C522.1,342.7,517.2,341.8,507.5,342z M509.7,358.9h-11.4c-0.7-1.4-2.3-2.3-4.2-2.3c-1.9,0-3.5,0.9-4.2,2.3
			h-10.5c-0.6-1-1.8-2.3-2.8-3.1v-3.6h32.7h0.5C509.2,354.8,509.1,357.1,509.7,358.9z"/>
	</g>
</g>
</svg>
