<?xml version="1.0" encoding="UTF-8"?>
<svg id="uuid-b9cebb64-cfa9-4918-ba55-85cc53fc2a4f" data-name="Layer 1" xmlns="http://www.w3.org/2000/svg" viewBox="0 0 600 600">
  <path d="M118.1,169.66c-22.8,46.2-27.39,99.29-12.84,148.71l.44-.11c16.64,55.82,56,102.07,108.46,127.41l2.52-4.39c-19.89-9.56-38.09-22.29-53.89-37.69l26.24-26.25c13.33,13.23,28.85,24.05,45.88,31.96l.16-.28c20.67,9.34,43.05,14.33,65.73,14.66v37.02c-29.04,.05-57.74-6.25-84.08-18.45l-2.52,4.39c57.52,27.37,124.46,26.6,181.33-2.09l-2.41-4.5c-27.19,14-57.24,21.51-87.81,21.97v-37.69c24.62-.32,48.85-6.21,70.88-17.23l.03,.06c14.89-7.52,28.54-17.27,40.51-28.89l26.12,26.14c-14.68,14.31-31.44,26.31-49.72,35.59l2.41,4.5c40.2-20.38,72.63-53.36,92.32-93.9l-.03-.12-.28-.15c16.47-34.19,23.03-71.88,19.54-108.93h3.27l.55,.55h.77l1.42-1.1h.55v-.77h1.65l1.28-5.48h-1.54l-2.96,1.21v-.79h-2.09c-.89,.42-1.74,.94-2.52,1.54-.18,.42-.4,.83-.66,1.21-.03,0-.07,0-.1,0-2.05-18.36-6.57-36.52-13.58-53.99l.41-.18c-21.01-51.78-62.12-92.83-113.94-113.75l-.02,.06c-54.6-21.9-115.97-19.37-168.58,6.97l2.2,4.39c27.28-13.63,57.32-20.85,87.81-21.09v37.01c-24.29,.37-48.18,6.19-69.92,17.03l2.2,4.29c20.86-10.42,43.76-16.12,67.07-16.7v33.61c-18.09,.31-35.89,4.62-52.11,12.63l2.33,4.28c15.54-7.57,32.55-11.65,49.83-11.97v37.12c-11.4,.28-22.62,2.93-32.93,7.8l.1,.18c-8,3.7-15.37,8.65-21.83,14.65l-26.23-26.25c9.03-8.72,19.4-15.95,30.71-21.4l-2.33-4.29c-11.74,5.58-22.52,13-31.94,21.97l-23.49-23.27c11.86-11.45,25.41-21.01,40.17-28.34l-2.2-4.29c-15.24,7.51-29.2,17.37-41.38,29.22l-26.24-26.25c14.79-14.5,31.74-26.62,50.25-35.91l-2.2-4.39c-40.02,20.19-72.42,52.81-92.34,92.97l-.4-.22Zm106.69,93.35h33.6c.03,.68,.08,1.36,.14,2.04-.81,.11-1.34,1.33-1.97,1.96l-.66,.55v.76c-.16,.46-.16,.97,0,1.43,.05,.51,.05,1.03,0,1.54-.05,.22-.05,.44,0,.66v2.08c-.49,.57-1.05,1.09-1.65,1.54-.38,.49-.82,.93-1.32,1.32-1.19,.94-2.87,.94-4.06,0l-4.28-3.41c-.33-.35-.75-.62-1.21-.77-.84-.52-1.77-.89-2.75-1.1h-1.59c-.95-.06-1.9-.06-2.85,0-1.04-.13-2.05-.46-2.96-.99-.31-.2-.57-.46-.77-.77-.06-.29-.06-.59,0-.88-.39-1.07-.69-2.17-.88-3.29-.99-1.1-2.85-.77-4.19-1.54l-.66-.55h-.55c-.45-.12-.92-.15-1.39-.07,0-.17-.02-.34-.03-.52Zm270.51-6.33l-.77-1.1v-.66l2.53,.55h1.76c-.03-.44-.03-.88,0-1.32h-.77v-.55l1.54-2.2h.76v-.56l.77-.88h-.66v-1.65h-.55c-.19-.47-.45-.92-.77-1.32l-.99-.66,1.65-1.21v-.87h.77v-.66l1.31-.55s.11-.16,.24-.36c.46,5.15,.73,10.32,.79,15.51h-7.07v-1.51h-.55Zm6.08-21.01c.14,1.1,.26,2.19,.38,3.29-.2-.56-.5-1.35-.57-1.42-.04-.05,.05-.88,.18-1.87Zm-42.89,52.99l-.07-.03c-.49-.42-.94-.9-1.32-1.42l-3.84-4.95c-.05-.44-.05-.88,0-1.32,0,0-2.53-2.63-2.42-2.63l7.69,2.63h1.12c-.33,2.58-.71,5.15-1.17,7.71Zm-102.16,80.1c-10.84,5.41-22.4,9.13-34.3,11.07v-1.83l1.54-1.54,.99,.99,.87-.77v-1.54l.66-1.21c-.03-.37-.03-.73,0-1.1,.57,0,1.04-.43,1.1-.99,.56-1.28,1.26-2.49,2.09-3.62h2.2v-1.21c.36-1.45,.87-2.85,1.54-4.19,.04-.29,.04-.59,0-.88v-1.43l-.66-4.39,1.98-5.49v-.77l.76-1.1c-.05-.55-.05-1.1,0-1.65h1.86l.66-.77v-.61h1.43v-.66h.55v-.55h1.21l1.65-2.53h-1.95v-.66c-.19-.31-.41-.61-.66-.88-.28-.14-.6-.14-.87,0h-.66v-.66c0-.11,0-2.2-.55-2.63-.41-.33-.21-.9-.08-1.35,.48-.22,.95-.45,1.42-.68l.28,.57c2.12-1.05,4.18-2.2,6.19-3.42,.11,.06,.25,.12,.43,.17l.76,.55s.55,0,.55,.77v.66c.34,.02,.64,.23,.77,.55,.22,.55,0,0,0,.87v.99c.16,.46,.16,.97,0,1.43-.11,.45-.34,.87-.66,1.21,.32,.62,.54,1.29,.66,1.98-.09,.25-.09,.52,0,.77,.02,1.32,.29,2.62,.77,3.84-.08,.21-.08,.45,0,.66v.66c.05,.22,.05,.44,0,.66v1.1c-.04,.18-.04,.37,0,.55l15.26,14.45c-2.58,1.53-5.23,2.95-7.93,4.28l.16,.31Zm-100.15,3.09c-13.54-5.66-25.9-13.82-36.42-24.05l26.13-26.36c8.31,7.8,18.13,13.81,28.85,17.68l.16-.27c1.89,.68,3.79,1.29,5.72,1.83v7.9h-4.19l-.87,.77v1.54l-9,5.71v.87h-1.1c-.22-.04-.44-.04-.66,0v.66h.77l-1.42,.77s-.66,.77,0,.88c.37,.73,.63,1.52,.77,2.33-.51,.49-1.06,.93-1.65,1.32l-.55,1.1,.66,.88h.88l1.42,.55-.55,1.1v1.43h1.43v2.09c0,.22,1.1,1.1,1.1,1.1h.77c.05,.4,.05,.81,0,1.21-.05,.36-.05,.73,0,1.1l.55,1.21,1.32,.88c.07,.1,.14,.2,.21,.29-4.78-1.34-9.48-2.98-14.08-4.92l-.24,.44Zm-14.18-62.82c.05,.02,2.26,1.17,5.57,2.91l-2.02,2.03c-1.42-1.53-2.77-3.12-4.06-4.75,.29-.13,.48-.2,.51-.19Zm38.62,20.43v6.03c-1.12-.34-2.24-.7-3.35-1.09l-.15,.27c-10.32-3.56-19.77-9.27-27.72-16.74l3.3-3.3c11.43,6,27.93,14.69,27.93,14.84Zm-50.48-19.1c.87,0,3.08,2.85,3.18,2.85,.05,0,1.72-.84,3.58-1.77,1.62,2.09,3.32,4.11,5.14,6.04l-25.79,25.92c-6-6.25-11.28-13.12-15.78-20.46,.14-.13,.24-.24,.28-.28,.34-.44,21.95-13.73,21.95-13.73l7.45,1.43Zm48.92,67.76v-1.32c.55-.08,1.1-.08,1.65,0h2.42v1.1s.77,0,1.21,1.1c.08,.12,.15,.25,.23,.37-1.93-.3-3.86-.64-5.78-1.03l.28-.21Zm13.49,2.08l.07,.13c-.48-.04-.96-.08-1.45-.13h1.37Zm5.71-.66h1.21v-1.75l.87-.44v3.39c-1.16-.02-2.32-.07-3.48-.12,.3-.31,1.06-1.07,1.41-1.07Zm17.43-95.3c.03-.27,.04-.54,.03-.8,.03,.05,.05,.09,.07,.14,.05,.18,.05,.37,0,.55,.02,.42,.35,.75,.77,.77,.1,.17,.1,.38,0,.55v.58c-.16-.21-.26-.43-.21-.68-.38-.24-.63-.65-.66-1.1Zm-1.32-4.39h.55c.55,0,0,0,0,.55-.06,.44-.06,.88,0,1.32,.02,.05,.05,.11,.06,.16-.23-.29-.43-.6-.61-.93-.2-.34-.2-.76,0-1.1Zm99.25,26.79h-.53c-.05-.22-.05-.44,0-.66,.05-.25,.05-.51,0-.77h-.66v-1.98c.23-.68,.23-1.41,0-2.09v-1.54c-.02-.43-.28-.8-.66-.99h-.55v.55c-.12,.2-.12,.46,0,.66-.2,.3-.2,.69,0,.99-.11,.62-.11,1.25,0,1.86v.66c.1,.21,.1,.45,0,.66-.33-.43-.59-.91-.77-1.43-.05-.51-.05-1.03,0-1.54h-.66c-.11-.36-.11-.74,0-1.1-.26-.4-.26-.92,0-1.32,.25,.35,.66,.56,1.1,.55v-1.86c-.55-.34-.91-.9-.99-1.54-.1-.34-.34-.62-.66-.77-.36,.08-.74,.08-1.1,0v-.33c.1-.25,.1-.52,0-.77v.55c-.06-.18-.06-.37,0-.55v-.11h-.66c-.17-.23-.17-.54,0-.77v-.66c-.32,0-.6-.23-.66-.55-.06-.33-.06-.66,0-.99,0,0,0-.66-.55-.77-.06-.18-.06-.37,0-.55v-1.1c.52-.66,1.38-.95,2.2-.77,.33-.27,.59-.61,.77-.99,.14-.24,.14-.53,0-.77l-.55-.66v-.55h1.31c.48,.38,1.16,.38,1.65,0h.55c.05-.22,.05-.44,0-.66-.02-.05-.02-.1-.03-.14l.25,.25c.21,.24,.47,.43,.77,.55,.31,.15,.68,.15,.99,0-.07,.21-.07,.44,0,.66,.87,0,1.54-1.1,2.42-.99,.19,.75,.44,1.49,.76,2.2,.71,.7,1.34,1.48,1.86,2.33v.93c-1.44,5.73-3.31,11.36-5.6,16.84Zm-83.42-10.46c0,.1-.01,.19-.01,.26l.99,.55c.16,.35,.16,.75,0,1.1,.79,.62,1.14,1.66,.88,2.64-.05,.22-.05,.44,0,.66,.31,.17,.54,.44,.66,.77-.02,.22,.08,.43,.26,.56,.17,.13,.41,.17,.61,.1l1.1,.77c.6,.24,1.16,.57,1.65,.99,.38,.33,.68,.75,.88,1.21v.77c.06,.29,.06,.59,0,.88v1.1c.15,.74,.49,1.42,.99,1.98v1.65c.22,.45,.22,.98,0,1.43-.15,.5-.15,1.03,0,1.54v.66c-.06,.4-.06,.81,0,1.21v1.43c.23,.28,.49,.54,.77,.77,.66,.66,.87,1.65,1.54,2.2,.43,.15,.89,.15,1.32,0,.18,.27,.45,.46,.76,.55,.51,.17,.94,.52,1.21,.99,0,0,0,.55,.77,.66v.99c.08,.25,.08,.52,0,.77,.05,.47,.05,.95,0,1.43-.01,.12-.02,.24-.02,.36-2.2,1.38-4.46,2.65-6.79,3.81v-2.98l-.88-1.1c-.32-.52-.58-1.07-.77-1.65v-2.63h-.66l-.66-.77h-.66v-1.1c.08-.36,.08-.74,0-1.1v-3.76c0-.11,0,0,.66,0v-.66l-1.43-1.75v-.88c-.68-1.51-1.45-2.97-2.3-4.39,0-.99,0-1.42-.88-1.75-.42-.43-.72-.96-.87-1.54,.37-2.49-.69-4.86-2.55-6.3,1.19-.74,2.33-1.54,3.45-2.39Zm40.23-74.68v-.59c.11,.2,.23,.39,.34,.59h-.34Zm-5.05-1.76c-.03-.18-.03-.37,0-.55h-3.4c-.12,.23-.32,.42-.55,.55h-4.5c-.35,.15-.75,.15-1.1,0h-1.32l-.88,.66h-7.2l13.57-13.53c3.7,3.95,6.96,8.26,9.74,12.87h-4.37Zm-50.37-1.51c-.18-.05-.36-.1-.54-.15l.54-.54c.09,.21,.09,.45,0,.66v.03Zm5.73,77.3v-2.82c-.58-.36-.95-.97-.99-1.65v-.98l.44,.31c.31,.16,.68,.16,.99,0,.47-.59,.74-1.32,.77-2.08-.05-.36-.05-.73,0-1.1-.05-.25-.05-.51,0-.77,.47-.92,.73-1.93,.77-2.97,.02-1.03,.5-2,1.32-2.63-.27,.9-.49,1.82-.66,2.75-.22,.56-.22,1.19,0,1.75-.1,.32-.1,.67,0,.99v.66h2.33c-.08,.25-.08,.52,0,.77,.26,.79,.71,1.51,1.32,2.08,.11,.28,.11,.6,0,.88,.12,.18,.25,.34,.37,.51-2.06,1.65-4.28,3.1-6.64,4.33v-.02Zm-170.14,11.33c-.06-.21-.12-.42-.18-.63,.23,.16,.47,.33,.7,.5l-.52,.13Zm-34.06-39.33v3.08c.49,.24,.85,.68,.99,1.21,.05,.51,.05,1.03,0,1.54v.88c-.15,.44-.38,.84-.66,1.21l-1.98,2.75v.66c0,.87-1.32,1.21-2.08,1.65-.85,.43-1.59,1.02-2.2,1.75l-.66,.77c-.39,.37-.83,.66-1.32,.88-1.58,.76-3.3,1.2-5.05,1.32,0,0-.05,0-.14,0-.9-7.29-1.41-14.63-1.5-21.99h16.12c-.07,.12-.13,.24-.21,.35l-.66,.77-.66,1.21c-.05,.66-.05,1.32,0,1.98Zm42.73,132.55c-22.85-23.38-39.63-52-48.86-83.37l-.43,.11c-2.91-9.93-5.03-20.06-6.37-30.3h20.83c-.05,.66-.05,1.32,0,1.97l18.33,12.41c.2,.12,.65,.43,1.29,.87,.56,2.2,1.15,4.4,1.8,6.58l.55-.14c7.64,24.66,21.04,47.15,39.09,65.61l-26.24,26.25Zm-8.11-93.33c8.62,6.09,20.7,14.7,20.7,14.7v2.09h1.65l.99,1.65h2.2l.66,.77v.55h.66v.66l2.41,.77v2.09c0,.22-.77,1.1-.66,1.42,.11,.33,.66,.88,.99,.88s11.74-2.2,12.07-2.53c.16-.16,2.01-1.8,3.88-3.46,4.6,7.37,9.96,14.28,16.02,20.58l-23.71,23.73c-17.56-17.95-30.55-39.87-37.86-63.89Zm149.17,111.87c-21.71-.29-43.13-5.07-62.9-14.06l-.16,.27c-16.58-7.52-31.73-17.86-44.76-30.58l23.73-23.73c10.84,10.86,23.61,19.61,37.65,25.81l.28-.48c14.62,6.18,30.29,9.51,46.16,9.82v32.94Zm5.13-38.89s.03,.02,.04,.02h2.33l2.42-2.53c.22-.58,.52-1.14,.87-1.65l2.33-1.98v-3.29l-1.54-1.1h3.18v.55h2.75s-.77,2.75-.77,2.96v4.19c.34,.29,.76,.48,1.21,.55,.85,.75,1.58,1.63,2.17,2.6-4.95,.74-9.95,1.18-14.98,1.29v-1.62Zm68.65,22.76l-.03-.05c-21.29,10.75-44.76,16.5-68.61,16.8v-32.95c18.49-.4,36.66-4.86,53.24-13.07l-.16-.31c3.42-1.72,6.75-3.61,10-5.63h.81v-.51c.08-.05,.17-.1,.25-.16,.11,.06,.28,.12,.53,.12h1.31v-.55c0-.55,0,0,.88,0,.5-.75,1.3-1.23,2.2-1.31,.91-.11,1.83-.11,2.74,0h2.33c.93-.29,1.82-.69,2.64-1.21,1.86-.58,3.6-1.47,5.16-2.63h1.31c.76,.22,1.57,.22,2.33,0l1.32-.66c.36-.61,.77-1.2,1.21-1.76,.3-.32,.68-.54,1.1-.66,.37-.22,.77-.4,1.18-.55l17.22,17.31c-11.48,11.2-24.62,20.56-38.94,27.79Zm108.83-54.47l.27,.15c-9.42,19.39-21.89,37.14-36.92,52.58l-26.02-26.14c12.54-12.9,22.92-27.73,30.74-43.93l-4.5-2.42c-7.53,15.95-17.61,30.57-29.85,43.27l-15.36-15.58,2.79-.86h.87l.77-.55h1.65c.05-.22,.05-.44,0-.66v-.69c-.06-.18-.06-.37,0-.55,.16-.3,.39-.56,.66-.77h3.84c.57-.17,1.18-.17,1.75,0h6.7c.43,.11,.88,.11,1.32,0,.41-.23,.78-.53,1.1-.88-.11-.28-.11-.59,0-.87l.99-.55h3.18l.77-.66c.26-.19,.46-.46,.55-.77,.1-.47,.1-.96,0-1.43,.35-.35,.71-.68,1.1-.99h.77l1.54-.55h1.97c-.32-.5-.32-1.15,0-1.65v-.87c-.04-.4-.04-.81,0-1.21,.11-.28,.11-.6,0-.88h.77v.55c.05-.29,.05-.59,0-.87h.66c-.16-.46-.16-.97,0-1.43l.99-1.1c.31-.47,.78-.82,1.32-.99v-1.43c0-.55,.66-.55,.77-.87,.23-.31,.41-.64,.55-.99v-1.32c-.32,.11-.67,.11-.99,0-.31-.2-.57-.46-.77-.77-.11-.39-.11-.81,0-1.21v-1.88h-2.52c-.67-.06-1.34-.19-1.98-.39l-.39-.61v.48c-.32-.11-.62-.24-.93-.39l-.04-.1-.02,.06c-.24-.12-.48-.23-.71-.37h-.66v-.74l-1.65-2.09v-.88c-.05-.4-.05-.81,0-1.21v-19.22c.06-.29,.06-.59,0-.88,.1-.28,.1-.59,0-.87v-.47c-.12,.54-.49,.98-.99,1.21h-.66v.55c-.31,.74-.9,1.33-1.65,1.65l-.88,.66c-.29-.06-.59-.06-.87,0-.21-.1-.45-.1-.66,0h-.77v.55h-1.87c1.29-3.36,2.43-6.77,3.43-10.22,.3,.35,.7,.59,1.16,.69l.77,.88c1.21,.95,2.59,1.66,4.06,2.08v.66h2.75c-.04,.18-.04,.37,0,.55h.66c.31,.15,.68,.15,.99,0h.66c.53-.43,1.18-.66,1.86-.66h.55c.32-.1,.67-.1,.99,0h1.21c.58-.11,1.17-.11,1.75,0h1.1c.3,.43,.53,.91,.66,1.42,.11,.47,.11,.96,0,1.43-.05,.33-.05,.66,0,.99-.17,.39-.17,.83,0,1.21h3.72c.29-.06,.59-.06,.87,0h1.75s.66,.87,1.1,.87h4.83s.04,.07,.06,.11c-2.25,7.72-5.1,15.27-8.53,22.59l4.5,2.41c4.64-9.96,8.25-20.33,10.8-30.95l1.29-.43h2.33v-2.33s-.55-.77-.77-.77h-1.86c-.01-.24-.02-.48-.02-.72,.99-4.66,1.79-9.37,2.37-14.1h1.83c.16-.3,.38-.57,.66-.77h3.84l5.7-1.86v-.66l-.87-.11,.66-1.86v-.99c.15-.67,.33-1.33,.55-1.98h.77c.31-.28,.57-.62,.77-.99h3.62v-.66h.66l1.31-.66c.26-.39,.55-.76,.88-1.1l1.75,.66h.66l1.32,1.32,1.32-.66c.32-.42,.61-.86,.87-1.32,.05-.95,.05-1.91,0-2.86l.99-1.1c.02-.26,.02-.51,0-.77l.77-.66v-.66h1.86l.03-.02h8.27c-.3,29.4-7.13,58.36-19.98,84.79Zm5.88-162.62l-.41,.17c5.79,14.38,9.88,29.36,12.21,44.62l-1.74-1.13-1.1,.55c-.22,.5-.47,.97-.77,1.42-.37,.4-.77,.77-1.21,1.1h-.55v.55c.06,.36,.06,.73,0,1.1l-1.1-.55h-1.43c-.25,.27-.47,.57-.66,.88v1.21l-.87,.87-1.75-1.43h-.66l-1.1,.99h-2.63s-.55-.88-.66-.88l-1.32-.77-1.1,.55c-.36-.34-.69-.71-.99-1.1h-7.35c-.37,.61-.77,1.2-1.21,1.76h-1.86l-1.75,.77v1.23l-.77,1.65v1.32c-.22,.32-.48,.62-.77,.87l-1.43,.66v.55l-.47,.13c-1.48-14.47-4.87-28.71-10.11-42.33l-4.61,1.98c5.54,14.09,9.01,28.88,10.35,43.91-.54,.3-1.08,.59-1.65,.82h-.77c-.77,0-.66,.88-.77,.88s0-.77,0-.88l-.87-.87h-3.72c-.34-.39-.7-.76-1.1-1.1v-5.16h-3.51l-1.1-1.54v-.66h-2.42c-.57-.55-.88-1.3-.87-2.09-.61-.28-1.19-.61-1.75-.99-.25,.06-.52,.06-.77,0h-4.19v-1.75s0,.66-.87,.66c-.72-.17-1.47-.17-2.2,0v.99c-.65,.11-1.32,.11-1.98,0h-3.62c-.47,.26-.82,.7-.99,1.21v.77c-.48,.54-1.14,.89-1.86,.99h-.41c-1.42-7.46-3.51-14.78-6.27-21.88l-4.5,1.98c2.79,7.27,4.85,14.79,6.19,22.43h-2.37c-.87,0-1.75,.55-2.52,.55h-.77c-.47,.05-.95,.05-1.43,0-.57-.17-1.12-.4-1.65-.66h-1.86l-1.75-.99c-.9-.63-1.59-1.51-1.98-2.53-.2,.12-.46,.12-.66,0h-3.84c-.26-.3-.48-.63-.66-.99,.1-.21,.1-.45,0-.66-.06-.62-.06-1.24,0-1.86,.06-.4,.06-.81,0-1.21h-1.32c-.28-.39-.54-.79-.77-1.21v-.55l-1.21-.77,1.54-.55-.99-1.65s1.1-.66,.99-.77c-.52-.71-1.11-1.37-1.75-1.97l-2.63,1.42-1.98,1.86h-.66l-1.65,1.86h-1.97l-10.76-3.71c-3.71-8.14-8.74-15.62-14.93-22.12l26.24-26.25c10.98,11.5,19.6,25.05,25.35,39.87l4.5-1.98c-5.98-15.42-14.97-29.5-26.45-41.41l23.82-23.73c14.27,14.95,25.46,32.57,32.93,51.84l4.61-1.98c-7.87-19.68-19.46-37.65-34.14-52.94l26.13-26.25c18.24,18.65,32.64,40.7,42.42,64.88Zm-183.48-83.62c19.62,.29,39.02,4.23,57.19,11.63l1.76-4.62c-18.73-7.64-38.72-11.7-58.95-11.97V60.18c24.8,.24,49.34,5.1,72.37,14.32l-.03,.07c24.28,9.76,46.4,24.2,65.09,42.51l-26.12,26.25c-15.13-14.65-32.95-26.25-52.47-34.16l-1.75,4.62c18.86,7.64,36.07,18.83,50.72,32.95l-23.73,23.83c-11.39-10.93-24.72-19.64-39.3-25.7l-.03,.07c-14.23-5.76-29.4-8.86-44.75-9.17v-33.96Zm-.03,38.89c14.78,.31,29.37,3.33,43.06,8.92l.03-.07c13.9,5.76,26.62,14.05,37.51,24.43l-26.23,26.69c-7.25-6.86-15.69-12.33-24.92-16.15l-1.75,4.62c8.57,3.58,16.41,8.67,23.16,15.05l-16.39,16.24h-2.17c-.21,.08-.45,.08-.66,0h-1.42c-.21,.21-.55,.21-.77,0-.25,.07-.52,.07-.77,0v-.87c-.13-.38-.41-.7-.77-.88-.39,.13-.81,.13-1.21,0h-.88v-1.21c-.24,.12-.53,.12-.77,0-.32,.11-.67,.11-.99,0h-10.98c-.28-.11-.59-.11-.87,0-.21-.08-.45-.08-.66,0h-4.39c-.16,.05-.33,.07-.49,.07-2.19-.44-4.41-.72-6.66-.82v-33.94c9.55,.27,18.97,2.32,27.77,6.05l1.75-4.61c-9.36-3.95-19.37-6.11-29.53-6.37v-37.13Zm-35.35,48.98l-.09-.17c9.51-4.38,19.81-6.79,30.28-7.08v31.39l-6.1-.52h-3.08c-.21-.08-.45-.08-.66,0h-1.86c-.23,.27-.54,.46-.88,.55h7.69c.28-.24,.7-.24,.99,0h3.91v2.19c-2.97,.19-5.9,.67-8.77,1.42h-5.48v.77h-1.21c-.06,.18-.06,.37,0,.55h2.2v.1c-.48,.18-.97,.36-1.45,.56l2.2,4.39c4.76-1.98,9.88-2.99,15.04-2.96,4.31,0,8.45,.71,12.33,1.99v1.75c-.02,.44-.02,.88,0,1.32,.02,.26,.02,.51,0,.77-.05,.4-.05,.81,0,1.21,.04,.37,.04,.74,0,1.1l-1.32,1.54h-3.72c-.24,.31-.6,.51-.99,.55v-.66c-.8,.64-1.94,.64-2.75,0-.31-.2-.57-.46-.77-.77h-.55c-.29,.09-.59,.09-.88,0l4.85,30.01c-.35-.15-.35-.42-.35,.08,0,.01,0,.02,0,.03,0,.29,.2,.52,.46,.59v.03h-.36l.41,.27,1.38,8.52s-.02,0-.02,0h-1.08c-.47,.1-.95,.1-1.42,0h-.99c-.63,.28-1.35,.28-1.97,0-.72-.02-1.41,.22-1.98,.66l-3.29,2.09c-.66,.52-1.49,.79-2.33,.77-.87,0-1.65-.87-2.53-1.21-.8-.05-1.61-.05-2.41,0,0,0-1.1,0-.99-.99-.5,.16-1.04,.16-1.54,0-.52-.05-.94-.46-.99-.99h-1.98c-.73-.06-1.47-.06-2.2,0-.9-.34-1.81-.64-2.75-.88-.69,.47-1.49,.74-2.33,.77-.31,.15-.68,.15-.99,0v-1.76h-.77c-.77,.11-1.56,.11-2.33,0-.82-.42-1.72-.68-2.64-.77-.55,0-1.97-.55-1.21-1.43l-2.42-.99c-.22-.06-.45-.06-.66,0h-5.05c-.1,.05-.21,.08-.32,.1-.15-1.39-.22-2.81-.22-4.24,.02-10.49,4.21-20.54,11.64-27.95,3.72-3.67,8.12-6.58,12.95-8.57l-2.2-4.39c-4.55,1.92-8.74,4.59-12.41,7.91l-23.82-23.83c6.13-5.7,13.13-10.37,20.75-13.84Zm-53.28-11.93l26.24,26.25c-6.75,7.19-12.18,15.52-16.03,24.6l4.28,2.33c3.58-8.66,8.72-16.59,15.15-23.4l23.82,23.83c-6.65,7.52-10.52,17.1-10.97,27.13h-34.36c.29-9.47,2.29-18.81,5.93-27.57l-4.28-2.33c-4.05,9.46-6.28,19.59-6.58,29.88h-10.87c-.44-.32-.81-.74-1.06-1.24-.27-.48-.27-1.06,0-1.54,.55-.27,1.07-.6,1.54-.99,0,0,1.21-.88,1.32-1.65-.07-.18-.07-.38,0-.55,0,0,0-1.21,.76-1.42,.76-.22,0,0-.66-.99-.66-.99,0-.87,0-1.21-.3-.32-.68-.55-1.1-.66-.61-.37-1.1-.9-1.42-1.54-.28-.63-.28-1.35,0-1.98h1.1c.33,0,0-.99,.66-1.43l.77-.88c.21-.53,.21-1.12,0-1.65-.66,0-1.1,.99-1.75,1.21h-.66v-1.65h-3.41c-.19-.15-.46-.15-.66,0h-3.72l-1.1,.99c-.73,.11-1.47,.11-2.2,0h-3.72c-.37-.33-.94-.33-1.31,0-.34,.29-.76,.48-1.21,.55h-1.21c-.33,0-.66-.55-1.1-.66-.42-.08-.84,.15-.99,.55-.51,.28-1.07,.47-1.65,.55h-2.01c1.71-10.86,4.89-21.47,9.47-31.53l-3.91-2.39,4.27,2.32c5.7-12.14,13.34-23.26,22.61-32.95Zm-57.41-57.05l26.24,26.25c-12.24,12.54-22.4,26.97-30.08,42.72l4.28,2.33c7.44-15.48,17.34-29.64,29.31-41.95l23.71,23.83c-9.49,10.16-17.24,21.81-22.94,34.48l-.04-.02c-4.96,10.81-8.36,22.24-10.13,33.94h-1.06c-.61-.17-1.25-.17-1.86,0,0,0-.77,.66-1.21,.66h-1.1c-.21,.1-.45,.1-.66,0h-.66v.55h-3.07c-.99,.11-1.98,.11-2.96,0h-5.38c-.28,.29-.62,.51-.99,.66-.44,.11,0,0-.66,0,0,0-1.1,0-1.43,.66-.33,.66,0,.55-.66,.77-.33,.17-.6,.44-.77,.77v.55h-1.43v-.55c-.21-.1-.45-.1-.66,0v.66c-.2,.12-.45,.12-.66,0l-1.1,.55c-.22-.04-.44-.04-.66,0-.05,.29-.05,.59,0,.88-.57,0-1.11,.29-1.43,.77-.49,.41-1.12,.6-1.75,.55-.65,.1-1.32,.1-1.97,0h-2.85c1.34-19.87,6.43-39.33,15.03-57.35l-4.28-2.75c-8.9,18.48-14.19,38.45-15.63,58.85-.05,.02-.1,.03-.17,.03-1.03,.54-2.26,.54-3.29,0h-.66c-.47-.19-.88-.49-1.21-.88,0-.36-.28-.65-.63-.66,0,0-.02,0-.02,0-.25-.68-.44-1.38-.55-2.09h-2.33c-.66,0,0,0,0,.55,.12,.43,.12,.89,0,1.32-.06,.4-.06,.81,0,1.21v2.08c-.22,.65-.51,1.28-.87,1.86l-.66,1.21c.04,.29,.04,.59,0,.88,0,.55-1.21,1.21-1.86,1.1l-1.65,1.1h-3.18c-.55,0,0,.77-.88,.99-.02,.28-.12,.55-.28,.77h-19.57c.31-29.78,7.26-59.11,20.35-85.86l.4,.22c9.37-19.05,21.72-36.48,36.57-51.64Z" fill="#009edb"/>
  <path d="M91.65,110.92c-7.79,12.3-8.89,26.91-15.04,39.65,12.31-9.41,23.78-19.88,34.25-31.31,10.55-16.36,22.8-31.55,36.54-45.34-20.43,7.87-42.21,16.13-55.75,37Z" fill="#009edb"/>
  <path d="M147.52,73.8s-.08,.09-.13,.13l.34-.13h-.21Z" fill="#009edb"/>
  <path d="M159.16,468.09c-23.6-19.11-26.78-47.67-37.76-72.82-7.36-15.73-16.98-30.31-28.54-43.27,12.29,25.06,7.02,57.35,23.27,80.96,5.47,7.46,11.76,14.28,18.77,20.32-6.36-3.1-12.27-7.05-17.56-11.74-28.1-23.62-70.8-26.59-87.81-65.14l.2,.54c4.61,28.25,27.97,53.93,51.26,69.2,23.29,15.27,52.58,13.51,78.17,21.97Z" fill="#009edb"/>
  <path d="M52.46,389.02c16.03,12.08,35.13,21.97,49.72,32.95-3.7-7.07-6.85-14.42-9.44-21.97-8.67-34.6-3.84-74.69-18.66-106.76,2.75,18.67-4.5,34.38-6.15,51.62-1.34,13.71,.93,27.53,6.59,40.09,2.17,3.29,4.01,6.78,5.49,10.43-5.11-5.02-9.47-10.75-12.95-17.02-16.93-27.56-52.34-45.59-55.63-78.74-4.08,35.1,11.71,69.58,41.03,89.39Z" fill="#009edb"/>
  <path d="M220.22,482.7c4.27-1.1,9.43-.77,13.49-2.2-16.62-2.44-32.25-9.43-45.14-20.21-17.05-17.33-35.4-33.34-54.88-47.89,15.15,20.76,19.86,50.63,48.08,61.62,5.16,1.15,10.2,2.8,15.04,4.94-5.16,.38-10.34-.25-15.26-1.86-36.33-7.8-80.79,2.19-108.12-28.89,11.41,20.36,30.02,35.71,52.18,43.05,31.72,10.54,64.76-1.21,94.62-8.57Z" fill="#009edb"/>
  <path d="M43.46,281.38c4.39-29.33,28.98-50.2,41.71-75.9,5.02-10.36,8.22-21.51,9.44-32.95-1.83,4.88-4.76,9.28-8.56,12.85-16.58,15.59-36.12,31.41-39.84,53.38-.37,3.22-.96,6.41-1.75,9.56-.09,.03-.19,.04-.29,.04-.42-.03-.73-.39-.7-.8l2.08-27.57c1.98-26.9-12.19-56.77,3.4-80.5-.55-.66-1.32,0-1.32,0-14.74,17.36-23.04,39.28-23.49,62.06h.24c0,29.87,17.1,50.74,19.08,79.84Z" fill="#009edb"/>
  <path d="M11.3,298.41c.03,.41,.09,.81,.13,1.22,.03-.26,.05-.52,.08-.79l-.21-.44Z" fill="#009edb"/>
  <path d="M52.6,188.49c.58,7.06,.4,14.17-.55,21.19,5.39-10.61,13.12-19.85,22.61-27.02,21.4-16.14,45-36.9,45-64.25-7.03,19.33-28.54,27.8-42.81,41.3-7.32,6.82-13.02,15.19-16.69,24.49h-.55c1.86-7.91,5.12-15.05,7.45-22.63,6.14-20.86,5.05-45.79,25.35-59.75-10.67,3.14-20.15,9.41-27.22,17.99l.24-.2c-16.46,18.12-15.03,44.92-12.84,68.87Z" fill="#009edb"/>
  <path d="M18.23,294.22c6.91,22.52,28.86,38.66,39.84,59.31l1.21,.88c-2.23-10.84-2.19-22.02,.11-32.84,4.83-17.13,10.86-33.72,14.05-51.4,3.29-13.95,4.54-28.3,3.72-42.61-1.45,7.18-4.05,14.08-7.69,20.43-15.03,23.19-30.84,50.42-19.86,79.96h-.99c-3.45-10.17-6.09-20.59-7.91-31.18-6.91-27.92-28.21-50.87-21.95-82.83-2.98,7.06-5.15,14.42-6.48,21.97h.56c-2.77,19.59-.93,39.56,5.38,58.31Z" fill="#009edb"/>
  <path d="M407.34,503.47c-24.48-10.24-49.39-23.73-76.84-23.73-10.38,0-20.57,1.75-30.44,4.76-9.79-3.01-19.85-4.76-30.04-4.76-27.99,0-52.91,13.49-77.39,23.73-23.38,9.42-49.86,7.09-71.24-6.26,9.53,11.45,22.02,20.08,36.11,24.94,25.44,8.31,53.3,4.25,75.3-10.99,15.37-9.77,28.43-23.73,46.65-23.73,3.15,0,6.33,.37,9.51,1.03-25.55,10.4-48.48,28.51-66.26,45.43,3.64,3.94,7.57,7.62,11.74,10.99,20.17-20.85,43.04-43.43,65.8-52.88,22.77,9.45,45.63,32.02,65.8,52.88,4.17-3.34,8.06-7.02,11.63-10.99-18.03-16.89-41.08-34.96-66.45-45.37,3.29-.7,6.56-1.09,9.82-1.09,18.22,0,31.28,13.96,46.65,23.73,22,15.23,49.86,19.3,75.3,10.99,13.88-4.97,26.16-13.58,35.56-24.94-21.38,13.35-47.86,15.67-71.24,6.26Z" fill="#009edb"/>
  <path d="M559.8,296.77c-1.82,10.58-4.46,21.01-7.91,31.18h-.99c10.98-29.54-4.83-56.77-19.87-79.96-3.64-6.36-6.23-13.25-7.68-20.43-.82,14.31,.44,28.66,3.72,42.61,3.18,17.68,9.22,34.27,14.05,51.4,2.18,10.84,2.14,22.01-.11,32.84l1.54-1.21c10.98-20.65,32.93-36.8,39.84-59.31,6.27-18.77,8.08-38.74,5.27-58.32l.45,.34c-1.29-7.54-3.42-14.91-6.36-21.97,6.25,31.96-15.04,54.91-21.95,82.83Z" fill="#009edb"/>
  <path d="M418.97,477.11c-4.92,1.61-10.1,2.24-15.26,1.86,4.83-2.15,9.87-3.81,15.04-4.94,28.21-10.99,32.93-40.86,48.08-61.62-19.48,14.54-37.83,30.55-54.88,47.89-12.98,10.83-28.71,17.83-45.44,20.21,3.95,1.43,9.22,1.1,13.49,2.2,29.85,7.36,62.9,19.11,94.62,8.57,21.43-7.18,39.5-21.89,50.92-41.35-27.44,29.01-70.92,19.54-106.57,27.19Z" fill="#009edb"/>
  <path d="M483.17,441.53c-5.07,4.36-10.67,8.06-16.69,10.99,6.98-6.07,13.28-12.88,18.78-20.32,16.14-23.61,10.98-55.91,23.27-80.96-11.56,12.96-21.18,27.54-28.54,43.27-10.97,25.15-14.16,53.71-37.76,72.82,25.59-8.45,54.91-6.7,78.17-21.97s46.65-40.95,51.26-69.19l-.68,.22c-17.01,38.55-59.71,41.52-87.81,65.14Z" fill="#009edb"/>
  <path d="M523.91,150.57c-6.91-12.74-8.12-26.8-15.82-39.65-13.12-20.56-34.48-28.88-54.63-36.65,13.57,13.72,25.71,28.79,36.2,44.99,10.47,11.42,21.93,21.9,34.25,31.31Z" fill="#009edb"/>
  <path d="M588.44,298.84c.13,1.09,.25,2.18,.34,3.27,.18-1.22,.34-2.45,.43-3.71l-.77,.44Z" fill="#009edb"/>
  <path d="M533.34,378.37c-3.41,6.26-7.7,11.99-12.74,17.02,1.44-3.65,3.24-7.14,5.37-10.43,5.75-12.53,8.06-26.37,6.7-40.09-1.65-17.24-8.89-32.95-6.15-51.62-14.82,32.07-9.99,72.16-18.66,106.76-2.59,7.55-5.74,14.89-9.44,21.97,14.6-10.98,33.7-20.87,49.73-32.95,28.17-19.67,43.59-52.84,40.62-86.9-4.76,31.58-38.83,49.39-55.44,76.25Z" fill="#009edb"/>
  <path d="M526.54,448.22c-.32,.58-.67,1.13-1,1.7,.52-.55,1.04-1.11,1.55-1.69h-.55Z" fill="#009edb"/>
  <path d="M452.99,73.8h-.78c.41,.16,.83,.32,1.24,.48-.16-.16-.31-.32-.46-.48Z" fill="#009edb"/>
  <path d="M533.46,161.57c2.33,7.58,5.58,14.72,7.45,22.63-3.67-9.3-9.37-17.67-16.69-24.49-14.27-13.49-35.78-21.97-42.81-41.3,0,27.35,23.6,48.11,44.89,64.25,9.52,7.17,17.29,16.41,22.72,27.02-.82-7.04-.82-14.15,0-21.19,2.2-23.94,3.51-50.74-12.84-68.87l-.87,.2c-7.07-8.59-16.55-14.85-27.22-17.99,20.31,13.96,19.21,38.88,25.35,59.75Z" fill="#009edb"/>
  <path d="M554.19,219.97l2.09,27.57s0,.99-1.1,.77c-.71-3.16-1.26-6.35-1.65-9.56-3.72-21.97-23.27-37.78-39.84-53.38-3.8-3.59-6.76-7.98-8.67-12.85,1.33,11.43,4.51,22.56,9.44,32.95,12.73,25.7,37.42,46.57,41.82,75.9,2.08-29.11,19.32-49.97,19.32-79.85h.77c-.61-22.89-9.23-44.85-24.37-62.05-.29-.33-.79-.37-1.13-.08-.03,.03-.06,.05-.08,.08,15.59,23.73,1.43,53.6,3.4,80.5Z" fill="#009edb"/>
  <path d="M347.53,341.48h.55c-.17-.1-.38-.1-.55,0Z" fill="#009edb"/>
  <path d="M415.59,367.38h-.88c.28,.11,.6,.11,.88,0Z" fill="#009edb"/>
  <path d="M413.95,366.51s0,.05,0,.07c0,.37,.24,.66,.57,.76-.23-.26-.59-1.63-.57-.83Z" fill="#009edb"/>
  <path d="M414.58,367.38h.13c-.07,0-.14-.03-.2-.05,.02,.03,.05,.05,.07,.05Z" fill="#009edb"/>
  <path d="M416.9,367.38h-1.31c.44,.05,.88,.05,1.31,0Z" fill="#009edb"/>
  <path d="M408,369.91c.11-.11-.66,0,0,0h0Z" fill="#009edb"/>
  <polygon points="208.67 256.24 209 255.57 208.67 255.57 208.67 256.24" fill="#009edb"/>
  <polygon points="308.55 265.13 308.22 267.11 308.55 267.11 308.55 265.13" fill="#009edb"/>
  <path d="M299.33,260.6v.13h1.64v-.99l-.77-1.32-.87,1.32v.42c-.66-.07-.66-.38-.66-.86-.01-.08-.01-.16,0-.25,.05-.34,.29-.6,.59-.7-.2,.05-.38,.13-.54,.27-.25,.23-.39,.55-.4,.89,0,.04,0,.08,0,.12,.05,.53,.48,.91,.99,.96Z" fill="#009edb"/>
  <path d="M299.27,258.36c.13-.03,.26-.06,.39-.04-.14-.02-.27,0-.39,.04Z" fill="#009edb"/>
  <path d="M302.72,259.48l-.05-.16-.27,.23s.16,0,.32-.07Z" fill="#009edb"/>
  <path d="M302.72,259.48l.23,.73v-.88c.24,.12,.53,.12,.77,0,.04-.03,.08-.07,.11-.11,.18-.24,.13-.59-.11-.77h-1.32l.27,.87,.39-.32c0,.28-.17,.42-.34,.48Z" fill="#009edb"/>
  <path d="M307.23,259.77c0,.37,0,.61-.1,.76,.04,0,.06,.01,.1,.01,.55,0,0,0,0-.77Z" fill="#009edb"/>
  <path d="M306.35,260.75c.46,0,.68-.06,.78-.23-.43-.03-.45-.25-.45-.76v-1.32h-.99v-.02c-.24-.12-.53-.12-.77,0h-.55l1.11,1.86c.03,.46,.18,.47,.86,.47Z" fill="#009edb"/>
</svg>