<?xml version="1.0" encoding="utf-8"?>
<!-- Generator: Adobe Illustrator 26.3.1, SVG Export Plug-In . SVG Version: 6.00 Build 0)  -->
<svg version="1.1" id="Layer_1" xmlns="http://www.w3.org/2000/svg" xmlns:xlink="http://www.w3.org/1999/xlink" x="0px" y="0px"
	 viewBox="0 0 602 600" style="enable-background:new 0 0 602 600;" xml:space="preserve">
<style type="text/css">
	.st0{clip-path:url(#SVGID_00000073683967858664794870000015191863666584982959_);}
	.st1{fill:#FFC61E;}
	.st2{fill:#FFFFFF;}
	.st3{fill:#CE1126;}
	.st4{fill:#3A75C4;}
	.st5{fill:#3D8E33;}
</style>
<g>
	<g>
		<g>
			<defs>
				<circle id="SVGID_1_" cx="302" cy="300" r="300"/>
			</defs>
			<clipPath id="SVGID_00000007422756861948231250000007397450273425205420_">
				<use xlink:href="#SVGID_1_"  style="overflow:visible;"/>
			</clipPath>
			<g style="clip-path:url(#SVGID_00000007422756861948231250000007397450273425205420_);">
				<polygon class="st1" points="0,0 225,150 900,150 900,0 				"/>
				<polygon class="st2" points="450,300 900,300 900,150 225,150 				"/>
				<polygon class="st3" points="225,450 900,450 900,300 450,300 				"/>
				<polygon class="st4" points="0,600 900,600 900,450 225,450 				"/>
				<polygon class="st5" points="225,150 0,0 0,150 0,300 0,450 0,600 225,450 450,300 				"/>
			</g>
		</g>
	</g>
	<path class="st2" d="M85.5,300c0-57.8,40.4-106.2,94.5-118.5c-8.7-2-17.7-3-27-3c-67.1,0-121.5,54.4-121.5,121.5
		S85.9,421.5,153,421.5c9.3,0,18.3-1,27-3C125.9,406.2,85.5,357.8,85.5,300z"/>
	<path id="a" class="st2" d="M158.6,380H175l5-15.5l5.1,15.5h16.3l-13.2,9.6l5.1,15.5l-13.2-9.6l-13.2,9.6l5-15.5L158.6,380z"/>
	<path id="a-2" class="st2" d="M158.6,206.1H175l5-15.6l5.1,15.6h16.3l-13.2,9.6l5.1,15.6l-13.2-9.6l-13.2,9.6l5-15.6L158.6,206.1
		L158.6,206.1z"/>
	<path id="a-3" class="st2" d="M158.6,264.1H175l5-15.6l5.1,15.6h16.3l-13.2,9.6l5.1,15.5l-13.2-9.6l-13.2,9.6l5-15.5L158.6,264.1
		L158.6,264.1z"/>
	<path id="a-4" class="st2" d="M158.6,322H175l5-15.5l5.1,15.5h16.3l-13.2,9.6l5.1,15.5l-13.2-9.6l-13.2,9.6l5-15.5L158.6,322z"/>
</g>
</svg>
