<?xml version="1.0" encoding="utf-8"?>
<!-- Generator: Adobe Illustrator 26.3.1, SVG Export Plug-In . SVG Version: 6.00 Build 0)  -->
<svg version="1.1" id="Layer_1" xmlns="http://www.w3.org/2000/svg" xmlns:xlink="http://www.w3.org/1999/xlink" x="0px" y="0px"
	 viewBox="0 0 600 600" style="enable-background:new 0 0 600 600;" xml:space="preserve">
<style type="text/css">
	.st0{clip-path:url(#SVGID_00000021815166672555977060000012398220689732438160_);}
	.st1{fill:#FFFFFF;}
	.st2{fill:#CE1126;}
	.st3{clip-path:url(#SVGID_00000171700975538419555210000009368860871705662859_);}
	.st4{fill:#C09300;}
	.st5{clip-path:url(#SVGID_00000177467329001608818370000000910115099359560601_);}
	.st6{clip-path:url(#SVGID_00000080927911677997792710000016098777236958536633_);}
	.st7{clip-path:url(#SVGID_00000045620887425438807410000002713432502622621882_);}
	.st8{clip-path:url(#SVGID_00000119119005671654489160000004451094077611614894_);}
	.st9{clip-path:url(#SVGID_00000080198579778949844030000003447780212531547288_);}
	.st10{clip-path:url(#SVGID_00000033356496278466534530000004181374168583111585_);}
	.st11{clip-path:url(#SVGID_00000014629013155269506200000007101446979614236604_);}
	.st12{clip-path:url(#SVGID_00000115513983470583595130000008857257503525818755_);}
	.st13{clip-path:url(#SVGID_00000080903252681587190360000010887740496080289669_);}
	.st14{clip-path:url(#SVGID_00000030466965665708633550000001032015550034978958_);}
	.st15{clip-path:url(#SVGID_00000174593414837640100620000004482307291556426407_);}
	.st16{clip-path:url(#SVGID_00000123399815677359307470000003014622611703779256_);}
	.st17{clip-path:url(#SVGID_00000072238406199906969760000016274599604606245781_);}
	.st18{clip-path:url(#SVGID_00000105422329974962248750000013389443441340977566_);}
	.st19{clip-path:url(#SVGID_00000116931698268784849280000008631862551706826167_);}
	.st20{clip-path:url(#SVGID_00000106143245894315686600000002358704090159354758_);}
	.st21{clip-path:url(#SVGID_00000152967188040402887930000003857620096623581098_);}
	.st22{clip-path:url(#SVGID_00000076589426968489204480000016898796641212035738_);}
	.st23{clip-path:url(#SVGID_00000010999516149435790000000001005001773426112647_);}
	.st24{fill:none;}
</style>
<g id="Layer_1_00000023966649084069618530000007861835954941584516_">
</g>
<g>
	<g>
		<defs>
			<circle id="SVGID_1_" cx="300" cy="300" r="297.1"/>
		</defs>
		<clipPath id="SVGID_00000134939807313462569990000006381230683805380512_">
			<use xlink:href="#SVGID_1_"  style="overflow:visible;"/>
		</clipPath>
		<g style="clip-path:url(#SVGID_00000134939807313462569990000006381230683805380512_);">
			<g>
				<rect x="-148.6" y="406.4" width="900" height="193.6"/>
			</g>
			<g>
				<rect x="-148.6" y="192.7" class="st1" width="900" height="213.6"/>
			</g>
			<g>
				<polygon class="st2" points="-148.6,-7.3 -148.6,6.4 -148.6,192.7 751.4,192.7 751.4,6.4 751.4,-7.3 				"/>
			</g>
		</g>
	</g>
	<g>
		<defs>
			<circle id="SVGID_00000136369533314323947250000007492035552093949368_" cx="300" cy="300" r="297.1"/>
		</defs>
		<clipPath id="SVGID_00000039122689595486429540000006841882292208915114_">
			<use xlink:href="#SVGID_00000136369533314323947250000007492035552093949368_"  style="overflow:visible;"/>
		</clipPath>
		<g style="clip-path:url(#SVGID_00000039122689595486429540000006841882292208915114_);">
			<path class="st1" d="M302.2,295.1l68.5,63.6l-4.9-115.5c-0.7-17.5-15.9-13.5-27-7.2c-11.2,7.2-24,7.2-37.5,2.4
				c-13.5,4.7-26.2,4.7-37.4-2.4c-11-6.3-26.2-10.3-27,7.2l-4.8,115.5L302.2,295.1z"/>
			<path class="st4" d="M232.1,359.3c-0.1,0-0.2,0-0.3-0.1c-0.2-0.1-0.4-0.3-0.4-0.6l4.8-115.5c0.3-5.9,2.2-9.9,5.7-11.8
				c6.9-3.8,17.9,1.6,22.3,4.1c10.3,6.6,22.7,7.4,36.9,2.4c0.1,0,0.3,0,0.4,0c14.2,5,26.6,4.2,36.9-2.4c4.4-2.5,15.5-8,22.4-4.2
				c3.5,1.9,5.4,5.9,5.6,11.8l4.9,115.5c0,0.3-0.1,0.5-0.4,0.6c-0.2,0.1-0.5,0.1-0.7-0.1l-68-63l-69.7,63.2
				C232.4,359.3,232.2,359.3,232.1,359.3z M247.6,231.3c-1.8,0-3.6,0.3-5.1,1.2c-3.1,1.7-4.8,5.3-5,10.8l-4.8,114l69-62.6
				c0.2-0.2,0.6-0.2,0.9,0l67.4,62.5l-4.8-113.9c-0.2-5.4-1.9-9.1-5-10.8c-6.3-3.5-16.8,1.7-21.1,4.1c-10.5,6.7-23.2,7.6-37.8,2.6
				c-14.5,5-27.2,4.2-37.8-2.6C260.4,234.8,253.5,231.3,247.6,231.3z"/>
		</g>
	</g>
	<g>
		<g id="a">
			<path class="st4" d="M244.8,239.2l-4.7,112.3l-8,7.2l4.8-115.5C239.2,241.6,243.2,239.2,244.8,239.2L244.8,239.2z M254.4,247.2
				l-4,94l-8,8.2l4.9-108.5C248.9,242.5,253.6,246.4,254.4,247.2L254.4,247.2z M263.2,254.4l-3.2,78.4l-6.4,6.3l4-89.4
				C259.2,251.2,262.3,253.5,263.2,254.4L263.2,254.4z M272.7,258.4l-3.2,66.8l-6.3,5.1l3.2-74.3
				C267.9,256.7,271.1,258.4,272.7,258.4L272.7,258.4z M281.4,258.4l-2.3,55.7l-6.5,6.3l2.4-61.2
				C276.7,259.1,280.7,259.1,281.4,258.4z"/>
		</g>
	</g>
	<g>
		<defs>
			<circle id="SVGID_00000144329618106332071260000018130724554474199184_" cx="300" cy="300" r="297.1"/>
		</defs>
		<clipPath id="SVGID_00000119106584592444175120000003891530097410872241_">
			<use xlink:href="#SVGID_00000144329618106332071260000018130724554474199184_"  style="overflow:visible;"/>
		</clipPath>
		<g id="a-2" style="clip-path:url(#SVGID_00000119106584592444175120000003891530097410872241_);">
			<path class="st4" d="M357.9,239.2l4.7,112.3l8,7.2l-4.9-115.5C363.4,241.6,359.4,239.2,357.9,239.2L357.9,239.2z M348.3,247.2
				l4,94l8,8.2l-4.9-108.5C353.8,242.5,349.1,246.4,348.3,247.2L348.3,247.2z M339.5,254.4l3.1,78.4l6.5,6.3l-4-89.4
				C343.6,251.2,340.4,253.5,339.5,254.4L339.5,254.4z M330.1,258.4l3.1,66.8l6.3,5.1l-3.2-74.3
				C334.8,256.7,331.6,258.4,330.1,258.4L330.1,258.4z M321.3,258.4l2.3,55.7l6.5,6.3l-2.4-61.2C326,259.1,322,259.1,321.3,258.4z"
				/>
		</g>
	</g>
	<g>
		<defs>
			<circle id="SVGID_00000180336207545353139590000002477980636045709194_" cx="300" cy="300" r="297.1"/>
		</defs>
		<clipPath id="SVGID_00000008122469428593083220000013227276077485417114_">
			<use xlink:href="#SVGID_00000180336207545353139590000002477980636045709194_"  style="overflow:visible;"/>
		</clipPath>
		<g style="clip-path:url(#SVGID_00000008122469428593083220000013227276077485417114_);">
			<path class="st4" d="M304.5,307.8l9.6,43.8l-3.2,3.2l-3.3-2.4l-5.5-39l2.3,39l-3.2,4l-3.1-4l2.3-39l-5.5,39l-3.3,2.4l-3.2-3.1
				l9.6-43.8L304.5,307.8z"/>
			<path class="st4" d="M301.4,357.1l-3.7-4.7l1.5-25.9l-3.6,26l-3.9,2.8l-3.7-3.7l9.8-44.5h7.2l9.8,44.5l-3.7,3.7l-3.8-2.8l-3.6-26
				l1.5,25.9L301.4,357.1z M298.7,352.1l2.6,3.3l2.6-3.3l-2.3-38.8l1.1-0.1l5.4,38.8l2.7,2l2.6-2.6l-9.5-43.1h-5.4l-9.5,43.1
				l2.6,2.6l2.7-2l5.4-38.8l1.1,0.1L298.7,352.1z"/>
		</g>
	</g>
	<g>
		<defs>
			<circle id="SVGID_00000160183429396665202200000008609924038198642617_" cx="300" cy="300" r="297.1"/>
		</defs>
		<clipPath id="SVGID_00000042724256775505290900000017691447164006581425_">
			<use xlink:href="#SVGID_00000160183429396665202200000008609924038198642617_"  style="overflow:visible;"/>
		</clipPath>
		<g id="b" style="clip-path:url(#SVGID_00000042724256775505290900000017691447164006581425_);">
			<g>
				<path class="st1" d="M279.8,288.5l-19.1,67.7l26.2,4l11.2-50.9L279.8,288.5L279.8,288.5z"/>
				<path class="st4" d="M287,360.8C287,360.8,286.9,360.8,287,360.8l-26.3-4c-0.2,0-0.3-0.1-0.4-0.3c-0.1-0.1-0.1-0.3-0.1-0.5
					l19.1-67.7c0-0.2,0.2-0.4,0.4-0.5c0.2-0.1,0.5,0,0.7,0.2l18.4,20.8c0.1,0.1,0.2,0.3,0.1,0.5l-11.2,50.9
					C287.5,360.7,287.3,360.8,287,360.8z M261.5,355.8l25,3.8l11-50.1l-17.4-19.8L261.5,355.8z"/>
			</g>
			<g>
				<path class="st4" d="M275.8,317.9h-0.1c-0.2,0-0.4-0.2-0.5-0.4l-2.3-5.6l1.2-0.5l1.9,4.7l11.7-11.2l0.9,0.9l-12.4,11.8
					C276.1,317.8,276,317.9,275.8,317.9z"/>
			</g>
			<g>
				<path class="st4" d="M288.8,351.6l-2.5-11.7l-5.1,8c-0.1,0.2-0.4,0.3-0.6,0.3s-0.4-0.2-0.5-0.4l-2.7-8.3l-5,8.3
					c-0.1,0.2-0.4,0.3-0.6,0.3c-0.3,0-0.5-0.2-0.5-0.5l-4.2-15.2c-0.1-0.2,0-0.4,0.2-0.6l8.2-8.4c0.2-0.2,0.4-0.2,0.6-0.2
					c0.2,0.1,0.4,0.2,0.5,0.4l2.2,7.9l5.1-6.9c0.2-0.2,0.4-0.3,0.7-0.2c0.2,0.1,0.4,0.3,0.5,0.5l2.2,11.9l5.5-8.3l-3.3-11.3l-4,5.2
					c-0.2,0.2-0.4,0.3-0.7,0.2c-0.2-0.1-0.4-0.3-0.5-0.5l-2.6-24.3l1.3-0.1l2.4,22.8l6.9-9.1l1,0.8l-2.9,3.8l3.2,11.1l1.5-2.3
					l1.1,0.7l-2.1,3.2l0.5,1.7l-1.2,0.4l-0.2-0.7l-5.6,8.5l2.7,12.9L288.8,351.6z M277.5,337.3C277.6,337.3,277.6,337.3,277.5,337.3
					c0.3,0,0.5,0.2,0.6,0.4l2.7,8.3l5.1-7.9l-2.1-11.7l-5,6.7c-0.1,0.2-0.4,0.3-0.6,0.2c-0.2,0-0.4-0.2-0.5-0.5l-2.3-8l-7.1,7.3
					l3.7,13.5l5-8.2C277.1,337.4,277.3,337.3,277.5,337.3z"/>
			</g>
			<g>
				<path class="st4" d="M282.4,360.5l-2.7-8.3l-4,6.8c-0.1,0.2-0.4,0.3-0.6,0.3s-0.5-0.2-0.5-0.4l-3.1-10.2l-4.5,6.4l-1-0.7
					l5.3-7.4c0.1-0.2,0.4-0.3,0.6-0.3s0.4,0.2,0.5,0.4l3,10.1l4-6.8c0.1-0.2,0.4-0.3,0.6-0.3s0.5,0.2,0.5,0.4l3.1,9.6L282.4,360.5z"
					/>
			</g>
		</g>
	</g>
	<g>
		<defs>
			<circle id="SVGID_00000165216645112772472660000004025154361622877345_" cx="300" cy="300" r="297.1"/>
		</defs>
		<clipPath id="SVGID_00000085228256019154752210000005575976737488991642_">
			<use xlink:href="#SVGID_00000165216645112772472660000004025154361622877345_"  style="overflow:visible;"/>
		</clipPath>
		<g id="b-2" style="clip-path:url(#SVGID_00000085228256019154752210000005575976737488991642_);">
			<g>
				<path class="st1" d="M322.9,288.5l19.1,67.7l-26.3,4l-11.2-50.9L322.9,288.5z"/>
				<path class="st4" d="M315.7,360.8c-0.3,0-0.5-0.2-0.6-0.5L304,309.5c0-0.2,0-0.4,0.1-0.5l18.4-20.8c0.1-0.2,0.4-0.2,0.6-0.2
					s0.4,0.2,0.4,0.4l19.1,67.7c0,0.2,0,0.3-0.1,0.5c-0.1,0.1-0.2,0.2-0.4,0.3L315.7,360.8C315.8,360.8,315.7,360.8,315.7,360.8z
					 M305.2,309.5l11,50.1l25-3.8l-18.6-66L305.2,309.5z"/>
			</g>
			<g>
				<path class="st4" d="M326.9,317.9c-0.2,0-0.3-0.1-0.4-0.2L314,305.9l0.9-0.9l11.7,11.2l1.9-4.7l1.2,0.5l-2.3,5.6
					c-0.1,0.2-0.2,0.3-0.5,0.4C327,317.9,326.9,317.9,326.9,317.9z"/>
			</g>
			<g>
				<path class="st4" d="M313.9,351.6l-1.2-0.3l2.7-12.9l-5.6-8.5l-0.2,0.7l-1.2-0.4l0.5-1.7l-2.1-3.2l1.1-0.7l1.5,2.3l3.2-11.1
					l-2.9-3.8l1-0.8l6.9,9.1l2.4-22.8l1.3,0.1l-2.6,24.3c0,0.3-0.2,0.5-0.5,0.5s-0.5,0-0.7-0.2l-4-5.2l-3.3,11.3l5.5,8.3l2.2-11.9
					c0-0.2,0.2-0.4,0.5-0.5c0.2-0.1,0.5,0,0.7,0.2l5.1,6.9l2.2-7.9c0.1-0.2,0.2-0.4,0.5-0.4c0.2-0.1,0.5,0,0.6,0.2l8.2,8.4
					c0.2,0.2,0.2,0.4,0.2,0.6l-4.2,15.2c-0.1,0.2-0.3,0.4-0.5,0.5c-0.2,0-0.5-0.1-0.6-0.3l-5-8.3l-2.7,8.3c-0.1,0.2-0.3,0.4-0.5,0.4
					s-0.5-0.1-0.6-0.3l-5.1-7.9L313.9,351.6z M316.7,338.1l5.1,7.9l2.7-8.3c0.1-0.2,0.3-0.4,0.5-0.4c0.3,0,0.5,0.1,0.6,0.3l5,8.2
					l3.7-13.5l-7.1-7.3l-2.3,8c-0.1,0.2-0.3,0.4-0.5,0.5c-0.2,0-0.5-0.1-0.6-0.2l-5-6.7L316.7,338.1z"/>
			</g>
			<g>
				<path class="st4" d="M320.3,360.5l-1.2-0.4l3.2-9.6c0.1-0.2,0.3-0.4,0.5-0.4s0.5,0.1,0.6,0.3l4,6.8l3-10.1
					c0.1-0.2,0.3-0.4,0.5-0.4s0.5,0.1,0.6,0.3l5.3,7.4l-1,0.7l-4.5-6.4l-3.1,10.2c-0.1,0.2-0.3,0.4-0.5,0.4s-0.5-0.1-0.6-0.3l-4-6.8
					L320.3,360.5z"/>
			</g>
		</g>
	</g>
	<g>
		<defs>
			<circle id="SVGID_00000026876647382995298990000010348512096555765927_" cx="300" cy="300" r="297.1"/>
		</defs>
		<clipPath id="SVGID_00000095337003377703140380000011838741013895797426_">
			<use xlink:href="#SVGID_00000026876647382995298990000010348512096555765927_"  style="overflow:visible;"/>
		</clipPath>
		<g style="clip-path:url(#SVGID_00000095337003377703140380000011838741013895797426_);">
			<path class="st1" d="M301.4,386.5c19.9,0,39-1.6,50.2-4.7c4.7-0.9,4.7-3.3,4.7-6.5c4.7-1.6,2.3-7.2,5.6-7.2c-3.3,0.9-4-5.6-8-4.7
				c0-5.6-5.6-6.3-10.3-4.7c-9.5,3.2-26.3,3.9-42.2,3.9c-15.9-0.7-32.6-0.7-42.2-3.9c-4.7-1.6-10.3-0.9-10.3,4.7
				c-4-0.9-4.7,5.6-8,4.7c3.3,0,0.9,5.6,5.6,7.2c0,3.2,0,5.6,4.9,6.5C262.4,384.9,281.5,386.5,301.4,386.5L301.4,386.5z"/>
			<path class="st4" d="M301.4,387.7L301.4,387.7L301.4,387.7c-21.4,0-39.7-1.7-50.3-4.8c-5.3-1-5.8-3.9-5.8-6.8
				c-2.5-1.2-3-3.5-3.4-5c-0.3-1.1-0.4-1.5-0.6-1.7c-0.2,0-0.4-0.1-0.7-0.1c-0.6-0.2-1-0.7-0.9-1.3c0.1-0.6,0.6-1,1.2-1
				c0.3,0,0.5,0,0.7,0.1c0.6-0.1,1.1-0.7,1.9-1.8c1-1.3,2.2-2.9,4.2-3.1c0.3-2.1,1.4-3.4,2.4-4c2.2-1.6,5.7-1.8,9.4-0.6
				c7.7,2.5,20.1,3,33.3,3.5c2.9,0.1,5.7,0.2,8.6,0.3c20.4,0,34-1.3,41.7-3.8c3.7-1.2,7.2-1,9.4,0.6c0.9,0.7,2,1.9,2.4,4
				c2,0.2,3.3,1.8,4.2,3.1c0.9,1.1,1.4,1.7,1.9,1.8c0.2,0,0.5-0.1,0.7-0.1c0.6,0,1.1,0.4,1.2,1s-0.3,1.2-0.9,1.3
				c-0.2,0.1-0.5,0.1-0.7,0.1c-0.2,0.1-0.4,0.5-0.6,1.7c-0.4,1.6-0.9,3.8-3.4,5c0,3-0.5,5.9-5.7,6.8
				C341.1,386,322.7,387.7,301.4,387.7L301.4,387.7z M243.6,368.7c0.3,0.6,0.5,1.3,0.6,1.9c0.4,1.6,0.7,3,2.6,3.7
				c0.5,0.2,0.8,0.6,0.8,1.1c0,3.2,0,4.6,3.9,5.3h0.1c10.4,3,28.5,4.7,49.7,4.7c21.1,0,39.3-1.7,49.9-4.7h0.1
				c3.8-0.7,3.8-2.1,3.8-5.3c0-0.5,0.3-1,0.8-1.1c1.9-0.6,2.2-2,2.6-3.7c0.1-0.6,0.3-1.3,0.6-1.9c-0.7-0.5-1.3-1.3-1.8-2
				c-1.3-1.6-2-2.4-3.2-2.1c-0.4,0.1-0.7,0-1-0.2s-0.4-0.6-0.4-0.9c0-1.5-0.5-2.7-1.5-3.4c-1.6-1.1-4.4-1.2-7.3-0.2
				c-7.9,2.7-21.9,3.9-42.6,3.9c-2.9-0.1-5.8-0.2-8.6-0.3c-13.3-0.5-25.9-1-33.9-3.6c-2.9-1-5.7-0.9-7.3,0.2c-1,0.7-1.5,1.8-1.5,3.4
				c0,0.4-0.2,0.7-0.4,0.9c-0.3,0.2-0.6,0.3-1,0.2c-1.2-0.3-2,0.5-3.2,2.1C244.9,367.4,244.3,368.1,243.6,368.7z"/>
		</g>
	</g>
	<g>
		<defs>
			<circle id="SVGID_00000183237748897094589890000012601524851410825650_" cx="300" cy="300" r="297.1"/>
		</defs>
		<clipPath id="SVGID_00000048502627223144856760000009477330905576733852_">
			<use xlink:href="#SVGID_00000183237748897094589890000012601524851410825650_"  style="overflow:visible;"/>
		</clipPath>
		<g style="clip-path:url(#SVGID_00000048502627223144856760000009477330905576733852_);">
			<path class="st1" d="M274.2,356.2c6.5,0.9,13.6,1.6,19.2,0.9c3.2,0,5.5,5.5-0.9,6.3c-5.6,0.7-14.3,0-19.1-0.9
				c-4-0.7-12.8-2.3-18.4-3.9c-5.6-2.4-1.6-7.2,1.6-6.5C262.5,354.1,268.3,355.4,274.2,356.2L274.2,356.2z M328.5,356.2
				c-6.5,0.9-13.6,1.6-19.1,0.9c-3.3,0-5.6,5.5,0.7,6.3c5.6,0.7,14.3,0,19.1-0.9c4-0.7,12.8-2.3,18.4-3.9c5.6-2.4,1.6-7.2-1.6-6.5
				C340.3,354.1,334.4,355.4,328.5,356.2L328.5,356.2z"/>
			<path class="st4" d="M315.5,364.3c-2,0-3.8-0.1-5.5-0.3c-4.4-0.6-4.6-3.2-4.5-4c0.1-2,1.9-3.6,3.9-3.6c5.6,0.7,13-0.1,18.9-0.8
				h0.1c5.9-0.8,11.7-2.2,17.4-4c2.1-0.5,4.4,0.9,5,2.8c0.2,0.7,0.7,3.2-3,4.8c-5.9,1.7-15.4,3.4-18.5,3.9
				C326.1,363.8,320.6,364.3,315.5,364.3z M309.3,357.7c-1.4,0-2.5,1.3-2.5,2.4c-0.1,1.4,1.2,2.3,3.4,2.6c5.8,0.7,14.5-0.1,18.9-0.9
				c3.1-0.5,12.5-2.2,18.3-3.9c1.8-0.8,2.6-1.9,2.2-3.2c-0.4-1.3-2.1-2.3-3.5-2c-5.6,1.8-11.5,3.2-17.4,4h-0.1
				C322.6,357.7,315,358.5,309.3,357.7z M328.5,356.2L328.5,356.2L328.5,356.2z M287.2,364.3c-5.1,0-10.6-0.6-13.8-1.2
				c-3.1-0.6-12.6-2.2-18.4-3.9c-3.8-1.7-3.3-4.1-3.1-4.8c0.7-2,3-3.3,5-2.9c5.7,1.8,11.6,3.2,17.4,4h0.1c5.9,0.8,13.3,1.6,18.9,0.8
				l0,0c2,0,3.7,1.6,3.8,3.6c0.1,0.8-0.1,3.4-4.5,4C291,364.3,289.1,364.3,287.2,364.3z M256.1,352.8c-1.2,0-2.6,0.9-3,2.1
				s0.4,2.4,2.3,3.2c5.7,1.6,15.1,3.3,18.2,3.8c4.4,0.8,13.1,1.6,18.9,0.9c2.3-0.3,3.5-1.3,3.4-2.7c-0.1-1.2-1.3-2.4-2.5-2.4
				c-5.8,0.7-13.3-0.1-19.3-0.9H274c-5.9-0.8-11.8-2.2-17.5-4C256.4,352.8,256.2,352.8,256.1,352.8z"/>
		</g>
	</g>
	<g>
		<defs>
			<circle id="SVGID_00000094615804905984954960000015201444955189495470_" cx="300" cy="300" r="297.1"/>
		</defs>
		<clipPath id="SVGID_00000017518202137976873280000007258861027188134807_">
			<use xlink:href="#SVGID_00000094615804905984954960000015201444955189495470_"  style="overflow:visible;"/>
		</clipPath>
		<g style="clip-path:url(#SVGID_00000017518202137976873280000007258861027188134807_);">
			<path class="st1" d="M254.4,353.1c-4.9-0.9-7.2,4.7-5.6,7.9c0.7-1.6,4-1.6,4.7-3.2C254.4,355.4,252.9,355.4,254.4,353.1z
				 M273.5,367.8c0-3.1,3.1-2.8,3.1-5.9c0-1.6-0.9-4-2.4-4c-1.7,0.1-3,1.5-3.2,3.2C270.4,364.1,273.5,364.6,273.5,367.8L273.5,367.8
				z M296.2,358.7c4.7,0,4.3,6.3,2,9.5c0-2.3-4-3.1-4-4.7C294.2,361,297.8,361,296.2,358.7z M348.2,353.1c4.9-0.9,7.2,4.7,5.6,7.9
				c-0.7-1.6-4-1.6-4.7-3.2C348.2,355.4,349.8,355.4,348.2,353.1z M329.2,367.8c0-3.1-3.1-2.8-3.1-5.9c0-1.6,0.9-4,2.4-4
				c1.7,0.1,3,1.5,3.2,3.2C332.3,364.2,329.2,364.7,329.2,367.8L329.2,367.8z M306.5,358.7c-4.7,0-4.3,6.3-2,9.5c0-2.3,4-3.1,4-4.7
				C308.5,361,304.8,361,306.5,358.7L306.5,358.7z"/>
			<path class="st4" d="M304.5,368.8c-0.2,0-0.4-0.1-0.5-0.3c-1.5-2.1-2.4-5.9-1.2-8.4c0.5-1,1.5-2.1,3.6-2.1l0,0
				c0.3,0,0.7,0.3,0.7,0.6c0,0.2-0.1,0.4-0.3,0.5c-0.4,0.6-0.2,0.8,0.6,1.5c0.7,0.6,1.6,1.3,1.6,2.7c0,1-1,1.7-2,2.4
				c-1,0.7-2,1.4-2,2.3c0,0.3-0.2,0.5-0.4,0.6C304.6,368.8,304.5,368.8,304.5,368.8z M305.4,359.5c-0.7,0.2-1.2,0.6-1.5,1.3
				c-0.8,1.6-0.5,4,0.4,5.9c0.5-0.8,1.3-1.3,2.1-1.8c0.7-0.5,1.4-1,1.4-1.4c0-0.7-0.4-1.2-1.2-1.8
				C306.1,361.2,305.3,360.5,305.4,359.5z M298.2,368.8c-0.1,0-0.1,0-0.2,0c-0.3-0.1-0.4-0.3-0.4-0.6c0-0.9-1-1.6-2-2.3
				c-1-0.7-2-1.4-2-2.4c0-1.4,0.9-2.2,1.6-2.8c0.8-0.7,1-0.9,0.5-1.6c-0.1-0.2-0.1-0.4,0-0.7c0.1-0.2,0.3-0.3,0.6-0.3
				c2.2,0,3.2,1.2,3.7,2.1c1.2,2.4,0.4,6.2-1.2,8.4C298.6,368.7,298.4,368.8,298.2,368.8z M298.9,368.2L298.9,368.2L298.9,368.2z
				 M297.2,359.5c0.2,1-0.6,1.7-1.2,2.2c-0.7,0.6-1.2,1-1.1,1.8c0,0.4,0.8,0.9,1.4,1.4c0.7,0.5,1.6,1.1,2.1,1.8
				c0.9-1.9,1.2-4.3,0.4-5.9C298.5,360.1,297.9,359.7,297.2,359.5z M329.2,368.4c-0.4,0-0.6-0.3-0.6-0.6l0,0c0-1.3-0.6-1.8-1.4-2.5
				s-1.8-1.6-1.8-3.4c0-1.9,1.1-4.6,3.1-4.6c2,0.1,3.7,1.8,3.8,3.8c0.4,1.9-0.4,3-1.2,4c-0.6,0.8-1.2,1.6-1.2,2.8
				C329.8,368.2,329.5,368.4,329.2,368.4z M328.4,358.5c-1,0-1.8,2-1.8,3.4c0,1.3,0.6,1.8,1.4,2.5c0.4,0.3,0.8,0.7,1.1,1.2
				c0.3-0.5,0.6-0.9,0.9-1.3c0.7-0.9,1.3-1.6,1-3C330.9,359.7,329.8,358.6,328.4,358.5z M273.5,368.4c-0.4,0-0.6-0.3-0.6-0.6
				c0-1.3-0.6-2-1.2-2.8c-0.8-1-1.7-2.1-1.2-4.1c0.1-1.9,1.7-3.5,3.7-3.7l0,0c2,0,3.1,2.7,3.1,4.6s-1,2.7-1.8,3.4
				c-0.8,0.7-1.4,1.2-1.4,2.5C274.2,368.1,273.9,368.4,273.5,368.4z M274.2,358.5c-1.3,0.1-2.4,1.2-2.5,2.6c-0.3,1.5,0.2,2.2,1,3.1
				c0.3,0.4,0.6,0.8,0.9,1.3c0.3-0.5,0.7-0.8,1.1-1.1c0.8-0.7,1.4-1.2,1.4-2.5C276,360.5,275.3,358.5,274.2,358.5z M353.8,361.6
				L353.8,361.6c-0.3,0-0.5-0.2-0.6-0.4c-0.2-0.6-1.1-0.9-2-1.3c-1.1-0.4-2.2-0.9-2.7-1.9c-0.5-1.3-0.3-2-0.2-2.6
				c0.1-0.6,0.2-1-0.6-2c-0.1-0.2-0.1-0.4-0.1-0.6c0.1-0.2,0.3-0.3,0.5-0.4c2.2-0.4,4.2,0.4,5.5,2.1c1.5,1.9,1.8,4.7,0.8,6.7
				C354.3,361.5,354.1,361.6,353.8,361.6z M349.3,353.7c0.4,0.8,0.3,1.4,0.2,2.1c-0.1,0.5-0.2,1,0.2,1.9c0.2,0.5,1.1,0.9,2,1.2
				c0.7,0.3,1.4,0.5,1.9,0.9c0.3-1.4-0.1-3.1-1-4.4C352.1,354.7,351,353.7,349.3,353.7z M248.9,361.6c-0.2,0-0.5-0.1-0.6-0.4
				c-1-2-0.7-4.7,0.8-6.7c1.3-1.7,3.3-2.5,5.5-2.1c0.2,0,0.4,0.2,0.5,0.4s0.1,0.4-0.1,0.6c-0.7,1.1-0.7,1.5-0.6,2
				c0.1,0.6,0.2,1.3-0.2,2.5c-0.5,1.1-1.6,1.5-2.7,2c-0.9,0.3-1.8,0.7-2,1.3C249.3,361.5,249.1,361.6,248.9,361.6L248.9,361.6z
				 M253.4,353.6c-1.7,0-2.8,1.1-3.3,1.7c-0.9,1.3-1.3,3-1,4.4c0.5-0.4,1.2-0.7,1.9-0.9c0.9-0.3,1.8-0.7,2-1.3
				c0.3-0.9,0.2-1.3,0.1-1.8C253,355,253,354.5,253.4,353.6z"/>
		</g>
	</g>
	<g>
		<defs>
			<circle id="SVGID_00000022555013826425677760000011601690227717945237_" cx="300" cy="300" r="297.1"/>
		</defs>
		<clipPath id="SVGID_00000106830800889861331230000013120613175309276063_">
			<use xlink:href="#SVGID_00000022555013826425677760000011601690227717945237_"  style="overflow:visible;"/>
		</clipPath>
		<g style="clip-path:url(#SVGID_00000106830800889861331230000013120613175309276063_);">
			<path class="st1" d="M256,354.7c1.6,0,4,0.7,4.7,1.6L256,354.7L256,354.7z M263.9,357.1c1.9,0.2,3.8,0.7,5.6,1.6L263.9,357.1z
				 M292.6,360.3c-1.6,0-4.7,0-5.6,0.7L292.6,360.3z M283.9,360.3c-0.9-0.9-4-0.9-5.6,0H283.9z M346.7,354.7c-1.7,0-3.4,0.6-4.7,1.6
				L346.7,354.7z M338.8,357.1c-1.9,0.2-3.8,0.7-5.6,1.6L338.8,357.1z M310.1,360.3c1.6,0,4.7,0,5.6,0.7L310.1,360.3L310.1,360.3z
				 M318.9,360.3c0.9-0.9,4-0.9,5.6,0H318.9L318.9,360.3z"/>
			<path class="st4" d="M287,361.5c-0.2,0-0.3-0.1-0.4-0.3c-0.1-0.2,0-0.4,0.1-0.5c0.9-0.8,3.5-0.8,5.9-0.8c0.2,0,0.4,0.2,0.4,0.4
				c0,0.2-0.2,0.4-0.4,0.5L287,361.5C287.1,361.5,287,361.5,287,361.5z M315.7,361.5L315.7,361.5l-5.7-0.7c-0.2,0-0.4-0.2-0.4-0.5
				c0-0.2,0.2-0.4,0.4-0.4l0,0c2.4,0,5,0.1,5.9,0.8c0.2,0.1,0.2,0.3,0.1,0.5C316,361.4,315.9,361.5,315.7,361.5z M324.4,360.7h-5.5
				c-0.2,0-0.4-0.1-0.4-0.3c-0.1-0.2,0-0.4,0.1-0.5c1.1-1.1,4.5-1,6.1-0.1c0.2,0.1,0.3,0.3,0.2,0.5S324.6,360.7,324.4,360.7z
				 M283.9,360.7h-5.6c-0.2,0-0.4-0.1-0.4-0.3c0-0.2,0-0.4,0.2-0.5c1.6-0.9,5-1,6.1,0.1c0.1,0.1,0.2,0.3,0.1,0.5
				C284.2,360.6,284,360.7,283.9,360.7z M333.2,359.2c-0.2,0-0.4-0.1-0.4-0.3c-0.1-0.2,0-0.5,0.2-0.6c1.8-0.9,3.8-1.4,5.7-1.6
				c0.2,0,0.4,0.1,0.5,0.4c0,0.2-0.1,0.5-0.3,0.5l-5.6,1.6C333.3,359.2,333.2,359.2,333.2,359.2z M269.5,359.2h-0.1l-5.6-1.6
				c-0.2-0.1-0.4-0.3-0.3-0.5c0-0.2,0.3-0.4,0.5-0.4c2,0.2,3.9,0.8,5.7,1.6c0.2,0.1,0.3,0.3,0.2,0.6
				C269.9,359.1,269.7,359.2,269.5,359.2z M342,356.7c-0.2,0-0.3-0.1-0.4-0.2c-0.1-0.2,0-0.4,0.1-0.6c1.5-1.1,3.2-1.6,5-1.7l0,0
				c0.2,0,0.4,0.2,0.4,0.4c0,0.2-0.1,0.4-0.3,0.5l-4.7,1.6C342,356.7,342,356.7,342,356.7z M260.8,356.7h-0.1l-4.7-1.6
				c-0.2-0.1-0.3-0.3-0.3-0.5s0.2-0.4,0.4-0.4l0,0c1.7,0,4.2,0.7,5.1,1.7c0.1,0.2,0.1,0.4,0,0.5C261,356.7,260.9,356.7,260.8,356.7z
				"/>
		</g>
	</g>
	<g>
		<defs>
			<circle id="SVGID_00000039839467657455065700000005760515496802301885_" cx="300" cy="300" r="297.1"/>
		</defs>
		<clipPath id="SVGID_00000008865929260366037110000003828549597729883834_">
			<use xlink:href="#SVGID_00000039839467657455065700000005760515496802301885_"  style="overflow:visible;"/>
		</clipPath>
		<g style="clip-path:url(#SVGID_00000008865929260366037110000003828549597729883834_);">
			<path class="st4" d="M254.7,367.3c-0.4,0-0.7-0.4-0.7-0.9v-0.1c0.2-0.6,0.6-1,1.1-0.8c0.3,0.1,0.8,0.6,0.8,0.8s-0.3,0.8-0.4,0.8
				c-0.1,0-0.1,0-0.2,0.1C255.2,367.3,254.9,367.4,254.7,367.3L254.7,367.3z M309.6,371.2c-0.3-0.2-0.5-0.4-0.5-0.7
				c0-0.4,0.6-1,0.9-1c0.3,0.1,0.6,0.2,0.8,0.4c0.3,0.3,0.3,0.9-0.1,1.2c0,0,0,0-0.1,0.1C310.4,371.3,310,371.3,309.6,371.2
				L309.6,371.2z M310,373.7c-0.4-0.1-0.6-0.4-0.6-0.8c0-0.5,0-0.6,0.5-0.8l0.4-0.2l0.4,0.1c0.5,0.2,0.7,0.5,0.7,0.8
				c0,0.4-0.3,0.7-0.6,0.9C310.5,373.8,310.2,373.8,310,373.7L310,373.7z"/>
		</g>
	</g>
	<g>
		<defs>
			<circle id="SVGID_00000061431782712377278470000005739910227885877381_" cx="300" cy="300" r="297.1"/>
		</defs>
		<clipPath id="SVGID_00000166674170772385992120000003908942772352670105_">
			<use xlink:href="#SVGID_00000061431782712377278470000005739910227885877381_"  style="overflow:visible;"/>
		</clipPath>
		<g style="clip-path:url(#SVGID_00000166674170772385992120000003908942772352670105_);">
			<path class="st4" d="M259.1,362.8c-0.4,0.1-0.8,0.2-1.1,0.5c-0.6,0.1-1.4,0.5-2,0.1c-0.6-0.2-1.4,0-1.5,0.7
				c0.2,0.6,0.8,0.9,1.4,0.7c0.1,0,0.2-0.1,0.3-0.1c0.4-0.5,1.5-0.9,1.6,0.1c-0.4,0.7-0.4,1.6-0.8,2.4c-0.1,0.5-0.2,0.9-0.5,1.3
				c-0.5,0-0.9,0.1-1.3,0.3c-0.6,0-1.2,0.3-1.6,0.9c-0.4,0.6-0.7,1.2-0.9,1.9c0.1,0.7,0.9,0.9,1.6,1s1.3,0.4,2,0.6
				c1.1,0.2,2.1,0.6,3.2,0.9c1.6,0.5,3.2,0.7,4.8,1.1c0.2,0.1,0.3,0.1,0.5,0.1c0.7,0.1,1-0.6,1.1-1.1c0.3-1.2,0.6-2.3,0.9-3.5
				c0.2-0.5,0.5-1.5-0.4-1.3c-0.5,0.4-1,0.7-1.6,0.8c-0.9,0-0.4,1,0,1.3c0.1,0.6-0.1,1.3-0.5,1.8c-0.5,0.3-1.2-0.1-1.7-0.2
				s-1.7-0.3-1.2-1.1c0.2-0.6,0.2-1.2,0.4-1.8c0.2-0.6,0.4-1.3,0.5-1.9c-0.4-0.8-1,0.2-1.5,0.3c-0.3,0.2-1.6,0.3-0.9,0.9
				c0.6,0.4,0.1,1.2,0,1.8c0,0.8-0.8,1-1.5,0.8s-1.5-0.5-1-1.2c0.1-0.6,0.3-1.1,0.4-1.7s0.4-1.4,0.7-2.1c0.1-0.6,0.3-1.2,0.6-1.8
				c0-0.7,0.5-1.3,0.5-2C259.5,362.9,259.3,362.8,259.1,362.8L259.1,362.8z M255.5,370c0.1,0,0.1,0,0.2,0c0.2,0.1,0.3,0.3,0,0.5
				s-0.2,0.2-0.3,0.2c-0.5,0-0.6-0.1-0.6-0.3s0-0.2,0.3-0.3C255.3,370.1,255.4,370.1,255.5,370z M254.5,375
				c-0.5-0.5-0.4-0.8,0.3-1.4c0.3-0.2,0.5-0.2,0.9,0.1c0.6,0.5,0.6,0.8,0.1,1.2c-0.2,0.2-0.4,0.3-0.6,0.3
				C254.9,375.4,254.6,375.3,254.5,375L254.5,375z M257.5,376c-0.4-0.1-0.7-0.5-0.6-1l0,0c0.1-0.4,0.2-0.5,0.8-0.5
				c0.6,0,0.8,0.1,0.9,0.7c0,0.4,0,0.4-0.2,0.6C258.1,376,257.8,376.1,257.5,376L257.5,376z M346.6,376c-0.2-0.1-0.3-0.3-0.3-0.5
				c0-0.4,0.2-0.7,0.8-1c0.7-0.3,1-0.3,1.2,0.2c0.3,0.6,0.3,0.9-0.1,1.2c-0.2,0.2-0.3,0.2-0.8,0.2S346.9,376.3,346.6,376L346.6,376z
				 M261.6,377.2c-0.4-0.1-0.6-0.4-0.6-0.8c0-0.3,0-0.4,0.3-0.6c0.2-0.1,0.4-0.2,0.6-0.2c0.2-0.1,0.4,0,0.6,0.1
				c0.5,0.4,0.7,0.8,0.4,1.1C262.5,377.2,262,377.4,261.6,377.2L261.6,377.2z M283.5,378.2c-0.1-0.1-0.3-0.2-0.3-0.3
				c0-0.6,0.1-1.1,0.2-1.6c0-0.5,0.1-1.1,0.2-1.6c0.2-0.9,0.2-1.9,0.4-2.8c0-0.5,0.1-1,0.2-1.4c0.1-0.7,0-1.5,0.2-2.2
				c0-0.3,0.3-1,0.6-0.6c0.4,0.6,0.9,1.1,1.4,1.5c0.4,0.2,0,0.6-0.3,0.8c-0.4,0.2-0.6,0.6-0.5,1c-0.1,0.4-0.2,0.8-0.2,1.2
				c-0.1,0.6-0.1,1.2-0.1,1.9c-0.1,0.6-0.2,1.3-0.2,1.9c0,0.4-0.2,0.8-0.2,1.2c0,0.4-0.1,0.9-0.4,1.2
				C284.2,378.5,283.8,378.4,283.5,378.2L283.5,378.2z M313.2,368.4c-0.5,0.4-0.9,0.8-1.3,1.2c-0.6,0.5,0.5,0.7,0.6,1.1
				c0.1,0.6,0.2,1.2,0.2,1.8c0.2,0.6,0.3,1.1,0.2,1.7c-0.1,0.6-0.9,0.5-1.2,0.8s-0.7,0.7-1.1,1c-0.2,0.5-0.3,1.1-0.4,1.6
				c0,0.4-0.3,1,0,1.3l0.1,0.2c0.1,0.1,0.3,0,0.5,0.1c0.5,0,1,0,1.5-0.2c1.2-0.2,2.4-0.3,3.6-0.3c0.8,0,1.5-0.2,2.2-0.2
				c0.6,0.1,0.9-0.5,0.9-1c-0.3-0.7,0-1.4-0.3-2.1c-0.1-0.7-0.2-1.4-0.2-2.1c0-0.3-0.3-0.6-0.6-0.6c-0.2,0-0.3,0.1-0.4,0.2
				c-0.3,0.4-0.9,0.4-1.2,0.9c-0.3,0.6,0.6,0.6,0.8,1.1c0.1,0.5,0.2,1,0.1,1.5c0.1,0.6-0.5,0.6-0.9,0.7s-1.3,0.3-1.6-0.3
				c-0.1-0.5-0.2-1-0.2-1.5c0-0.9-0.2-1.8-0.3-2.6c0-1.1-0.2-2.2-0.3-3.3C313.9,368.9,313.8,368.2,313.2,368.4L313.2,368.4z
				 M312.6,376.6h0.3v0.4v0.4l-0.4,0.1c-0.1,0-0.3,0.1-0.4,0.1l-0.2-0.1c-0.2-0.2-0.2-0.4,0.1-0.7
				C312.1,376.6,312.3,376.6,312.6,376.6L312.6,376.6z M282.6,367.4c-0.4,0.1-0.9,0.7-1.2,0.7c-0.9,0.1-0.8,0.9-0.1,1.2
				c0,0.3,0,0.6,0,0.9c0.1,0.8-0.4,1.4-0.3,2.2s-0.3,1.7-0.3,2.6c-0.2,0.9-0.2,1.8-0.4,2.8s-0.7,0.5-1.2,0.3c0-0.4,0-0.7,0-1.1
				c0.2-0.8-0.4-1.1-1.1-1.2c-0.5,0.1-0.9-0.3-0.9-0.7c0-0.1,0-0.3,0-0.4c0.3-0.4,1-0.3,1.5-0.3c1,0.2,0.9-1.1,0.4-1.6
				c-0.3-0.6-1.2-0.9-1.4-1.6c0-0.9-0.4-1.7-1.2-2.2c-1.1,0.1-2,0.8-2.3,1.8c-0.5,0.1-0.9,0.3-1.4,0.4c-0.7,0.2-1.7,1.4-0.8,1.9
				c0.5,0.1,2.2,0.5,1.5,1.3c-0.4,0.6-1.2,0.8-1.9,0.5c-0.7,0-1.5-0.4-1.5-1.2c-0.1-0.8-0.2-1.5-0.5-2.2c-0.1-0.8-1.1-0.6-1.2,0.1
				c-0.6,0.5-0.7,1.3-0.2,1.9l0.1,0.1c0.2,0.8,0.1,1.6-0.3,2.2c-0.2,0.9-1.1,0.9-1.8,1.2c-0.3,0.1-1.6-0.1-1.2,0.7
				c0.8,0.3,1.6,0.4,2.4,0.3s1.6-0.6,2-1.4c0.5-0.6,1.5-0.3,2.2-0.3s1.6,0.5,2.3,0.2c0.2-0.6,1.2-1.5,1.5-0.5c0,0.7,0.5,1.2,1.2,1.3
				c0.1,0,0.2,0,0.3,0c0.9,0,0.5,0.6,0.5,1.1c0.1,0.8,0.6,1.5,1.4,1.8c0.3,0.1,0.5,0.1,0.8,0c0.8-0.2,1.5-0.6,1.8-1.4
				c0.2-0.7,0.4-1.4,0.5-2.1c0.2-1.1,0.4-2.3,0.4-3.4c0.3-1,0.2-2.1,0.4-3.2c0.1-0.8,0.2-1.6,0.3-2.3
				C283,367.3,282.8,367.2,282.6,367.4L282.6,367.4z M275.8,371.5c0.1,0,0.2,0.2,0.2,0.5s0.2,0.6,0.4,0.7c0.2,0,0.2,0.2,0,0.4
				c-0.2,0.1-0.4,0.2-0.7,0.1c-0.5,0-0.9-0.1-1.2-0.5l-0.2-0.2l0.3-0.2c0.2-0.2,0.4-0.3,0.6-0.5
				C275.5,371.6,275.7,371.5,275.8,371.5L275.8,371.5z M341.8,363.6c-0.6,0-1.1,0.1-1.7,0.2c-1-0.1-1.6,1-0.6,1.6
				c0.6,1.5,1.5-0.3,2.5-0.2c1.4,0.3,1.6,1.8,1.8,3c0.1,1.1,0.4,2.3,0.8,3.4c1,1.1-0.7,1.7-1.4,0.9c-0.6-0.7-1.9-1.5-2.6-0.6
				c-0.9,0.4-0.9,1.6-1.7,1.9c-1.2,0.4-1.4-1.1-2-1.8c-0.6-0.8-1.7-0.9-2.6-1.2c-0.4-0.9-0.2-2.4-1.1-2.9c-0.7,0.3-2.1,1.7-1,2.3
				c1.1,1-0.5,1.4-1,2.1c-0.6,0.9-1,1.9-1,3c-1.2,0.7-1.5-0.8-1.6-1.7c-0.1-1.1-1-0.8-1.7-0.4c-1,0.4-1.4,1.3-2.1,2c0,0.7,0,1.3,0,2
				c0.2,0.8,1.2,0.4,1.8,0.4c1-0.4,1.4,0.6,0.6,1.2c-0.5,0.7-2.2,0.3-2.1,1.4c0.6,0.1,1.1,0.1,1.7,0c1.2-0.2,2.1-1.1,2.4-2.3
				c0.1-1.1,1.7-0.9,2.5-1.1c1-0.3,2.3-0.4,2.5,0.9c0.7,0.8,2.2,1.6,3,0.6c0.8-0.5,1.2-1.3,1.1-2.2c-0.2-0.8,1.3-0.8,1.6-0.4
				c0.5,0.9,2.1,0.6,2.9,0.1s1-1.7,2.2-1.7c1.8-0.5,3.6-0.8,5.4-1.5c1.4-0.3-0.2-1.2-0.6-1.7c-1.1-0.5-2,1.6-3.2,0.6
				c-0.9-0.7-0.9-2.1-1.2-3.1c-0.2-1.4-0.2-2.9-1.2-4c-0.7-0.7-1.6-1-2.5-0.9L341.8,363.6z M335,373.1c0.2,0,0.4,0.1,0.5,0.2
				c0.4,0.2,0.7,0.6,0.8,1c0,0.2-0.1,0.2-0.4,0.4c-0.2,0.1-0.3,0.1-0.5,0.2c-0.2,0-0.6-0.4-0.6-0.5c0-0.2-0.1-0.3-0.1-0.5
				c-0.1-0.3-0.1-0.3,0.1-0.5S334.8,373.2,335,373.1L335,373.1z M341.5,373.5c0.3-0.1,0.6,0.1,0.8,0.4c0.2,0.3,0.1,0.6-0.4,0.8
				c-0.1,0.1-0.3,0.1-0.4,0.2c-0.1-0.1-0.3-0.1-0.4-0.2c-0.3-0.2-0.3-0.3-0.3-0.5S341.1,373.5,341.5,373.5z M332.6,373.6
				c0.1,0,0.2,0,0.3,0.2c0.2,0.1,0.3,0.4,0.3,0.6s0,0.4,0,0.6s-0.1,0.2-0.6,0.2s-0.7-0.1-0.7-0.6c0-0.4,0-0.5,0.2-0.7
				S332.4,373.6,332.6,373.6z M327.1,375c0.2,0,0.4,0.2,0.4,0.4c0.1,0.3,0,0.5-0.2,0.6c-0.3,0.1-0.6,0.1-0.9,0.1
				c-0.1,0-0.1-0.1-0.2-0.2s-0.1-0.2,0-0.2s0.1-0.1,0.1-0.1c0-0.1,0.1-0.2,0.2-0.3C326.6,375,326.8,374.9,327.1,375L327.1,375z
				 M336.3,376.2c0.2,0,0.3,0.1,0.4,0.2c0.2,0.1,0.2,0.3,0.1,0.5l-0.1,0.1c-0.4,0.1-0.8,0.1-1.1,0c-0.1,0-0.2-0.1-0.1-0.2
				c0-0.1,0-0.2,0.3-0.3C335.9,376.2,336.1,376.2,336.3,376.2L336.3,376.2z M319.1,381c-0.1-0.1-0.2-0.1-0.1-0.2
				c0.2-0.3,0.5-0.4,0.8-0.5c0.5-0.2,1-0.6,1.4-1.1c0-0.3,0.4-0.5,0.4-0.9c0-0.5,0-1-0.1-1.4s-0.4-0.8-0.8-1
				c-0.2-0.2-0.7-0.3-0.8-0.6s0.3-0.6,0.4-0.9s0.4-0.9,0.6-1.3s0.7,0,0.8,0.3c0.2,0.3,0.4,0.6,0.5,0.9c0.3,0.3,0.6,0.7,0.7,1.2
				c0.2,0.3,0.3,0.6,0.4,1c0,0.4,0.2,0.8,0.2,1.2c0,0.6,0,1.1-0.2,1.7c-0.1,0.3-0.4,0.5-0.6,0.7c-0.3,0.3-0.7,0.6-1.1,0.7
				c-0.3,0.1-0.5,0.4-0.8,0.3c-0.5,0-1,0-1.5,0C319.3,381.1,319.1,381,319.1,381L319.1,381z M312.3,381.4c-0.2-0.2-0.3-0.4-0.3-0.6
				s0-0.3,0.3-0.6c0.4-0.5,0.7-0.5,1.4-0.1s1,0.4,1,0.1s0.5-0.5,0.9-0.5c0.2,0,0.4,0.1,0.6,0.2c0.2,0.2,0.3,0.2,0.3,0.7
				s0,0.5-0.3,0.7c-0.2,0.2-0.4,0.3-0.7,0.2c-0.4,0-0.7-0.2-0.8-0.6c0-0.2-0.1-0.3-0.2-0.1s-0.1,0.1-0.2,0.1
				c-0.3,0.1-0.6,0.3-0.8,0.5c-0.2,0.1-0.3,0.2-0.5,0.1C312.6,381.7,312.5,381.7,312.3,381.4L312.3,381.4z M292.5,372.5
				c-0.7,0-1.3,0.5-1.5,1.2c0.1,0.8,0.8,1.5,0.4,2.3c0.3,1-0.8,1.4-1.5,0.8c-0.3-1-0.8-2-1.3-2.9c-0.8-0.2-1.2,1.1-1.7,1.5
				c0.3,0.8,1.1,1.4,1.2,2.4s-0.3,1.9-1.1,2.4c-0.7,0.7-1.6,0.4-2.5,0.6c-1,0.6,0.8,0.8,1.2,0.9c1,0.2,2.1-0.1,2.9-0.8
				c0.8-0.4,0.7-1.7,1.6-1.8c1.6-0.1,3.2,0.2,4.8,0.3c0.9,0.2,2.2-0.1,2.8,0.5c0.1,1,0.8,1.9,1.8,2.2c0.5,0.1,1-0.5,1.5-0.6
				c1-0.3,0.7-1.5,1.2-2c1.6-0.1,3.3-0.1,5-0.1c0.3,0,0.4-0.4,0.6-0.6c0-0.6-0.1-1.3-0.2-1.9c-0.3-0.8,0-1.8-0.5-2.5
				c-0.8-0.2-1.5,0.5-2.4,0.6c-1,0.4-1.7,1.3-1.8,2.3c-0.5,0.9-1.4-0.2-1.1-0.9c0-0.3,0-0.7,0-1c-0.5-0.6-1.4-0.4-2.1-0.5
				c-1,0-2-0.2-3-0.1c-0.9,0-1.8,0-2.7-0.2c-1,0-0.9-1-1.1-1.8c-0.2-0.1-0.4-0.2-0.6-0.2L292.5,372.5z M294.5,376.2
				c0.3,0,0.7,0,1,0.1s0.9-0.1,1.3,0c1,0.2,2,0.1,2.9,0.2c0.2,0,0.5,0.2,0.6,0.4c0,0.7,0,1.4,0,2.1c0,0.3,0.1,0.6-0.1,0.8
				c-0.1,0.1-0.2,0.1-0.2,0.1c-0.3-0.1-0.5-0.2-0.7-0.5c0-0.4,0-0.7,0-1.1c0-0.1,0-0.2,0-0.3c-0.2-0.2-0.5-0.2-0.7-0.2
				c-0.9,0-1.7-0.1-2.5-0.1c-0.7,0-1.4,0-2.1-0.1c-0.3-0.1-0.6-0.1-0.8-0.3s0.1-0.6,0.3-0.7C293.7,376.3,294.1,376.2,294.5,376.2
				L294.5,376.2z M305.7,376.5c0.2,0,0.2,0,0.3,0.3s0.1,0.4,0.1,0.5s0,0.2-0.2,0.2c-0.5,0.2-1,0.2-1.2-0.1s0-0.4,0.2-0.6
				C305.2,376.7,305.4,376.5,305.7,376.5z"/>
		</g>
	</g>
	<g>
		<defs>
			<circle id="SVGID_00000160903974719920980480000011050384441895291571_" cx="300" cy="300" r="297.1"/>
		</defs>
		<clipPath id="SVGID_00000008118768767493683100000012268410923046437800_">
			<use xlink:href="#SVGID_00000160903974719920980480000011050384441895291571_"  style="overflow:visible;"/>
		</clipPath>
		<g style="clip-path:url(#SVGID_00000008118768767493683100000012268410923046437800_);">
			<path class="st1" d="M313.7,245.8c0.7,0-0.9-3.6-0.9-3.6c1.8,1.8,8.4,2.2,8.4,2.2c-4-1.8-8-15.1-7.5-25.7s-1.5-14.9-3.1-16.4
				c-2-2-8.4-3.8-12.7-4c-2.4-0.1-2,1.8-2,1.8c-4.4-1.1-8.9-1.6-10.9-0.2s-2.3,7.5-0.9,6.4c3.3-2.7,6.2-0.2,8.2,2.7
				c1.8,2.6,1.6,9.8-0.9,18.2c-2.7,8.9-10,17.7-10,17.7c4,0,9.5-3.5,9.5-3.5l-1.3,5.5c2.7-1.4,5.3-3.1,7.5-5.1l4,4.2
				c1.2-1.5,2.6-2.9,4-4.2C307.5,244,310.4,245.4,313.7,245.8L313.7,245.8z"/>
			<path class="st4" d="M288.8,248l1.3-5.4c-1.9,1.1-5.6,2.9-8.6,2.9h-1.3l0.8-1c0.1-0.1,7.3-8.9,9.9-17.5c2.6-8.7,2.5-15.5,1-17.7
				c-1.5-2.1-2.9-3.3-4.4-3.5c-1-0.1-2,0.2-3,1c-0.4,0.4-0.8,0.3-1,0.2c-0.5-0.2-0.7-0.7-0.8-1.6c-0.2-1.8,0.5-5,2-6
				c2.4-1.6,7.4-0.8,10.6,0c0.1-0.3,0.2-0.6,0.4-0.9c0.5-0.5,1.2-0.8,2.2-0.7c4.4,0.3,11,2.1,13.1,4.2c1.8,1.8,3.8,6.1,3.3,16.9
				c-0.5,10.9,3.7,23.6,7.2,25.1l-0.3,1.2c-0.6,0-4.6-0.3-7.1-1.4c0.6,1.8,0.4,2.2,0.3,2.4s-0.4,0.3-0.6,0.3l0,0
				c-3.2-0.4-6.1-1.7-8.4-3.8c-1.3,1.2-2.4,2.4-3.5,3.8l-0.4,0.5l-4.1-4.3c-2.2,1.9-4.6,3.5-7.2,4.8L288.8,248z M292,240l-1.4,5.7
				c2.2-1.2,4.3-2.7,6.2-4.4l0.4-0.4l3.9,4.1c1.1-1.3,2.3-2.6,3.6-3.7l0.4-0.4l0.4,0.4c2.1,2,4.7,3.3,7.5,3.8
				c-0.1-0.6-0.6-1.7-1-2.6l1-0.7c1,1,3.8,1.6,6,1.8c-3.6-4.1-6.6-15.5-6.2-24.9c0.5-10.9-1.6-14.7-2.9-16
				c-1.9-1.9-8.1-3.6-12.3-3.8c-0.4,0-0.9,0-1.2,0.3c-0.3,0.3-0.2,0.8-0.2,0.8l0.2,1l-0.9-0.2c-4.9-1.3-8.8-1.4-10.4-0.3
				c-0.6,0.4-1.1,1.5-1.3,2.9c-0.2,1.1-0.2,1.9-0.1,2.4c1.2-0.9,2.5-1.3,3.7-1.1c1.8,0.3,3.5,1.6,5.2,4c2,2.9,1.6,10.6-0.8,18.7
				c-2.1,7.1-7.2,14.1-9.2,16.8c3.6-0.6,7.8-3.3,7.8-3.3L292,240z M313.7,245.2L313.7,245.2L313.7,245.2L313.7,245.2z"/>
		</g>
	</g>
	<g>
		<defs>
			<circle id="SVGID_00000079488307024157380810000014243498883907698053_" cx="300" cy="300" r="297.1"/>
		</defs>
		<clipPath id="SVGID_00000057827812986808768840000017739801320581374630_">
			<use xlink:href="#SVGID_00000079488307024157380810000014243498883907698053_"  style="overflow:visible;"/>
		</clipPath>
		<g style="clip-path:url(#SVGID_00000057827812986808768840000017739801320581374630_);">
			<path class="st4" d="M312.3,242.6c-3.8-5.6-4.7-20.5-4.8-21.1l1.3-0.1c0,0.2,0.9,15.2,4.6,20.5L312.3,242.6z M297.8,242.1
				l-1.1-0.6c2.8-5.2,3.7-21.6,3.7-21.7l1.3,0.1C301.6,220.6,300.8,236.7,297.8,242.1z M304.7,242.1c-1.1-3.2-1.1-20.8-1.1-21.5h1.3
				c0,5,0.2,18.6,1.1,21.1L304.7,242.1z M291.5,241.8l-0.9-0.8c4-4.5,6.3-20.6,6.3-20.8l1.3,0.2C298,221,295.8,237,291.5,241.8z"/>
		</g>
	</g>
	<g>
		<defs>
			<circle id="SVGID_00000017493784527890750700000000211879894371111812_" cx="300" cy="300" r="297.1"/>
		</defs>
		<clipPath id="SVGID_00000124154790232193527610000000459719977282581646_">
			<use xlink:href="#SVGID_00000017493784527890750700000000211879894371111812_"  style="overflow:visible;"/>
		</clipPath>
		<g style="clip-path:url(#SVGID_00000124154790232193527610000000459719977282581646_);">
			<path class="st4" d="M293.4,212.3c-0.1-1.2-0.5-2.3-1.1-3.3c-2-2.9-4.9-5.3-8.2-2.7c0,0,1.1-3.5,3.6-3.6c1.9-0.1,6.1,1.4,9.9,7.8
				c0,0-2.8-0.6-3.5,0C292.9,211.6,293.4,212.4,293.4,212.3L293.4,212.3z"/>
			<path class="st4" d="M293.6,212.9l-0.3-0.5c0,0-0.2-0.3-0.1-0.7c-0.2-0.9-0.5-1.8-1-2.6c-1.5-2.2-3.1-3.5-4.7-3.7
				c-1.1-0.2-2.2,0.2-3.3,1.1l-0.5,0.4l0.2-0.6c0-0.1,1.2-3.6,3.7-3.8c1.9-0.1,6.3,1.4,10.1,7.9l0.2,0.3l-0.4-0.1
				c-1-0.2-2.9-0.5-3.3,0c-0.5,0.4-0.7,0.8-0.8,1.1c0,0.2,0.1,0.4,0.1,0.6v0.1L293.6,212.9L293.6,212.9z M287,205c0.2,0,0.4,0,0.6,0
				c1.7,0.2,3.3,1.5,4.9,3.8c0.4,0.7,0.7,1.5,0.9,2.2c0.1-0.2,0.3-0.5,0.7-0.7c0.6-0.5,2.4-0.3,3.2-0.1c-3.7-6.1-7.7-7.5-9.6-7.4
				c-1.7,0.1-2.8,2-3.2,3C285.4,205.3,286.2,205,287,205z"/>
		</g>
	</g>
	<g>
		<defs>
			<circle id="SVGID_00000009561236352056242800000008838993077519033784_" cx="300" cy="300" r="297.1"/>
		</defs>
		<clipPath id="SVGID_00000156546092767791068690000015586059330970857918_">
			<use xlink:href="#SVGID_00000009561236352056242800000008838993077519033784_"  style="overflow:visible;"/>
		</clipPath>
		<g style="clip-path:url(#SVGID_00000156546092767791068690000015586059330970857918_);">
			<path class="st4" d="M283.8,202c0.2-0.8,0.6-1.5,1.2-2.1c2-1.3,6.4-0.9,10.9,0.2c0,0-0.4-1.9,2-1.8c4.2,0.2,10.7,2,12.7,4
				c0.6,0.7,1.1,1.5,1.5,2.4H312c-1-1.4-3.8-1.3-4.4-1.2c-1.1,0.1-2.1,0.2-3.1,0.4c-0.8,0.1-1.5,0.4-2.2,0.8
				c-0.4,0.4-0.8,1.6-1.5,1.6c-1.1,0-1-0.3-1.3-0.6s-0.5-1.1-0.9-1c-1.1,0.2-2.9-0.7-5.1-2.4s-3.1-2.2-6-2S283.7,202.1,283.8,202
				L283.8,202z"/>
			<path class="st4" d="M300.7,206.5c-0.9,0-1.1-0.2-1.3-0.5l-0.1-0.1c-0.1-0.1-0.2-0.2-0.3-0.4c-0.1-0.2-0.3-0.6-0.5-0.6
				c-1.1,0.2-2.9-0.6-5.2-2.5c-2.2-1.8-3.1-2.2-5.9-2s-3.6,1.7-3.6,1.7l-0.3-0.1l0.1-0.2c0.2-0.8,0.7-1.6,1.3-2.2
				c2.4-1.6,7.7-0.6,10.8,0.1c0-0.3,0-0.8,0.4-1.2s1-0.6,1.8-0.6c4.4,0.2,10.8,2,12.8,4.1c0.7,0.7,1.2,1.5,1.5,2.4l0.1,0.2h-0.4
				l-0.1-0.1c-0.9-1.2-3.4-1.2-4.3-1.1c-1.1,0.1-2.1,0.2-3.1,0.4c-0.8,0.1-1.5,0.4-2.2,0.8c-0.1,0.1-0.3,0.3-0.4,0.6
				C301.6,206,301.2,206.5,300.7,206.5z M298.6,204.6c0.3,0,0.6,0.4,0.8,0.7c0.1,0.1,0.2,0.3,0.2,0.3c0.1,0.1,0.1,0.1,0.1,0.2
				c0.1,0.2,0.2,0.3,1,0.3c0.3,0,0.6-0.5,0.8-0.9c0.2-0.3,0.3-0.6,0.5-0.7c0.7-0.4,1.5-0.7,2.3-0.8c1-0.2,2.1-0.4,3.2-0.4
				c0,0,2.6-0.3,4,0.8c-0.3-0.6-0.7-1.1-1.1-1.6c-1.9-1.9-8.3-3.7-12.5-3.9c-0.7,0-1.3,0.1-1.5,0.5c-0.4,0.5-0.3,1.1-0.3,1.1
				l0.1,0.3l-0.3-0.1c-5.1-1.3-9-1.4-10.7-0.3c-0.4,0.4-0.8,0.8-1,1.3c0.6-0.5,1.6-1.1,3.3-1.2c2.9-0.2,3.8,0.2,6.1,2
				C295.8,203.9,297.5,204.8,298.6,204.6L298.6,204.6z"/>
		</g>
	</g>
	<g>
		<defs>
			<circle id="SVGID_00000006673477509383161670000004772316366634599576_" cx="300" cy="300" r="297.1"/>
		</defs>
		<clipPath id="SVGID_00000168802389740511825640000013040399362272057478_">
			<use xlink:href="#SVGID_00000006673477509383161670000004772316366634599576_"  style="overflow:visible;"/>
		</clipPath>
		<g style="clip-path:url(#SVGID_00000168802389740511825640000013040399362272057478_);">
			<circle class="st1" cx="300.2" cy="203.4" r="1.2"/>
		</g>
	</g>
	<g>
		<defs>
			<circle id="SVGID_00000002357430918391241450000010128767590254856070_" cx="300" cy="300" r="297.1"/>
		</defs>
		<clipPath id="SVGID_00000082337418842043661930000001056246518789138850_">
			<use xlink:href="#SVGID_00000002357430918391241450000010128767590254856070_"  style="overflow:visible;"/>
		</clipPath>
		<g style="clip-path:url(#SVGID_00000082337418842043661930000001056246518789138850_);">
			<path class="st1" d="M301.3,319.9c32.6-25.1,29.8-61.9,29.8-61.9c-0.8,0.2-1.7,0.3-2.5,0.3c-6.9,0-23.2-3.9-27-8.9
				c-4.1,4.5-20.8,8.9-27.6,8.9c-0.9,0-1.7-0.1-2.5-0.3C271.5,258.1,268.7,294.8,301.3,319.9L301.3,319.9z"/>
			<path class="st4" d="M301.5,320.5h-0.4l-0.2-0.1c-32.5-25-30.1-62-30-62.4l0.1-0.7l0.6,0.1c0.8,0.2,1.6,0.2,2.4,0.2
				c6.9,0,23.2-4.4,27.1-8.7l0.5-0.5l0.4,0.5c3.6,4.7,19.8,8.7,26.5,8.7c0.8,0,1.6-0.1,2.4-0.2l0.6-0.1v0.7
				c0,0.4,2.4,37.4-30.1,62.4L301.5,320.5z M272.1,258.7c-0.2,5-0.1,37.7,29.3,60.5c29.3-22.8,29.5-55.5,29.3-60.5
				c-0.7,0.1-1.3,0.2-2,0.2c-6.6,0-22.4-3.7-27-8.6c-5,4.7-21.2,8.6-27.5,8.6C273.4,258.9,272.7,258.8,272.1,258.7z"/>
		</g>
	</g>
	<g>
		<defs>
			<circle id="SVGID_00000064316459472245687710000009954759964573315496_" cx="300" cy="300" r="297.1"/>
		</defs>
		<clipPath id="SVGID_00000134241787803776535070000002494708349831437463_">
			<use xlink:href="#SVGID_00000064316459472245687710000009954759964573315496_"  style="overflow:visible;"/>
		</clipPath>
		<g style="clip-path:url(#SVGID_00000134241787803776535070000002494708349831437463_);">
			<path class="st4" d="M301.3,317l-0.3-0.2c-11.9-9.4-20.7-22.7-24.7-37.4c-1.3-4.8-2.2-9.7-2.5-14.6c-0.1-1.5-0.1-3-0.1-4.2V260
				l0.5,0.1c0.3,0,0.5,0.1,0.8,0.1c6.1,0,20.6-3.6,26.3-7.9l0.3-0.2l0.3,0.2c5.6,4.8,20.1,7.9,25.9,7.9h1.8l-0.5,0.7
				c0,1.1-0.1,2.8-0.2,3.9c-0.3,4.9-1.2,9.9-2.5,14.6c-4,14.7-12.8,27.9-24.7,37.3L301.3,317z M274.6,261.1c0,1.1,0.1,2.3,0.1,3.6
				c0.3,4.9,1.2,9.7,2.5,14.5c3.9,14.4,12.5,27.4,24.1,36.7c11.6-9.3,20.2-22.3,24.1-36.6c1.3-4.7,2.1-9.6,2.5-14.5
				c0.1-1,0.1-2.5,0.1-3.6h-0.4c-5.9,0-20.2-3-26.2-7.9c-6,4.3-20.4,7.9-26.6,7.9C274.8,261.2,274.7,261.2,274.6,261.1z"/>
		</g>
	</g>
	<g>
		<defs>
			<circle id="SVGID_00000147220468787822173740000007904097803745984947_" cx="300" cy="300" r="297.1"/>
		</defs>
		<clipPath id="SVGID_00000001632070608991365480000000653240917455236543_">
			<use xlink:href="#SVGID_00000147220468787822173740000007904097803745984947_"  style="overflow:visible;"/>
		</clipPath>
		<g style="clip-path:url(#SVGID_00000001632070608991365480000000653240917455236543_);">
			<g>
				<defs>
					<path id="SVGID_00000096754622360661127780000010077252765719687094_" d="M328.3,261h-0.8c-6.1,0-20.4-3.1-25.9-7.9
						c-5.8,4.4-20.2,7.9-26.3,7.9c-0.3,0-0.6,0-0.8-0.1c0,1.4,0,2.8,0.1,4.1c0.3,4.9,1.2,9.7,2.5,14.4c4,14.5,12.5,27.4,24.3,36.8
						c11.8-9.3,20.4-22.2,24.3-36.8c1.3-4.7,2.1-9.5,2.5-14.4C328.2,263.6,328.3,261.9,328.3,261L328.3,261z"/>
				</defs>
				<clipPath id="SVGID_00000002342946277310347730000004557766694291283352_">
					<use xlink:href="#SVGID_00000096754622360661127780000010077252765719687094_"  style="overflow:visible;"/>
				</clipPath>
				<g style="clip-path:url(#SVGID_00000002342946277310347730000004557766694291283352_);">
					<g>
						<path class="st24" d="M274,252.5h18.3v64.3H274V252.5z"/>
					</g>
					<g>
						<path class="st24" d="M292.2,252.5h18.3v64.3h-18.3V252.5z"/>
					</g>
					<g>
						<path class="st24" d="M310.5,252.5h18.3v64.3h-18.3V252.5z"/>
					</g>
				</g>
			</g>
		</g>
	</g>
</g>
</svg>
