<?xml version="1.0" encoding="utf-8"?>
<!-- Generator: Adobe Illustrator 26.3.1, SVG Export Plug-In . SVG Version: 6.00 Build 0)  -->
<svg version="1.1" id="Layer_1" xmlns="http://www.w3.org/2000/svg" xmlns:xlink="http://www.w3.org/1999/xlink" x="0px" y="0px"
	 viewBox="0 0 600 600" style="enable-background:new 0 0 600 600;" xml:space="preserve">
<style type="text/css">
	.st0{fill:#FFFFFF;}
	.st1{fill:#CE1126;}
	.st2{fill:#007A3D;}
</style>
<g>
	<path class="st0" d="M282.8,600c5.7,0.3,11.4,0.5,17.2,0.5s11.5-0.2,17.2-0.5H282.8z"/>
	<g>
		<path class="st1" d="M300,0.5C169.4,0.5,58.3,84,17.1,200.5h565.8C541.7,84,430.6,0.5,300,0.5z"/>
		<path class="st0" d="M600,300.5c0-35.1-6-68.7-17.1-100H17.1C6,231.8,0,265.4,0,300.5c0,34.9,6,68.4,16.9,99.5h566.2
			C594,368.9,600,335.4,600,300.5z M397.5,242.2c0.4-1.3,0.9-1.5,2-1.2c2,0.6,2.5,2,2.2,6.7c-0.2,3.8-0.8,4.8-1.9,3.4
			C398.5,249.5,397,243.6,397.5,242.2z M386.7,260c5.1,1.4,8.4,0.8,11.6-1.9l2.9-2.4l3.4,1.7c1.9,0.9,3.8,1.6,4.4,1.4
			c1.5-0.4,4.5-4.3,4.4-5.6c-0.1-1.7,1.3-1.2,2,0.6c1.3,3.6-0.6,7.7-4.1,8.6c-1.7,0.4-3.2,0.3-5.8-0.6c-3.2-1.1-3.7-1.1-5.3,0.1
			c-3.5,2.7-8.5,3-12.9,0.7l0,0c-1.1-0.6-2.2-1.4-3.1-2.3C383.5,259.3,383.9,259.3,386.7,260z M164.9,357.2c-2.5,0-4.5-2-4.5-4.5
			s2-4.5,4.5-4.5s4.5,2,4.5,4.5S167.4,357.2,164.9,357.2z M293,341.9H147.2c-2.6,11.3-12.8,20-27,16.4c4.4-4.6,11.8-6.2,14.5-12.5
			c2.2-13.9-4.5-22.5-8.8-30.5c7.2-2.6,8.3-3.3,15.6-8.2c-5.1,15.6,13.3,13.9,27.1,13.5c0.5-5.3,0.2-11.5-3.9-12.3
			c5.2-1.9,6.1-2.6,14.5-9.7v21c32.6,0,67.8-0.2,101-0.2c0-6.6,1.7-17.1-3.5-17.1c-5,0-0.2,13.5-4.1,13.5h-78c0-2.9-0.1-9-0.1-13.4
			c3.3-3.3,2.9-3,25.5-25.6c2.2-2.3,18.1-16.5,31.9-29.9l0,0h0.1c0,0,0,0-0.1,0.1c-0.4,2.9,5.1,10,7.6,11.3
			c-1.7,0.8-3.8,0.4-5.3,1.3c-8.6,8.6-40.2,39.4-46,46.8c17.1,0.3,36-0.2,52-1c0-11.6,11-12.2,18.4-16.4c3.8,6,13.3,5.5,14.5,14.5
			C293,314,293,330.2,293,341.9z M302.9,342v-95.6c5.5,2.9,9.8,7,16.4,8.7c-0.8,2.8-3.2,3.9-3.9,6.8v58.9c7.5,1.6,9-2.6,12.6-4.8
			c1,9.4,7,18.7,6.8,26.1h-31.9V342z M435.8,341.8h-73.2c-1.1-19.1-1.3-38.9,21-34.7v-7.8c-0.7-1.3-1.9,0.3-2.2-1.4
			c3.5-3.5,4.7-4.5,14.3-12.8c0,10.1,0.2,33.9,0.2,33.9h8.4c0,0,0.1-39.9,0.1-41.2l0,0c0,0,11.6-9.8,11.6-10.2V319h8.4
			c0-19.6-0.3-39.5-0.3-57.7c3.4-3.4,10-8.3,11.7-11.7V341.8z M446.9,246.3c5.5,2.9,9.8,7,16.4,8.7c-0.8,2.8-3.2,3.8-3.9,6.8v58.9
			c7.5,1.6,9-2.6,12.6-4.8c1,9.4,7,18.7,6.8,26.1h-31.9V246.3z"/>
		<path d="M583.1,400H16.9c39.2,111.6,142.6,193,265.9,200h34.3C440.5,593,543.8,511.6,583.1,400z"/>
		<g>
			<path class="st0" d="M376.9,318.6L376.9,318.6c1.6,2.4,6.9,2.3,6.7-1.6C382.7,313.7,375.7,314.9,376.9,318.6z"/>
			<path class="st2" d="M387.2,262.6L387.2,262.6c4.5,2.3,9.4,2.1,13-0.7c1.6-1.2,2.1-1.2,5.3-0.1c2.6,0.9,4.1,1,5.8,0.6
				c3.5-0.9,5.4-5,4.1-8.6c-0.7-1.8-2.1-2.2-2-0.6c0.1,1.4-2.9,5.2-4.4,5.6c-0.6,0.2-2.5-0.5-4.4-1.4l-3.4-1.7l-2.9,2.4
				c-3.2,2.8-6.5,3.3-11.6,1.9c-2.8-0.8-3.2-0.8-2.5,0.2C385,261.2,386.1,262,387.2,262.6z"/>
			<path class="st2" d="M401.7,247.7c0.3-4.7-0.2-6.1-2.2-6.7c-1.1-0.3-1.6-0.1-2,1.2c-0.5,1.4,1,7.4,2.2,8.9
				C400.9,252.5,401.5,251.5,401.7,247.7z"/>
			<path class="st2" d="M251.9,246.8C251.9,246.9,251.9,246.9,251.9,246.8C251.9,246.9,251.9,246.8,251.9,246.8L251.9,246.8z"/>
			<path class="st2" d="M278.5,288.8c-7.4,4.2-18.4,4.8-18.4,16.4c-16,0.8-34.9,1.3-52,1c5.8-7.4,37.4-38.1,46-46.8
				c1.5-0.8,3.7-0.5,5.3-1.3c-2.5-1.3-7.9-8.4-7.6-11.3c-13.9,13.4-29.7,27.7-31.9,29.9c-22.6,22.6-22.2,22.3-25.5,25.6
				c0,4.4,0.1,10.5,0.1,13.4h78c3.9,0-0.9-13.5,4.1-13.5c5.2,0,3.5,10.6,3.5,17.1c-33.2,0-68.4,0.2-101,0.2v-21
				c-8.4,7.1-9.2,7.8-14.5,9.7c4.1,0.8,4.3,7,3.9,12.3c-13.7,0.3-32.2,2.1-27.1-13.5c-7.3,4.9-8.4,5.6-15.6,8.2
				c4.3,7.9,11.1,16.5,8.8,30.5c-2.7,6.4-10.1,8-14.5,12.5c14.2,3.6,24.4-5.1,27-16.4H293c0-11.6,0-27.9,0-38.6
				C291.8,294.3,282.3,294.8,278.5,288.8z"/>
			<path class="st2" d="M472,315.8c-3.6,2.2-5.1,6.5-12.6,4.8v-58.9c0.7-2.9,3.1-4,3.9-6.8c-6.7-1.7-11-5.8-16.4-8.7v95.6h31.9
				C479,334.5,473,325.3,472,315.8z"/>
			<path class="st2" d="M424.1,261.4c0,18.2,0.3,38.1,0.3,57.7H416v-51.4c0,0.4-11.6,10.2-11.6,10.2l0,0c0,1.3-0.1,41.2-0.1,41.2
				h-8.4c0,0-0.2-23.8-0.2-33.9c-9.6,8.4-10.8,9.3-14.3,12.8c0.3,1.7,1.5,0.1,2.2,1.4v7.8c-22.3-4.3-22.1,15.5-21,34.7h73.2v-92.1
				C434.1,253.1,427.5,258,424.1,261.4z M376.9,318.6L376.9,318.6c-1.3-3.7,5.8-4.9,6.7-1.6C383.8,320.9,378.5,320.9,376.9,318.6z"
				/>
			<ellipse class="st2" cx="164.9" cy="352.8" rx="4.5" ry="4.5"/>
			<path class="st2" d="M315.5,320.8v-58.9c0.6-2.9,3.1-4,3.9-6.8c-6.7-1.7-11-5.8-16.4-8.7V342h31.9c0.2-7.4-5.8-16.7-6.8-26.1
				C324.5,318.2,323,322.4,315.5,320.8z"/>
		</g>
	</g>
</g>
</svg>
