<?xml version="1.0" encoding="utf-8"?>
<!-- Generator: Adobe Illustrator 26.3.1, SVG Export Plug-In . SVG Version: 6.00 Build 0)  -->
<svg version="1.1" id="Layer_1" xmlns="http://www.w3.org/2000/svg" xmlns:xlink="http://www.w3.org/1999/xlink" x="0px" y="0px"
	 viewBox="0 0 600 600" style="enable-background:new 0 0 600 600;" xml:space="preserve">
<style type="text/css">
	.st0{fill:#ED1C24;}
	.st1{fill:#FFFFFF;}
	.st2{fill:#00A651;}
</style>
<g>
	<path class="st0" d="M559.1,148.7C507,59.7,410.5,0,300,0S93,59.7,40.9,148.7h249.6H559.1z"/>
	<path class="st0" d="M560.1,449.6H39.9C91.7,539.5,188.8,600,300,600S508.3,539.5,560.1,449.6z"/>
	<path class="st1" d="M253.3,236.9c0,0.1,0,0.1,0,0.2c0,0,0,0.1,0,0.1v0.1c0,0,0,0.1,0,0.1v0.1c0.1,0.1,0.1,0.3,0.2,0.4
		c1.5,1.3,6.9-0.1,12-3.6c5.7-3.9,8.5-12.2,4-12.2h-0.4v0.1C264,222.5,253.2,232.3,253.3,236.9z"/>
	<path class="st1" d="M322.1,222c2.5,0,5.1-1.4,5.7-3.2c1.8-5.2,1.3-6.9-2.3-6.8v0.1c-0.5,0-1,0.1-1.7,0.1c-3.7,0.5-5.3,2-5.7,5.2
		C317.7,221.1,318.5,222,322.1,222z"/>
	<path class="st1" d="M249,334.2c-0.4,0-0.8,0-1.2,0v0c-2.8,0.2-2.5,1.4,0,10.4c2.9,10.4,9,11.3,9,1.2
		C256.8,338.3,254,334.2,249,334.2z"/>
	<path class="st1" d="M253.7,215.3L253.7,215.3h0.2c0.6,0.1,1.6-0.6,3.3-1.8c2.2-1.6,4.4-4,4.8-5.3V208c0-0.1,0-0.1,0-0.2
		c0,0,0-0.1,0-0.1c0,0,0-0.1,0-0.2c0,0,0-0.1,0-0.1c0-0.1-0.1-0.2-0.2-0.3V207l-0.1-0.1c-0.6-0.7-1.9-1.2-3.8-1.2
		c-0.2,0-0.5,0-0.7,0c-3.3,0.1-4.1,1.3-4.1,5.4c0,2.3,0.1,3.5,0.5,4C253.6,215.2,253.6,215.3,253.7,215.3z"/>
	<path class="st1" d="M251.2,248.5h-0.4v0.1c-3.6,0-5.8,0.7-6.7,2c-1,1.6-0.4,4.3,1.6,8.4c1.7,3.4,2.5,3.7,5.1,1.5
		c2-1.7,3.8-3.6,5.4-5.6C260.1,249.8,259,248.5,251.2,248.5z"/>
	<path class="st1" d="M321.6,252.5c-1.7,3.5-1.2,4.3,4.1,6c10.7,3.4,13.8,2.7,14.8-3c0.7-4.2,0-5.6-3.9-7.2c-2-0.9-4.2-1.3-6.3-1.2
		v0.1C326.6,247.2,323.3,249.2,321.6,252.5z"/>
	<path class="st1" d="M230.4,252c-0.2,0-0.4,0.1-0.7,0.1c-2.9,0.3-4.8,0.7-5.8,1.7l-0.1,0.1l-0.1,0.1c-0.1,0.1-0.2,0.3-0.2,0.4
		c-0.7,1.6,0.3,4,2.9,7.8c4.2,5.9,5.1,6.3,10.2,4.3l5.6-2.2l-3.7-6.4C235.7,253.5,233.7,251.9,230.4,252z"/>
	<path class="st1" d="M241.2,305.2c-0.1-0.2-0.3-0.4-0.4-0.6c-0.8-0.9-2.5-1.6-5.1-2.2c-2.2-0.4-4.4-0.5-6.7-0.5
		c-7.9,0-18.8,1.3-20.2,2.7v0.1c0,0,0,0.1,0,0.1c0.7,2.4,1.7,4.8,2.8,7c2.6,5.6,3.5,6,9.7,4.8c4.6-1,9-2.6,13.2-4.7
		c4.2-2.2,6.5-4.2,6.8-5.8c0-0.2,0-0.5,0-0.7C241.3,305.5,241.2,305.4,241.2,305.2z"/>
	<path class="st1" d="M373.8,340.9c3.3,0.5,6.5,1,7.1,1.1h0.1c0.8-0.2,3.1-2.3,5.4-4.9c4.4-5.2,4.4-5.4,0.9-8.2
		c-2-1.6-4.5-2.9-5.5-2.9c-0.1,0-0.3,0-0.4,0v0c-3.9,0.5-13,7.7-13.6,10.7c0,0.1,0,0.2,0,0.3C367.8,338.9,370.1,340.4,373.8,340.9z"
		/>
	<path class="st1" d="M340.9,331.4c4.6,3.8,12.1,3.6,17.2-0.4c7.9-6.1,4-11-3.3-10.7v0c-4,0.3-7.8,1.6-11,3.9
		C337.7,328.3,337.6,328.7,340.9,331.4z"/>
	<path class="st1" d="M348.8,280.7c4.8,3.9,10.6,2.3,11.3-3c0.5-4.2-3.2-6.8-6.9-6.5c-2.1,0.1-4,1.3-5.1,3
		C345.8,277.6,345.9,278.4,348.8,280.7z"/>
	<path class="st1" d="M310.1,293.9L310.1,293.9c-0.8,0.1-1.5,1.1-1.5,3c0,4.2,1.5,6.6,4.2,6.6h0.2c0,0,0.1,0,0.1,0h0.1
		c0.6-0.5,0.9-2.3,0.6-4.3C313.3,295.8,311.4,293.7,310.1,293.9z"/>
	<path class="st1" d="M297.2,286.2c-0.8,0.1-1.5,1-2.7,2.9c-3.1,4.9-1.8,9.2,3.6,12c5,2.6,7.6,0.2,6-5.4c-0.9-2.7-2.3-5.2-4.1-7.4
		C298.6,286.9,297.9,286.2,297.2,286.2L297.2,286.2z"/>
	<path class="st1" d="M306.7,218c4.5,0,5.7-0.8,5.2-3.6c-0.4-2.2-2.3-3.6-5.2-3.6h-0.1l0,0c-2.8,0-4.7,1.4-5.1,3.6
		c-0.3,0.9-0.1,1.8,0.4,2.6C302.7,217.7,304.2,218,306.7,218z"/>
	<path class="st1" d="M311.1,241.5L311.1,241.5c-1.2,0.2-2.7,1.2-4.1,3.2c-2.6,3.4-3.8,5.6-3.5,6.7c0,0,0,0.2,0,0.2c0,0,0,0.1,0,0.1
		c0,0,0.1,0.1,0.1,0.1c0.6,0.7,2.1,0.8,4.5,0.5c3.2-0.4,5.3-2,5.7-4.4C314.6,243.5,313.2,241.2,311.1,241.5z"/>
	<path class="st1" d="M278.1,224.5L278.1,224.5c0.9,0.4,4.9-0.1,9.2-1.2c6.9-1.8,8.3-2.9,8.3-6.8c0-3.2-1-4.7-3.5-4.5
		c-1.9,0.2-4.6,1.3-8.4,3.3C277.8,218.5,275.7,221.8,278.1,224.5z"/>
	<path class="st1" d="M294.4,242.4L294.4,242.4c-2.6,0.5-5.1,1.2-7.5,2.3l-5.2,2.3l4.6,1.6l5.2,1.7h0.1c0,0,0.1,0,0.1,0
		c1.4-0.5,2.8-1.1,4.1-1.9c3.8-2.2,3.2-6-1.1-6H294.4z"/>
	<path class="st1" d="M284.7,337.3L284.7,337.3c-0.2,0.9,0.5,4.3,1.6,8l2.3,7.5l4.3-5.8c2.4-3.1,4.3-6.3,4.4-7.1v-0.1
		c-1-1.1-8.3-2.8-11.3-2.7C285.6,337.1,285.1,337.2,284.7,337.3z"/>
	<path class="st1" d="M268.8,293.7L268.8,293.7c0.1-0.2,0.2-0.2,0.3-0.3l0.1-0.1v-0.1c0-0.1,0.1-0.1,0.1-0.2c0-0.1,0.1-0.1,0.1-0.2
		c0-0.1,0-0.1,0-0.2c0-0.1,0-0.2,0-0.3c0-1-0.7-2.5-2.5-3.9c-2.6-2.2-5.1-3.2-6.7-3v0c0,0,0,0,0,0c-0.9,0.1-1.5,0.9-1.4,1.8
		c0,0,0,0.1,0,0.1c0,0,0,0.1,0,0.1c0.2,1.1,1.9,3.3,4.1,4.9C265.4,294.3,267.7,294.5,268.8,293.7z"/>
	<path class="st1" d="M600,300c0-55.2-14.9-106.9-40.9-151.3H290.6l3.5,8.1c4.2,9.3,14.4,19.9,20.5,21.3c2.3,0.5,8.8,2,14.5,3.2
		c7.6,1.6,14.2,5.2,25,13.5l14.6,11.5l-10.2-0.6c-5-0.3-9.2,0-10,0.5v0.2c0,0.1,0,0.1,0.1,0.2c1.4,2.9,19.8,16,26.5,18.7l6.7,2.7
		l-10.2,0.1c-5.6,0-12.3-1.2-14.8-2.9c-6.3-3.9-15.9-3.9-17.3,0.1c-0.8,2.3,1.2,4.3,7.4,7.2c4.7,2.2,13.2,8.6,19,14.3
		c5.8,5.7,18.5,14.8,28.6,20.4c11.1,6.1,16.1,9.8,15,11.2c-1.1,1.2-7,0.8-17.9-1c-9.7-1.6-15.4-1.8-16.6-0.5c-0.6,0.6-1,1.3-1.1,2.1
		c0,0.2,0,0.4,0,0.5c0,0.2,0.1,0.5,0.2,0.7c1,1.9,4.9,3.6,12,5.1c5.8,1.2,16.3,4.1,23.3,6.4c17.5,5.6,14,8.6-11.4,9.6
		c-18.9,0.8-25.6,2.7-23.4,6.7v0.1l0.1,0.1c1,0.9,4.5,1.6,8.2,1.6c8,0,16.1,3.7,20.3,9.4c1.5,2,9.1,8.8,17,15.3l14.4,11.8l-6.5,1.4
		c-5.1,1.1-8.7,0.1-16.7-4.3c-9.9-5.5-10.4-5.6-16.6-2.3c-11,5.8-8.7,9.3,15.4,22.1c24.1,12.8,36.9,23.4,35,28.9
		c-1.6,4.6-8.5,4.3-15.2-0.8c-3-2.3-10.5-7.1-16.6-10.7c-10.9-6.4-11.5-6.5-33.2-6.1c-20.2,0.4-22.9,0.1-31.8-4.6
		c-11.8-6.2-14.4-6.3-19.2-1c-3.1,3.4-3.7,6.8-3.7,19.9c0.1,22,3,27.8,22,43.6c8.4,7,15.3,13.6,15.7,15v0.2c0,0,0,0.1,0,0.1
		c0,0,0,0.1,0,0.1c-0.5,0.8-1.3,1.3-2.3,1.4H356c-2.3-1-5.1-3.5-8.5-7.5c-6.9-8-8.4-8.8-20.1-10.1c-6.7-0.8-12.8-1-14-0.5h-0.1h-0.1
		l-0.1,0.1c0,0,0,0,0,0.1v0.2c-0.2,1,0.5,2.9,1.7,4.8c2.1,3.3,3,5.6,2.9,6.8c0,0,0,0.2,0,0.2v0.1c0,0,0,0.1,0,0.1v0.1v0.1
		c0,0-0.1,0.1-0.1,0.1h-0.1h-0.1h-0.2c-1,0-3-1.2-5.8-3.8c-3.7-3.5-7.7-6.7-12-9.4c-3.2-1.8-5.5-4.8-5.5-7c0-4.9-3.3-6.1-9.9-3.6
		c-3.7,1.4-6.5,1.2-9.6-0.6c-5.5-3.3-12.9-1.2-20.2,5.5c-8.3,7.8-19.4,12.7-28.4,12.8c-8.3,0.1-16.5,3.7-20.6,9.1
		c-0.6,0.9-1.4,1.6-2.2,2.3h-3.3c-0.1-0.3-0.1-0.5-0.1-0.8c0-3.3,9.8-12.6,14.6-13.8c12.9-3.2,20.1-7.7,28.1-17.7
		c18.4-23.1,19.8-37.1,4.5-45.1c-6.6-3.5-6.7-3.5-25.5,5.1c-10.4,4.7-23.1,9.8-28.2,11.4c-12.7,3.8-27.6,3.6-30.6-0.4
		c-1.2-1.6-1.8-3.4-1.4-4.1h0.1c1.2-0.8,10.2-3.8,20.6-6.9c28.3-8.5,43.4-19.1,34.4-24.5c-5.8-3.4-12.8-2.4-20.1,3
		c-7.8,5.9-33,15.3-41,15.3c-2.9,0-6.6-1.3-8.2-3.2s-2.6-3-2.6-3.5c0,0,0-0.1,0-0.2h0.1c0.5-0.3,2.1-0.1,4.9,0.4
		c4.4,0.7,7.4-1.2,17.8-11.6c7.8-7.8,17.7-15.2,26.1-19.5c11.4-5.8,13.6-7.7,13.6-11.8c-0.2-3.2-1.5-6.2-3.7-8.6
		c-3.5-3.5-3.9-3.4-12.6,2.7c-5,3.5-11.1,6.4-13.6,6.4c-3.5,0-9.6-3.4-10.5-5.1c0,0,0-0.1,0-0.1v-0.1c0,0,0-0.1,0-0.1c0,0,0,0,0,0
		c0,0,0-0.1,0-0.1c0.3-0.2,0.6-0.3,1-0.2c1.3,0,6.8-4.6,12.4-10.1c11.6-11.6,14.3-13.4,23.2-15.2c4.5-0.9,8.6-4.1,13.3-10.1
		c6.7-8.7,6.8-8.8,3.9-15.4c-2.3-5.3-3.7-6.4-6.8-5.3c-13.8,4.8-23.3,5-23.3,0.8c0-0.1,0-0.2,0-0.3c1-3,15.6-12.8,26.9-18
		c6.9-3.2,10.1-5.9,10.9-9.2c1.1-5,9.5-10.9,15.4-10.9c4.9,0,6.1-2,4-6.3c-1.4-2.9-3.1-3.4-7.3-2.5c-2.4,0.5-4.5,0.5-5.2-0.1
		l-0.1-0.1v-0.1c0,0,0-0.1,0-0.1v-0.3v-0.1c0-0.1,0-0.2,0.1-0.2c1.2-2.8,10.8-9.7,17.2-12.4c6.7-2.8,15.2-9.4,15.9-12.3
		c0-0.1,0-0.2,0-0.2V187c0-1.2-1.3-1.6-3-0.9c-2.6,1-5.2,1.8-7.9,2.5l-4.9,1.3l4.7-5.6c2.5-3.1,8.9-8.7,14.2-12.4
		c5.3-3.8,11.9-10.5,14.6-15.1l4.9-8.2H40.9C14.9,193.1,0,244.8,0,300c0,54.5,14.5,105.5,39.9,149.6h520.2
		C585.5,405.5,600,354.5,600,300z"/>
	<path class="st1" d="M270,340.7c-0.8-0.2-1.7-0.3-2.6-0.3c-0.2,0-0.4,0.1-0.6,0.2c0,0-0.1,0.1-0.1,0.2c-0.3,0.7,0.5,2.3,2,5.7
		c1.4,3,3,4.5,4.2,4.7h0.3h0.2c0.1,0,0.3-0.1,0.4-0.2l0.1-0.1c0.1-0.1,0.1-0.1,0.2-0.2c0.1-0.1,0.1-0.1,0.2-0.2
		c0.6-0.9,0.9-2.7,0.4-5.3C274.3,342.8,272.4,341.1,270,340.7z"/>
	<path class="st1" d="M285.5,282L285.5,282l-0.1-0.2c0,0-0.1,0-0.1-0.1l-0.1-0.1c-0.1-0.1-0.3-0.2-0.5-0.2c-0.3-0.1-0.6-0.2-0.8-0.2
		h-0.4v0c-3.3,0.2-4.7,3-3.3,7.1c1.6,4.5,5.2,2.9,5.9-2.6C286.4,284.4,286.2,283.1,285.5,282z"/>
	<path class="st2" d="M267.4,340.4C267.4,340.4,267.4,340.4,267.4,340.4C267.4,340.4,267.4,340.4,267.4,340.4L267.4,340.4z"/>
	<path class="st2" d="M271,172c-5.3,3.8-11.7,9.4-14.2,12.4l-4.7,5.6l4.9-1.3c2.7-0.7,5.3-1.5,7.9-2.5c1.6-0.7,3-0.3,3,0.9v0.1
		c0,0.1,0,0.2,0,0.2c-0.7,2.9-9.2,9.5-15.9,12.3c-6.4,2.7-16,9.6-17.2,12.4c0,0.1-0.1,0.2-0.1,0.2v0.1v0.3c0,0,0,0.1,0,0.1v0.1
		l0.1,0.1c0.8,0.5,2.8,0.6,5.2,0.1c4.2-0.9,5.9-0.4,7.3,2.5c2.1,4.4,0.9,6.3-4,6.3c-5.9,0-14.3,5.9-15.4,10.9
		c-0.8,3.4-4,6.1-10.9,9.2c-11.3,5.2-25.9,15-26.9,18c0,0.1,0,0.2,0,0.3c0,4.3,9.5,4,23.3-0.8c3.1-1.1,4.4,0,6.8,5.3
		c2.9,6.6,2.8,6.7-3.9,15.4c-4.7,6-8.8,9.2-13.3,10.1c-8.9,1.9-11.7,3.7-23.2,15.2c-5.5,5.5-11.1,10.1-12.4,10.1
		c-0.4,0-0.7,0.1-1,0.2c0,0,0,0.1,0,0.1c0,0,0,0,0,0c0,0,0,0.1,0,0.1v0.1c0,0,0,0.1,0,0.1c0.9,1.7,7,5.1,10.5,5.1
		c2.5,0,8.6-2.9,13.6-6.4c8.7-6.1,9.1-6.2,12.6-2.7c2.2,2.4,3.4,5.4,3.7,8.6c0,4.1-2.2,6-13.6,11.8c-8.4,4.3-18.4,11.7-26.1,19.5
		c-10.4,10.4-13.4,12.3-17.8,11.6c-2.8-0.5-4.4-0.6-4.9-0.4h-0.1c0,0,0,0.1,0,0.2c0,0.5,0.9,1.6,2.6,3.5s5.3,3.2,8.2,3.2
		c8,0,33.2-9.4,41-15.3c7.2-5.4,14.2-6.5,20.1-3c9,5.3-6.1,16-34.4,24.5c-10.4,3.1-19.5,6.1-20.6,6.9h-0.1c-0.4,0.7,0.2,2.4,1.4,4.1
		c3,3.9,17.9,4.1,30.6,0.4c5.1-1.5,17.8-6.6,28.2-11.4c18.9-8.6,18.9-8.5,25.5-5.1c15.3,8,13.9,22.1-4.5,45.1
		c-8,10-15.1,14.5-28.1,17.7c-4.8,1.2-14.6,10.4-14.6,13.8c0,0.3,0,0.6,0.1,0.8h3.3c0.8-0.6,1.6-1.4,2.2-2.3
		c4.1-5.4,12.3-9,20.6-9.1c9,0,20.1-5,28.4-12.8c7.3-6.8,14.7-8.8,20.2-5.5c3.1,1.8,5.9,2,9.6,0.6c6.6-2.5,9.9-1.3,9.9,3.6
		c0,2.2,2.3,5.2,5.5,7c4.3,2.7,8.3,5.9,12,9.4c2.7,2.6,4.7,3.8,5.8,3.8h0.2h0.1h0.1c0.1,0,0.1,0,0.1-0.1v-0.1v-0.1c0,0,0-0.1,0-0.1
		v-0.1c0,0,0-0.1,0-0.2c0.1-1.2-0.8-3.5-2.9-6.8c-1.2-1.9-1.9-3.9-1.7-4.8v-0.2c0,0,0,0,0-0.1l0.1-0.1h0.1h0.1
		c1.2-0.4,7.3-0.2,14,0.5c11.8,1.4,13.2,2.1,20.1,10.1c3.4,4,6.2,6.5,8.5,7.5h4.7c0.9-0.1,1.8-0.6,2.3-1.4c0,0,0-0.1,0-0.1
		c0,0,0-0.1,0-0.1v-0.2c-0.4-1.3-7.4-8-15.7-15c-19-15.8-21.9-21.6-22-43.6c0-13.1,0.6-16.5,3.7-19.9c4.8-5.3,7.4-5.2,19.2,1
		c8.9,4.6,11.6,5,31.8,4.6c21.7-0.5,22.3-0.3,33.2,6.1c6.1,3.6,13.6,8.4,16.6,10.7c6.7,5.1,13.6,5.4,15.2,0.8
		c1.9-5.5-10.9-16.1-35-28.9c-24.1-12.8-26.4-16.3-15.4-22.1c6.3-3.3,6.7-3.2,16.6,2.3c8,4.5,11.6,5.4,16.7,4.3l6.5-1.4L420,334.5
		c-7.9-6.5-15.5-13.4-17-15.3c-4.2-5.7-12.3-9.4-20.3-9.4c-3.7,0-7.2-0.7-8.2-1.6l-0.1-0.1V308c-2.2-4,4.5-5.9,23.4-6.7
		c25.4-1,28.9-4,11.4-9.6c-7-2.3-17.5-5.1-23.3-6.4c-7.1-1.5-11-3.2-12-5.1c-0.1-0.2-0.2-0.5-0.2-0.7c0-0.2,0-0.4,0-0.5
		c0.2-0.8,0.6-1.5,1.1-2.1c1.2-1.3,6.9-1.2,16.6,0.5c10.9,1.8,16.9,2.2,17.9,1c1.1-1.5-3.9-5.1-15-11.2
		c-10.1-5.6-22.8-14.6-28.6-20.4c-5.8-5.7-14.3-12.1-19-14.3c-6.2-2.9-8.1-4.9-7.4-7.2c1.4-4,11.1-4,17.3-0.1
		c2.5,1.6,9.2,2.9,14.8,2.9l10.2-0.1l-6.7-2.7c-6.7-2.7-25.1-15.8-26.5-18.7c0-0.1-0.1-0.1-0.1-0.2v-0.2c0.8-0.5,5-0.8,10-0.5
		l10.2,0.6L354,194.7c-10.8-8.3-17.4-11.9-25-13.5c-5.7-1.2-12.2-2.6-14.5-3.2c-6.1-1.4-16.3-12.1-20.5-21.3l-3.5-8.1l-4.9,8.2
		C282.9,161.4,276.3,168.2,271,172z M241.3,306.3c-0.3,1.6-2.6,3.5-6.8,5.8c-4.2,2.1-8.6,3.7-13.2,4.7c-6.3,1.2-7.1,0.7-9.7-4.8
		c-1.1-2.3-2.1-4.6-2.8-7c0,0,0-0.1,0-0.1v-0.1c1.4-1.4,12.3-2.7,20.2-2.7c2.2-0.1,4.5,0.1,6.7,0.5c2.6,0.5,4.3,1.3,5.1,2.2
		c0.2,0.2,0.3,0.4,0.4,0.6c0,0.1,0.1,0.2,0.1,0.3C241.3,305.8,241.3,306.1,241.3,306.3z M236.5,266.6c-5.1,2-6,1.6-10.2-4.3
		c-2.6-3.7-3.7-6.2-2.9-7.8c0.1-0.2,0.1-0.3,0.2-0.4l0.1-0.1l0.1-0.1c1-1,2.9-1.5,5.8-1.7c0.3,0,0.5-0.1,0.7-0.1
		c3.3-0.1,5.4,1.5,8,6l3.7,6.4L236.5,266.6z M367.8,336.8c0.6-3,9.7-10.2,13.6-10.7v0c0.1,0,0.3,0,0.4,0c1.1,0,3.6,1.3,5.5,2.9
		c3.5,2.8,3.5,3-0.9,8.2c-2.3,2.7-4.6,4.8-5.4,4.9h-0.1c-0.6-0.2-3.8-0.7-7.1-1.1c-3.7-0.5-6-2-6-3.8
		C367.8,337,367.8,336.9,367.8,336.8z M348,274.2c1.1-1.7,3-2.9,5.1-3c3.7-0.3,7.5,2.3,6.9,6.5c-0.7,5.3-6.5,6.9-11.3,3
		C345.9,278.4,345.8,277.6,348,274.2z M354.8,320.3L354.8,320.3c7.3-0.4,11.2,4.6,3.3,10.7c-5.1,3.9-12.6,4.1-17.2,0.4
		c-3.3-2.7-3.2-3.1,2.9-7.2C347.1,322,350.9,320.6,354.8,320.3z M330.3,247.1L330.3,247.1c2.2-0.2,4.3,0.2,6.3,1.1
		c3.9,1.6,4.6,3,3.9,7.2c-1,5.7-4.1,6.4-14.8,3c-5.3-1.7-5.8-2.5-4.1-6C323.3,249.2,326.6,247.2,330.3,247.1z M318.1,217.4
		c0.4-3.3,2-4.8,5.7-5.2c0.6,0,1.2-0.1,1.7-0.1V212c3.7-0.1,4.1,1.6,2.3,6.8c-0.6,1.8-3.2,3.2-5.7,3.2
		C318.5,222,317.7,221.1,318.1,217.4z M269.2,222.1L269.2,222.1l0.4-0.1c4.5,0,1.7,8.4-4,12.2c-5.1,3.4-10.5,4.9-12,3.6
		c-0.1-0.1-0.2-0.2-0.2-0.4v-0.1c0,0,0-0.1,0-0.1v-0.1c0,0,0-0.1,0-0.1c0-0.1,0-0.1,0-0.2C253.2,232.3,264,222.5,269.2,222.1z
		 M257.2,205.7c0.2,0,0.5,0,0.7,0c1.9,0,3.3,0.5,3.8,1.2l0.1,0.1v0.1c0.1,0.1,0.1,0.2,0.2,0.3c0,0,0,0.1,0,0.1c0,0,0,0.1,0,0.2
		c0,0,0,0.1,0,0.1c0,0.1,0,0.1,0,0.2v0.1c-0.4,1.3-2.5,3.7-4.8,5.3c-1.7,1.2-2.7,1.9-3.3,1.8h-0.1h-0.1c0,0-0.1-0.1-0.1-0.1
		c-0.4-0.5-0.5-1.7-0.5-4C253.1,207,253.8,205.9,257.2,205.7z M247.8,344.7c-2.5-9.1-2.7-10.3,0-10.4v0c0.3,0,0.7,0,1.2,0
		c5,0,7.8,4.1,7.8,11.6C256.8,355.9,250.7,355.1,247.8,344.7z M256.3,254.8c-1.6,2-3.4,3.9-5.4,5.6c-2.6,2.2-3.4,1.9-5.1-1.5
		c-2-4.1-2.6-6.8-1.6-8.4c0.9-1.4,3.1-2,6.7-2v-0.1h0.4C259,248.5,260.1,249.8,256.3,254.8z M258.8,287.4
		C258.8,287.4,258.8,287.3,258.8,287.4c0-0.1,0-0.1,0-0.2c-0.1-0.9,0.5-1.7,1.4-1.8c0,0,0,0,0,0v0c1.6-0.2,4.1,0.8,6.7,3
		c1.8,1.5,2.5,2.9,2.5,3.9c0,0.1,0,0.2,0,0.3c0,0.1,0,0.1,0,0.2c0,0.1,0,0.1-0.1,0.2c0,0.1-0.1,0.1-0.1,0.2v0.1l-0.1,0.1
		c-0.1,0.1-0.1,0.2-0.2,0.2l-0.1,0.1c-1.1,0.8-3.3,0.6-5.9-1.4C260.7,290.7,258.9,288.5,258.8,287.4z M274.5,350.4
		c-0.1,0.1-0.1,0.2-0.2,0.2c-0.1,0.1-0.1,0.1-0.2,0.2L274,351c-0.1,0.1-0.3,0.1-0.4,0.2h-0.2H273c-1.2-0.2-2.8-1.7-4.2-4.7
		c-1.6-3.4-2.3-5-2-5.7c0-0.1,0.1-0.1,0.1-0.2c0.2-0.1,0.4-0.2,0.6-0.2c0,0,0,0,0,0h0c0,0,0,0,0,0c0.9,0,1.7,0.1,2.6,0.3
		c2.4,0.4,4.3,2.1,4.9,4.5C275.4,347.7,275.2,349.5,274.5,350.4z M280.1,288.3c-1.4-4,0-6.8,3.3-7.1v0h0.4c0.3,0,0.6,0.1,0.8,0.2
		c0.2,0.1,0.3,0.1,0.5,0.2l0.1,0.1c0,0,0,0.1,0.1,0.1l0.1,0.1l0.1,0.1c0.6,1.1,0.8,2.4,0.5,3.7C285.3,291.1,281.7,292.7,280.1,288.3
		z M297.3,339.9c-0.1,0.8-2,4-4.4,7.1l-4.3,5.8l-2.3-7.5c-1.1-3.7-1.8-7.1-1.7-8h0.1c0.4-0.2,0.9-0.3,1.3-0.2
		C289,337,296.3,338.7,297.3,339.9L297.3,339.9z M313.1,303.5L313.1,303.5c-0.1,0-0.2,0-0.2,0h-0.2c-2.6,0-4.2-2.4-4.2-6.6
		c0-1.9,0.6-2.9,1.5-3l0,0c1.4-0.2,3.2,1.9,3.7,5.3C314,301.2,313.8,303,313.1,303.5z M313.8,247.8c-0.4,2.4-2.5,4-5.7,4.4
		c-2.4,0.3-3.9,0.2-4.5-0.5c0,0-0.1-0.1-0.1-0.1c0,0,0-0.1,0-0.1c0,0,0-0.1,0-0.2c-0.3-1.1,0.9-3.3,3.5-6.7c1.4-2,2.9-3,4.1-3.2
		v-0.1C313.2,241.2,314.6,243.5,313.8,247.8z M301.5,214.4c0.4-2.2,2.3-3.5,5.1-3.6l0,0h0.1c2.9,0,4.8,1.4,5.2,3.6
		c0.5,2.8-0.7,3.6-5.2,3.6c-2.6,0-4-0.3-4.8-1C301.4,216.3,301.2,215.3,301.5,214.4z M299.9,288.2c1.8,2.2,3.2,4.7,4.1,7.4
		c1.6,5.6-1,8-6,5.4c-5.4-2.8-6.7-7.1-3.6-12c1.2-1.9,2-2.8,2.7-2.9l0,0C297.9,286.2,298.6,286.9,299.9,288.2z M295.8,248.4
		c-1.3,0.8-2.7,1.5-4.1,1.9c0,0,0,0-0.1,0h-0.1l-5.2-1.7l-4.6-1.6l5.2-2.3c2.4-1.1,4.9-1.8,7.4-2.2l0-0.1h0.3
		C299,242.4,299.7,246.1,295.8,248.4z M292.1,212c2.5-0.2,3.5,1.3,3.5,4.5c0,3.8-1.5,5-8.3,6.8c-4.3,1.1-8.3,1.6-9.2,1.2h-0.1
		c-2.4-2.6-0.3-6,5.6-9.1C287.5,213.3,290.2,212.2,292.1,212z"/>
</g>
</svg>
