<?xml version="1.0" encoding="utf-8"?>
<!-- Generator: Adobe Illustrator 26.3.1, SVG Export Plug-In . SVG Version: 6.00 Build 0)  -->
<svg version="1.1" id="Layer_1" xmlns="http://www.w3.org/2000/svg" xmlns:xlink="http://www.w3.org/1999/xlink" x="0px" y="0px"
	 viewBox="0 0 600 600" style="enable-background:new 0 0 600 600;" xml:space="preserve">
<style type="text/css">
	.st0{clip-path:url(#SVGID_00000167365540547564275110000013556017481202391448_);}
	.st1{fill:#DB161B;}
	.st2{fill:#FFFFFF;}
	.st3{fill:#008000;}
	.st4{fill:#FFFFFF;stroke:#DB161B;stroke-width:0.38;}
	.st5{fill:#FFFFFF;stroke:#DB161B;stroke-width:0.35;}
	.st6{fill:#FFFFFF;stroke:#DB161B;stroke-width:0.22;}
	.st7{fill:#FFFFFF;stroke:#DB161B;stroke-width:1.33;}
	.st8{fill:#FFFFFF;stroke:#DB161B;stroke-width:0.56;}
	.st9{fill:#FFFFFF;stroke:#DB161B;stroke-width:0.33;}
	.st10{fill:#FFFFFF;stroke:#DB161B;stroke-width:0.45;}
	.st11{fill:#FFFFFF;stroke:#DB161B;stroke-width:0.39;}
	.st12{fill:#DB161B;stroke:#DB161B;stroke-width:1.33;}
	.st13{fill:#FFFFFF;stroke:#DB161B;stroke-width:0.41;}
	.st14{fill:#FFFFFF;stroke:#DB161B;stroke-width:4.46;}
	.st15{fill:#FFFFFF;stroke:#DB161B;stroke-width:0.25;}
	.st16{fill:#FFFFFF;stroke:#DB161B;stroke-width:0.43;}
	.st17{fill:#FFFFFF;stroke:#DB161B;stroke-width:0.36;}
</style>
<g>
	<g>
		<defs>
			<circle id="SVGID_1_" cx="300" cy="300.2" r="300"/>
		</defs>
		<clipPath id="SVGID_00000017479605121011051990000018364112261450774971_">
			<use xlink:href="#SVGID_1_"  style="overflow:visible;"/>
		</clipPath>
		<g style="clip-path:url(#SVGID_00000017479605121011051990000018364112261450774971_);">
			<path class="st1" d="M223.4,123.7v3.3c0,0.4-0.2,0.7-0.4,0.8v0.1c0,2.2,2.3,3.9,5.1,3.9c1.7,0,3.2-0.7,4.2-1.7
				c-0.2-0.2-0.4-0.7-0.4-1.4v-5.5c0-0.8,0.3-1.5,0.7-1.5h0.2c-0.8-1.4-2.6-2.3-4.6-2.3c-2.5,0-4.6,1.4-5,3.3
				C223.3,123.1,223.4,123.4,223.4,123.7z"/>
			<path class="st1" d="M225.7,117.3c-0.1,0.2-0.3,0.5-0.4,0.7c0.5-0.1,1-0.2,1.5-0.2L225.7,117.3z"/>
			<path class="st1" d="M340.5,197.1V0.2H0V600h340.5V406h573V197.1H340.5z M186.1,56.1c0.1,0,0.3,0,0.4,0c0.5-1.2,1.4-2.4,2.6-3.3
				c-0.1-0.1-0.1-0.1-0.1-0.1c0.9-0.6,1.9-1,2.9-1.4c0.1,0,0.1,0,0.2-0.1c0.9-0.5,1.8-0.8,2.9-0.9c0,0,0-0.1,0-0.1
				c0-1.4,1.3-2.5,2.9-2.5s2.9,1.1,2.9,2.5c0,0,0,0.1,0,0.1c1.1,0.1,1.9,0.4,2.8,0.9c1.1,0.4,2.1,0.9,3,1.5c0,0,0,0-0.1,0.1
				c1.2,0.9,2.1,2.1,2.6,3.3c0.1,0,0.3,0,0.4,0c1.6,0,2.9,1.1,2.9,2.5s-1.3,2.5-2.9,2.5c-0.3,0-0.5,0-0.8-0.1
				c-0.5,0.9-1.3,1.8-2.3,2.5c0.1,0.1,0.1,0.1,0.1,0.1c-0.9,0.5-1.8,1-2.7,1.4c-0.1,0-0.2,0.1-0.3,0.1c-0.6,0.3-1.2,0.6-1.8,0.7v3.7
				h-0.4v6.8h-8.1v-6.8H193v-3.7c-0.3-0.1-0.6-0.3-0.9-0.4c-1.3-0.4-2.4-1-3-1.8c0,0,0,0,0.1-0.1c-1-0.7-1.7-1.6-2.3-2.5
				c-0.2,0.1-0.5,0.1-0.8,0.1c-1.6,0-2.9-1.1-2.9-2.5S184.5,56.1,186.1,56.1z M279.2,213.1c-4.7,2.5-21.8-3.4-36.9-17.7l0.4-0.1
				c-11-8.8-23.5-20.2-36.2-32.9c-0.7-0.7-1.3-1.3-2-2c-4.6,4.1-11.6,6.2-20.8,6.3c-11.2,11-22.1,20.8-31.8,28.6l0.4,0.1
				c-15.1,14.4-32.2,20.3-36.9,17.7c-4.7-2.5,8.5-8.5,20.8-22v0l1.7,0.5c7.9-6.4,17.9-14.9,29.9-26.4c-8-1.1-17.3-2.9-25.4-5
				c0,0.2,0.1,0.3,0.1,0.5l-5.7-1.7c0-0.1-0.1-0.3-0.1-0.4c-8.7-2.7-15.1-5.8-15.1-8.8c0-2.8,6.4-4.5,15.1-5.6c0-0.1,0-0.2,0.1-0.3
				l5.7-0.8c0,0.2-0.1,0.4-0.1,0.6c12.3-1.1,26.8-1.3,34.1-1.7c0-0.2,0.1-0.4,0.1-0.5h4.6c0.7-0.5,1.2-2.1,1.5-5
				c-1.6-1.9-3.1-3.8-4.5-5.6c-1.3,0-2.5-0.5-3.4-1.3c-1.1,2-4.3,3.5-8.1,3.5c-3.8,0-7-1.4-8.1-3.4h-4.6v3.9
				c-0.1,1.6-1.4,2.9-3.1,2.9H120c-1.6,0-3-1.2-3.1-2.9v-14.5c0.1-1.6,1.4-2.9,3.1-2.9h30.8c1.6,0,3,1.2,3.1,2.9v2.2h4.3
				c0.6-2.4,4.1-4.2,8.4-4.2c-20-34.7-33.2-64-29.5-65.7c3.7-1.7,23.3,25.5,43.7,60.7l-1.3,0.6c1.1,1.6,2.3,3.3,3.7,5.2
				c0-0.7,0-1.4,0-2.1v-3.7v-4.2v-4.2v-2.6v-1.6v-2.6c4.3,0,7.1-2.5,7.1-5.1h1v-5h1l0-5.1h0l0-5.1h10.1v5.1v5.1h1v5h1
				c0,2.6,2.8,5.1,7.1,5.1v2.6h0v4.2v2.4v1.8v4.2v4.2v1.2c1.3-1.8,2.4-3.4,3.5-4.8l-1.3-0.6c20.4-35.2,39.9-62.4,43.7-60.7
				c3.7,1.7-9.7,31.5-30,66.6c0.2,0,0.5,0,0.8,0c4.3,0,7.8,1.8,8.4,4.2h4.1v-3.1c0.1-1.6,1.4-2.9,3.1-2.9h30.8c1.6,0,3,1.3,3.1,2.9
				v14.5c-0.1,1.6-1.4,2.9-3.1,2.9h-30.8c-1.6,0-3-1.2-3.1-2.9v-3h-4.4c-1.1,2-4.3,3.4-8.1,3.4c-4.7,0-8.5-2.2-8.5-4.9v-0.9h-1.1
				c-2.1,2.8-4.4,5.7-7,8.8v4.6c0,3-0.3,5.7-0.9,8.1c2.8,2.9,5.8,5.9,9,9c15.2,14.9,27.6,25.5,36.9,33.1l1.7-0.5l0,0
				C270.7,204.7,283.9,210.6,279.2,213.1z"/>
			<path class="st1" d="M170.4,127.5v-4.4c0-0.7,0.2-1.2,0.4-1.2h0.9c0-0.1-0.1-0.2-0.1-0.3c-0.3-0.4-0.6-0.9-0.9-1.3
				c-0.9-0.9-2.4-1.5-4-1.5c-2.1,0-3.9,1-4.7,2.3h0.1c0.4,0,0.7,0.7,0.7,1.5v5.4c0,0.6-0.2,1.1-0.4,1.3c0.9,1,2.5,1.7,4.2,1.7
				c2.1,0,3.9-0.9,4.7-2.3h-0.5C170.6,128.7,170.4,128.2,170.4,127.5z"/>
			<rect x="913.5" y="0.2" class="st2" width="286.5" height="196.8"/>
			<rect x="340.5" y="0.2" class="st2" width="573" height="196.8"/>
			<rect x="913.5" y="406" class="st3" width="286.5" height="194"/>
			<rect x="340.5" y="406" class="st3" width="573" height="194"/>
			<path class="st4" d="M152.9,132.8c-0.1,1.5-1.4,2.7-2.9,2.6h-29.2c-1.5,0.1-2.8-1.1-2.9-2.6v-13.3c0.1-1.5,1.4-2.7,2.9-2.6H150
				c1.5-0.1,2.8,1.1,2.9,2.6v1.6h1v-2.2c-0.1-1.6-1.4-2.9-3.1-2.9H120c-1.6,0-3,1.3-3.1,2.9v14.5c0.1,1.6,1.4,2.9,3.1,2.9h30.8
				c1.6,0,3-1.2,3.1-2.9v-3.9h-1V132.8z"/>
			<path class="st5" d="M150,116.9h-29.2c-1.5-0.1-2.8,1.1-2.9,2.6v13.3c0.1,1.5,1.4,2.7,2.9,2.6H150c1.5,0.1,2.8-1.1,2.9-2.6v-3.3
				h-2.6c-0.4,0-0.7-0.7-0.7-1.5v-5.5c0-0.8,0.3-1.5,0.7-1.5h2.6v-1.6C152.8,118,151.5,116.8,150,116.9z M140.6,126.7l-1.3-0.1
				l-0.7,0.9l1.5,1l-1.1,0.9l-1.2-0.9l-1.8,0.4l0.1,1.4l-1.9,0.1l-0.2-1.3l-1.6-0.7l-0.9,0.9l-1.4-0.7l0.8-1.1l-1-0.7h-1.3l-0.1-1.9
				l1.4,0.1l1-1.1l-1.1-0.9l1.4-1l1.1,0.8l1.8-0.2l0.2-0.7l1.8,0.1l0.1,0.8l1.4,0.7l1.1-0.9l1.4,0.7l-1.3,0.8l0.3,1.1l1.6-0.1V126.7
				z"/>
			<path class="st6" d="M138.6,124.2l1.3-0.8l-1.4-0.7l-1.1,0.9l-1.4-0.7l-0.1-0.8l-1.8-0.1l-0.2,0.7l-1.8,0.2l-1.1-0.8l-1.4,1
				l1.1,0.9l-1,1.1l-1.4-0.1l0.1,1.9h1.3l1,0.7l-0.8,1.1l1.4,0.7l0.9-0.9l1.6,0.7l0.2,1.3l1.9-0.1l-0.1-1.4l1.8-0.4l1.2,0.9l1.1-0.9
				l-1.5-1l0.7-0.9l1.3,0.1v-1.5l-1.6,0.1L138.6,124.2z M134.7,127.6c-1.1,0-1.9-0.7-1.9-1.7s0.9-1.7,1.9-1.7c1.1,0,1.9,0.7,1.9,1.7
				S135.7,127.6,134.7,127.6z"/>
			<path class="st7" d="M134.7,124.3c-1.1,0-1.9,0.7-1.9,1.7s0.9,1.7,1.9,1.7c1.1,0,1.9-0.7,1.9-1.7S135.7,124.3,134.7,124.3z"/>
			<path class="st4" d="M241.6,119.5c0.1-1.5,1.4-2.7,2.9-2.6h29.2c1.5-0.1,2.8,1.1,2.9,2.6v13.3c-0.1,1.5-1.4,2.7-2.9,2.6h-29.2
				c-1.5,0.1-2.8-1.1-2.9-2.6v-2.4h-1v3c0.1,1.6,1.4,2.9,3.1,2.9h30.8c1.6,0,3-1.2,3.1-2.9v-14.5c-0.1-1.6-1.4-2.9-3.1-2.9h-30.8
				c-1.6,0-3,1.2-3.1,2.9v3.1h1V119.5z"/>
			<path class="st5" d="M244.5,135.4h29.2c1.5,0.1,2.8-1.1,2.9-2.6v-13.3c-0.1-1.5-1.4-2.7-2.9-2.6h-29.2c-1.5-0.1-2.8,1.1-2.9,2.6
				v2.4h2c0.4,0,0.7,0.7,0.7,1.5v5.5c0,0.8-0.3,1.5-0.7,1.5h-2v2.4C241.7,134.3,243,135.5,244.5,135.4z M253.9,125.2l1.6,0.1
				l0.3-1.1l-1.3-0.8l1.4-0.7l1.1,0.9l1.5-0.7l0.1-0.8l1.8-0.1l0.2,0.7l1.8,0.2l1-0.8l1.5,1l-1.1,0.9l1,1.1l1.4-0.1l-0.1,1.9h-1.3
				l-1,0.7l0.8,1.1l-1.4,0.7l-0.9-0.9l-1.6,0.7l-0.2,1.3l-1.9-0.1l0.1-1.4l-1.8-0.4l-1.2,0.9l-1.1-0.9l1.5-1l-0.6-0.9l-1.3,0.1
				V125.2z"/>
			<path class="st6" d="M255.9,127.5l-1.5,1l1.1,0.9l1.2-0.9l1.8,0.4l-0.1,1.4l1.9,0.1l0.2-1.3l1.6-0.7l0.9,0.9l1.4-0.7l-0.8-1.1
				l1-0.7h1.3l0.1-1.9l-1.4,0.1l-1-1.1l1.1-0.9l-1.5-1l-1,0.8l-1.8-0.2l-0.2-0.7l-1.8,0.1l-0.1,0.8l-1.5,0.7l-1.1-0.9l-1.4,0.7
				l1.3,0.8l-0.3,1.1l-1.6-0.1v1.5l1.3-0.1L255.9,127.5z M259.8,124.3c1.1,0,1.9,0.7,1.9,1.7s-0.9,1.7-1.9,1.7
				c-1.1,0-1.9-0.7-1.9-1.7S258.8,124.3,259.8,124.3z"/>
			<path class="st7" d="M259.8,127.6c1.1,0,1.9-0.7,1.9-1.7s-0.9-1.7-1.9-1.7c-1.1,0-1.9,0.7-1.9,1.7S258.8,127.6,259.8,127.6z"/>
			<path class="st8" d="M158.7,181.9c-0.3-0.2-0.3-0.4-0.8-0.5c0.1,0,0.3,0.1,0.4,0.2c0.2,0.2,0.3,0.5,0.5,0.7
				c0.1,0.2,0.2,0.4,0.4,0.6c0-0.1,0-0.2,0-0.2C159,182.3,158.8,182.1,158.7,181.9z"/>
			<path class="st8" d="M212.6,127.9c-0.3-0.1-0.5-0.4-0.5-0.9v-3.3c0-0.5,0.3-1,0.6-1h0.2c-0.2-0.9-0.7-1.6-1.3-2v8.3
				C212,128.8,212.3,128.4,212.6,127.9z"/>
			<path class="st8" d="M181.3,166.6C181.3,166.6,181.3,166.7,181.3,166.6l-4.7,0c0-0.1,0-0.3-0.1-0.4c-1.1-0.1-2.3-0.2-3.5-0.4
				c-0.1,0.1-0.2,0.2-0.2,0.2c0.2,0,0.4,0.1,0.6,0.2c0.2,0.2,1.1,0.6,0.6,0.4c-0.4-0.3-0.8-0.4-1.3-0.4c0-0.1,0.1-0.1,0.1-0.2
				c-0.2,0-0.3,0-0.5,0c-0.5-0.1-0.9,0.1-1.4,0.2c-0.2,0.2-0.5,0.2-0.8,0.2c0.3,0,0.6-0.1,0.8-0.2c0.6-0.1,0.9-0.4,1.4-0.2
				c0.2,0,0.3,0,0.5,0c0.1-0.1,0.2-0.2,0.2-0.2c-1.6-0.2-3.4-0.4-5.2-0.7c-12.1,11.4-22,19.9-29.9,26.4l9.4,2.5v-0.2
				c0.1-0.4,0.2-0.8,0.2-1.2c0-0.5,0-1-0.1-1.4c0-0.4-0.2-0.8-0.4-1.1c-0.1-0.4-0.4-0.8-0.5-1.2c0.2,0.3,0.4,0.6,0.6,0.9
				c0.3,0.4,0.6,0.6,0.8,0.9c0.4,0.2,0.6,0.4,1,0.6c0.4,0.2,0.7,0.3,1.1,0.4c0.4,0.1,0.8,0.1,1.2,0c0.5,0,0.9,0,1.4-0.1
				c0.3-0.2,0.6-0.4,0.9-0.6c0.2-0.4,0.4-0.9,0.5-1.3c0.1-0.9-0.1-1.8-0.5-2.6c-0.2-0.1-0.7-0.5-0.8-0.5c0.1,0.1,0.6,0.4,0.8,0.5
				c0.4,0.8,0.6,1.7,0.5,2.6c-0.1,0.5-0.3,0.9-0.5,1.3c-0.3,0.2-0.6,0.4-0.9,0.6c-0.4,0.1-0.9,0.1-1.4,0.1c-0.4,0.1-0.8,0.1-1.2,0
				c-0.4-0.1-0.8-0.2-1.1-0.4c-0.4-0.2-0.6-0.4-1-0.6c-0.2-0.3-0.5-0.6-0.8-0.9c-0.2-0.3-0.5-0.6-0.6-0.9c0.1,0.4,0.4,0.8,0.5,1.2
				c0.2,0.3,0.4,0.7,0.4,1.1c0.1,0.5,0.1,1,0.1,1.4c0,0.4-0.1,0.8-0.2,1.2v0.2l4.6,1.2c9.7-7.8,20.6-17.6,31.8-28.6
				c-0.2,0-0.3,0-0.5,0C182.6,166.7,182,166.7,181.3,166.6z M161.6,183.7c-0.2,0.3-0.6,0.5-1,0.4c-0.5,0-0.5-0.2-0.8-0.3
				c-0.2-0.3-0.4-0.5-0.6-0.8c0,0,0-0.1-0.1-0.1c0.1,0.3,0.1,0.6,0.1,0.8c0,0.4,0,0.8-0.2,1.1c-0.2,0.2-0.4,0.4-0.6,0.6
				c-0.2,0.2-0.4,0.4-0.6,0.6c-0.3,0.2-0.5,0.3-0.8,0.5c-0.3,0.2-0.6,0.3-0.9,0.3c-0.4,0-0.7-0.1-1-0.3c-0.3-0.2-0.6-0.4-0.8-0.6
				c-0.2-0.2-0.4-0.4-0.6-0.7c-0.3-0.1-0.7-0.1-1,0.2c-0.2,0.2-0.4,0.3-0.6,0.6c-0.1,0.1-0.4,0.3-0.5,0.3c0.1-0.1,0.4-0.3,0.5-0.3
				c0.2-0.2,0.4-0.4,0.6-0.6c0.3-0.2,0.7-0.3,1-0.2c0.2,0.3,0.4,0.5,0.6,0.7c0.3,0.2,0.5,0.3,0.8,0.6c0.3,0.2,0.6,0.3,1,0.3
				c0.3,0,0.6-0.2,0.9-0.3c0.3-0.2,0.5-0.3,0.8-0.5c0.2-0.2,0.4-0.5,0.6-0.6c0.2-0.2,0.4-0.4,0.6-0.6c0.1-0.4,0.2-0.8,0.2-1.1
				c0-0.3-0.1-0.6-0.1-0.8c-0.1-0.2-0.2-0.5-0.4-0.6c-0.2-0.2-0.4-0.4-0.5-0.7c-0.1-0.1-0.3-0.1-0.4-0.2c0.5,0.1,0.5,0.2,0.8,0.5
				c0.2,0.2,0.3,0.5,0.4,0.7c0,0.1,0,0.2,0,0.2c0,0,0,0.1,0.1,0.1c0.2,0.3,0.4,0.6,0.6,0.8c0.4,0.1,0.3,0.3,0.8,0.3
				C161,184.2,161.4,184,161.6,183.7c0.2-0.2,0.3-0.5,0.3-0.5C161.9,183.2,161.8,183.4,161.6,183.7z M165.8,175.5h-1.6
				c-0.5,0-0.9,0.2-1.3,0.4c-0.3,0.3-0.7,0.6-1.1,0.7c-0.3,0.4-0.7,0.7-0.9,1.1c-0.2,0.4-0.2,0.9-0.2,1.4c0.1,0.4,0.1,0.8,0.2,1.2
				c0.1,0.5,0.4,0.9,0.7,1.2c0,0.1,0.1,0.2,0.2,0.2c-0.1,0-0.2-0.1-0.2-0.2c-0.3-0.4-0.6-0.8-0.7-1.2c-0.1-0.4-0.2-0.8-0.2-1.2
				c0-0.5,0.1-0.9,0.2-1.4c0.3-0.4,0.6-0.8,0.9-1.1c0.4-0.2,0.8-0.4,1.1-0.7c0.4-0.2,0.8-0.4,1.3-0.4H165.8c0.5,0.1,1.5,0.5,1.8,0.5
				C167.2,176,166.2,175.6,165.8,175.5z M173.1,168.7c-0.4-0.1-0.8-0.4-1.1-0.7c-0.1-0.3,0,0.5,0,0.8c0,0.6-0.3,0.6-0.6,1
				c-0.3,0.2-0.7,0.4-1.1,0.6c-0.3,0.2-0.7,0.4-1.1,0.5c-0.4,0.1-0.7,0.3-1.1,0.5c-0.4,0.2-0.4,0.5-0.6,0.9c0,0.4,0.2,0.8,0.5,1
				c0.2,0.4,0.4,0.7,0.7,0.9c0.3,0.5,0.6,0.7-0.1,0.8c-0.4,0.2-0.6,0-1,0c0.4,0,0.6,0.2,1,0c0.7-0.1,0.4-0.3,0.1-0.8
				c-0.3-0.3-0.5-0.6-0.7-0.9c-0.3-0.3-0.5-0.6-0.5-1c0.2-0.4,0.2-0.7,0.6-0.9c0.3-0.2,0.7-0.4,1.1-0.5c0.4-0.1,0.7-0.3,1.1-0.5
				c0.4-0.2,0.7-0.4,1.1-0.6c0.3-0.4,0.5-0.4,0.6-1c0-0.3-0.1-1.1,0-0.8C172.3,168.4,172.7,168.6,173.1,168.7c0.6,0.1,1.2,0.1,1.8,0
				C174.3,168.8,173.7,168.8,173.1,168.7z"/>
			<path class="st8" d="M211.6,131v5.7c2.5-3.1,4.9-6,7-8.8h-3.9C214.2,129.4,213.1,130.6,211.6,131z"/>
			<path class="st8" d="M211.6,118.8c1.8,0.5,3.1,2.1,3.3,4h4.8v-0.1c0-2.2,2.4-4,5.7-4.6c0.1-0.2,0.3-0.5,0.4-0.7l-10.7-4.9
				c-1,1.5-2.2,3.1-3.5,4.8v1.2V118.8z"/>
			<path class="st8" d="M173.9,166.7c0.5,0.2-0.4-0.2-0.6-0.4c-0.2-0.1-0.4-0.1-0.6-0.2c0,0-0.1,0.1-0.1,0.2
				C173.1,166.3,173.6,166.5,173.9,166.7z"/>
			<path class="st9" d="M118.5,212.7c-0.1,0-0.1-0.1-0.2-0.1c-0.8,0-1.5-0.1-2-0.4c-1-0.5-0.9-1.2,0.1-2.3c1-2.6,7.4-7,19-16.4
				c0.2-0.3,0.5-0.5,0.7-0.8l0.2,0c0.5-0.4,1-0.8,1.6-1.3l-1.7-0.5v0c-12.3,13.5-25.6,19.5-20.8,22c4.7,2.5,21.8-3.4,36.9-17.7
				l-0.4-0.1C136.3,207.7,123.9,214.9,118.5,212.7z"/>
			<path class="st9" d="M135.4,193.6c-11.7,9.4-18.1,13.8-19,16.4C118.9,207.4,127,202.5,135.4,193.6z"/>
			<path class="st9" d="M147.3,194.2v-0.1l-9.4-2.5c-0.5,0.4-1.1,0.9-1.6,1.3l13.1,3.3c-12.8,12-25.6,16.6-31.1,16.4
				c0.1,0,0.1,0.1,0.2,0.1c5.4,2.1,17.8-5,33.4-17.5l-4.6-1.2V194.2z"/>
			<path class="st9" d="M116.4,210c-1,1.1-1.2,1.8-0.1,2.3c0.5,0.2,1.2,0.4,2,0.4C116.6,211.9,116,211.2,116.4,210z"/>
			<path class="st9" d="M135.4,193.6c0.3-0.2,0.6-0.5,0.9-0.7l-0.2,0C135.9,193.1,135.7,193.4,135.4,193.6z"/>
			<path class="st9" d="M116.4,210c-0.4,1.1,0.2,1.9,1.9,2.6c5.6,0.1,18.3-4.4,31.1-16.4l-13.1-3.3c-0.3,0.2-0.6,0.5-0.9,0.7
				C127,202.5,118.9,207.4,116.4,210z M136.8,199.3c0.3,0.5,0.5,1.1,0.5,1.6c0.1,0.6,0.3,1.2,0.5,1.8c0.5,0,1-0.1,1.5-0.3
				c0.1-0.5,0.2-0.9,0.3-1.3c0-0.9,0-1.2,0.5-1.6c0.3-0.4,0.9-0.3,1.7-0.3c0.6-0.1,1.3-0.3,1.8-0.6c0.7-0.1,0.5-0.5,0.3-1
				c-0.3-0.5-0.8-0.8-1.3-1c-0.5-0.4-1.2-0.6-1.8-0.6c-1,0.2-1,0.5-1.5,0.9c-0.6,0.2-1.2,0.1-1.7-0.3c-0.2-0.8-0.2-1-0.2-0.6v-0.2
				v0.2c0-0.4,0-0.2,0.2,0.6c0.5,0.4,1.1,0.5,1.7,0.3c0.5-0.4,0.5-0.7,1.5-0.9c0.7,0,1.3,0.2,1.8,0.6c0.5,0.2,1,0.5,1.3,1
				c0.2,0.5,0.3,0.9-0.3,1c-0.6,0.3-1.2,0.5-1.8,0.6c-0.8,0-1.3-0.1-1.7,0.3c-0.5,0.5-0.5,0.8-0.5,1.6c-0.1,0.4-0.3,0.9-0.3,1.3
				c-0.5,0.2-1,0.3-1.5,0.3c-0.2-0.6-0.4-1.2-0.5-1.8C137.2,200.4,137,199.8,136.8,199.3c-0.3-0.4-0.7-0.7-1.2-1
				c-0.3-0.3-0.6-0.5-1-0.6c0.6,0.3,0.8,0.6,0.8,1.3c-0.5,0.3-1.1,0.5-1.7,0.4c-0.6,0.1-1.2-0.2-1.5-0.7c-0.1,0.6-0.3,1.1-0.5,1.6
				c-0.3,0.5-0.6,1-0.8,1.5c0.1,0.7,0.5,0.8,0.5,1.6c0.2,0.6,0.2,1.1,0.7,1.5c0.2,0.2,0.4,0.3,0.8,0.3c-0.8,0.1-1.5-0.1-2.2-0.5
				c-0.5-0.3-0.9-0.6-1.3-0.9c-0.6-0.4-1.3-0.7-2-0.9c-0.8,0-1.3-0.1-1.7,0.3c-0.5,0.4-0.9,0.9-1,1.5c-0.1,0.8-0.2,1.3,0.2,1.8
				c0.3,0.4,0.3,1,0,1.5c-0.4,0.5-1,0.5-1.8,0.7c-0.6,0-1.1-0.1-1.7-0.3c0.5,0.2,1.1,0.3,1.7,0.3c0.8-0.2,1.5-0.3,1.8-0.7
				c0.3-0.4,0.3-1,0-1.5c-0.4-0.5-0.3-1-0.2-1.8c0.1-0.6,0.5-1.1,1-1.5c0.4-0.4,0.9-0.3,1.7-0.3c0.7,0.2,1.4,0.5,2,0.9
				c0.5,0.3,0.8,0.6,1.3,0.9c0.7,0.4,1.4,0.5,2.2,0.5c-0.5,0-0.6-0.1-0.8-0.3c-0.5-0.3-0.5-0.9-0.7-1.5c0-0.9-0.4-0.9-0.5-1.6
				c0.3-0.5,0.5-1,0.8-1.5c0.2-0.5,0.4-1.1,0.5-1.6c0.3,0.5,0.9,0.8,1.5,0.7c0.6,0,1.2-0.1,1.7-0.4c-0.1-0.7-0.2-1.1-0.8-1.3
				c0.4,0.1,0.7,0.3,1,0.6C136,198.6,136.4,198.9,136.8,199.3z"/>
			<path class="st10" d="M216.3,110.4c2.1-3.6,4.2-7.4,6.2-10.7l0.1,0c16.6-27.6,30.9-47.5,33.5-46.3c2.6,1.2-7.4,23.1-23,51.2
				l0.1,0.1c-2.2,4-4.9,8.5-7.4,12.8l-0.1-0.1c0,0,0,0,0,0l1,0.5c0.2,0,0.4,0,0.6,0c20.3-35.1,33.8-64.9,30-66.6
				c-3.7-1.7-23.3,25.5-43.7,60.7l1.3,0.6c0.1-0.2,0.3-0.4,0.4-0.6C215.7,111.3,216,110.8,216.3,110.4z"/>
			<path class="st10" d="M225.8,117.3l-10.6-4.9c0,0,0,0,0,0l0,0c0.1-0.2,0.2-0.4,0.3-0.5c-0.1,0.2-0.3,0.4-0.4,0.6L225.8,117.3
				C225.7,117.3,225.8,117.3,225.8,117.3z"/>
			<path class="st11" d="M216.3,110.4c-0.3,0.5-0.6,0.9-0.8,1.4c0,0,0-0.1,0.1-0.1C215.8,111.3,216,110.8,216.3,110.4z"/>
			<path class="st11" d="M228.5,100.5c1.3,0.5,2,1.5,2.2,2.9l2.4,1.1c15.6-28.1,25.6-50,23-51.2c-2.6-1.2-16.9,18.7-33.5,46.3
				l1.7,0.8C225.5,99.8,226.8,99.8,228.5,100.5z M253,57c0.8-0.2,1.7,0.2,1.8,1c0.2,0.7-0.4,1.5-1.2,1.7c-0.8,0.2-1.7-0.2-1.8-1
				C251.6,58,252.1,57.2,253,57z"/>
			<path class="st11" d="M228.5,100.5c-1.7-0.7-3-0.7-4.2-0.1l6.4,3C230.5,102,229.8,101,228.5,100.5z"/>
			<path class="st11" d="M215.5,111.8c-0.1,0.2-0.2,0.4-0.3,0.5l0,0C215.3,112.1,215.4,111.9,215.5,111.8
				C215.5,111.7,215.5,111.8,215.5,111.8z"/>
			<path class="st10" d="M233.3,104.6l-0.1-0.1c-2.3,4.1-4.7,8.4-7.2,12.8l-0.1-0.1c0,0,0,0,0,0l0.1,0.1
				C228.4,113.1,231,108.7,233.3,104.6z"/>
			<path class="st10" d="M222.5,99.6c-2,3.4-4.1,7.1-6.2,10.7c2.1-3.7,4.3-7.2,6.3-10.7L222.5,99.6z"/>
			<path class="st10" d="M215.2,112.3C215.1,112.3,215.1,112.4,215.2,112.3l10.6,5c0,0,0,0,0,0L215.2,112.3z"/>
			<path class="st10" d="M230.8,104.4l0.7,0.3c-0.3,0.6-0.6,1.1-0.9,1.7c-0.6,2.8-2.2,6.5-4.8,10.9l0.1,0.1
				c2.5-4.4,4.9-8.6,7.2-12.8l-2.4-1.1C230.8,103.7,230.8,104.1,230.8,104.4z"/>
			<path class="st10" d="M223.4,101.1C223.4,101.1,223.4,101,223.4,101.1L223.4,101.1c0.4-0.3,0.6-0.5,0.9-0.6l-1.7-0.8
				c-2.1,3.5-4.2,7-6.3,10.7c-0.3,0.4-0.5,0.9-0.8,1.3C219.4,106.1,221.5,102.7,223.4,101.1z"/>
			<path class="st10" d="M230.6,106.4c-1.8,3.2-3.5,5.9-5.6,9.6l-8.1-3.7c2.4-4.2,4.1-7.2,6.5-11.2c-1.9,1.6-4,5-7.9,10.6
				c-0.1,0.2-0.2,0.4-0.4,0.6l10.6,4.9C228.4,112.9,230,109.2,230.6,106.4z"/>
			<path class="st10" d="M230.7,103.4l-6.4-3c-0.3,0.2-0.6,0.3-0.8,0.6l7.3,3.4C230.8,104.1,230.8,103.7,230.7,103.4z"/>
			<path class="st10" d="M230.8,104.4c0,0.6-0.1,1.3-0.2,2c0.3-0.5,0.6-1.1,0.9-1.7L230.8,104.4z"/>
			<path class="st10" d="M223.4,101C223.4,101,223.4,101.1,223.4,101C223.4,101.1,223.4,101,223.4,101L223.4,101z"/>
			<path class="st10" d="M230.8,104.4l-7.3-3.4c0,0-0.1,0-0.1,0.1c-2.4,4-4,6.9-6.5,11.2l8.1,3.7c2.1-3.6,3.8-6.3,5.6-9.6
				C230.7,105.7,230.8,105,230.8,104.4z M224.5,113.8l-5.4-2.5l4.8-8.2l5.4,2.5L224.5,113.8z"/>
			<polygon class="st10" points="223.9,103.1 219.1,111.3 224.5,113.8 229.3,105.6 			"/>
			<path class="st12" d="M253.6,59.7c0.8-0.2,1.4-1,1.2-1.7c-0.2-0.7-1-1.2-1.8-1c-0.8,0.2-1.4,1-1.2,1.7
				C251.9,59.5,252.8,59.9,253.6,59.7z"/>
			<path class="st8" d="M181.3,129.5c-0.8,0.8-1.8,1.2-3,1.3c-0.1,0-0.1,0-0.2,0c1.4,1.8,2.9,3.7,4.5,5.6c0.1-1.4,0.2-3,0.3-5.1
				C182.3,130.9,181.7,130.2,181.3,129.5z"/>
			<path class="st8" d="M220.5,166.7c0.4-0.3,0.8-0.4,1.3-0.4c0-0.1-0.1-0.1-0.1-0.2c-0.2,0-0.4,0.1-0.6,0.2
				C220.9,166.5,220,167,220.5,166.7z"/>
			<path class="st8" d="M214.5,160.9c0.1-0.3,0.1-0.7,0.2-1C214.6,160.2,214.5,160.5,214.5,160.9z"/>
			<path class="st8" d="M170.6,120.3c0.3,0.4,0.6,0.9,0.9,1.3C171.3,121.1,171,120.7,170.6,120.3z"/>
			<path class="st8" d="M247.3,193.9c-0.1-0.4-0.2-0.8-0.2-1.2c0-0.5,0-1,0.1-1.4c0-0.4,0.2-0.8,0.4-1.1c0.1-0.4,0.4-0.8,0.5-1.2
				c-0.2,0.3-0.4,0.6-0.6,0.9c-0.3,0.4-0.6,0.6-0.8,0.9c-0.4,0.2-0.6,0.4-1,0.6c-0.4,0.2-0.7,0.3-1.1,0.4c-0.4,0.1-0.8,0.1-1.2,0
				c-0.5,0-0.9,0-1.4-0.1c-0.3-0.2-0.6-0.4-0.9-0.6c-0.2-0.4-0.5-0.9-0.6-1.3c-0.1-0.9,0.1-1.8,0.5-2.6c0.2-0.1,0.7-0.5,0.8-0.5
				c-0.1,0.1-0.6,0.4-0.8,0.5c-0.4,0.8-0.6,1.7-0.5,2.6c0.2,0.5,0.4,0.9,0.6,1.3c0.3,0.2,0.6,0.4,0.9,0.6c0.4,0.1,0.9,0.1,1.4,0.1
				c0.4,0.1,0.8,0.1,1.2,0c0.4-0.1,0.8-0.2,1.1-0.4c0.4-0.2,0.6-0.4,1-0.6c0.2-0.3,0.5-0.6,0.8-0.9c0.2-0.3,0.5-0.6,0.6-0.9
				c-0.1,0.4-0.4,0.8-0.5,1.2c-0.2,0.3-0.4,0.7-0.4,1.1c-0.1,0.5-0.1,1-0.1,1.4C247.1,193.1,247.2,193.5,247.3,193.9v0.2l9.3-2.4
				c-9.4-7.6-21.7-18.2-36.9-33.1c-3.2-3.2-6.2-6.2-9-9c-1.1,4.5-3.1,8.1-6.2,10.9c0.7,0.7,1.3,1.3,2,2
				c12.7,12.7,25.2,24.1,36.2,32.9l4.7-1.2V193.9z M212,161.6c-0.4-0.2-0.8-0.4-1.2-0.6c-0.4-0.1-0.7-0.4-0.9-0.7
				c-0.5-0.1-0.4-0.5-0.6-0.8c-0.1-0.4-0.1-0.9-0.1-1.4c-0.1-0.4-0.2-1.3-0.2-1.6c0,0.2,0.1,1.2,0.2,1.6c0,0.5,0,0.9,0.1,1.4
				c0.2,0.4,0.1,0.7,0.6,0.8c0.2,0.3,0.5,0.6,0.9,0.7C211.2,161.3,211.6,161.5,212,161.6c0.4,0.2,0.9,0.2,1.4,0.1
				c0.4-0.3,0.7-0.5,1.1-0.7c0,0,0-0.1,0-0.2c0-0.3,0.1-0.7,0.2-1c-0.1,0.3-0.1,0.7-0.2,1c0,0.1,0,0.2,0,0.4
				c0.1,0.4,0.2,0.8,0.5,1.1c-0.3-0.3-0.4-0.7-0.5-1.1c0-0.1,0-0.2,0-0.4c0,0.1,0,0.1,0,0.2c-0.3,0.2-0.6,0.5-1.1,0.7
				C212.9,161.9,212.4,161.8,212,161.6z M217,162.8h-1.6c-0.5,0.1-1,0.2-1.5,0.4c-0.6,0.3-0.8,0.4-0.5,0.2l-0.1,0.1l0.1-0.1
				c-0.3,0.2-0.2,0.1,0.5-0.2c0.5-0.2,1-0.4,1.5-0.4H217c0.5,0,1,0.1,1.5,0.2c0.3,0.3,0.8,0.5,1.2,0.7c0.3,0.2,0.6,0.5,0.7,0.8
				c0.3,0.3,0.5,0.7,0.8,1c0.1,0.4,0.3,0.5,0.5,0.7c0.2,0,0.3,0,0.5,0c0.5-0.1,0.9,0.1,1.4,0.2c0.2,0.2,0.5,0.2,0.8,0.2
				c-0.3,0-0.6-0.1-0.8-0.2c-0.6-0.1-0.9-0.4-1.4-0.2c-0.2,0-0.3,0-0.5,0c0,0,0.1,0.1,0.1,0.2c-0.5,0-0.9,0.1-1.3,0.4
				c-0.5,0.2,0.4-0.2,0.6-0.4c0.2-0.1,0.4-0.1,0.6-0.2c-0.2-0.2-0.4-0.3-0.5-0.7c-0.3-0.2-0.5-0.7-0.8-1c-0.2-0.3-0.4-0.6-0.7-0.8
				c-0.3-0.3-0.8-0.4-1.2-0.7C218,162.9,217.5,162.8,217,162.8z M225.7,175.2c0.4,0.2,0.6,0,1,0
				C226.3,175.2,226.1,175.4,225.7,175.2c-0.7-0.1-0.4-0.3-0.1-0.8c0.3-0.3,0.5-0.6,0.7-0.9c0.3-0.3,0.5-0.6,0.5-1
				c-0.2-0.4-0.2-0.7-0.6-0.9c-0.3-0.2-0.7-0.4-1.1-0.5c-0.4-0.1-0.7-0.3-1.1-0.5c-0.4-0.2-0.7-0.4-1.1-0.6c-0.3-0.4-0.5-0.4-0.6-1
				c0-0.3,0.1-1.1,0-0.8c-0.2,0.4-0.6,0.6-1.1,0.7c-0.6,0.1-1.2,0.1-1.8,0c0.6,0.1,1.2,0.1,1.8,0c0.4-0.1,0.8-0.4,1.1-0.7
				c0.1-0.3,0,0.5,0,0.8c0,0.6,0.3,0.6,0.6,1c0.3,0.2,0.7,0.4,1.1,0.6c0.3,0.2,0.7,0.4,1.1,0.5c0.4,0.1,0.7,0.3,1.1,0.5
				c0.4,0.2,0.4,0.5,0.6,0.9c0,0.4-0.2,0.8-0.5,1c-0.2,0.4-0.4,0.7-0.7,0.9C225.3,174.9,225,175.1,225.7,175.2z M230.4,175.5h-1.6
				c-0.5,0.1-1.5,0.5-1.8,0.5c0.3,0,1.3-0.4,1.8-0.5H230.4c0.5,0,0.9,0.2,1.3,0.4c0.3,0.3,0.7,0.6,1.1,0.7c0.3,0.4,0.7,0.7,0.9,1.1
				c0.2,0.4,0.2,0.9,0.2,1.4c-0.1,0.4-0.1,0.8-0.2,1.2c-0.1,0.5-0.4,0.9-0.7,1.2c0,0.1-0.1,0.2-0.2,0.2c0.1,0,0.2-0.1,0.2-0.2
				c0.3-0.4,0.6-0.8,0.7-1.2c0.1-0.4,0.2-0.8,0.2-1.2c0-0.5-0.1-0.9-0.2-1.4c-0.3-0.4-0.6-0.8-0.9-1.1c-0.4-0.2-0.8-0.4-1.1-0.7
				C231.3,175.6,230.8,175.5,230.4,175.5z M239.2,186.5c-0.3,0.2-0.6,0.3-1,0.3c-0.3,0-0.6-0.2-0.9-0.3c-0.3-0.2-0.5-0.3-0.8-0.5
				c-0.2-0.2-0.4-0.5-0.6-0.6c-0.2-0.2-0.4-0.4-0.6-0.6c-0.1-0.4-0.2-0.8-0.2-1.1c0-0.3,0.1-0.6,0.1-0.8c0,0,0,0.1-0.1,0.1
				c-0.2,0.3-0.4,0.6-0.6,0.8c-0.4,0.1-0.3,0.3-0.8,0.3c-0.4,0.1-0.8-0.1-1-0.4c-0.2-0.2-0.3-0.5-0.3-0.5c0,0,0.2,0.3,0.3,0.5
				c0.2,0.3,0.6,0.5,1,0.4c0.5,0,0.5-0.2,0.8-0.3c0.2-0.3,0.4-0.5,0.6-0.8c0,0,0-0.1,0.1-0.1c0-0.1,0-0.2,0-0.2
				c0.1-0.3,0.3-0.5,0.4-0.7c0.3-0.2,0.3-0.4,0.8-0.5c-0.1,0-0.3,0.1-0.4,0.2c-0.2,0.2-0.3,0.5-0.5,0.7c-0.1,0.2-0.2,0.4-0.4,0.6
				c-0.1,0.3-0.1,0.6-0.1,0.8c0,0.4,0,0.8,0.2,1.1c0.2,0.2,0.4,0.4,0.6,0.6c0.2,0.2,0.4,0.4,0.6,0.6c0.3,0.2,0.4,0.3,0.8,0.5
				c0.3,0.2,0.6,0.3,0.9,0.3C238.6,186.8,238.9,186.7,239.2,186.5c0.3-0.2,0.6-0.4,0.8-0.6c0.2-0.2,0.4-0.4,0.6-0.7
				c0.3-0.1,0.7-0.1,1,0.2c0.2,0.2,0.4,0.3,0.6,0.6c0.1,0.1,0.4,0.3,0.5,0.3c-0.1-0.1-0.4-0.3-0.5-0.3c-0.2-0.2-0.4-0.4-0.6-0.6
				c-0.3-0.2-0.7-0.3-1-0.2c-0.2,0.3-0.4,0.5-0.6,0.7C239.8,186.2,239.5,186.3,239.2,186.5z"/>
			<path class="st8" d="M178,121.1c-0.7,0-1.3,0.3-1.8,0.9h0.5c0.2,0,0.4,0.5,0.4,1.2v4.4c0,0.6-0.1,1.1-0.3,1.2
				c0.4,0.2,0.8,0.4,1.3,0.4c1.5,0,2.6-1.4,2.8-3.2v-1.6C180.6,122.5,179.5,121.1,178,121.1z"/>
			<path class="st8" d="M236.2,181.5c0.1-0.1,0.3-0.1,0.4-0.2c-0.5,0.1-0.5,0.2-0.8,0.5c-0.2,0.2-0.3,0.5-0.4,0.7c0,0.1,0,0.2,0,0.2
				c0.1-0.2,0.2-0.5,0.4-0.6C235.9,182,236.1,181.8,236.2,181.5z"/>
			<path class="st8" d="M182.9,122.8h0.2c0-0.6,0-1.1,0-1.7c-0.3,0.5-0.4,1.1-0.4,1.7C182.8,122.8,182.9,122.8,182.9,122.8
				C182.9,122.8,182.9,122.8,182.9,122.8z"/>
			<path class="st8" d="M174.8,120.5c0.8-0.7,2-1.2,3.2-1.1c1.2,0,2.3,0.4,3.2,1.1c0.4-1,1.1-1.7,2-2.2c0-0.2,0-0.5,0-0.8
				c-1.4-1.9-2.6-3.6-3.7-5.2l-10.3,4.7C172,117.6,174.1,118.9,174.8,120.5z"/>
			<path class="st8" d="M182.9,127.9C182.9,127.9,182.9,127.9,182.9,127.9c0,0.2,0,0.4,0.1,0.6c0-0.2,0-0.4,0-0.6H182.9z"/>
			<path class="st9" d="M258.4,191.1L258.4,191.1l-1.7,0.5c0.5,0.4,1.1,0.9,1.6,1.3l0.2,0c0.2,0.3,0.5,0.5,0.7,0.8
				c11.7,9.4,18.1,13.8,19,16.4c1,1.1,1.2,1.8,0.1,2.2c-0.5,0.2-1.1,0.3-2,0.4c-0.1,0-0.2,0.1-0.2,0.1c-5.4,2.1-17.8-5-33.4-17.5
				l-0.4,0.1c15.1,14.4,32.2,20.3,36.9,17.7C283.9,210.6,270.7,204.7,258.4,191.1z"/>
			<path class="st9" d="M276,212.7c0.1,0,0.2-0.1,0.2-0.1c-5.6,0.1-18.3-4.4-31.2-16.4l13.1-3.3c-0.5-0.4-1-0.8-1.6-1.3l-9.3,2.4
				v0.1v-0.1l-4.7,1.2C258.2,207.7,270.6,214.9,276,212.7z"/>
			<path class="st9" d="M278.1,210c-1-2.6-7.4-7-19-16.4C267.5,202.5,275.5,207.4,278.1,210z"/>
			<path class="st9" d="M258.4,192.8l-0.2,0c0.3,0.2,0.6,0.5,0.9,0.7C258.8,193.4,258.6,193.1,258.4,192.8z"/>
			<path class="st9" d="M276.3,212.6c0.8,0,1.5-0.1,2-0.4c1.1-0.5,0.9-1.2-0.1-2.2C278.5,211.1,277.9,211.9,276.3,212.6z"/>
			<path class="st9" d="M276.3,212.6c1.6-0.7,2.3-1.5,1.8-2.6c-2.6-2.7-10.7-7.6-19-16.4c-0.3-0.2-0.6-0.5-0.9-0.7l-13.1,3.3
				C258,208.3,270.7,212.8,276.3,212.6z M252,196.6c0.5-0.4,1.2-0.6,1.8-0.6c1,0.2,1,0.5,1.5,0.9c0.6,0.2,1.2,0.1,1.7-0.3
				c0.2-0.8,0.2-1,0.2-0.6v-0.2v0.2c0-0.4,0-0.2-0.2,0.6c-0.5,0.4-1.1,0.5-1.7,0.3c-0.5-0.4-0.5-0.7-1.5-0.9
				C253.1,196,252.5,196.2,252,196.6c-0.5,0.2-1,0.5-1.3,1c-0.2,0.5-0.3,0.9,0.3,1c0.6,0.3,1.2,0.5,1.8,0.6c0.8,0,1.3-0.1,1.7,0.3
				c0.5,0.5,0.5,0.8,0.5,1.6c0.1,0.4,0.3,0.9,0.3,1.3c0.5,0.2,1,0.3,1.5,0.3c0.2-0.6,0.4-1.2,0.5-1.8c0-0.6,0.2-1.1,0.5-1.6
				c0.3-0.4,0.7-0.7,1.2-1c0.3-0.3,0.6-0.5,1-0.6c-0.7,0.3-0.8,0.6-0.8,1.3c0.5,0.3,1.1,0.5,1.7,0.4c0.6,0.1,1.2-0.2,1.5-0.7
				c0.1,0.6,0.3,1.1,0.5,1.6c0.3,0.5,0.6,1,0.8,1.5c-0.1,0.7-0.5,0.8-0.5,1.6c-0.2,0.6-0.2,1.1-0.7,1.5c-0.2,0.2-0.4,0.3-0.8,0.3
				c0.8,0.1,1.5-0.1,2.2-0.5c0.5-0.3,0.9-0.6,1.3-0.9c0.6-0.4,1.3-0.7,2-0.9c0.8,0,1.3-0.1,1.7,0.3c0.5,0.4,0.9,0.9,1,1.5
				c0.2,0.8,0.2,1.3-0.2,1.8c-0.3,0.4-0.3,1,0,1.5c0.4,0.5,1,0.5,1.8,0.7c0.6,0,1.1-0.1,1.7-0.3c-0.5,0.2-1.1,0.3-1.7,0.3
				c-0.8-0.2-1.4-0.3-1.8-0.7c-0.3-0.4-0.3-1,0-1.5c0.4-0.5,0.3-1,0.2-1.8c-0.1-0.6-0.5-1.1-1-1.5c-0.3-0.4-0.9-0.3-1.7-0.3
				c-0.7,0.2-1.4,0.5-2,0.9c-0.5,0.3-0.8,0.6-1.3,0.9c-0.7,0.4-1.4,0.5-2.2,0.5c0.5,0,0.6-0.1,0.8-0.3c0.5-0.3,0.5-0.9,0.7-1.5
				c0-0.9,0.4-0.9,0.5-1.6c-0.3-0.5-0.5-1-0.8-1.5c-0.2-0.5-0.4-1.1-0.5-1.6c-0.3,0.5-0.9,0.8-1.5,0.7c-0.6,0-1.2-0.1-1.7-0.4
				c0.1-0.7,0.2-1.1,0.8-1.3c-0.4,0.1-0.7,0.3-1,0.6c-0.4,0.3-0.8,0.6-1.2,1c-0.3,0.5-0.5,1.1-0.5,1.6c-0.1,0.6-0.3,1.2-0.5,1.8
				c-0.5,0-1-0.1-1.5-0.3c-0.1-0.5-0.2-0.9-0.3-1.3c0-0.9,0-1.2-0.5-1.6c-0.3-0.4-0.9-0.3-1.7-0.3c-0.6-0.1-1.3-0.3-1.8-0.6
				c-0.7-0.1-0.5-0.5-0.3-1C250.9,197.1,251.4,196.8,252,196.6z"/>
			<path class="st10" d="M168.4,117c-2.4-4.1-5-8.5-7.2-12.4l0.1-0.1c-15.6-28.1-25.6-50-23-51.2c2.6-1.2,16.9,18.7,33.5,46.3
				l0.1-0.1c2.3,3.9,4.8,8.2,7.1,12.3c0.1,0.1,0.2,0.3,0.3,0.4l1.3-0.6c-20.4-35.2-39.9-62.4-43.7-60.7c-3.7,1.7,9.5,31,29.5,65.7
				c0,0,0,0,0,0C167.2,116.9,167.8,116.9,168.4,117z"/>
			<path class="st10" d="M179.4,112.4l-10.2,4.7c0,0,0,0,0,0L179.4,112.4c0-0.1-0.1-0.3-0.2-0.4
				C179.2,112.1,179.3,112.2,179.4,112.4z"/>
			<path class="st11" d="M166,100.5c1.7-0.7,3-0.7,4.2-0.1l1.7-0.8c-16.6-27.6-30.9-47.5-33.5-46.3c-2.6,1.2,7.4,23.1,23,51.2
				l2.4-1.1C164,102,164.7,101,166,100.5z M140.9,59.7c-0.8-0.2-1.4-1-1.2-1.7c0.2-0.7,1-1.2,1.8-1c0.8,0.2,1.4,1,1.2,1.7
				C142.6,59.5,141.7,59.9,140.9,59.7z"/>
			<path class="st11" d="M166,100.5c-1.3,0.5-2,1.5-2.2,2.9l6.4-3C169,99.8,167.7,99.8,166,100.5z"/>
			<path class="st10" d="M179.1,111.9c-2.4-4.1-4.8-8.5-7.1-12.3l-0.1,0.1C174.2,103.6,176.7,107.7,179.1,111.9
				C179.1,111.9,179.1,111.9,179.1,111.9z"/>
			<path class="st10" d="M161.4,104.6l-0.1,0.1c2.2,3.9,4.8,8.2,7.2,12.4c0,0,0,0,0,0C165.9,112.7,163.6,108.6,161.4,104.6z"/>
			<path class="st10" d="M179.4,112.3l-10.2,4.8c0,0,0,0,0.1,0L179.4,112.3c-0.1-0.1-0.1-0.2-0.2-0.4c0,0,0-0.1-0.1-0.1
				C179.2,112,179.3,112.2,179.4,112.3z"/>
			<path class="st10" d="M171,101L171,101c0.1,0,0.1,0,0.1,0.1c1.9,1.6,4,5.1,8,10.8c-2.4-4.2-4.8-8.3-7.2-12.2l-1.7,0.8
				C170.5,100.6,170.8,100.8,171,101z"/>
			<path class="st10" d="M168.6,117c-2.5-4.3-4.1-7.9-4.7-10.7c-0.3-0.5-0.6-1-0.9-1.6l0.7-0.3c0-0.3,0-0.7,0.1-1l-2.4,1.1
				c2.2,4,4.6,8.2,7,12.4C168.5,117,168.5,117,168.6,117z"/>
			<path class="st10" d="M179.4,112.3c-0.1-0.2-0.2-0.3-0.3-0.5c-4-5.7-6.1-9.1-8-10.8c2.4,3.9,4,6.9,6.5,11.2l-8.1,3.7
				c-2.1-3.7-3.8-6.4-5.6-9.7c0.5,2.8,2.2,6.4,4.7,10.7c0.2,0,0.4,0,0.5,0.1L179.4,112.3z"/>
			<path class="st10" d="M170.2,100.5l-6.4,3c0,0.3-0.1,0.6-0.1,1l7.3-3.4C170.8,100.8,170.5,100.6,170.2,100.5z"/>
			<path class="st10" d="M171.1,101L171.1,101c0,0,0,0.1,0.1,0.1C171.1,101.1,171.1,101,171.1,101z"/>
			<path class="st10" d="M163.7,104.4l-0.7,0.3c0.3,0.6,0.6,1.1,0.9,1.6C163.8,105.6,163.7,105,163.7,104.4z"/>
			<path class="st10" d="M177.6,112.3c-2.4-4.2-4.1-7.2-6.5-11.2c0,0-0.1-0.1-0.1-0.1l-7.3,3.4c0,0.6,0.1,1.2,0.2,1.9
				c1.9,3.3,3.5,6,5.6,9.7L177.6,112.3z M170.6,103.1l4.8,8.2l-5.4,2.5l-4.8-8.2L170.6,103.1z"/>
			<polygon class="st10" points="175.4,111.3 170.6,103.1 165.2,105.6 170,113.8 			"/>
			<path class="st12" d="M141.5,57c-0.8-0.2-1.7,0.2-1.8,1c-0.2,0.7,0.4,1.5,1.2,1.7c0.8,0.2,1.7-0.2,1.8-1
				C142.9,58,142.4,57.2,141.5,57z"/>
			<path class="st13" d="M188,162.4c-1.5,1.5-2.9,2.9-4.3,4.3c9.2-0.1,16.1-2.2,20.8-6.3c-2.5-2.5-4.9-5-7.2-7.5
				C194.3,156,191.2,159.1,188,162.4z"/>
			<path class="st13" d="M187.1,122.8h1.2c0-0.8-0.2-1.4-0.6-2c-0.8-0.1-1.6-0.2-2.4-0.3C185.9,121.2,186.5,122,187.1,122.8z"/>
			<path class="st13" d="M175.5,157.8c-0.3-5.3,0-10.7,1-15.9c-7.3,0.4-21.9,0.6-34.1,1.7c-1.1,5.5-1.1,11.2,0,16.7
				c8.1,2.1,17.4,3.9,25.4,5c2.3-2.1,4.6-4.4,7-6.8C175,158.3,175.3,158.1,175.5,157.8z"/>
			<path class="st13" d="M211.6,99.1L211.6,99.1L211.6,99.1C211.6,99.1,211.6,99.1,211.6,99.1z"/>
			<path class="st13" d="M210.7,149.5c0.6-2.5,0.9-5.1,0.9-8.1v-4.6c-1.9,2.3-4,4.8-6.2,7.2C207.1,145.7,208.8,147.6,210.7,149.5z"
				/>
			<path class="st13" d="M136.7,144.2c-8.6,1.1-15.1,2.8-15.1,5.6c0,3.1,6.3,6.2,15.1,8.8C135.5,153.9,135.6,148.9,136.7,144.2z"/>
			<path class="st13" d="M190.3,122.8h11.4c0-0.5,0.2-0.8,0.3-0.8h3.6c0.1-0.4,0.3-0.7,0.5-1.1c-5.3,0.5-10.6,0.5-16,0.1
				c0.1,0.4,0.2,0.7,0.2,1.1V122.8z"/>
			<path class="st13" d="M208,122c0.4-0.5,0.7-1,1.1-1.4c0,0,0,0-0.1,0c-0.5,0.3-1,0.8-1.3,1.4L208,122C207.9,121.9,208,122,208,122
				z"/>
			<path class="st13" d="M180.1,153.2c3.3-3.3,6.2-6.4,9-9.3c-2.3-2.6-4.4-5.1-6.5-7.6c-0.3,2.9-0.8,4.5-1.5,5h0.1
				C180.5,145.3,180.2,149.3,180.1,153.2z"/>
			<path class="st13" d="M202,128.7c-0.2,0-0.3-0.3-0.3-0.8h-10.4c1.8,2.2,3.8,4.6,6,7.1c1.9-2.2,3.7-4.3,5.3-6.3H202z"/>
			<path class="st13" d="M183.2,116v-0.5c0,0.7,0,1.4,0,2.1c0,0,0,0,0,0V116z"/>
			<path class="st13" d="M175.9,163c-0.3,0.3-0.8,0.5-1.2,0.7c-0.3,0.2-0.6,0.5-0.7,0.8c-0.3,0.3-0.5,0.7-0.8,1
				c-0.1,0.2-0.1,0.3-0.2,0.4c1.2,0.1,2.4,0.3,3.5,0.4C176.3,165.2,176.1,164.1,175.9,163C176,163,175.9,163,175.9,163z"/>
			<path class="st13" d="M210.5,131.2c-1.9,0.1-3.7-0.9-4.5-2.5h-3.4c-1.6,2-3.4,4.1-5.3,6.3c2.5,2.8,5.2,5.8,8.1,9
				c2.2-2.5,4.2-4.9,6.2-7.2V131C211.2,131.1,210.9,131.2,210.5,131.2z"/>
			<path class="st13" d="M208,122c0.2,0.1,0.3,0.6,0.3,1.2v4.4c0,0.4-0.1,0.7-0.2,1c0.5,0.7,1.2,1.1,2,1.1c0.5,0,1-0.2,1.4-0.5v-8.3
				c-0.3-0.2-0.5-0.3-0.8-0.4c-0.6,0.1-1.1,0.2-1.7,0.2C208.7,121,208.4,121.5,208,122z"/>
			<path class="st13" d="M197.3,152.9c-2.9-3-5.6-6-8.1-8.9c-2.7,2.9-5.7,6-9,9.3c0,2.7,0.1,5.4,0.4,8.1c0.2,0.1,0.4,0.3,0.6,0.4
				c0.5,0.1,1,0.1,1.4-0.1c0.4-0.2,0.8-0.4,1.2-0.6c0.4-0.1,0.7-0.4,0.9-0.7c0.5-0.1,0.4-0.5,0.6-0.8c0.1-0.4,0.1-0.9,0.1-1.4
				c0.1-0.4,0.2-1.3,0.2-1.6c0,0.2-0.1,1.2-0.2,1.6c0,0.5,0,0.9-0.1,1.4c-0.2,0.4-0.1,0.7-0.6,0.8c-0.2,0.3-0.5,0.6-0.9,0.7
				c-0.4,0.3-0.8,0.5-1.2,0.6c-0.4,0.2-0.9,0.2-1.4,0.1c-0.2-0.1-0.4-0.3-0.6-0.4c0.1,0.6,0.1,1.3,0.2,1.9c0.5,0.3,0.7,0.4,0.4,0.2
				l0.1,0.1l-0.1-0.1c0.3,0.2,0.2,0.1-0.4-0.2c0.2,1.1,0.3,2.2,0.5,3.4c0.7,0,1.3,0,1.9,0c0.2,0,0.3,0,0.5,0
				c1.4-1.4,2.9-2.8,4.3-4.3C191.2,159.1,194.3,156,197.3,152.9z"/>
			<path class="st13" d="M173.2,165.5c0.3-0.2,0.5-0.7,0.8-1c0.2-0.3,0.4-0.6,0.7-0.8c0.3-0.3,0.8-0.4,1.2-0.7c0,0,0,0,0,0
				c-0.2-1.7-0.4-3.4-0.5-5.1c-0.2,0.2-0.4,0.4-0.7,0.7c-2.4,2.4-4.7,4.6-7,6.8c1.8,0.3,3.5,0.5,5.2,0.7
				C173.1,165.8,173.2,165.7,173.2,165.5z"/>
			<path class="st13" d="M210.7,149.5c-1.9-1.9-3.6-3.8-5.3-5.5c-2.6,2.9-5.3,5.9-8.1,8.9c2.3,2.5,4.7,5,7.2,7.5
				C207.5,157.6,209.6,154,210.7,149.5z"/>
			<path class="st13" d="M187.1,122.8c-0.6-0.8-1.2-1.5-1.8-2.3c-0.6-0.1-1.1-0.1-1.7-0.2c-0.2,0.2-0.4,0.5-0.5,0.8
				c0,0.6,0,1.2,0,1.7H187.1z"/>
			<path class="st13" d="M183.2,118.3v-0.7c0,0,0,0,0,0C183.2,117.8,183.2,118.1,183.2,118.3C183.2,118.3,183.2,118.3,183.2,118.3z"
				/>
			<path class="st13" d="M197.2,135c-2.2-2.5-4.2-4.9-6-7.1h-1c-0.3,2.3-2.1,4-4.4,4.2c-1.1,0.1-2.1-0.2-2.9-0.8
				c-0.1,2-0.2,3.7-0.3,5.1c2,2.4,4.2,5,6.5,7.6C192.1,140.7,194.8,137.8,197.2,135z"/>
			<path class="st13" d="M183,128.5c0.5,1.1,1.4,1.9,2.5,1.9c1.3,0,2.3-1,2.7-2.5h-5.2C183.1,128.1,183.1,128.3,183,128.5z"/>
			<path class="st13" d="M189.1,143.9c2.6,2.9,5.3,5.9,8.1,8.9c2.9-3,5.6-6,8.1-8.9c-3-3.2-5.7-6.2-8.1-9
				C194.8,137.8,192.1,140.7,189.1,143.9z"/>
			<path class="st5" d="M183.2,100.8L183.2,100.8l0,2.6c0,0,0,0,0,0C183.2,102.5,183.2,101.7,183.2,100.8z"/>
			<path class="st5" d="M183.2,107.6C183.2,107.6,183.2,107.6,183.2,107.6l0,4.2c0,0,0,0,0,0C183.2,110.5,183.2,109,183.2,107.6z"/>
			<path class="st5" d="M211.5,100.8l-6,0c0,0-0.1,0-0.1,0c0,0-0.1,0-0.1,0l-7.7,0c-0.1,0-0.2,0-0.4,0c-0.1,0-0.2,0-0.4,0l-7.4,0
				c-0.1,0-0.2,0-0.4,0c-0.1,0-0.3,0-0.4,0l-5.7,0c0,0.9,0,1.7,0,2.6c9.4,1.4,19,1.4,28.4,0v-4.2c0,0,0,0,0,0V100.8z"/>
			<path class="st5" d="M183.2,107.6c0,1.5,0,2.9,0,4.2c9.4,1.4,19,1.4,28.4,0v-4.2C202.2,109,192.6,109,183.2,107.6z"/>
			<path class="st5" d="M183.2,111.8v3.7C183.2,114.3,183.2,113.1,183.2,111.8C183.2,111.8,183.2,111.8,183.2,111.8z"/>
			<path class="st5" d="M183.2,105.8C183.2,105.8,183.2,105.8,183.2,105.8C183.2,105.8,183.2,105.8,183.2,105.8c0-0.8,0-1.6,0-2.4
				c0,0,0,0,0,0v4.2c0,0,0,0,0,0C183.2,107,183.2,106.4,183.2,105.8z"/>
			<path class="st5" d="M211.6,116v-4.2c-9.4,1.4-19,1.4-28.4,0c0,1.3,0,2.5,0,3.7v0.5C192.6,117.4,202.2,117.4,211.6,116z"/>
			<path class="st5" d="M183.2,103.4c0,0.8,0,1.6,0,2.4c0-0.5,0.6-0.9,1.3-0.9c0.7,0,1.3,0.4,1.3,0.9s-0.6,0.9-1.3,0.9
				c-0.7,0-1.3-0.4-1.3-0.9c0,0.6,0,1.2,0,1.8c9.4,1.4,19,1.4,28.4,0v-1.8c0,0.5-0.6,0.9-1.3,0.9c-0.7,0-1.3-0.4-1.3-0.9
				s0.6-0.9,1.3-0.9c0.7,0,1.3,0.4,1.3,0.9v-2.4C202.2,104.8,192.6,104.8,183.2,103.4z M189.6,107.1c-0.7,0-1.3-0.4-1.3-0.9
				c0-0.5,0.6-0.9,1.3-0.9s1.3,0.4,1.3,0.9C190.9,106.7,190.3,107.1,189.6,107.1z M194.8,107.6c-0.7,0-1.3-0.4-1.3-0.9
				s0.6-0.9,1.3-0.9c0.7,0,1.3,0.4,1.3,0.9S195.5,107.6,194.8,107.6z M205.1,105.3c0.7,0,1.3,0.4,1.3,0.9c0,0.5-0.6,0.9-1.3,0.9
				s-1.3-0.4-1.3-0.9C203.8,105.7,204.4,105.3,205.1,105.3z M200,105.8c0.7,0,1.3,0.4,1.3,0.9s-0.6,0.9-1.3,0.9s-1.3-0.4-1.3-0.9
				S199.2,105.8,200,105.8z"/>
			<path class="st14" d="M183.2,105.8C183.2,105.8,183.2,105.8,183.2,105.8C183.2,105.8,183.2,105.8,183.2,105.8
				C183.2,105.8,183.2,105.8,183.2,105.8z"/>
			<path class="st14" d="M184.5,106.7c0.7,0,1.3-0.4,1.3-0.9s-0.6-0.9-1.3-0.9c-0.7,0-1.3,0.4-1.3,0.9c0,0,0,0,0,0
				C183.2,106.3,183.8,106.7,184.5,106.7z"/>
			<path class="st14" d="M189.6,105.3c-0.7,0-1.3,0.4-1.3,0.9c0,0.5,0.6,0.9,1.3,0.9s1.3-0.4,1.3-0.9
				C190.9,105.7,190.3,105.3,189.6,105.3z"/>
			<path class="st14" d="M194.8,105.8c-0.7,0-1.3,0.4-1.3,0.9s0.6,0.9,1.3,0.9c0.7,0,1.3-0.4,1.3-0.9S195.5,105.8,194.8,105.8z"/>
			<path class="st14" d="M200,107.6c0.7,0,1.3-0.4,1.3-0.9s-0.6-0.9-1.3-0.9s-1.3,0.4-1.3,0.9S199.2,107.6,200,107.6z"/>
			<path class="st14" d="M205.1,107.1c0.7,0,1.3-0.4,1.3-0.9c0-0.5-0.6-0.9-1.3-0.9s-1.3,0.4-1.3,0.9
				C203.8,106.7,204.4,107.1,205.1,107.1z"/>
			<path class="st14" d="M210.3,104.8c-0.7,0-1.3,0.4-1.3,0.9s0.6,0.9,1.3,0.9c0.7,0,1.3-0.4,1.3-0.9S211,104.8,210.3,104.8z"/>
			<path class="st5" d="M183.2,116v1.6c0.1,0.1,0.2,0.2,0.3,0.3c0.2-0.2,0.6-0.4,1-0.4c0.3,0,0.6,0.1,0.8,0.2c0.1,0,0.2,0,0.3,0h0
				c0,0,0,0,0,0c1.1,0,2.1,0.3,2.9,0.9c0.2-0.4,0.6-0.7,1.2-0.7c0.7,0,1.3,0.4,1.3,0.9s-0.6,0.9-1.3,0.9c0,0-0.1,0-0.1,0
				c0.3,0.4,0.4,0.8,0.6,1.2c5.3,0.4,10.7,0.4,16-0.1c0.6-1.1,1.7-1.9,3-2.2c0-0.1-0.1-0.2-0.1-0.2c0-0.5,0.6-0.9,1.3-0.9
				c0.3,0,0.7,0.1,0.9,0.3c0.1-0.2,0.3-0.4,0.4-0.6V116C202.2,117.4,192.6,117.4,183.2,116z M194.8,120.2c-0.7,0-1.3-0.4-1.3-0.9
				c0-0.5,0.6-0.9,1.3-0.9c0.7,0,1.3,0.4,1.3,0.9C196.1,119.8,195.5,120.2,194.8,120.2z M205.1,118c0.7,0,1.3,0.4,1.3,0.9
				s-0.6,0.9-1.3,0.9s-1.3-0.4-1.3-0.9S204.4,118,205.1,118z M200,118.4c0.7,0,1.3,0.4,1.3,0.9c0,0.5-0.6,0.9-1.3,0.9
				s-1.3-0.4-1.3-0.9C198.7,118.8,199.2,118.4,200,118.4z"/>
			<path class="st5" d="M209.1,120.5C209.1,120.5,209,120.5,209.1,120.5C209,120.6,209.1,120.5,209.1,120.5
				C209.1,120.5,209.1,120.5,209.1,120.5z"/>
			<path class="st5" d="M187.8,120.8c-0.5-0.8-1.3-1.4-2.2-1.4c-0.3,0-0.6,0.1-0.9,0.2c0.2,0.3,0.5,0.6,0.7,0.9
				C186.2,120.6,187,120.7,187.8,120.8z"/>
			<path class="st5" d="M211.6,118.8v-0.3C211.6,118.5,211.5,118.6,211.6,118.8C211.5,118.7,211.6,118.7,211.6,118.8z"/>
			<path class="st5" d="M210.8,120.3c-0.2,0-0.4-0.1-0.6-0.1c-0.4,0-0.7,0.1-1,0.3c0,0,0,0,0,0C209.6,120.5,210.2,120.4,210.8,120.3
				z"/>
			<path class="st5" d="M211.6,118.4v-1.2c-0.1,0.2-0.3,0.4-0.4,0.6C211.4,117.9,211.6,118.2,211.6,118.4z"/>
			<path class="st5" d="M183.4,117.9c-0.1-0.1-0.2-0.2-0.3-0.3v0.7c0,0,0,0,0,0C183.2,118.1,183.3,118,183.4,117.9z"/>
			<path class="st5" d="M184.7,119.6c-0.4,0.1-0.7,0.4-1,0.7c0.6,0.1,1.1,0.2,1.7,0.2C185.1,120.2,184.9,119.9,184.7,119.6z"/>
			<path class="st14" d="M185.3,117.7c-0.2-0.1-0.5-0.2-0.8-0.2c-0.4,0-0.8,0.2-1,0.4c0,0.1,0.1,0.1,0.1,0.2
				C184.1,117.9,184.7,117.7,185.3,117.7z"/>
			<path class="st14" d="M183.6,118.1c0-0.1-0.1-0.1-0.1-0.2c-0.1,0.1-0.2,0.2-0.2,0.4C183.3,118.2,183.4,118.2,183.6,118.1z"/>
			<path class="st14" d="M189.5,119.8c0,0,0.1,0,0.1,0c0.7,0,1.3-0.4,1.3-0.9s-0.6-0.9-1.3-0.9c-0.6,0-1.1,0.3-1.2,0.7
				C188.8,118.9,189.2,119.3,189.5,119.8z"/>
			<path class="st14" d="M194.8,118.4c-0.7,0-1.3,0.4-1.3,0.9c0,0.5,0.6,0.9,1.3,0.9c0.7,0,1.3-0.4,1.3-0.9
				C196.1,118.8,195.5,118.4,194.8,118.4z"/>
			<path class="st14" d="M200,120.2c0.7,0,1.3-0.4,1.3-0.9c0-0.5-0.6-0.9-1.3-0.9s-1.3,0.4-1.3,0.9
				C198.7,119.8,199.2,120.2,200,120.2z"/>
			<path class="st14" d="M205.1,119.8c0.7,0,1.3-0.4,1.3-0.9s-0.6-0.9-1.3-0.9s-1.3,0.4-1.3,0.9S204.4,119.8,205.1,119.8z"/>
			<path class="st14" d="M210.2,118.6c0.1,0,0.2,0,0.4,0c0.2-0.3,0.4-0.6,0.6-0.8c-0.2-0.2-0.5-0.3-0.9-0.3c-0.7,0-1.3,0.4-1.3,0.9
				c0,0.1,0,0.2,0.1,0.2C209.4,118.6,209.8,118.5,210.2,118.6C210.2,118.6,210.2,118.6,210.2,118.6z"/>
			<path class="st14" d="M211.5,118.7c0-0.1,0.1-0.2,0.1-0.3c0-0.3-0.2-0.5-0.4-0.7c-0.2,0.3-0.4,0.5-0.6,0.8
				C210.9,118.6,211.2,118.6,211.5,118.7z"/>
			<path class="st5" d="M176.5,141.3c0,0.2-0.1,0.4-0.1,0.5c2.6-0.1,4.4-0.3,4.7-0.5H176.5z"/>
			<path class="st5" d="M176.5,166.7h4.7c0,0,0,0,0,0c-1.4-0.1-3-0.2-4.8-0.3C176.5,166.4,176.5,166.5,176.5,166.7z"/>
			<path class="st5" d="M175.5,157.8c1.6-1.6,3.1-3.1,4.6-4.6c0-4,0.4-8,1.2-11.9h-0.1c-0.3,0.2-2.1,0.4-4.7,0.5
				C175.5,147.2,175.2,152.5,175.5,157.8z"/>
			<path class="st5" d="M180,160.9c0-0.3-0.1-0.7-0.2-1C179.9,160.2,180,160.5,180,160.9z"/>
			<path class="st5" d="M179.1,162.8h-1.6c-0.5,0-1,0.1-1.5,0.2c0.1,1.1,0.3,2.2,0.5,3.3c1.8,0.2,3.4,0.3,4.8,0.3
				c-0.2-1.1-0.4-2.2-0.5-3.4c0,0-0.1,0-0.1,0C180.2,163,179.6,162.9,179.1,162.8z"/>
			<path class="st5" d="M175.5,157.8c0.1,1.7,0.3,3.4,0.5,5.1c0.5-0.1,1-0.2,1.5-0.2h1.6c0.5,0.1,1,0.2,1.5,0.4c0,0,0.1,0,0.1,0
				c-0.1-0.6-0.2-1.3-0.2-1.9c-0.1-0.1-0.3-0.2-0.4-0.3c0,0,0-0.1,0-0.2c0,0.1,0,0.2,0,0.4c-0.1,0.4-0.2,0.8-0.5,1.1
				c0.3-0.3,0.4-0.7,0.5-1.1c0-0.1,0-0.2,0-0.4c-0.1-0.3-0.1-0.7-0.2-1c0.1,0.3,0.2,0.7,0.2,1c0,0.1,0,0.1,0,0.2
				c0.2,0.1,0.3,0.2,0.4,0.3c-0.3-2.7-0.4-5.4-0.4-8.1C178.6,154.7,177.1,156.3,175.5,157.8z"/>
			<path class="st15" d="M136.8,159l5.7,1.7c0-0.2-0.1-0.3-0.1-0.5c-2-0.5-3.9-1-5.7-1.6C136.7,158.8,136.7,158.9,136.8,159z"/>
			<path class="st15" d="M142.5,143l-5.7,0.8c0,0.1,0,0.2-0.1,0.3c1.8-0.2,3.7-0.4,5.6-0.6C142.4,143.4,142.4,143.2,142.5,143z"/>
			<path class="st15" d="M142.4,143.6c-2,0.2-3.8,0.4-5.6,0.6c-1.2,4.8-1.2,9.7,0,14.5c1.8,0.6,3.7,1.1,5.7,1.6
				C141.2,154.7,141.2,149.1,142.4,143.6z"/>
			<path class="st16" d="M186.2,98.3c0-1.4,1.4-2.5,3-2.5s3,1.1,3,2.5c0,0.3-0.1,0.6-0.2,0.8h1.8c-0.3-0.5-0.6-1.1-0.6-1.7
				c0-0.7,0.3-1.4,0.7-1.9l-3.7-4h1v0h-1c0,2.5-2.8,5.1-7.1,5.1v2.6h3.2C186.3,98.9,186.2,98.6,186.2,98.3z"/>
			<path class="st16" d="M204.5,91.5l-3.7,4c0.4,0.5,0.7,1.2,0.7,1.9c0,0.6-0.2,1.2-0.6,1.7h1.8c-0.1-0.3-0.2-0.5-0.2-0.8
				c0-1.4,1.4-2.5,3-2.5c1.7,0,3,1.1,3,2.5c0,0.3-0.1,0.6-0.2,0.8h3.2v-2.6C207.3,96.6,204.5,94.1,204.5,91.5l-1,0v0H204.5z"/>
			<path class="st16" d="M208.1,99.6c1.2-0.1,2.3-0.3,3.5-0.5v0h-3.2C208.3,99.3,208.2,99.4,208.1,99.6z"/>
			<path class="st16" d="M186.4,99.1h-3.2c1.2,0.2,2.3,0.3,3.5,0.5C186.5,99.4,186.5,99.3,186.4,99.1z"/>
			<path class="st16" d="M194.9,100.1c-0.4-0.3-0.8-0.6-1.1-1h-1.8c-0.1,0.3-0.3,0.6-0.6,0.9C192.6,100.1,193.8,100.1,194.9,100.1z"
				/>
			<path class="st16" d="M199.8,100.1c1.2,0,2.3-0.1,3.5-0.1c-0.3-0.2-0.5-0.5-0.6-0.9h-1.8C200.6,99.5,200.2,99.9,199.8,100.1z"/>
			<path class="st16" d="M183.2,99.1v1.6h0C183.2,100.2,183.2,99.7,183.2,99.1z"/>
			<path class="st16" d="M191.5,100c-0.5,0.4-1.1,0.7-1.9,0.8l7.4,0c-0.8-0.1-1.5-0.3-2.1-0.7C193.8,100.1,192.6,100.1,191.5,100z"
				/>
			<path class="st16" d="M205.6,100.8l6,0v-1.7c-1.2,0.2-2.3,0.3-3.5,0.5C207.6,100.3,206.6,100.8,205.6,100.8z"/>
			<path class="st16" d="M203.2,100c-1.1,0.1-2.3,0.1-3.5,0.1c-0.6,0.4-1.3,0.6-2.1,0.7l7.7,0C204.5,100.8,203.8,100.5,203.2,100z"
				/>
			<path class="st16" d="M188.9,100.8c-0.9-0.1-1.7-0.6-2.2-1.2c-1.2-0.1-2.3-0.3-3.5-0.5c0,0.6,0,1.1,0,1.6L188.9,100.8z"/>
			<polygon class="st17" points="203.4,86.5 202.4,86.5 192.3,86.5 191.3,86.5 191.3,91.5 203.4,91.5 			"/>
			<polygon class="st17" points="202.4,76.3 192.3,76.3 192.3,81.4 202.4,81.4 			"/>
			<polygon class="st17" points="202.4,81.4 192.3,81.4 192.3,81.4 192.3,86.5 202.4,86.5 			"/>
			<rect x="191.3" y="91.5" class="st17" width="12.2" height="0"/>
			<rect x="193.3" y="69.6" class="st17" width="8.1" height="6.8"/>
			<path class="st4" d="M197.9,66.2L197.9,66.2L197.9,66.2c-2,0-3.6,0.1-4.9-0.3v3.7h0.3h8.1h0.4v-3.7
				C200.7,66.1,199.5,66.2,197.9,66.2L197.9,66.2z"/>
			<path class="st7" d="M206.6,63.6c1-0.7,1.7-1.6,2.3-2.5c-1.2-0.3-2.2-1.3-2.2-2.4c0-1.3,1.1-2.3,2.5-2.5
				c-0.5-1.2-1.4-2.4-2.6-3.3c-0.5,0.5-2.8,3-2.8,5C203.7,59.7,206.1,62.9,206.6,63.6z"/>
			<path class="st7" d="M192.1,51.2c-0.1,0-0.1,0-0.2,0.1C192,51.3,192,51.2,192.1,51.2C192.1,51.2,192.1,51.2,192.1,51.2z"/>
			<path class="st7" d="M203.6,65.2c0.1,0,0.2-0.1,0.3-0.1C203.8,65.1,203.8,65.1,203.6,65.2C203.7,65.2,203.6,65.2,203.6,65.2z"/>
			<path class="st7" d="M189,58.6c0,1.2-0.9,2.1-2.2,2.4c0.5,0.9,1.3,1.8,2.3,2.5c0.5-0.6,2.8-3.8,2.8-5.8c0-2-2.3-4.4-2.8-5
				c-1.2,0.9-2.2,2.1-2.6,3.3C187.9,56.3,189,57.3,189,58.6z"/>
			<polygon class="st7" points="197.9,66.2 197.9,66.2 197.9,66.2 			"/>
			<path class="st17" d="M206.7,63.7c0,0,0,0-0.1-0.1c-0.8,0.6-1.6,1.1-2.6,1.5C204.9,64.7,205.8,64.2,206.7,63.7z"/>
			<path class="st17" d="M206.5,52.8c0.1-0.1,0.1-0.1,0.1-0.1c-1-0.6-2-1.1-3-1.5c0,0,0,0,0,0C204.7,51.6,205.7,52.2,206.5,52.8z"/>
			<path class="st17" d="M189,52.7c0,0,0,0,0.1,0.1c0.8-0.6,1.7-1.1,2.8-1.5C190.9,51.7,190,52.1,189,52.7z"/>
			<path class="st17" d="M191.3,64.9c-0.8-0.4-1.5-0.8-2.2-1.3c-0.1,0.1-0.1,0.1-0.1,0.1c0.6,0.8,1.7,1.4,3,1.8
				C191.8,65.3,191.6,65.1,191.3,64.9z"/>
			<polygon class="st17" points="197.9,66.2 197.9,66.2 197.9,66.2 			"/>
			<path class="st17" d="M204.7,51.9c0,0-2.9,3.7-2.9,5.9c0,2.2,2.9,6.8,2.9,6.8c-0.4,0.2-0.7,0.4-1,0.6c0.1,0,0.2-0.1,0.3-0.1
				c1-0.4,1.9-0.9,2.6-1.5c-0.5-0.7-2.8-3.8-2.8-5.8c0-2,2.3-4.4,2.8-5c-0.8-0.6-1.8-1.2-2.9-1.6C204,51.4,204.3,51.6,204.7,51.9z"
				/>
			<path class="st17" d="M189.1,63.6c0.6,0.5,1.4,0.9,2.2,1.3c-0.1-0.1-0.2-0.2-0.3-0.3c0,0,2.9-4.5,2.9-6.8c0-2.2-2.9-5.9-2.9-5.9
				c0.4-0.3,0.7-0.5,1.1-0.6c0,0-0.1,0-0.1,0.1c-1,0.4-2,0.9-2.8,1.5c0.5,0.5,2.8,3,2.8,5C192,59.8,189.6,62.9,189.1,63.6z"/>
			<polygon class="st17" points="197.9,66.2 197.9,66.2 197.9,66.2 			"/>
			<path class="st17" d="M194.9,50.3c-1.1,0.1-1.9,0.4-2.9,0.9c0.9-0.3,1.9-0.6,2.9-0.8C194.9,50.4,194.9,50.4,194.9,50.3z"/>
			<path class="st17" d="M192.1,65.5c0.3,0.2,0.6,0.3,0.9,0.4v-0.2C192.7,65.6,192.4,65.6,192.1,65.5z"/>
			<path class="st17" d="M203.5,51.2c0,0,0.1,0,0.1,0c-0.9-0.5-1.8-0.8-2.8-0.9c0,0,0,0.1,0,0.1C201.7,50.6,202.6,50.8,203.5,51.2z"
				/>
			<path class="st17" d="M201.8,65.9c0.6-0.2,1.2-0.4,1.8-0.7c-0.6,0.2-1.2,0.4-1.8,0.6V65.9z"/>
			<path class="st17" d="M197.8,66.2L197.8,66.2c-1.6,0-3.3-0.1-4.8-0.5v0.2C194.3,66.3,195.8,66.2,197.8,66.2z"/>
			<path class="st17" d="M197.9,66.2c1.7,0,2.9-0.1,4-0.3v-0.1C200.6,66,199.2,66.2,197.9,66.2z"/>
			<path class="st17" d="M194.9,50.4C194.9,50.4,194.9,50.4,194.9,50.4c-1,0.2-2,0.4-2.9,0.8c0,0,0,0,0,0
				C193,50.9,194,50.6,194.9,50.4z"/>
			<path class="st17" d="M203.5,51.2c-0.9-0.3-1.8-0.6-2.7-0.7c0,0,0,0,0,0C201.7,50.6,202.6,50.8,203.5,51.2z"/>
			<path class="st17" d="M201.8,65.7L201.8,65.7c0.6-0.1,1.2-0.3,1.8-0.5c0,0,0,0,0,0C203.1,65.4,202.4,65.6,201.8,65.7z"/>
			<path class="st17" d="M197.9,66.2c1.4,0,2.7-0.2,4-0.5v0C200.5,66,199.2,66.2,197.9,66.2L197.9,66.2z"/>
			<path class="st17" d="M193,65.5c-0.6-0.2-1.1-0.4-1.7-0.6c0.2,0.2,0.5,0.4,0.7,0.6c0.3,0.1,0.6,0.2,0.9,0.3V65.5z"/>
			<path class="st17" d="M203.6,51.2C203.6,51.2,203.6,51.2,203.6,51.2c-0.1,0-0.1,0-0.1-0.1C203.5,51.2,203.6,51.2,203.6,51.2z"/>
			<path class="st17" d="M193,65.5v0.2c1.6,0.4,3.3,0.5,4.9,0.5l0,0C196.1,66.2,194.5,65.9,193,65.5z"/>
			<path class="st17" d="M193,63.7h8.8v2c0.6-0.2,1.2-0.3,1.9-0.6c0.3-0.2,0.7-0.4,1-0.6c0,0-2.9-4.5-2.9-6.8c0-2.2,2.9-5.9,2.9-5.9
				c-0.4-0.3-0.7-0.5-1.1-0.6c0,0-0.1,0-0.1-0.1c-0.9-0.3-1.8-0.6-2.7-0.7c-0.2,1.3-1.4,2.3-2.9,2.3c-1.5,0-2.8-1-2.9-2.3
				c-1,0.2-1.9,0.4-2.9,0.8c-0.3,0.2-0.7,0.4-1.1,0.6c0,0,2.9,3.7,2.9,5.9c0,2.2-2.9,6.8-2.9,6.8c0.1,0.1,0.2,0.2,0.3,0.3
				c0.5,0.2,1.1,0.5,1.7,0.6V63.7z M197.9,56.1c1.6,0,2.9,1.1,2.9,2.5s-1.3,2.5-2.9,2.5s-2.9-1.1-2.9-2.5S196.2,56.1,197.9,56.1z"/>
			<path class="st17" d="M193,63.7v1.8c1.5,0.5,3.1,0.7,4.9,0.7c0,0,0,0,0,0c1.3,0,2.7-0.2,4-0.5v-2H193z"/>
			<path class="st7" d="M186.1,61.1c0.3,0,0.5,0,0.8-0.1c-0.5-0.9-0.8-1.8-0.8-2.8c0-0.7,0.2-1.4,0.4-2.1c-0.1,0-0.3,0-0.4,0
				c-1.6,0-2.9,1.1-2.9,2.5S184.5,61.1,186.1,61.1z"/>
			<path class="st7" d="M186.9,61c1.2-0.3,2.2-1.3,2.2-2.4c0-1.3-1.1-2.3-2.5-2.5c-0.3,0.7-0.4,1.4-0.4,2.1
				C186.1,59.2,186.4,60.2,186.9,61z"/>
			<path class="st7" d="M208.8,61c0.2,0.1,0.5,0.1,0.8,0.1c1.6,0,2.9-1.1,2.9-2.5s-1.3-2.5-2.9-2.5c-0.1,0-0.3,0-0.4,0
				c0.3,0.7,0.4,1.4,0.4,2.1C209.6,59.2,209.3,60.2,208.8,61z"/>
			<path class="st7" d="M206.7,58.6c0,1.2,0.9,2.1,2.2,2.4c0.5-0.9,0.8-1.8,0.8-2.8c0-0.7-0.2-1.4-0.4-2.1
				C207.8,56.3,206.7,57.3,206.7,58.6z"/>
			<path class="st7" d="M197.9,61.1c1.6,0,2.9-1.1,2.9-2.5s-1.3-2.5-2.9-2.5s-2.9,1.1-2.9,2.5S196.2,61.1,197.9,61.1z"/>
			<path class="st7" d="M200.8,50.3c0,0,0-0.1,0-0.1c0-1.4-1.3-2.5-2.9-2.5s-2.9,1.1-2.9,2.5c0,0,0,0.1,0,0.1
				c0.8-0.1,1.8-0.1,2.9-0.1S200,50.2,200.8,50.3z"/>
			<path class="st7" d="M197.9,50.2c-1.2,0-2.1,0-2.9,0.1c0,0,0,0.1,0,0.1C195.9,50.3,196.8,50.2,197.9,50.2z"/>
			<path class="st7" d="M200.8,50.4c0,0,0-0.1,0-0.1c-0.8-0.1-1.8-0.1-2.9-0.1C198.9,50.2,199.8,50.3,200.8,50.4z"/>
			<path class="st7" d="M200.8,50.4C200.8,50.4,200.8,50.4,200.8,50.4c-0.9-0.2-1.9-0.3-2.9-0.3s-2,0.1-2.9,0.3c0,0,0,0,0,0
				C196.9,50.1,198.8,50.1,200.8,50.4z"/>
			<path class="st7" d="M197.9,52.7c1.5,0,2.8-1,2.9-2.3c-1.9-0.3-3.9-0.3-5.8,0C195.1,51.7,196.3,52.7,197.9,52.7z"/>
			<path class="st7" d="M189.6,100.8l-0.8,0c0.1,0,0.3,0,0.4,0C189.4,100.8,189.5,100.8,189.6,100.8z"/>
			<path class="st7" d="M192.3,98.3c0-1.4-1.4-2.5-3-2.5s-3,1.1-3,2.5c0,0.3,0.1,0.6,0.2,0.8h5.7C192.2,98.9,192.3,98.6,192.3,98.3z
				"/>
			<path class="st7" d="M192.1,99.1h-5.7c0.1,0.2,0.2,0.3,0.3,0.5c1.6,0.2,3.2,0.3,4.8,0.4C191.8,99.7,192,99.5,192.1,99.1z"/>
			<path class="st7" d="M191.5,100c-1.6-0.1-3.2-0.2-4.8-0.4c0.5,0.6,1.3,1.1,2.2,1.2l0.8,0C190.4,100.7,191,100.4,191.5,100z"/>
			<path class="st7" d="M205.5,100.8c0,0,0.1,0,0.1,0l-0.2,0C205.4,100.8,205.4,100.8,205.5,100.8z"/>
			<path class="st7" d="M208.5,98.3c0-1.4-1.4-2.5-3-2.5c-1.7,0-3,1.1-3,2.5c0,0.3,0.1,0.6,0.2,0.8h5.7
				C208.4,98.9,208.5,98.6,208.5,98.3z"/>
			<path class="st7" d="M208.1,99.6c0.1-0.1,0.2-0.3,0.3-0.5h-5.7c0.1,0.3,0.3,0.6,0.6,0.9C204.8,99.9,206.5,99.8,208.1,99.6z"/>
			<path class="st7" d="M205.4,100.8l0.2,0c1.1,0,2-0.5,2.5-1.2c-1.6,0.2-3.2,0.3-4.8,0.4C203.8,100.5,204.5,100.8,205.4,100.8z"/>
			<path class="st17" d="M197.4,94.1c1.4,0,2.6,0.6,3.3,1.5l3.7-4h-1h-12.2h-1l3.7,4C194.7,94.7,196,94.1,197.4,94.1z"/>
			<path class="st7" d="M197.4,100.8c0.1,0,0.2,0,0.4,0l-0.7,0C197.1,100.8,197.2,100.8,197.4,100.8z"/>
			<path class="st7" d="M194,95.5c-0.4,0.5-0.7,1.2-0.7,1.9c0,0.6,0.2,1.2,0.6,1.7h3.5L194,95.5z"/>
			<path class="st7" d="M200.9,99.1c0.3-0.5,0.6-1.1,0.6-1.7c0-0.7-0.3-1.4-0.7-1.9l-3.3,3.6H200.9z"/>
			<path class="st7" d="M194.9,100.1c1.6,0,3.2,0,4.8,0c0.4-0.3,0.8-0.6,1.1-1h-3.5h-3.5C194.1,99.5,194.5,99.9,194.9,100.1z"/>
			<path class="st7" d="M194.9,100.1c0.6,0.4,1.3,0.6,2.1,0.7l0.7,0c0.8-0.1,1.5-0.3,2.1-0.7C198.2,100.2,196.6,100.2,194.9,100.1z"
				/>
			<path class="st7" d="M200.7,95.5c-0.7-0.9-2-1.5-3.3-1.5c-1.4,0-2.6,0.6-3.3,1.5l3.3,3.6L200.7,95.5z"/>
			<path class="st9" d="M183.1,127.9c0-1.6,0.1-3.3,0.1-5.1h-0.2c0,0,0,0,0,0c-0.1,0-0.1,0-0.2,0c0,0,0,0.1,0,0.1v0.7
				c0,0.1,0,0.1,0,0.2v2.5c0,0.1,0,0.1,0,0.2v0.3c0,0.4,0.1,0.7,0.1,1c0,0,0.1,0,0.1,0H183.1z"/>
			<path class="st9" d="M188.4,122.8h-1.2c0.4,0.5,0.8,1,1.2,1.6v-1.4C188.4,122.9,188.4,122.8,188.4,122.8z"/>
			<path class="st9" d="M201.6,127.5v-4.4c0-0.1,0-0.2,0-0.4h-11.4v3.9c0.3,0.4,0.6,0.8,1,1.2h10.4
				C201.7,127.8,201.6,127.6,201.6,127.5z"/>
			<path class="st9" d="M190.3,127.7c0,0.1,0,0.2,0,0.2h1c-0.3-0.4-0.7-0.8-1-1.2V127.7z"/>
			<path class="st9" d="M183.1,122.8c0,1.9,0,3.6-0.1,5.1h5.2c0.1-0.3,0.1-0.7,0.1-1.1v-2.5c-0.4-0.5-0.8-1.1-1.2-1.6H183.1z"/>
			<path class="st9" d="M212.6,127.9c-0.2,0.5-0.6,0.9-1,1.2v2c1.5-0.5,2.6-1.6,3.1-3.1h-2C212.6,127.9,212.6,127.9,212.6,127.9z"/>
			<path class="st9" d="M211.6,120.7c0.6,0.4,1.1,1.2,1.3,2h2c-0.1-1.9-1.5-3.5-3.3-4v1.5V120.7z"/>
			<path class="st9" d="M182.8,127.9c-0.2,0-0.3,0-0.5-0.1c-0.3,0.6-0.6,1.2-1.1,1.7c0.4,0.8,1,1.4,1.7,1.9c0-0.9,0.1-1.8,0.1-2.8
				C183,128.3,182.9,128.1,182.8,127.9z"/>
			<path class="st9" d="M180.8,124.6c0-0.1,0-0.2,0-0.3v1.6c0-0.1,0-0.2,0-0.4V124.6z"/>
			<path class="st9" d="M182.6,122.8c0,0,0.1,0,0.1,0c0-0.6,0.2-1.2,0.4-1.7c0-0.9,0-1.8,0-2.8c-0.9,0.5-1.6,1.3-2,2.2
				C181.8,121.1,182.3,121.9,182.6,122.8z"/>
			<path class="st9" d="M188.4,122.8h1.9v-0.6c0-0.4-0.1-0.8-0.2-1.1c-0.8-0.1-1.5-0.1-2.3-0.2C188.1,121.3,188.3,122,188.4,122.8z"
				/>
			<path class="st9" d="M207.7,121.9c0.3-0.6,0.7-1.1,1.3-1.4c-1,0.1-2,0.2-3,0.3c-0.2,0.3-0.4,0.7-0.5,1.1H207.7z"/>
			<path class="st9" d="M210.2,129.5c-0.8,0-1.5-0.4-2-1.1c-0.1,0.1-0.1,0.2-0.2,0.2h-2c0.8,1.6,2.6,2.7,4.5,2.5
				c0.4,0,0.8-0.1,1.1-0.2v-2C211.2,129.3,210.7,129.5,210.2,129.5z"/>
			<path class="st9" d="M211.6,120.2c-0.3,0-0.6,0.1-0.8,0.1c0.3,0.1,0.6,0.2,0.8,0.4V120.2z"/>
			<path class="st9" d="M185.5,130.4c-1.1,0-2-0.7-2.5-1.9c0,1-0.1,1.9-0.1,2.8c0.8,0.5,1.8,0.8,2.9,0.8c2.3-0.1,4.1-1.9,4.4-4.2h-2
				C187.9,129.3,186.8,130.4,185.5,130.4z"/>
			<path class="st9" d="M183.7,120.3c-0.2,0-0.3,0-0.5-0.1v-1.9c0,0,0,0,0,0c0,1,0,1.9,0,2.8C183.3,120.8,183.5,120.5,183.7,120.3z"
				/>
			<path class="st9" d="M185.8,118.4c0,0.5-0.6,0.9-1.3,0.9c0.1,0.1,0.1,0.2,0.2,0.3c0.3-0.1,0.6-0.2,0.9-0.2h0h0
				c0.9,0,1.7,0.5,2.2,1.4c0.8,0.1,1.5,0.2,2.3,0.2c-0.1-0.4-0.3-0.9-0.6-1.2c-0.7,0-1.2-0.4-1.2-0.9c0-0.1,0-0.2,0.1-0.2
				c-0.8-0.6-1.8-0.9-2.9-0.9c0,0,0,0,0,0h0c-0.1,0-0.2,0-0.3,0C185.6,117.9,185.8,118.1,185.8,118.4z"/>
			<path class="st9" d="M209.1,120.5c0.3-0.4,0.6-0.8,0.9-1.2c-0.5-0.1-0.8-0.3-1-0.6c-1.3,0.3-2.4,1.1-3,2.2
				C207,120.8,208,120.7,209.1,120.5C209,120.5,209.1,120.5,209.1,120.5z"/>
			<path class="st9" d="M210.3,119.3c-0.1,0-0.2,0-0.3,0c-0.3,0.4-0.6,0.8-0.9,1.2c0.3-0.2,0.7-0.3,1-0.3c0.2,0,0.4,0,0.6,0.1
				c0.3,0,0.6-0.1,0.8-0.1v-1.5c0,0-0.1,0-0.1,0C211.3,119.1,210.8,119.3,210.3,119.3z"/>
			<path class="st9" d="M183.7,120.3c0.3-0.3,0.6-0.6,1-0.7c-0.1-0.1-0.1-0.2-0.2-0.3c0,0,0,0,0,0c-0.7,0-1.3-0.4-1.3-0.9
				c0,0,0-0.1,0-0.1c0,0,0,0,0,0v1.9C183.3,120.2,183.5,120.3,183.7,120.3z"/>
			<path class="st9" d="M184.5,119.3c0.7,0,1.3-0.4,1.3-0.9c0-0.3-0.2-0.5-0.5-0.7c-0.6,0-1.2,0.1-1.7,0.4
				C183.9,118.5,184.2,118.9,184.5,119.3z"/>
			<path class="st9" d="M183.2,118.3c0,0,0,0.1,0,0.1c0,0.5,0.6,0.9,1.3,0.9c0,0,0,0,0,0c-0.3-0.4-0.6-0.8-0.9-1.2
				C183.4,118.2,183.3,118.2,183.2,118.3z"/>
			<path class="st9" d="M189.5,119.8c-0.3-0.4-0.7-0.8-1.1-1.1c0,0.1-0.1,0.2-0.1,0.2C188.3,119.3,188.9,119.7,189.5,119.8z"/>
			<path class="st9" d="M210,119.3c0.2-0.2,0.4-0.5,0.5-0.7c-0.1,0-0.2,0-0.4,0c0,0,0,0,0,0c-0.4,0-0.7,0-1.1,0.1
				C209.2,119,209.6,119.2,210,119.3z"/>
			<path class="st9" d="M211.5,118.7c-0.3-0.1-0.6-0.1-0.9-0.1c-0.2,0.2-0.4,0.5-0.5,0.7c0.1,0,0.2,0,0.3,0
				C210.8,119.3,211.3,119.1,211.5,118.7z"/>
			<path class="st9" d="M182.7,122.9c0,0,0-0.1,0-0.1c0,0-0.1,0-0.1,0c0.1,0.3,0.1,0.5,0.1,0.8V122.9z"/>
			<path class="st9" d="M182.7,126.5c0,0.4-0.2,0.9-0.3,1.3c0.1,0.1,0.3,0.1,0.5,0.1c-0.1-0.3-0.1-0.7-0.1-1V126.5z"/>
			<path class="st9" d="M188.4,122.9v1.4c0.6,0.8,1.2,1.6,1.9,2.4v-3.9h-1.9C188.4,122.8,188.4,122.9,188.4,122.9z"/>
			<path class="st9" d="M190.3,126.7c-0.7-0.8-1.3-1.6-1.9-2.4v2.5c0,0.4-0.1,0.7-0.1,1.1h2c0-0.1,0-0.2,0-0.2V126.7z"/>
			<path class="st9" d="M175,128.7c-0.1,0.3-0.2,0.5-0.3,0.8c0.9,0.8,2.1,1.3,3.4,1.3c-0.5-0.7-1.1-1.4-1.6-2.1H175z"/>
			<path class="st9" d="M181.3,129.5c-0.3-0.5-0.4-1.2-0.5-1.8v-1.7c-0.2,1.8-1.3,3.2-2.8,3.2c-0.5,0-0.9-0.2-1.3-0.4c0,0,0,0,0,0
				h-0.1c0.5,0.7,1,1.4,1.6,2.1c0.1,0,0.1,0,0.2,0C179.5,130.7,180.5,130.2,181.3,129.5z"/>
			<path class="st9" d="M175.1,121.9h1c0.5-0.5,1.1-0.9,1.8-0.9c1.5,0,2.6,1.4,2.8,3.2v-2.2c0-0.6,0.2-1.1,0.4-1.6
				c-0.8-0.7-2-1.2-3.2-1.1c-1.2,0-2.3,0.4-3.2,1.1c0.2,0.4,0.3,0.8,0.3,1.3V121.9z"/>
			<path class="st9" d="M182.7,126.3v-2.5c0-0.1,0-0.1,0-0.2v2.9C182.7,126.5,182.7,126.4,182.7,126.3z"/>
			<path class="st9" d="M182.4,127.8c-0.3-0.1-0.6-0.4-0.6-0.8v-3.3c0-0.5,0.4-0.8,0.8-0.9c-0.2-0.9-0.7-1.7-1.4-2.3
				c-0.2,0.5-0.3,1-0.4,1.6v2.2c0,0.1,0,0.2,0,0.3v0.9c0,0.1,0,0.3,0,0.4v1.7c0,0.6,0.2,1.3,0.5,1.8
				C181.8,129,182.1,128.4,182.4,127.8z"/>
			<path class="st9" d="M182.7,123.6c0-0.3-0.1-0.5-0.1-0.8c-0.4,0.1-0.8,0.5-0.8,0.9v3.3c0.1,0.4,0.3,0.7,0.6,0.8
				c0.2-0.4,0.3-0.8,0.3-1.3V123.6z"/>
			<path class="st9" d="M166.6,118.8c1.7,0,3.1,0.6,4,1.5c-0.7-1-1.3-2-1.9-3l-0.1,0.1c0,0,0,0,0,0l-1.4,0.6
				c-0.2-0.4-0.4-0.8-0.7-1.1c-4.3,0-7.8,1.8-8.4,4.2h3.8C162.7,119.7,164.5,118.8,166.6,118.8z"/>
			<path class="st9" d="M171.3,128.7c-0.8,1.4-2.6,2.3-4.7,2.3c-1.7,0-3.3-0.7-4.2-1.7c-0.1,0.1-0.2,0.2-0.3,0.2h-3.6
				c1.1,2,4.3,3.4,8.1,3.4c3.8,0,7.1-1.5,8.1-3.5c-0.2-0.2-0.5-0.5-0.6-0.8H171.3z"/>
			<path class="st9" d="M171.6,121.9h0.1c-0.1-0.1-0.2-0.2-0.2-0.3C171.5,121.7,171.6,121.8,171.6,121.9z"/>
			<path class="st9" d="M226.8,117.8c-0.5,0-1,0.1-1.5,0.2c-0.9,1.5-2,3.1-3.1,4.8h0.6c0.1,0,0.2,0.1,0.3,0.1c0.4-1.9,2.5-3.3,5-3.3
				c2.1,0,3.8,1,4.6,2.3h3.8c-0.6-2.4-4.1-4.2-8.4-4.2c-0.3,0-0.5,0-0.8,0c0,0.1-0.1,0.2-0.1,0.3L226.8,117.8z"/>
			<path class="st9" d="M232.3,130.2c-0.9,1-2.4,1.7-4.2,1.7c-2.8,0-5.1-1.8-5.1-3.9v-0.1c-0.1,0-0.1,0.1-0.2,0.1h-3.2v0.9
				c0,2.7,3.8,4.9,8.5,4.9c3.8,0,7-1.4,8.1-3.4h-3.6C232.5,130.4,232.4,130.3,232.3,130.2z"/>
			<path class="st9" d="M225.3,118c-3.3,0.7-5.7,2.5-5.7,4.6v0.1h2.6C223.4,121.1,224.4,119.5,225.3,118z"/>
			<path class="st9" d="M227.2,118c0.1-0.1,0.1-0.2,0.1-0.3c-0.2,0-0.4,0-0.6,0L227.2,118z"/>
			<path class="st9" d="M171.5,121.6c0.1,0.1,0.2,0.2,0.2,0.3h2c0.3-0.5,0.6-1,1.1-1.4c-0.7-1.6-2.9-2.9-5.6-3.4l-0.4,0.2l0,0
				c0.6,1,1.2,2,1.9,3C171,120.7,171.3,121.1,171.5,121.6z"/>
			<path class="st9" d="M168.6,117.4c-0.1-0.1-0.2-0.3-0.2-0.4c-0.6-0.1-1.2-0.1-1.8-0.1c0,0,0,0,0,0c0.2,0.4,0.4,0.8,0.7,1.1
				L168.6,117.4z"/>
			<polygon class="st9" points="169.2,117.1 169.2,117.1 168.8,117.3 			"/>
			<polygon class="st9" points="168.6,117.4 168.6,117.4 168.8,117.3 168.8,117.3 			"/>
			<polygon class="st9" points="168.8,117.3 168.8,117.3 168.8,117.3 			"/>
			<path class="st9" d="M168.7,117.3l-0.1,0.1c-0.1-0.1-0.1-0.2-0.2-0.3c0,0,0,0,0,0c0.1,0.1,0.2,0.3,0.2,0.4L168.7,117.3
				C168.7,117.3,168.7,117.3,168.7,117.3z"/>
			<path class="st9" d="M168.7,117.3C168.7,117.3,168.7,117.3,168.7,117.3L168.7,117.3l0.5-0.2c0,0,0,0-0.1,0L168.7,117.3z"/>
			<path class="st9" d="M168.4,117c0.1,0.1,0.1,0.2,0.2,0.3l0.1-0.1c-0.1-0.1-0.1-0.2-0.2-0.3C168.5,117,168.5,117,168.4,117z"/>
			<path class="st9" d="M168.6,117c0.1,0.1,0.1,0.2,0.2,0.3l0.4-0.2C168.9,117.1,168.8,117,168.6,117z"/>
			<path class="st9" d="M174.1,128.7c0.2,0.3,0.4,0.5,0.6,0.8c0.1-0.2,0.2-0.5,0.3-0.8H174.1z"/>
			<path class="st9" d="M173.7,121.9h1.4v-0.1c0-0.4-0.1-0.9-0.3-1.3C174.4,120.9,174,121.4,173.7,121.9z"/>
			<path class="st9" d="M223,127.8c0.2-0.1,0.4-0.5,0.4-0.8v-3.3c0-0.3-0.1-0.6-0.3-0.8c0,0.2-0.1,0.4-0.1,0.7V127.8z"/>
			<path class="st9" d="M218.5,127.9h1.1v-1.5C219.3,126.9,218.9,127.4,218.5,127.9z"/>
			<path class="st9" d="M212,123.7v3.3c0,0.4,0.2,0.8,0.5,0.9c0.3-0.5,0.4-1.2,0.4-1.9v-2.2c0-0.3-0.1-0.7-0.1-1h-0.2
				C212.3,122.8,212,123.2,212,123.7z"/>
			<path class="st9" d="M219.6,122.8h-4.8c0,0.1,0,0.1,0,0.2v3.8c0,0.4-0.1,0.7-0.2,1.1h3.9c0.4-0.5,0.7-1,1.1-1.5V122.8z"/>
			<path class="st9" d="M213,123.8v2.2c0,0.7-0.2,1.3-0.4,1.9c0,0,0.1,0,0.1,0h2c0.1-0.3,0.2-0.7,0.2-1.1V123c0-0.1,0-0.1,0-0.2h-2
				C212.9,123.1,213,123.4,213,123.8z"/>
			<path class="st9" d="M223,127.8v-4.2c0-0.2,0-0.5,0.1-0.7c-0.1-0.1-0.2-0.1-0.3-0.1h-0.6c-0.8,1.2-1.7,2.4-2.6,3.6v1.5h3.2
				C222.9,127.9,223,127.9,223,127.8z"/>
			<path class="st9" d="M222.2,122.8h-2.6v3.6C220.5,125.2,221.4,124,222.2,122.8z"/>
			<path class="st9" d="M205.4,123c0-0.4,0.1-0.7,0.2-1H202c-0.2,0-0.3,0.4-0.3,0.8h0.7c0.6-0.1,1.1,0.3,1.2,0.9v3.3
				c-0.1,0.6-0.6,1-1.2,0.9h-0.7c0,0.5,0.2,0.8,0.3,0.8h0.6c1-1.2,1.9-2.4,2.8-3.5V123z"/>
			<path class="st9" d="M208,122C208,122,207.9,121.9,208,122l-0.2,0c-0.1,0.2-0.2,0.4-0.3,0.7C207.7,122.4,207.8,122.2,208,122z"/>
			<path class="st9" d="M205.4,125.2c-0.9,1.1-1.8,2.3-2.8,3.5h3.4c-0.3-0.6-0.5-1.2-0.5-1.9V125.2z"/>
			<path class="st9" d="M208.3,123.1c0-0.6-0.1-1.1-0.3-1.2c-0.2,0.2-0.3,0.4-0.5,0.6c-0.1,0.4-0.2,0.8-0.2,1.2v2.2
				c0,1,0.3,1.8,0.8,2.5c0.1-0.2,0.2-0.6,0.2-1V123.1z"/>
			<path class="st9" d="M203.5,127v-3.3c-0.1-0.6-0.6-1-1.2-0.9h-0.7c0,0.1,0,0.2,0,0.4v4.4c0,0.1,0,0.3,0,0.4h0.7
				C202.9,128,203.4,127.6,203.5,127z"/>
			<path class="st9" d="M205.4,125.2c0.7-0.9,1.4-1.8,2.1-2.6c0.1-0.2,0.1-0.5,0.3-0.7h-2.2c-0.1,0.3-0.2,0.7-0.2,1V125.2z"/>
			<path class="st9" d="M208.1,128.5c-0.5-0.6-0.8-1.5-0.8-2.5v-2.2c0-0.4,0.1-0.8,0.2-1.2c-0.7,0.8-1.4,1.7-2.1,2.6v1.6
				c0,0.7,0.2,1.3,0.5,1.9h2C208,128.7,208.1,128.6,208.1,128.5z"/>
			<path class="st9" d="M171.7,122.7c0-0.3,0-0.5-0.1-0.8h-0.9c-0.2,0-0.4,0.5-0.4,1.2v4.4c0,0.7,0.2,1.2,0.4,1.2h0.5
				c0.3-0.5,0.5-1,0.5-1.6V122.7z"/>
			<path class="st9" d="M175.6,127.4c0.2,0.4,0.5,0.8,0.8,1.1C176.1,128.1,175.8,127.7,175.6,127.4z"/>
			<path class="st9" d="M177,127.5v-4.4c0-0.7-0.2-1.2-0.4-1.2h-0.5c-0.6,0.6-1,1.6-1,2.7v0.9c0,0.7,0.2,1.3,0.4,1.8
				c0.3,0.4,0.6,0.7,0.8,1.1c0.1,0.1,0.2,0.1,0.3,0.2C176.9,128.6,177,128.1,177,127.5z"/>
			<path class="st9" d="M175.6,127.4c-0.1-0.2-0.3-0.4-0.4-0.6v1.2c0,0.2,0,0.5-0.1,0.7h1.5c-0.1-0.1-0.1-0.2-0.2-0.2
				C176,128.2,175.8,127.8,175.6,127.4z"/>
			<path class="st9" d="M176.4,128.5c0.1,0.1,0.1,0.2,0.2,0.2h0.1c0,0,0,0,0,0C176.6,128.6,176.5,128.6,176.4,128.5z"/>
			<path class="st9" d="M175.1,126.8c0.1,0.2,0.3,0.4,0.4,0.6c-0.3-0.5-0.4-1.1-0.4-1.8v-0.9c0-1.1,0.4-2,1-2.7h-1V126.8z"/>
			<path class="st9" d="M173.3,124.2c-0.5-0.8-1.1-1.5-1.5-2.2h-0.1c0.1,0.2,0.1,0.5,0.1,0.8v4.4c0,0.6-0.2,1.1-0.5,1.6h2.8
				c-0.5-0.7-0.8-1.5-0.8-2.4V124.2z"/>
			<path class="st9" d="M173.3,123.8c0-0.7,0.2-1.3,0.5-1.9h-2c0.5,0.7,1,1.5,1.5,2.2L173.3,123.8
				C173.3,123.8,173.3,123.8,173.3,123.8z"/>
			<path class="st9" d="M175.1,126.8c-0.6-0.9-1.3-1.7-1.9-2.6v2.2c0.1,0.9,0.4,1.7,0.8,2.4h0.9c0.1-0.2,0.1-0.5,0.1-0.7V126.8z"/>
			<path class="st9" d="M173.7,121.9c-0.3,0.6-0.5,1.2-0.5,1.9c0,0,0,0,0,0v0.4c0.6,0.8,1.2,1.7,1.9,2.6v-4.8H173.7z"/>
			<path class="st9" d="M158.1,121.8c0-0.2,0-0.5,0.1-0.7h-4.3v8.4h4.6c-0.3-0.5-0.4-1-0.4-1.5V121.8z"/>
			<path class="st9" d="M162.8,122.6c0-0.8-0.3-1.5-0.7-1.5h-0.1c-0.3,0.5-0.5,1-0.5,1.6v4.4c0,0.8,0.3,1.6,0.9,2.3
				c0.2-0.2,0.4-0.7,0.4-1.3V122.6z"/>
			<rect x="152.9" y="121.1" class="st9" width="1" height="8.4"/>
			<path class="st9" d="M149.6,122.5v5.5c0,0.8,0.3,1.5,0.7,1.5h2.6v-8.4h-2.6C149.9,121.1,149.6,121.8,149.6,122.5z"/>
			<path class="st9" d="M162.4,129.3c-0.6-0.6-0.9-1.4-0.9-2.3v-4.4c0-0.6,0.2-1.1,0.5-1.6h-3.8c-0.1,0.2-0.1,0.5-0.1,0.7v6.2
				c0,0.5,0.1,1,0.4,1.5h3.6C162.2,129.5,162.3,129.4,162.4,129.3z"/>
			<path class="st9" d="M231.9,123.4v5.5c0,0.6,0.2,1.1,0.4,1.4c0.6-0.6,0.9-1.4,0.9-2.3v-4.4c0-0.6-0.2-1.2-0.5-1.7h-0.2
				C232.2,121.9,231.9,122.6,231.9,123.4z"/>
			<path class="st9" d="M236.7,128.8c0,0.5-0.2,1.1-0.4,1.5h4.4v-8.4h-4.1c0.1,0.2,0.1,0.5,0.1,0.7V128.8z"/>
			<rect x="240.7" y="121.9" class="st9" width="1" height="8.4"/>
			<path class="st9" d="M244.3,128.9v-5.5c0-0.8-0.3-1.5-0.7-1.5h-2v8.4h2C244,130.4,244.3,129.7,244.3,128.9z"/>
			<path class="st9" d="M233.3,123.6v4.4c0,0.9-0.4,1.6-0.9,2.3c0.1,0.1,0.2,0.1,0.3,0.1h3.6c0.3-0.5,0.4-1,0.4-1.5v-6.2
				c0-0.2,0-0.5-0.1-0.7h-3.8C233.1,122.4,233.3,123,233.3,123.6z"/>
		</g>
	</g>
</g>
</svg>
