<?xml version="1.0" encoding="utf-8"?>
<!-- Generator: Adobe Illustrator 26.3.1, SVG Export Plug-In . SVG Version: 6.00 Build 0)  -->
<svg version="1.1" id="Layer_1" xmlns="http://www.w3.org/2000/svg" xmlns:xlink="http://www.w3.org/1999/xlink" x="0px" y="0px"
	 viewBox="0 0 600 600" style="enable-background:new 0 0 600 600;" xml:space="preserve">
<style type="text/css">
	.st0{fill:none;}
	.st1{fill:#007A3D;}
	.st2{fill:#FFFFFF;}
	.st3{fill:#CE1126;}
</style>
<g>
	<path class="st0" d="M272.7,600c9,0.8,18.1,1.2,27.3,1.2s18.3-0.4,27.3-1.2H272.7z"/>
	<path class="st1" d="M583.3,400H137.7l-88.3,66.2C98.3,540.4,179.3,591.6,272.7,600h54.6C446.4,589.3,545.4,508.9,583.3,400z"/>
	<path class="st2" d="M271,300L137.7,400h445.7c10.8-30.9,16.7-64.1,16.7-98.8c0-35.5-6.2-69.6-17.5-101.2H137.7L271,300z"/>
	<path d="M582.5,200C540.9,84.1,430.2,1.2,300,1.2c-104,0-195.7,53-249.5,133.4l87.2,65.4H582.5z"/>
	<path class="st3" d="M137.7,200l-87.2-65.4c-13.5,20.2-24.6,42.1-33,65.4C6.2,231.6,0,265.7,0,301.2c0,34.6,5.9,67.8,16.7,98.8
		c8.2,23.5,19.3,45.7,32.7,66.2l88.3-66.2L271,300L137.7,200z"/>
</g>
</svg>
