<?xml version="1.0" encoding="utf-8"?>
<!-- Generator: Adobe Illustrator 26.3.1, SVG Export Plug-In . SVG Version: 6.00 Build 0)  -->
<svg version="1.1" id="Layer_1" xmlns="http://www.w3.org/2000/svg" xmlns:xlink="http://www.w3.org/1999/xlink" x="0px" y="0px"
	 viewBox="0 0 600 600" style="enable-background:new 0 0 600 600;" xml:space="preserve">
<style type="text/css">
	.st0{fill:#8A1538;}
</style>
<path class="st0" d="M300,0.6c-20.5,0-40.5,2.1-59.8,6l85.5,26.1L216.6,66.1l109.1,33.3l-109.1,33.3L325.7,166l-109.1,33.4
	l109.1,33.3L216.6,266l109.1,33.4l-109.1,33.3L325.7,366l-109.1,33.4l109.1,33.3L216.6,466l109.1,33.4l-109.1,33.3L325.7,566
	l-90.3,27.6c12.2,2.7,24.6,4.6,37.3,5.8h54.6C480.2,585.6,600,457.1,600,300.6C600,134.9,465.7,0.6,300,0.6z"/>
</svg>
