<svg id="svg1589" xmlns="http://www.w3.org/2000/svg" xmlns:xlink="http://www.w3.org/1999/xlink" viewBox="0 0 600 600"><defs><style>.cls-1{fill:none;}.cls-2{clip-path:url(#clip-path);}.cls-3{fill:#006c35;}.cls-4{fill:#fff;}</style><clipPath id="clip-path"><circle class="cls-1" cx="300" cy="300" r="300"/></clipPath></defs><g class="cls-2"><path id="_21461584" data-name="21461584" class="cls-3" d="M674,600V0H-76V600Z"/><path class="cls-4" d="M460.26,172.2c4.4-4,8.5-8.4,13.4-11.52-1.4,7.08-5.6,12.48-9.9,17-2.2,2.16-1.2,6.12-1.5,9.12-1.2-.36-2.3-.72-3.5-1.2,1.1,18,2.7,35.88,3.4,53.88.1,2,.2,4.2,1.6,5.52,6.6,7.44,13.4,14.76,18.2,24.24,1.9,3.72,2.9,7.92,3.9,12.12a83.82,83.82,0,0,0,.5-21.24q-3.6-41-6.5-82.32a69.54,69.54,0,0,1-.3-10.2c.2-3.12,2.7-5.76,5.2-5.52a16.54,16.54,0,0,1,3.1,5.88c2,5.64,3.8,11.76,3.3,18.12-1.2-.48-2.4-1.08-3.7-1.68,1.8,18.6,3.6,37.2,4.7,55.92.5,12.6,2,25.32-.1,37.8-1.8,11.52-6.3,23.16-14.3,29.76-6.7,5.52-14.5,8.64-22.3,10.68-3.2.84-6.5,1.2-9.6.12a117.3,117.3,0,0,1,10.5-5.88,86.68,86.68,0,0,0,14.6-9.6c4.3-3.6,8.8-7.2,12-12.48-4-13.44-10.6-26-20-34.32.3,13.2.8,26.64-.8,39.72a15.28,15.28,0,0,1-3.1,8c-1.1-5.52-1.2-11.28-1.7-16.92-.9-12.24-1.7-24.6-2.4-36.84a8.1,8.1,0,0,0-2.8-5.88c-5.9-6.24-11.4-13.2-17.1-19.68.2,7.56,1.1,15,1.5,22.44.7,10.08.8,20.16,1.6,30.24.5,7.08.6,14.52-1.5,21.24-2.1,6.36-6.8,11.76-12.4,12.24a27.68,27.68,0,0,1-8.9-.6c-3.1-.6-5.5-3.6-6.9-7-1.7-4.08-2.6-8.64-4-12.84-2.6.72-5.3,1.44-7.2,4-4,4.8-5.2,12.12-7.1,18.36-1.1,3.72-2.4,7.8-5.3,9.84s-6.7,1.32-9.6-.72c-4.4-3-7.1-8.76-8.4-14.64-1.3-4.56.5-9.84-1.7-14.16-1.6-4-.7-8.64.1-12.72a46.54,46.54,0,0,1,9.6-18.84L357.76,243c.5,17.28,1.6,34.56-.2,51.72a17,17,0,0,1-3.3,9.24,81.6,81.6,0,0,1-1.2-10q-2.1-28.44-3.6-56.88c-.1-2.16-.4-4.56-1.8-6a260.58,260.58,0,0,1-16.6-22.2c-3-4.8-6.1-9.72-7.7-15.48-.6-2.4-1.1-5.76.7-7.56a13.75,13.75,0,0,1,5.8,2.64,43.7,43.7,0,0,1,9.1,9.12,15.06,15.06,0,0,1,2.3,5.64c-1.7,0-3.3-.12-5-.12a80.15,80.15,0,0,0,12,16.56c-.4-16.08-1.8-32.28-2.4-48.36,0-2.16,0-4.56,1.2-6.36,1.1-1.56,2.8-2.16,4.3-2.88a59.84,59.84,0,0,1,6,17,30.69,30.69,0,0,1,.3,7.44,31.63,31.63,0,0,1-3.5-1.32c.8,13.08,1.9,26,2.6,39.12a34.51,34.51,0,0,0,.6,5.52,13.43,13.43,0,0,0,2.3,3.12c7.1,7.56,14.2,15.12,21.4,22.44,4.3-4.68,8.5-9.48,12.8-14a26.64,26.64,0,0,0,2.8-3.24c.8-1.08.5-2.64.5-4-1.4-15.72-2.4-31.44-3.5-47.16-.3-5.76-1-11.4-1-17-.1-3.36,2-6.72,4.7-6.84,1.2-.12,1.7,1.56,2.3,2.52a60.83,60.83,0,0,1,4.4,14.28,20.71,20.71,0,0,1-.1,7.44c-1.1-.6-2.3-1.32-3.4-1.92,1.5,14.76,2.7,29.52,3.8,44.28,3.1-2.88,5.9-6.24,8.8-9.36,3.2-3.48,6.6-6.84,9.7-10.56-3.7-5-7.6-9.72-11.4-14.64-2.4-3.12-5.3-6.12-6.3-10.56-.8-3.12-.3-6.48.2-9.48,4.5,1,8.4,4.32,12,7.68a79.58,79.58,0,0,1,6.9,7.92c-.2-6.24-.8-12.48-1.2-18.72,0-2.4-.2-5,1.1-7,1.1-1.56,2.8-2.16,4.2-3a52.5,52.5,0,0,1,5.9,16.32,30.18,30.18,0,0,1,.5,7.92l-3.7-1.08c.4,4.8.8,9.48,1.3,14.28,4.7-4.44,9-9.48,13.7-13.92,1.6-1.92,4.5-3.36,4.5-6.72.1-3.6-.5-7.32-.1-10.92.3-3.12,2.7-5.64,5.2-5.4C458.06,165.48,459,169.08,460.26,172.2Zm-24.4,34.68c-.8,1.08-2.3,2-2.2,3.84a17.62,17.62,0,0,0,2.8,4.08c5.8,6.6,11.3,13.56,17.4,19.56-.2-7.08-.8-14-1.1-21.12-.5-7.44-.7-14.88-1.3-22.32C446.06,195.84,441.16,201.6,435.86,206.88Zm-14.7-13.08c1.3,1.8,2.5,3.6,3.8,5.4,0-1.8-.1-3.6-.1-5.4Zm-14,43.8c-1,1.08-2.2,2.28-2.1,4.08-.1,9.12.7,18.48-1.1,27.36a10.48,10.48,0,0,1-3,5.28c-1.6-8.76-1.7-17.76-2.9-26.64-4.3,4.32-8.4,9-12.4,13.68,2.3,3.24,4.6,6.72,5.4,11.16,1.3,6.12-.2,13.2-4.2,17.28-4.9,5.16-11.5,6-17.6,7,.9,5,1.7,10.32,4.1,14.64,1.5,2.52,3.9,4.92,6.5,4,2.8-1,4.5-4.32,5.5-7.44a112.94,112.94,0,0,1,7.2-18.36c2.4-4.8,6.3-8.76,10.9-8.88,1.5.12,3.5-.48,4.4,1.56,2,4.2,2.7,9.24,5.2,13.2,4.2,7,13.1,7.08,18.1,1.32,1.7-1.92,1.7-5,1.5-7.68-2.3-23.88-4-48-6-71.88C420,223.8,413.66,230.76,407.16,237.6Zm-35.3,40.8a21,21,0,0,0-2.2,6.36,17.82,17.82,0,0,0,13-3.48c1.2-1,2.6-2.52,2.3-4.56-.3-4.08-3-7-5.4-9.36A90.06,90.06,0,0,0,371.86,278.4Z"/><path class="cls-4" d="M184.06,162c1.2-1,2.3.72,3.1,1.8,2.4,3.72,5,7.44,6.4,12l-3.7.72c.3,7.2,5.1,12.12,6.5,19a33.3,33.3,0,0,1,.4,13c-1,5.76-4.8,10.8-9.5,11.76a15.72,15.72,0,0,1-15.8-5.64c-2.7-3.36-3.7-8.16-4.9-12.48-1.3,5.88-3.2,11.52-6.5,16.08a24.66,24.66,0,0,1-6.9,6.36c.7,16.08,2,32.16.9,48.12-.4,4.56-.6,10-3.9,13-1.2-6.36-1.4-13-2-19.56-1.1-13.32-1.9-26.64-3-40-3.1-1-6.5-1.8-8.9-4.68-4-4.56-5.3-11.64-5-18.12.1-5,1.4-10,2.3-14.88a19.38,19.38,0,0,0-3.4,6.72c-2.1,8-3.5,16.44-6.4,24.12-1.1,3-3.2,5.52-5.8,6.24-3.2.84-7,.6-9.5-2.52-2.7-3.36-3.3-8.4-3.7-13-.2-4.68-.5-9.72,1.2-14,1-2.64,3.1-4.08,4.9-5.4-1.2,2.52-2.6,5-2.9,7.92a50.06,50.06,0,0,0,.8,12.24c.4,2.4.8,5,2.3,6.72a5.45,5.45,0,0,0,8.4-.24,19.57,19.57,0,0,0,2.4-5.88c2-7.68,3.6-15.6,6.1-23,2.2-6.24,6.1-12.36,11.7-13.68-.6,8.52-3.7,16.44-3.9,25.08-.1,3.84.2,8,2.2,11,1.5,2.52,4,3.36,6.3,4.2-.6-11.64-1.5-23.28-2.1-35-.2-4.32-.8-8.76-.2-13.08.5-3,3.1-4.08,5.1-5,3.8,7.08,6.6,15.48,6.5,24.12l-3.8-1.08c.8,10,1.6,20,2.5,30a15.77,15.77,0,0,0,8.2-7.56c3.9-7.08,4.5-16.32,2.6-24.48-.8-3.48-2.1-6.72-2.7-10.32-.6-3.36,1.3-6.84,3.7-7.92,1.1-.6,1.6,1.08,2.1,2,1.5,4.08,2,8.64,2.7,13.08.9,5.88,0,12,1.7,17.64,1.4,4.8,3.9,9.24,7.5,11.76a11.93,11.93,0,0,0,9.6,1.8c1.6-.36,2.9-2,3.3-4.08.8-3.84-.3-7.8-1.6-11.28-3-7.92-6.7-15.48-8.1-24.12C180.76,168.24,181.46,163.92,184.06,162Z"/><path class="cls-4" d="M321.36,171.24a21.19,21.19,0,0,1,8.3-9.24,52,52,0,0,1-3.6,8.16c-1,1.92-1,4.32-1.1,6.48a26.42,26.42,0,0,0,6.8-1.32c-.6,2.28-1.2,4.68-2.9,6.12-1.9,1.68-4.7,2.76-6.7.72C320.06,179.4,319.76,174.6,321.36,171.24Z"/><path class="cls-4" d="M197.36,166c1-1.92,2.9-2.64,4.4-3.48,3.1,5,5,11.16,6.2,17.28a24.82,24.82,0,0,1,.1,7.2c-1.1-.48-2.3-1-3.4-1.44,1.3,11.64,2.9,23.16,4,34.8,5.3-3.24,10.2-7.2,15.7-10.08a14.41,14.41,0,0,1,5.4-1.68c-.7,1.92-1.5,3.84-3.1,4.68-5.8,3.72-11.7,7-17.4,11,.5,5.76,1,11.64,1.6,17.4,2.6-4.2,4.9-9.48,9.4-10.8.2,3.12-.6,6.84,1.2,9.36,2.8,2.76,6.6,1.08,9.2-1.44-.2-4.56.8-9,1.5-13.44,1.1.6,2.5.84,2.9,2.52a27.55,27.55,0,0,1,0,13.08,16.2,16.2,0,0,1-7.4,10.56c-2.1,1.32-4.7,2-7,.84s-3.9-4.08-5.5-6.6c-1.4,4.32-3.7,8.28-3.8,13.2a60,60,0,0,1-8.5,28.32c-8.5,14-21.5,22.44-34.7,27.36-7.6,2.64-15.5,5-23.5,4.56a20.88,20.88,0,0,1-12.4-4.2c-1.6-1.32-3-3.12-4.6-4.32-2-.48-4.1.24-6.2.24-5,.24-10,.48-14.9-.6,6-2.52,12.1-4.44,18-7.2a73.84,73.84,0,0,1,6-39.36,40.24,40.24,0,0,1,5.4-8.28c-1.7,4.32-3.8,8.52-4.7,13.32a70.72,70.72,0,0,0,.4,30.72,116.76,116.76,0,0,0,12-6.12c9.1-5,18-10.44,26.3-17.4,3.1-2.76,6.3-5.64,8.4-9.84,1-2,.8-4.44.8-6.72-4.3,1.08-8.5,3.6-13,3.48-2.8-.24-5.8-1-7.8-3.72s-2.1-6.72-1.7-10.2c.6-4.56,2.2-9.12,5.1-12.12,3.3-3.48,8.2-3.36,12-1.2s5.8,6.72,7.6,11c5.6-2.64,9.4-8.88,14.9-11.88.2,3.6-.1,7.8,2.1,10.68,1.3,2,3.5,1.92,5.3,2.16-.3-5.76-1-11.4-1.6-17-1.9-18.84-3.8-37.8-5.4-56.76C196.56,171.12,196.26,168.24,197.36,166Zm-34.2,82c-.5,1.32.7,2.16,1.5,2.64,3,1.32,6.3.48,9.4-.24-1.6-2.16-3.5-4.56-6.1-4.68C166.26,245.52,163.86,245.64,163.16,247.92Zm21.8,7.8c.2,3.84.3,7.68-.7,11.28-1.6,6.12-5.3,11-9.1,15.12-7.3,7.56-15.9,12.48-24.2,18a93.36,93.36,0,0,1-11.7,7.08c5.1.48,10.2-.6,15.2-1.08,7.7-.6,15.1-3.36,22.2-7,7.4-3.84,14.6-8.76,20.4-16a36.44,36.44,0,0,0,7.5-15.84,56.48,56.48,0,0,0,.7-9.24c-3-.12-6.2,0-8.9-1.92-2.2-1.56-3.4-4.56-4.7-7.2A53.18,53.18,0,0,1,185,255.72Z"/><path class="cls-4" d="M266.26,165.6c1.1-1.56,3.1-1.32,4.4-.24,2.9,2.4,4.6,6.84,4.4,11.16a25.24,25.24,0,0,1-1.3,5.64c-.4-2.76-.3-5.64-1.3-8.16-1.5-2.64-4.3-3.12-6.1-5.28C265.66,168,265.36,166.32,266.26,165.6Z"/><path class="cls-4" d="M307.26,167c.2-1.68,1.5-3.48,2.9-2.52,3.9,2.4,6.7,7,8.5,11.88-1.4,0-2.8-.12-4.1-.24a82.43,82.43,0,0,0,2.5,9.84c1.5,4.56,3.6,8.88,4.2,13.92.7,5.52-.1,11.76-3.2,16-5.8,8.16-17.4,6.72-22.4-2-1.9-3.12-2.9-6.72-3.9-10.44-1.6,7.92-5,15.6-10.7,19.68-5.8,4.44-13.5,3.84-19-.84a16.53,16.53,0,0,1-5.7-12.6c-.4-7.44,1.9-14.4,2.7-21.6a16.61,16.61,0,0,0-3.3,6.36c-2.4,8-3.4,16.68-6.8,24.24-1.6,3.6-4.3,6.84-7.7,7.2a9.14,9.14,0,0,1-8.8-4.92c-1.7-3.36-2.1-7.44-2.1-11.4a48,48,0,0,1,3.4-17.4c0,7.56-1.8,15.84,1.2,22.92,1.5,4,5.5,6.24,8.6,4.08,2.8-2.16,4.1-6.24,5.1-10a183,183,0,0,1,7.4-23.4c1.3-3,2.7-6.12,4.9-8.28,1.1-1.2,2.7-1.2,4.1-1.56.3,6.72-2.7,12.6-3.7,19.08-1,5.64-1.3,12.36,1.9,17a12.8,12.8,0,0,0,14.6,4.44c6.9-2.76,11.9-11.52,12.2-20.64.2-5.4.4-11.28-1.9-16.08-1-2.52-2.9-5.16-2.1-8.28a10.44,10.44,0,0,1,4.4-7,27,27,0,0,1,3.1,9.84c.8,8.28.9,16.8,3.2,24.72,1.4,4.56,3.5,9.24,7.2,11.4,3.4,2,7.6,2.52,10.9.36,2.1-1.32,2.6-4.56,2.1-7.2-1.4-8.64-6.1-15.48-8.3-23.76C307.46,175.68,306.56,171.36,307.26,167Z"/><path class="cls-4" d="M374.46,165.24a4.32,4.32,0,0,1,6.1,2.52,3.18,3.18,0,0,1-1.1,3.24,17.07,17.07,0,0,1-4.1-2c-1.7,4.08-2.6,8.64-3.6,13.2a33.64,33.64,0,0,0-2.4-6.36c-1.4-2.4-3.6-3.6-5.2-5.76-.5-1.92,1.3-4.08,2.8-3.48,2.2.84,3.5,3.36,4.8,5.64C372.36,169.68,372.66,166.68,374.46,165.24Z"/><path class="cls-4" d="M105.46,175.32a20,20,0,0,1,8.6-10.08c-.9,3-2.4,5.52-3.6,8.28-1,1.92-.9,4.32-1,6.48a24.45,24.45,0,0,0,6.9-1.8c-.7,2.28-1.4,4.8-3.1,6.36s-4.5,2.64-6.4,1C104.66,183.12,104.26,178.68,105.46,175.32Z"/><path class="cls-4" d="M233.36,169.2c.6-4,5.3-3.84,6.8-.84,1,2.16,1.5,4.44,2.5,6.6s2,4.44,1.4,7c-.9,4-3.2,7.08-3.5,11.28,1.1-.6,2.2-1.32,3.3-2-.3,2.16,0,5-1.8,6.24-2.2,1.32-4.9-1.32-4.7-4.32.3-5.4,4.5-9.6,3.2-15.36-4.2,7.08-10,13.44-17.1,14.76,3.1-3.12,6.6-5.28,9.4-8.88a33,33,0,0,0,4.2-7.56C235.56,174.12,233,172.32,233.36,169.2Zm2.9-.36a9,9,0,0,0,2.6,3.12A4.44,4.44,0,0,0,236.26,168.84Z"/><path class="cls-4" d="M211.16,171.72c1.5-.48,3.3-1.2,4.5.48a20.79,20.79,0,0,1,4.1,16.92c-.8-2.28-1.4-4.68-2.3-6.84C216,178.2,212.66,175.8,211.16,171.72Z"/><path class="cls-4" d="M179,174.24a10.27,10.27,0,0,1,1.9,7.32c-2.4.48-4.8,1.32-7.2,2-1.3.48-2.7-.72-3-2.4a23.92,23.92,0,0,1,.7-5.28c.5,1.8,1,3.6,1.5,5.52.6-.36,1.3-.6,1.9-1v-4.92h1.4c.2,1.44.4,3,.6,4.44l2.3-.36C179,177.84,179,176,179,174.24Z"/><path class="cls-4" d="M382.06,178.2a17.07,17.07,0,0,1,6-1,10.38,10.38,0,0,1-3.5,3.48c-6.9,3.48-14,6-20.6,10.44.6,1.56,1.2,3,1.8,4.56-1.6-.36-3.5-.36-4.7-2-1.1-1.32-1.2-3.84.1-5a15.28,15.28,0,0,1,3.6-2.4C370.46,183.6,376.16,180.6,382.06,178.2Z"/><path class="cls-4" d="M277.56,184.44a18.68,18.68,0,0,1,2.5-2,22.82,22.82,0,0,0,1.9,9c1.1,2.88.2,7-2.5,7.68-2.3,1-4.4-.84-6-2.52-1.3,1.44-2.7,3.36-4.6,3-3.5-.24-5.2-5.4-4.5-9.24.3-2.52,1.9-4.08,3.3-5.64-.2,2.64-1,5.28-.5,7.92.4,1.8,2.1,1.8,3.3,2.4.4-2.88.5-5.88,1.1-8.88.2-1.56,1.7-1.68,2.5-2.4a45.53,45.53,0,0,0,.7,7.44c.5,1.8,2.2,2.4,3.4,3.24C278.76,190.92,277.56,187.68,277.56,184.44Z"/><path class="cls-4" d="M173.76,189c1.5,0,3.3-.36,4.5,1.2a20.6,20.6,0,0,1,3.8,16.68c-1.2-4-2.2-8.28-4.8-11.28C175.66,193.8,174.06,191.76,173.76,189Z"/><path class="cls-4" d="M380.76,204.12a14.26,14.26,0,0,1,2.5-2.64,23.55,23.55,0,0,0,1.8,8.4c1,2.64,1,6.84-1.5,8-2.3,1.32-4.7-.24-6.6-1.92-1.5,1.44-3.3,3.24-5.4,2.52-3.1-.84-4.4-5.4-3.9-9,.2-2.64,2-4.32,3.4-6-.3,2.76-1.2,5.52-.6,8.28.5,1.8,2.2,1.44,3.4,1.8.4-3.12.2-6.36,1.2-9.24a9.79,9.79,0,0,1,2.5-1.68c.1,2.76-.3,5.76.8,8.28.7,1.56,2.2,1.68,3.4,2.16C381.66,210.12,381,207.12,380.76,204.12Z"/><path class="cls-4" d="M463.86,208.44c-.6-1.92.6-3.84,2.2-3.84,2.5,0,4.4,2.64,5.6,5.16,2.1,5.16,3.1,11.4,1.4,16.92-.9-4.92-.8-11.16-4.4-14.4C467.06,211.08,465.16,210.36,463.86,208.44Z"/><path class="cls-4" d="M325.76,219.24a4,4,0,0,1,4.5-1.56c2,2.4,1.6,6.72,0,9.24a14.36,14.36,0,0,1-12.4,7.08c2.9-2.16,6.2-3.36,8.8-6.12,1.2-1.08,1-3.12,1.2-4.8-1.4.24-2.8.6-4.1.84A26.79,26.79,0,0,1,325.76,219.24Z"/><path class="cls-4" d="M393,223c.9-.24,2.1-1,2.7.24-.7,2.88-3.1,4.08-5,5.28-7.2,4.2-14.2,8.88-21.3,13.44-.3-.84-.7-1.56-1-2.4,4-3.72,8.4-6.48,12.7-9.48C385.06,227.52,388.86,224.76,393,223Z"/><path class="cls-4" d="M257.46,230a10.75,10.75,0,0,1,2-4.44,76.49,76.49,0,0,1,12.7,26.28c2.4,9.48,3,19.44,4.5,29.16.8,4.92,1.5,10.08,4.1,14,1.7,2.76,4.2,4.44,6.6,6.12.5-3.12,1.1-6.48,3.4-8.28,7-5.88,15.1-9.48,23.1-12.72-6.5-.24-13.1,0-19.6-.12-5.3-.12-10.6.48-15.8-.72.2-2.52.2-5.16,1.4-7.44,2.4-5,6.6-7.92,10.6-10.56a87.71,87.71,0,0,1,18.9-9.72c-1.7-2.28-4.3-4.8-3.6-8.52,1.2-4.32,4.2-8.64,8-8.52,4.2,0,8.3,2.16,11.9,4.8,2.2,1.8,4.9,3.72,5.7,7.08a14.38,14.38,0,0,1-2.2,6.48c-2.3,3.6-6.4,3.36-9.8,3.84-.2,2.88-.5,6.36-2.8,7.68-.7-2.28-1.4-4.44-2.2-6.72-8.3,1.92-15.7,7.32-22.2,13.8,18.4.12,36.7-.48,55.1-.36,1.2.12,2.4.24,3.6.48-.8,6.12-5.7,9.12-10,10.44-8.7,2.4-17.4,4.56-26.1,6.72-6.5,1.68-13.1,3.6-19,7.32a17.28,17.28,0,0,0-5.5,6.12,67,67,0,0,0,13.3,4.32c1.5.48,3.6.84,4,3.12.6,3,.7,7.2-1.6,9.12-2.9.84-5.9,0-8.8-.6a29.63,29.63,0,0,1-20.3-15.48c-3.5-6.24-4.5-14-5.4-21.48a70.91,70.91,0,0,1-7.6,11.52c-7.8,9.24-17.2,16-27,21.36-3.4,1.92-7.7,2.52-11.1-.12-2.4-1.8-3.3-5.52-4.3-8.64-9.1,5.88-18.4,11.52-28.5,13.92a77,77,0,0,1-18.8,2.4c3.3-2,6.7-3.6,10-5.28,11-5.76,21.8-12.24,32.4-19.2,1.3-1,2.9-1.8,3.8-3.36,1-3.48,1.1-7.2,2.6-10.56a22.74,22.74,0,0,1,7.1-9.6c-1.9,5.28-3.9,10.68-4.5,16.44A103.27,103.27,0,0,0,243.46,273c1.4-1.92,3.4-4.32,2.6-7.2-1-4.08-2.7-7.68-3.9-11.64-1.8-5.76-4-11.76-3.5-18.12.1-2,1.3-3.6,2.1-5.16,4.4,3.6,7.2,9.48,9.7,15.12l-2.8.72c1.7,5.88,4.5,11.16,5.3,17.4.6,4.8-.3,10.08-3,13.68-6.8,9.24-15.2,16.2-23.1,23.76,1.4,1,2.9,2.28,4.6,2.16,3.3-.12,6.5-1.56,9.5-3.12,11-6.12,20-16.32,29.3-25.8-2.3-11.28-6.4-21.84-10.7-32.16A26.14,26.14,0,0,1,257.46,230Zm53.1,14.88a10.28,10.28,0,0,0,4.4,4.32c2.7.72,5.3-1.32,7.3-3.48-2.5-2.4-5.4-4.32-8.6-4.32A3.46,3.46,0,0,0,310.56,244.92Z"/><path class="cls-4" d="M119.86,230c.1-1.44,1-3,2.3-2.88,3.4-.48,5.8,3,7.9,5.76a5.79,5.79,0,0,1,1.3,5.4c-.4,2.28-2.5,2.16-3.9,2.64-3,.24-4.2,4.32-6.5,6.12-4.6,4-10.3,7.08-16,6.12,1.4-2.52,3.7-3.6,5.9-4.44,4.1-1.68,7.4-5.4,10.4-9.24C120.46,236.4,119.46,233.28,119.86,230Zm1.9.48a17.43,17.43,0,0,0,1.5,6c.6-1.68,1.2-3.48,1.7-5.16A25.81,25.81,0,0,0,121.76,230.52Zm4.5,7.8c1.1-.12,2.2-.36,3.3-.48a23.38,23.38,0,0,0-1.1-5.28C127.06,233.88,126.86,236.28,126.26,238.32Z"/><path class="cls-4" d="M289.66,231a8.73,8.73,0,0,1,2.4-2.16c0,4.2,2.4,7.44,2.7,11.52s-4,6.36-6.6,4.44c-.8-.72-1.5-1.56-2.2-2.28-1.4,1.56-2.9,3.84-5,3.24-3.2-.72-4.9-5.4-4.3-9.24.3-2.64,2-4.32,3.5-5.88-.3,2.52-1,4.92-.8,7.56.2,1.92,1.9,2.52,3.1,3.36a65.79,65.79,0,0,0,1.4-9.12c.2-1.68,1.8-1.92,2.7-2.76a37.84,37.84,0,0,0,.6,7.56c.6,1.68,2,2.52,3.1,3.48C291.46,237.48,289.76,234.24,289.66,231Z"/><path class="cls-4" d="M130.06,246.36c1.7-1,3.5-2.16,5.4-2.4s2.7,3.36,1.3,4.8c-2.1,2-4.6,2.88-7,4.2-5.6,3.36-11.2,6.6-16.7,10.32-1.2,1-2.7.72-4,.48a11.63,11.63,0,0,1,3.5-5.16C118.36,254.16,124.16,250.08,130.06,246.36Z"/><path class="cls-4" d="M340.36,250.08c.4-2.4,2.6-2.76,4.2-3.48.4,3.48.7,7.08,2.4,10l-2.6.36c-1.2,2.28-2.5,4.8-4.5,6-3.3,2-7,2-10.6,1.8,3.8-1.32,8.5-1.68,11-6C342,256.2,340.16,253,340.36,250.08Z"/><path class="cls-4" d="M415.86,253.56c.5-1.92,2.3-1.92,3.6-1.68,2.8.6,4.8,3.6,6.6,6.12a5.65,5.65,0,0,1,.5,6.24c-1.8,1.8-4.7.72-6.3,3.12-4.8,7-12.2,11.4-19.6,10.44,1.4-2.52,3.7-3.6,6-4.44,4.1-1.68,7.3-5.52,10.3-9.24C416.16,260.76,415,257.16,415.86,253.56Zm1.9,1.44a33.7,33.7,0,0,0,1.2,6.36,30.9,30.9,0,0,0,1.8-5.16C419.76,255.72,418.66,255.36,417.76,255Zm5.8,2.64a44.43,44.43,0,0,0-1.4,5.28c1.1-.12,2.2-.36,3.3-.48a26.62,26.62,0,0,0-1.1-4.92C424.16,257.52,423.76,257.64,423.56,257.64Z"/><path class="cls-4" d="M226.66,257.28c1.9-2.28,5.3-1.08,6.5,1.68.6,1.56-.7,2.76-1.2,4a13,13,0,0,0-3.1-2c-1-.36-1.3,1.08-1.6,1.92-1.2,3.6-1.8,7.44-2.7,11.16a35.74,35.74,0,0,0-2.3-6.6c-1.2-2.16-3.2-3.36-4.7-5.16-1.4-1.44.1-4.56,1.7-4.2,2.3.36,3.7,3,5.3,4.92C225.16,261,225.56,258.84,226.66,257.28Z"/><path class="cls-4" d="M106.46,278.16a21.19,21.19,0,0,1,8.3-9.24,53.33,53.33,0,0,1-3.6,8.28c-1,1.92-1,4.2-1.1,6.36a34.66,34.66,0,0,0,6.9-1.2c-.6,2.28-1.3,4.8-3,6.12-1.9,1.56-4.6,2.76-6.6.72C105.16,286.2,105,281.52,106.46,278.16Z"/><path class="cls-4" d="M266.06,296.64c1.7-.36,3.7-1.32,5.2.24a4.68,4.68,0,0,1,.6,6c-2.1,1.44-4.8.6-6.6,2.64.3,3.12,2.2,5.64,2.6,8.64.1,1.92-1.1,3.48-1.8,5-.5-3-.9-6.24-2.2-8.88-.8-1.92-2-3.84-1.6-6.12.4-2.52,2.5-3.72,4-4.92A19.76,19.76,0,0,1,266.06,296.64Z"/><path class="cls-4" d="M342.76,300.36c.8-2.52,2.7-3.72,4.4-5-.7,2-1.9,4.08-2.1,6.36.8,1.8,2.1,3.12,2.8,5a2.57,2.57,0,0,1-4.7,1.68C341.66,306.24,341.86,302.88,342.76,300.36Z"/><path class="cls-4" d="M324.26,296.88c2.8-1.2,5.8,0,8.3,1.8-1.8,4.68-6,5.88-9.1,8.76a12.51,12.51,0,0,1,.2,1.92c2.2.12,4.5.48,6.4-1a26.4,26.4,0,0,1,7.9-4c-2.2,2.4-4.3,4.8-6.5,7.08-2.6,2.64-6.2,2.64-9.3,1.56-1.5-.6-3.4-2.28-2.9-4.68.8-3,3.2-4.56,5.1-6.36l-4.1-.36C321.36,299.76,322.36,297.36,324.26,296.88Z"/><path class="cls-4" d="M396.76,305.4c-1-1.44-.1-3.84,1.3-4.08,2.7-.6,5,2.16,6.2,4.92a16.65,16.65,0,0,1,.2,12.6c-.5-2.76-.5-5.64-1.6-8.16C401.36,308.16,398.56,307.68,396.76,305.4Z"/><path class="cls-4" d="M442.06,307.2c3.7-1.68,7.4-3.84,11.4-3.36-.9,1.8-2,3.48-3.7,4.2-6.2,2.88-12.5,5.52-18.6,8.76a27.25,27.25,0,0,1-6,2.52c-.2-.72-.5-1.44-.7-2.16C430.06,313.08,436.06,310.2,442.06,307.2Z"/><path class="cls-4" d="M431.46,410.4h-31v-4.08c1.4-1.68,3.3-4,3.3-5.28,0-2.28-3.9-7-4.8-7s-4.8,4.8-4.8,7c0,1.44,1.7,3.48,3.1,5.16l.1.12v4.2H152.86c8.7,12,21.6,11.88,47.5,12.24,23.1.48,23,.48,196.9,0v4.32c-1.4,1.68-3.1,4-3.1,5.28,0,2.28,3.7,7,4.8,7,.7,0,3-2.64,4.2-4.92h10.7a4.37,4.37,0,0,0,4.2,2.64,4.55,4.55,0,0,0,4.2-2.64h12.8a5.47,5.47,0,0,0,5.1,2.64c4.9-.24,6-3.72,6-15.72C446.06,411.24,441.16,410.16,431.46,410.4Zm2.2,20.28h-11.4a4.58,4.58,0,0,0-8.4,0h-10.5a15.66,15.66,0,0,0-2.8-3.72v-4.32h33.2A18.22,18.22,0,0,0,433.66,430.68Z"/></g></svg>