<?xml version="1.0" encoding="utf-8"?>
<!-- Generator: Adobe Illustrator 26.3.1, SVG Export Plug-In . SVG Version: 6.00 Build 0)  -->
<svg version="1.1" id="Layer_1" xmlns="http://www.w3.org/2000/svg" xmlns:xlink="http://www.w3.org/1999/xlink" x="0px" y="0px"
	 viewBox="0 0 600 600" style="enable-background:new 0 0 600 600;" xml:space="preserve">
<style type="text/css">
	.st0{fill:none;}
	.st1{fill:#FFFFFF;}
	.st2{fill:#D21034;}
	.st3{fill:#007229;}
</style>
<g>
	<path class="st0" d="M300,601.2c9.2,0,18.3-0.4,27.3-1.2h-54.6C281.7,600.8,290.8,601.2,300,601.2z"/>
	<g>
		<path d="M42.4,455c48,80.2,132.4,136.2,230.3,145h54.6c119.1-10.7,218.1-91.1,256-200H115.7L42.4,455z"/>
		<path class="st1" d="M582.5,200H115.7L249,300L115.7,400h467.7c10.8-30.9,16.7-64.1,16.7-98.8C600,265.7,593.8,231.6,582.5,200z"
			/>
		<path class="st2" d="M582.5,200C540.9,84.1,430.2,1.2,300,1.2C191.2,1.2,96,59.1,43.4,145.8l72.3,54.2H582.5z"/>
		<path class="st3" d="M115.7,200l-72.3-54.2c-10.3,17-19,35.2-25.8,54.2C6.2,231.6,0,265.7,0,301.2c0,34.6,5.9,67.8,16.7,98.8
			c6.7,19.3,15.4,37.7,25.7,55l73.3-55L249,300L115.7,200z"/>
	</g>
</g>
</svg>
