<?xml version="1.0" encoding="utf-8"?>
<!-- Generator: Adobe Illustrator 26.3.1, SVG Export Plug-In . SVG Version: 6.00 Build 0)  -->
<svg version="1.1" id="Layer_1" xmlns="http://www.w3.org/2000/svg" xmlns:xlink="http://www.w3.org/1999/xlink" x="0px" y="0px"
	 viewBox="0 0 600 600" style="enable-background:new 0 0 600 600;" xml:space="preserve">
<style type="text/css">
	.st0{fill:#CE1126;}
	.st1{fill:#F90000;}
</style>
<g>
	<path d="M271.5,599.6c-6.1-0.1-12.1-1.1-18.1-2.1c-14.8-2.3-29.4-5.7-43.8-10.3C166.3,573.4,128.1,551,95,519.9
		c-35-32.9-60.7-72-77.1-117.2c-0.3-0.7-0.7-1.4-0.6-2.3c0.4-0.5,1-0.5,1.5-0.5c0.8,0,1.6,0,2.4,0c186.1,0,372.1,0,558.2,0
		c1.3,0,2.7-0.4,4,0.5c-2.2,7-5,13.8-8,20.5c-13.8,31.8-32.7,60.3-56.4,85.6c-23.6,25.1-50.6,45.5-81.2,61.4
		c-25.2,13-51.7,22.2-79.5,27.7c-9.3,1.8-18.7,3.4-28.2,4c-0.4,0-0.8,0-1.2,0c-2.8,0.3-5.6,0.4-8.3,0.4c-13.5,0.1-27,0.1-40.5,0
		C277.2,600,274.3,599.9,271.5,599.6z"/>
	<path class="st0" d="M18.1,199.3c1.2-4.2,2.9-8.3,4.6-12.3c14.2-34.3,34-64.9,59.4-91.8c25-26.5,53.9-47.7,86.6-63.7
		c22.2-10.9,45.4-18.8,69.5-23.9c16.4-3.5,33.1-5.5,49.9-6.1c14.4-0.6,28.8-0.2,43.1,1.3c33.7,3.5,66,12.4,96.6,26.9
		c29,13.7,55.1,31.5,78.4,53.6c24.4,23.1,44.4,49.6,60,79.4c5.9,11.3,11.1,23,15.5,35c0.2,0.6,0.4,1.2,0.6,1.8
		c-1.2,0.8-2.6,0.4-4,0.4c-140.8,0-281.5,0-422.3,0c-44.9,0-89.7,0-134.6,0C20.4,199.8,19.2,200.2,18.1,199.3z"/>
	<path class="st1" d="M18.1,199.3c1.2,0,2.4,0.1,3.6,0.1c185.6,0,371.2,0,556.9,0c1.3,0,2.6,0,3.8,0c0.1,0.3,0.4,0.6,0.1,0.8
		c-0.2,0.1-0.4,0.2-0.7,0.2c-0.6,0-1.3,0-1.9,0c-186.4,0-372.8,0-559.2,0c-0.8,0-1.6,0-2.4,0c-0.4,0-0.6-0.2-0.5-0.6
		C18,199.6,18.1,199.5,18.1,199.3L18.1,199.3z"/>
	<path class="st0" d="M18.1,199.3c0,0.2-0.1,0.4-0.3,0.5C17.8,199.5,17.9,199.4,18.1,199.3z"/>
</g>
</svg>
